<svg width="134" height="45" viewBox="0 0 134 45" fill="none" xmlns="http://www.w3.org/2000/svg">
<path d="M120.531 15.4277H121.346V17.9304H121.674V15.4277H122.488V15.1294H120.531V15.4277Z" fill="#0004FF"/>
<path d="M125.395 15.1294L124.513 17.0736C124.48 17.1495 124.434 17.2634 124.376 17.4179H124.365C124.346 17.3447 124.302 17.2308 124.237 17.0817L123.371 15.1294H122.933V17.9277H123.253V16.054C123.253 15.7992 123.248 15.6175 123.237 15.5063H123.245C123.275 15.6365 123.302 15.7314 123.33 15.7937L124.291 17.9277H124.453L125.417 15.7775C125.442 15.7232 125.469 15.6337 125.502 15.5063H125.51C125.491 15.7205 125.483 15.9022 125.483 16.0513V17.9277H125.811V15.1294H125.398H125.395Z" fill="#0004FF"/>
<path d="M56.8216 15.8371V19.0855C55.9581 18.4781 55.0099 18.1744 53.9797 18.1744C53.1025 18.1744 52.2937 18.3886 51.5504 18.8171C50.7935 19.2563 50.1978 19.8502 49.7606 20.5931C49.3233 21.3361 49.1047 22.1441 49.1047 23.0118C49.1047 23.8795 49.3261 24.6957 49.7715 25.4223C50.2032 26.1734 50.7935 26.7646 51.5449 27.1984C52.2937 27.6322 53.108 27.8492 53.9824 27.8492C54.8568 27.8492 55.6547 27.6349 56.4117 27.2065C57.1686 26.7781 57.7643 26.206 58.2015 25.4929C58.6387 24.7797 58.8573 23.9988 58.8573 23.1528L58.8382 14.7606L56.8243 15.8317L56.8216 15.8371ZM56.4417 24.4272C56.1767 24.8556 55.8269 25.1973 55.3897 25.4549C54.9525 25.7125 54.4797 25.8399 53.9769 25.8399C53.4496 25.8399 52.9741 25.7098 52.556 25.4467C52.1242 25.1973 51.7799 24.8556 51.5204 24.4191C51.2635 23.9852 51.135 23.5189 51.135 23.0172C51.135 22.5156 51.2662 22.0248 51.5313 21.6072C51.7827 21.1788 52.1297 20.8371 52.5669 20.5795C53.0041 20.3247 53.4741 20.1945 53.9797 20.1945C54.4852 20.1945 54.9689 20.3192 55.4006 20.5687C55.8324 20.8317 56.1767 21.1788 56.4363 21.6127C56.6931 22.0465 56.8243 22.5129 56.8243 23.0145C56.8243 23.5161 56.6986 23.9961 56.4472 24.4245L56.4417 24.4272Z" fill="#0004FF"/>
<path d="M75.7721 18.7222C75.089 18.3697 74.3512 18.1962 73.5587 18.1962C72.7663 18.1962 72.0586 18.3697 71.3645 18.7141C70.6567 19.072 70.0966 19.5736 69.6812 20.2217C69.2658 20.8697 69.0609 21.6127 69.0609 22.4451V27.8546H71.0776V22.4451C71.0776 21.7537 71.318 21.2087 71.7962 20.8101C72.2744 20.4115 72.8647 20.2108 73.5587 20.2108C74.2528 20.2108 74.8239 20.4115 75.3049 20.8101C75.7831 21.2087 76.0235 21.7537 76.0235 22.4451V27.8546H78.0375L78.073 22.4451C78.073 21.6127 77.8626 20.8616 77.4418 20.1946C77.01 19.5628 76.4526 19.072 75.7694 18.7222H75.7721Z" fill="#0004FF"/>
<path d="M66.3967 23.6057C66.3967 24.2971 66.1562 24.8421 65.678 25.2407C65.1998 25.6393 64.6096 25.84 63.9155 25.84C63.2214 25.84 62.6503 25.6393 62.1694 25.2407C61.6912 24.8421 61.4507 24.2971 61.4507 23.6057V18.1962H59.4368L59.4012 23.6057C59.4012 24.4381 59.6117 25.1892 60.0325 25.8562C60.4642 26.488 61.0217 26.9788 61.7048 27.3286C62.388 27.6811 63.1258 27.8546 63.9182 27.8546C64.7107 27.8546 65.4184 27.6811 66.1125 27.3367C66.8202 26.9788 67.3804 26.4772 67.7958 25.8291C68.2111 25.1811 68.4161 24.4381 68.4161 23.6057V18.1962H66.3994V23.6057H66.3967Z" fill="#0004FF"/>
<path d="M116.398 23.6057C116.398 24.2971 116.157 24.8421 115.679 25.2407C115.201 25.6393 114.61 25.84 113.916 25.84C113.222 25.84 112.651 25.6393 112.17 25.2407C111.692 24.8421 111.452 24.2971 111.452 23.6057V18.1962H109.438L109.402 23.6057C109.402 24.4381 109.613 25.1892 110.033 25.8562C110.465 26.488 111.023 26.9788 111.706 27.3286C112.389 27.6784 113.127 27.8546 113.919 27.8546C114.712 27.8546 115.419 27.6811 116.113 27.3367C116.821 26.9788 117.381 26.4772 117.797 25.8291C118.212 25.1811 118.417 24.4381 118.417 23.6057V18.1962H116.4V23.6057H116.398Z" fill="#0004FF"/>
<path d="M65.6779 29.5465C65.1997 29.9451 64.6095 30.1458 63.9154 30.1458C63.2213 30.1458 62.6502 29.9451 62.1693 29.5465C61.6911 29.1479 61.4506 28.6029 61.4506 27.9115H59.3984C59.3984 28.7439 59.6088 29.495 60.0297 30.1621C60.4614 30.7938 61.0189 31.2846 61.702 31.6344C62.3852 31.9869 63.1229 32.1605 63.9154 32.1605C64.7078 32.1605 65.4156 31.9869 66.1097 31.6426C66.8174 31.2846 67.3776 30.783 67.7929 30.135C68.2083 29.4869 68.4132 28.7439 68.4132 27.9115H66.3966C66.3966 28.6029 66.1561 29.1479 65.6779 29.5465Z" fill="#0004FF"/>
<path d="M115.679 29.5465C115.201 29.9451 114.61 30.1458 113.916 30.1458C113.222 30.1458 112.651 29.9451 112.17 29.5465C111.692 29.1479 111.452 28.6029 111.452 27.9115H109.399C109.399 28.7439 109.61 29.495 110.031 30.1621C110.462 30.7938 111.02 31.2846 111.703 31.6344C112.386 31.9842 113.124 32.1605 113.916 32.1605C114.709 32.1605 115.417 31.9869 116.111 31.6426C116.818 31.2846 117.379 30.783 117.794 30.135C118.209 29.4869 118.414 28.7439 118.414 27.9115H116.398C116.398 28.6029 116.157 29.1479 115.679 29.5465Z" fill="#0004FF"/>
<path d="M85.9238 18.8279C85.1669 18.3941 84.3581 18.1771 83.4946 18.1771C82.6311 18.1771 81.8086 18.3913 81.0653 18.8198C80.3084 19.259 79.7127 19.8529 79.2755 20.5958C78.8382 21.3388 78.6196 22.1468 78.6196 23.0145C78.6196 23.8822 78.841 24.6984 79.2836 25.425C79.7154 26.1761 80.3056 26.7673 81.0571 27.2011C81.8058 27.6349 82.6201 27.8519 83.4946 27.8519C84.369 27.8519 85.197 27.6322 85.943 27.1902C86.6862 26.7618 87.2765 26.1761 87.7164 25.4305C88.1536 24.6875 88.3722 23.8795 88.3722 23.0118C88.3722 22.1441 88.1564 21.3333 87.7246 20.585C87.2819 19.8474 86.6808 19.2617 85.9266 18.8252L85.9238 18.8279ZM85.8337 24.354C85.5932 24.7716 85.268 25.097 84.8527 25.3356C84.44 25.5742 83.9864 25.6935 83.4946 25.6935C83.0027 25.6935 82.5655 25.5742 82.1447 25.3356C81.7239 25.097 81.3959 24.7743 81.1555 24.3621C80.915 23.9527 80.7948 23.5026 80.7948 23.0145C80.7948 22.5264 80.915 22.0736 81.1555 21.6587C81.3959 21.2412 81.7211 20.9185 82.1365 20.6853C82.5491 20.4521 83.0027 20.3382 83.4946 20.3382C83.9864 20.3382 84.4428 20.4575 84.8609 20.6961C85.2817 20.9348 85.6069 21.2574 85.8419 21.6696C86.0769 22.079 86.1916 22.5291 86.1916 23.0172C86.1916 23.5053 86.0714 23.9391 85.8309 24.3567L85.8337 24.354Z" fill="#0004FF"/>
<path d="M96.2169 18.8117C95.46 18.3778 94.6512 18.1609 93.7877 18.1609C92.9242 18.1609 92.1208 18.3697 91.3775 18.7845C90.6097 19.213 90.0058 19.7878 89.5685 20.5091C89.1313 21.2303 88.9127 22.0113 88.9127 22.8573L88.9318 31.2494L90.9458 30.1784V26.93C91.8093 27.5374 92.7575 27.841 93.7877 27.841C94.6758 27.841 95.4901 27.6214 96.2361 27.1794C96.9793 26.751 97.5696 26.1653 98.0095 25.4197C98.4467 24.6767 98.6653 23.8687 98.6653 23.001C98.6653 22.1333 98.4494 21.3225 98.0177 20.5714C97.575 19.8339 96.9739 19.2482 96.2197 18.8117H96.2169ZM96.2525 24.4083C95.9901 24.8367 95.6376 25.1783 95.2004 25.4359C94.7632 25.6908 94.2932 25.821 93.7877 25.821C93.2821 25.821 92.7875 25.6908 92.3667 25.4278C91.935 25.1783 91.5907 24.8367 91.3311 24.4001C91.0742 23.9663 90.943 23.4972 90.943 22.9983C90.943 22.4993 91.0742 22.0031 91.3393 21.5883C91.5907 21.1598 91.935 20.8182 92.3749 20.5606C92.8121 20.3057 93.2849 20.1756 93.7877 20.1756C94.2905 20.1756 94.7769 20.3003 95.2086 20.5497C95.6404 20.8128 95.9847 21.1598 96.2443 21.5937C96.5011 22.0275 96.6296 22.4966 96.6296 22.9955C96.6296 23.4945 96.5039 23.9771 96.2525 24.4055V24.4083Z" fill="#0004FF"/>
<path d="M106.505 18.7927C105.757 18.3697 104.948 18.1582 104.084 18.1582C103.221 18.1582 102.398 18.3724 101.655 18.8008C100.898 19.2401 100.302 19.8339 99.8652 20.5769C99.4279 21.3199 99.2094 22.1279 99.2094 22.9956C99.2094 23.8633 99.4307 24.6794 99.8761 25.4061C100.308 26.1572 100.898 26.7483 101.65 27.1822C102.398 27.616 103.213 27.8329 104.087 27.8329C105.12 27.8329 106.065 27.5292 106.929 26.9219V27.7787H108.943L108.962 22.8492C108.962 22.0032 108.741 21.2195 108.295 20.4928C107.853 19.7797 107.254 19.2103 106.505 18.7873V18.7927ZM106.549 24.4083C106.284 24.8367 105.934 25.1784 105.497 25.436C105.06 25.6908 104.587 25.821 104.084 25.821C103.557 25.821 103.081 25.6908 102.663 25.4278C102.232 25.1783 101.887 24.8367 101.628 24.4001C101.371 23.9663 101.242 23.4972 101.242 22.9983C101.242 22.4994 101.374 22.0032 101.639 21.5883C101.89 21.1599 102.234 20.8182 102.674 20.5606C103.114 20.303 103.581 20.1756 104.087 20.1756C104.593 20.1756 105.076 20.3003 105.508 20.5498C105.94 20.8128 106.284 21.1599 106.544 21.5937C106.8 22.0276 106.932 22.4967 106.932 22.9956C106.932 23.4945 106.806 23.9772 106.555 24.4056L106.549 24.4083Z" fill="#0004FF"/>
<path d="M33.4878 6.4037C32.1653 6.4037 31.0285 10.4005 30.5312 16.1191C30.5203 16.252 30.3235 16.2493 30.3153 16.1137C29.7688 7.51 28.1648 1.2762 26.2711 1.2762C24.7408 1.2762 23.3991 5.34621 22.6531 11.4471C22.604 11.8566 22.0028 11.8566 21.9563 11.4471C21.1994 5.06692 19.8113 0.796265 18.2264 0.796265C16.9967 0.796265 15.8873 3.36136 15.0975 7.4856C14.9554 8.22313 13.8815 8.22313 13.7422 7.4856C12.9525 3.36136 11.843 0.796265 10.6134 0.796265C9.73894 0.796265 8.92463 2.09779 8.24422 4.3348C8.01468 5.09132 6.94077 5.09132 6.71123 4.3348C6.03082 2.09779 5.2165 0.796265 4.34208 0.796265C1.94286 0.796265 0 10.5686 0 22.6213C0 34.6741 1.94286 44.4464 4.34208 44.4464C5.2165 44.4464 6.03082 43.1449 6.71123 40.9079C6.94077 40.1514 8.01468 40.1514 8.24422 40.9079C8.92463 43.1449 9.73894 44.4464 10.6134 44.4464C11.843 44.4464 12.9525 41.8813 13.7422 37.7571C13.8843 37.0196 14.9582 37.0196 15.0975 37.7571C15.8873 41.8813 16.9967 44.4464 18.2264 44.4464C19.8113 44.4464 21.1994 40.1731 21.9563 33.7928C22.0055 33.3834 22.604 33.3834 22.6559 33.7928C23.4019 39.8965 24.7436 43.9638 26.2738 43.9638C28.1675 43.9638 29.7715 37.7327 30.3181 29.1263C30.3262 28.9934 30.523 28.988 30.5339 29.1209C31.0312 34.8395 32.168 38.8363 33.4906 38.8363C35.1766 38.8363 36.5593 32.3422 36.7041 24.0639C36.7287 22.4722 36.7178 22.4614 36.7041 21.1734C36.5593 12.8951 35.1766 6.40099 33.4906 6.40099L33.4878 6.4037Z" fill="#0004FF"/>
<path d="M38.2892 18.296C37.9149 18.296 37.5979 19.4999 37.4776 21.1757C37.4776 21.1757 37.3629 22.7185 37.4776 24.0662C37.5951 25.7419 37.9149 26.9458 38.2892 26.9458C38.7647 26.9458 39.15 25.0098 39.15 22.6209C39.15 20.2321 38.7647 18.296 38.2892 18.296Z" fill="#0004FF"/>
</svg>
