<svg width="24" height="24" viewBox="0 0 24 24" fill="none" xmlns="http://www.w3.org/2000/svg">
<path d="M23.6383 14.9031C22.0356 21.3317 15.5244 25.2441 9.09506 23.641C2.6683 22.0382 -1.24408 15.5267 0.359423 9.09848C1.96143 2.6691 8.47256 -1.24365 14.9001 0.359099C21.3291 1.96185 25.2411 8.47411 23.6383 14.9031Z" fill="#F7931A"/>
<path d="M17.2895 10.2908C17.5284 8.69402 16.3127 7.83565 14.6503 7.26302L15.1895 5.10002L13.8729 4.77189L13.3479 6.87789C13.0018 6.79164 12.6463 6.71027 12.293 6.62964L12.8218 4.50977L11.5059 4.18164L10.9663 6.34389C10.6798 6.27864 10.3985 6.21414 10.1255 6.14627L10.127 6.13952L8.31127 5.68614L7.96102 7.09239C7.96102 7.09239 8.93789 7.31627 8.91727 7.33014C9.45052 7.46327 9.54689 7.81615 9.53077 8.0959L8.91652 10.56C8.95327 10.5694 9.00089 10.5829 9.05339 10.6039C9.00952 10.593 8.96264 10.581 8.91427 10.5694L8.05327 14.0213C7.98802 14.1833 7.82264 14.4263 7.44989 14.334C7.46302 14.3532 6.49289 14.0952 6.49289 14.0952L5.83926 15.6023L7.55264 16.0294C7.87139 16.1093 8.18377 16.1929 8.49127 16.2717L7.94639 18.4594L9.26152 18.7875L9.80114 16.623C10.1604 16.7205 10.5091 16.8105 10.8504 16.8953L10.3126 19.0497L11.6293 19.3778L12.1741 17.1942C14.4193 17.619 16.1075 17.4477 16.8182 15.417C17.3908 13.782 16.7897 12.8389 15.6084 12.2239C16.4687 12.0255 17.1167 11.4597 17.2895 10.2908ZM14.2813 14.5092C13.8744 16.1442 11.1215 15.2603 10.229 15.0387L10.952 12.1403C11.8445 12.363 14.7065 12.804 14.2813 14.5092ZM14.6885 10.2671C14.3173 11.7544 12.026 10.9988 11.2828 10.8135L11.9383 8.18477C12.6815 8.37002 15.0751 8.71577 14.6885 10.2671Z" fill="white"/>
</svg>
