<svg width="24" height="24" viewBox="0 0 24 24" fill="none" xmlns="http://www.w3.org/2000/svg">
<path d="M11.9985 0C5.37216 0 0 5.37468 0 11.9997C0 18.6247 5.37216 23.9975 11.9985 23.9975C18.6248 23.9975 23.9974 18.6261 23.9974 11.9997C24.0163 5.39259 18.6757 0.0212158 12.0687 0H11.9985ZM12.2022 12.4047L10.9527 16.6167H17.6347C17.724 16.6135 17.811 16.646 17.8764 16.7069C17.9418 16.7678 17.9804 16.8522 17.9836 16.9416V17.0519L17.4027 19.0589C17.3771 19.1537 17.32 19.237 17.2409 19.2951C17.1617 19.3531 17.0651 19.3826 16.967 19.3785H6.74042L8.45429 13.5395L6.53674 14.1203L6.97286 12.7842L8.88994 12.2029L11.3016 4.01074C11.3281 3.91646 11.3854 3.83377 11.4644 3.77583C11.5433 3.7179 11.6394 3.68807 11.7373 3.69108H14.3229C14.4123 3.68803 14.4992 3.72059 14.5645 3.78159C14.6298 3.8426 14.6683 3.92706 14.6714 4.01639V4.12719L12.6378 11.0412L14.5554 10.4599L14.1494 11.8545L12.2022 12.4047Z" fill="#345D9D"/>
</svg>
