<svg width="134" height="45" viewBox="0 0 134 45" fill="none" xmlns="http://www.w3.org/2000/svg">
<g clip-path="url(#clip0_2056_32162)">
<path d="M122.183 15.5185H122.997V18.0212H123.325V15.5185H124.139V15.2202H122.183V15.5185Z" fill="white"/>
<path d="M127.047 15.2202L126.164 17.1644C126.131 17.2403 126.085 17.3542 126.028 17.5087H126.017C125.997 17.4355 125.954 17.3217 125.888 17.1725L125.022 15.2202H124.585V18.0185H124.904V16.1449C124.904 15.89 124.899 15.7083 124.888 15.5971H124.896C124.926 15.7273 124.954 15.8222 124.981 15.8845L125.943 18.0185H126.104L127.069 15.8683C127.093 15.814 127.121 15.7246 127.153 15.5971H127.162C127.142 15.8113 127.134 15.993 127.134 16.1421V18.0185H127.462V15.2202H127.05H127.047Z" fill="white"/>
<path d="M58.4729 15.928V19.1765C57.6094 18.5691 56.6612 18.2654 55.631 18.2654C54.7539 18.2654 53.945 18.4796 53.2018 18.908C52.4448 19.3473 51.8491 19.9411 51.4119 20.6841C50.9747 21.427 50.7561 22.2351 50.7561 23.1027C50.7561 23.9704 50.9774 24.7866 51.4229 25.5133C51.8546 26.2644 52.4448 26.8555 53.1963 27.2893C53.945 27.7232 54.7594 27.9401 55.6338 27.9401C56.5082 27.9401 57.3061 27.7259 58.063 27.2975C58.82 26.869 59.4157 26.2969 59.8529 25.5838C60.2901 24.8707 60.5087 24.0897 60.5087 23.2437L60.4896 14.8516L58.4757 15.9226L58.4729 15.928ZM58.0931 24.5181C57.828 24.9466 57.4783 25.2882 57.0411 25.5458C56.6038 25.8034 56.1311 25.9309 55.6283 25.9309C55.1009 25.9309 54.6254 25.8007 54.2074 25.5377C53.7756 25.2882 53.4313 24.9466 53.1717 24.51C52.9149 24.0762 52.7864 23.6098 52.7864 23.1082C52.7864 22.6065 52.9176 22.1157 53.1826 21.6982C53.434 21.2697 53.7811 20.9281 54.2183 20.6705C54.6555 20.4156 55.1255 20.2855 55.631 20.2855C56.1366 20.2855 56.6202 20.4102 57.052 20.6597C57.4837 20.9227 57.828 21.2698 58.0876 21.7036C58.3445 22.1374 58.4757 22.6038 58.4757 23.1055C58.4757 23.6071 58.35 24.087 58.0986 24.5155L58.0931 24.5181Z" fill="white"/>
<path d="M77.4235 18.8131C76.7404 18.4606 76.0026 18.2871 75.2101 18.2871C74.4177 18.2871 73.7099 18.4607 73.0158 18.805C72.3081 19.1629 71.7479 19.6646 71.3326 20.3126C70.9172 20.9607 70.7123 21.7036 70.7123 22.5361V27.9456H72.7289V22.5361C72.7289 21.8446 72.9694 21.2996 73.4476 20.901C73.9258 20.5024 74.516 20.3018 75.2101 20.3018C75.9042 20.3018 76.4753 20.5024 76.9562 20.901C77.4344 21.2996 77.6749 21.8446 77.6749 22.5361V27.9456H79.6888L79.7243 22.5361C79.7243 21.7036 79.5139 20.9525 79.0931 20.2855C78.6614 19.6537 78.1039 19.1629 77.4208 18.8131H77.4235Z" fill="white"/>
<path d="M68.048 23.6966C68.048 24.388 67.8076 24.9331 67.3294 25.3317C66.8512 25.7302 66.2609 25.9309 65.5669 25.9309C64.8728 25.9309 64.3017 25.7302 63.8207 25.3317C63.3425 24.9331 63.1021 24.388 63.1021 23.6966V18.2871H61.0881L61.0526 23.6966C61.0526 24.529 61.263 25.2801 61.6838 25.9472C62.1156 26.579 62.6731 27.0697 63.3562 27.4195C64.0393 27.772 64.7771 27.9456 65.5696 27.9456C66.362 27.9456 67.0698 27.772 67.7638 27.4277C68.4716 27.0698 69.0318 26.5681 69.4471 25.9201C69.8625 25.272 70.0674 24.529 70.0674 23.6966V18.2871H68.0508V23.6966H68.048Z" fill="white"/>
<path d="M118.049 23.6966C118.049 24.388 117.808 24.9331 117.33 25.3317C116.852 25.7302 116.262 25.9309 115.568 25.9309C114.874 25.9309 114.303 25.7302 113.822 25.3317C113.343 24.9331 113.103 24.388 113.103 23.6966V18.2871H111.089L111.053 23.6966C111.053 24.529 111.264 25.2801 111.685 25.9472C112.116 26.579 112.674 27.0697 113.357 27.4195C114.04 27.7693 114.778 27.9456 115.57 27.9456C116.363 27.9456 117.071 27.772 117.765 27.4277C118.472 27.0698 119.033 26.5681 119.448 25.9201C119.863 25.272 120.068 24.529 120.068 23.6966V18.2871H118.052V23.6966H118.049Z" fill="white"/>
<path d="M67.3293 29.6375C66.8511 30.0361 66.2608 30.2367 65.5668 30.2367C64.8727 30.2367 64.3016 30.0361 63.8206 29.6375C63.3424 29.2389 63.102 28.6939 63.102 28.0024H61.0498C61.0498 28.8349 61.2602 29.586 61.681 30.253C62.1128 30.8848 62.6702 31.3756 63.3534 31.7254C64.0365 32.0779 64.7743 32.2514 65.5668 32.2514C66.3592 32.2514 67.067 32.0779 67.761 31.7335C68.4688 31.3756 69.029 30.874 69.4443 30.2259C69.8597 29.5778 70.0646 28.8349 70.0646 28.0024H68.048C68.048 28.6939 67.8075 29.2389 67.3293 29.6375Z" fill="white"/>
<path d="M117.33 29.6375C116.852 30.0361 116.262 30.2367 115.568 30.2367C114.874 30.2367 114.303 30.0361 113.822 29.6375C113.343 29.2389 113.103 28.6939 113.103 28.0024H111.051C111.051 28.8349 111.261 29.586 111.682 30.253C112.114 30.8848 112.671 31.3756 113.354 31.7254C114.037 32.0752 114.775 32.2514 115.568 32.2514C116.36 32.2514 117.068 32.0779 117.762 31.7335C118.47 31.3756 119.03 30.874 119.445 30.2259C119.861 29.5778 120.066 28.8349 120.066 28.0024H118.049C118.049 28.6939 117.808 29.2389 117.33 29.6375Z" fill="white"/>
<path d="M87.5752 18.9188C86.8183 18.485 86.0094 18.2681 85.1459 18.2681C84.2824 18.2681 83.4599 18.4823 82.7167 18.9107C81.9597 19.35 81.364 19.9438 80.9268 20.6868C80.4896 21.4297 80.271 22.2378 80.271 23.1054C80.271 23.9731 80.4923 24.7893 80.935 25.516C81.3668 26.2671 81.957 26.8582 82.7085 27.292C83.4572 27.7259 84.2715 27.9428 85.1459 27.9428C86.0204 27.9428 86.8483 27.7232 87.5943 27.2812C88.3376 26.8528 88.9278 26.2671 89.3678 25.5214C89.805 24.7784 90.0236 23.9704 90.0236 23.1027C90.0236 22.235 89.8077 21.4243 89.376 20.6759C88.9333 19.9384 88.3321 19.3527 87.5779 18.9161L87.5752 18.9188ZM87.485 24.4449C87.2446 24.8625 86.9194 25.1879 86.504 25.4265C86.0914 25.6651 85.6378 25.7844 85.1459 25.7844C84.6541 25.7844 84.2169 25.6651 83.796 25.4265C83.3752 25.1879 83.0473 24.8652 82.8068 24.4531C82.5664 24.0436 82.4461 23.5935 82.4461 23.1054C82.4461 22.6174 82.5664 22.1645 82.8068 21.7497C83.0473 21.3321 83.3725 21.0094 83.7878 20.7762C84.2005 20.543 84.6541 20.4292 85.1459 20.4292C85.6378 20.4292 86.0941 20.5485 86.5122 20.7871C86.933 21.0257 87.2582 21.3484 87.4932 21.7605C87.7282 22.17 87.843 22.6201 87.843 23.1082C87.843 23.5962 87.7228 24.0301 87.4823 24.4476L87.485 24.4449Z" fill="white"/>
<path d="M97.8683 18.9027C97.1114 18.4689 96.3025 18.252 95.439 18.252C94.5755 18.252 93.7721 18.4607 93.0289 18.8756C92.261 19.304 91.6571 19.8789 91.2199 20.6001C90.7827 21.3214 90.5641 22.1023 90.5641 22.9483L90.5832 31.3405L92.5971 30.2694V27.021C93.4606 27.6284 94.4088 27.9321 95.439 27.9321C96.3271 27.9321 97.1414 27.7125 97.8874 27.2705C98.6307 26.8421 99.2209 26.2564 99.6609 25.5107C100.098 24.7678 100.317 23.9597 100.317 23.092C100.317 22.2244 100.101 21.4136 99.6691 20.6625C99.2264 19.925 98.6252 19.3393 97.871 18.9027H97.8683ZM97.9038 24.4993C97.6415 24.9277 97.289 25.2694 96.8518 25.527C96.4146 25.7819 95.9446 25.912 95.439 25.912C94.9335 25.912 94.4389 25.7819 94.0181 25.5188C93.5863 25.2694 93.242 24.9277 92.9824 24.4912C92.7256 24.0573 92.5944 23.5882 92.5944 23.0893C92.5944 22.5904 92.7256 22.0942 92.9906 21.6793C93.242 21.2509 93.5863 20.9093 94.0263 20.6517C94.4635 20.3968 94.9362 20.2666 95.439 20.2666C95.9418 20.2666 96.4282 20.3913 96.86 20.6408C97.2917 20.9038 97.636 21.2509 97.8956 21.6848C98.1525 22.1186 98.2809 22.5877 98.2809 23.0866C98.2809 23.5855 98.1552 24.0682 97.9038 24.4966V24.4993Z" fill="white"/>
<path d="M108.157 18.8835C107.408 18.4605 106.599 18.249 105.736 18.249C104.872 18.249 104.05 18.4632 103.306 18.8917C102.549 19.3309 101.954 19.9248 101.517 20.6677C101.079 21.4107 100.861 22.2187 100.861 23.0864C100.861 23.9541 101.082 24.7703 101.527 25.4969C101.959 26.248 102.549 26.8392 103.301 27.273C104.05 27.7068 104.864 27.9238 105.738 27.9238C106.771 27.9238 107.717 27.6201 108.58 27.0127V27.8695H110.594L110.613 22.94C110.613 22.094 110.392 21.3104 109.947 20.5837C109.504 19.8705 108.905 19.3011 108.157 18.8781V18.8835ZM108.2 24.4991C107.935 24.9275 107.586 25.2692 107.148 25.5268C106.711 25.7817 106.238 25.9118 105.736 25.9118C105.208 25.9118 104.733 25.7816 104.315 25.5186C103.883 25.2692 103.539 24.9275 103.279 24.491C103.022 24.0571 102.894 23.588 102.894 23.0891C102.894 22.5902 103.025 22.094 103.29 21.6791C103.541 21.2507 103.886 20.909 104.326 20.6514C104.766 20.3939 105.233 20.2664 105.738 20.2664C106.244 20.2664 106.728 20.3911 107.159 20.6406C107.591 20.9036 107.935 21.2507 108.195 21.6845C108.452 22.1184 108.583 22.5875 108.583 23.0864C108.583 23.5853 108.457 24.068 108.206 24.4964L108.2 24.4991Z" fill="white"/>
<path d="M35.1392 6.49464C33.8166 6.49464 32.6799 10.4914 32.1826 16.2101C32.1716 16.3429 31.9749 16.3402 31.9667 16.2046C31.4202 7.60095 29.8161 1.36714 27.9224 1.36714C26.3922 1.36714 25.0505 5.43715 24.3045 11.5381C24.2553 11.9475 23.6542 11.9475 23.6077 11.5381C22.8508 5.15786 21.4626 0.887207 19.8777 0.887207C18.6481 0.887207 17.5386 3.45231 16.7489 7.57654C16.6068 8.31408 15.5329 8.31408 15.3935 7.57654C14.6038 3.45231 13.4944 0.887207 12.2647 0.887207C11.3903 0.887207 10.576 2.18874 9.89558 4.42575C9.66605 5.18226 8.59214 5.18226 8.3626 4.42575C7.68219 2.18874 6.86787 0.887207 5.99344 0.887207C3.59423 0.887207 1.65137 10.6595 1.65137 22.7123C1.65137 34.765 3.59423 44.5374 5.99344 44.5374C6.86787 44.5374 7.68219 43.2358 8.3626 40.9988C8.59214 40.2423 9.66605 40.2423 9.89558 40.9988C10.576 43.2358 11.3903 44.5374 12.2647 44.5374C13.4944 44.5374 14.6038 41.9723 15.3935 37.848C15.5356 37.1105 16.6095 37.1105 16.7489 37.848C17.5386 41.9723 18.6481 44.5374 19.8777 44.5374C21.4626 44.5374 22.8508 40.264 23.6077 33.8838C23.6569 33.4743 24.2553 33.4743 24.3072 33.8838C25.0532 39.9874 26.3949 44.0547 27.9252 44.0547C29.8189 44.0547 31.4229 37.8236 31.9694 29.2172C31.9776 29.0844 32.1744 29.0789 32.1853 29.2118C32.6826 34.9304 33.8194 38.9272 35.1419 38.9272C36.828 38.9272 38.2106 32.4331 38.3555 24.1548C38.3801 22.5632 38.3691 22.5523 38.3555 21.2643C38.2106 12.986 36.828 6.49193 35.1419 6.49193L35.1392 6.49464Z" fill="white"/>
<path d="M39.9406 18.3872C39.5662 18.3872 39.2492 19.5911 39.129 21.2668C39.129 21.2668 39.0142 22.8097 39.129 24.1573C39.2465 25.8331 39.5662 27.037 39.9406 27.037C40.4161 27.037 40.8014 25.101 40.8014 22.7121C40.8014 20.3232 40.4161 18.3872 39.9406 18.3872Z" fill="white"/>
</g>
<defs>
<clipPath id="clip0_2056_32162">
<rect width="134" height="45" fill="white"/>
</clipPath>
</defs>
</svg>
