<svg width="12" height="20" viewBox="0 0 12 20" fill="none" xmlns="http://www.w3.org/2000/svg">
<path d="M3.329 19.0274V11.7534H0.545C0.400457 11.7534 0.261834 11.696 0.159627 11.5938C0.0574196 11.4916 0 11.353 0 11.2084V8.33141C0 8.18687 0.0574196 8.04825 0.159627 7.94604C0.261834 7.84383 0.400457 7.78641 0.545 7.78641H3.318V5.00141C3.25166 4.34097 3.33073 3.674 3.54965 3.04737C3.76856 2.42074 4.12202 1.84963 4.58519 1.37417C5.04836 0.898707 5.61001 0.530414 6.23069 0.295161C6.85138 0.0599081 7.51604 -0.0366004 8.178 0.0124143H10.498C10.6439 0.0121283 10.7841 0.0692158 10.8883 0.171361C10.9925 0.273506 11.0524 0.412521 11.055 0.558414V2.99441C11.0519 3.14005 10.9918 3.27866 10.8877 3.38054C10.7836 3.48241 10.6437 3.53945 10.498 3.53941H9.048C7.482 3.53941 7.181 4.28141 7.181 5.37241V7.78541H10.904C10.9814 7.78285 11.0584 7.79717 11.1297 7.82739C11.2009 7.8576 11.2648 7.90298 11.3168 7.96037C11.3687 8.01776 11.4076 8.08578 11.4306 8.1597C11.4536 8.23362 11.4602 8.31167 11.45 8.38841L11.113 11.2764C11.0961 11.4087 11.0313 11.5302 10.9309 11.6179C10.8305 11.7056 10.7013 11.7535 10.568 11.7524H7.204V19.0264C7.20589 19.1549 7.18196 19.2825 7.13361 19.4016C7.08527 19.5207 7.01351 19.6289 6.92258 19.7197C6.83165 19.8105 6.7234 19.8822 6.60426 19.9304C6.48512 19.9786 6.35751 20.0024 6.229 20.0004H4.292C4.16449 20.0008 4.03818 19.9758 3.92044 19.9269C3.80269 19.878 3.69588 19.8061 3.60623 19.7154C3.51658 19.6247 3.4459 19.5171 3.3983 19.3988C3.3507 19.2805 3.32714 19.1549 3.329 19.0274Z" fill="white"/>
</svg>
