<svg width="28" height="28" viewBox="0 0 28 28" fill="none" xmlns="http://www.w3.org/2000/svg">
<path d="M23.3333 15.1669C23.3333 21.0002 19.25 23.9169 14.3966 25.6085C14.1425 25.6947 13.8664 25.6905 13.615 25.5969C8.74996 23.9169 4.66663 21.0002 4.66663 15.1669V7.0002C4.66663 6.69078 4.78954 6.39403 5.00833 6.17524C5.22713 5.95645 5.52387 5.83353 5.83329 5.83353C8.16663 5.83353 11.0833 4.43353 13.1133 2.6602C13.3605 2.44903 13.6749 2.33301 14 2.33301C14.325 2.33301 14.6395 2.44903 14.8866 2.6602C16.9283 4.4452 19.8333 5.83353 22.1666 5.83353C22.476 5.83353 22.7728 5.95645 22.9916 6.17524C23.2104 6.39403 23.3333 6.69078 23.3333 7.0002V15.1669Z" stroke="#0004FF" stroke-width="2.33333" stroke-linecap="round" stroke-linejoin="round"/>
</svg>
