<svg width="14" height="14" viewBox="0 0 14 14" fill="none" xmlns="http://www.w3.org/2000/svg">
<path d="M2.42684e-06 1.61538C2.42684e-06 1.18696 0.170194 0.776079 0.473138 0.473135C0.776081 0.170192 1.18696 0 1.61539 0H10.6346C11.0987 0 11.5439 0.184374 11.8721 0.512563C12.2002 0.840752 12.3846 1.28587 12.3846 1.75V2.29169C13.3258 2.62446 14 3.52208 14 4.57692V11.5769C14 12.2196 13.7447 12.8359 13.2903 13.2903C12.8359 13.7447 12.2196 14 11.5769 14H2.42308C1.78044 14 1.16412 13.7447 0.709705 13.2903C0.25529 12.8359 2.42684e-06 12.2196 2.42684e-06 11.5769V1.75H0.00538704C0.00172098 1.70522 -7.54497e-05 1.66031 2.42684e-06 1.61538ZM11.3077 1.75C11.3077 1.37846 11.0062 1.07692 10.6346 1.07692H1.61539C1.47258 1.07692 1.33562 1.13365 1.23464 1.23463C1.13366 1.33562 1.07693 1.47258 1.07693 1.61538C1.07693 1.75819 1.13366 1.89515 1.23464 1.99613C1.33562 2.09712 1.47258 2.15385 1.61539 2.15385H11.3077V1.75ZM9.69231 8.07692C9.5495 8.07692 9.41254 8.13365 9.31156 8.23463C9.21058 8.33562 9.15385 8.47258 9.15385 8.61539C9.15385 8.75819 9.21058 8.89515 9.31156 8.99614C9.41254 9.09712 9.5495 9.15385 9.69231 9.15385H11.3077C11.4505 9.15385 11.5875 9.09712 11.6884 8.99614C11.7894 8.89515 11.8462 8.75819 11.8462 8.61539C11.8462 8.47258 11.7894 8.33562 11.6884 8.23463C11.5875 8.13365 11.4505 8.07692 11.3077 8.07692H9.69231Z" fill="#242428"/>
</svg>
