<svg width="302" height="259" viewBox="0 0 302 259" fill="none" xmlns="http://www.w3.org/2000/svg">
<g filter="url(#filter0_d_2056_32234)">
<rect x="16" y="12" width="270" height="227" rx="14" fill="white"/>
<rect x="16.5" y="12.5" width="269" height="226" rx="13.5" stroke="#E9ECF2"/>
<path d="M30 28C30 27.6022 30.158 27.2206 30.4393 26.9393C30.7206 26.658 31.1022 26.5 31.5 26.5H39.875C40.306 26.5 40.7193 26.6712 41.024 26.976C41.3288 27.2807 41.5 27.694 41.5 28.125V28.628C42.374 28.937 43 29.7705 43 30.75V37.25C43 37.8467 42.7629 38.419 42.341 38.841C41.919 39.2629 41.3467 39.5 40.75 39.5H32.25C31.6533 39.5 31.081 39.2629 30.659 38.841C30.2371 38.419 30 37.8467 30 37.25V28.125H30.005C30.0016 28.0834 29.9999 28.0417 30 28ZM40.5 28.125C40.5 27.78 40.22 27.5 39.875 27.5H31.5C31.3674 27.5 31.2402 27.5527 31.1464 27.6464C31.0527 27.7402 31 27.8674 31 28C31 28.1326 31.0527 28.2598 31.1464 28.3536C31.2402 28.4473 31.3674 28.5 31.5 28.5H40.5V28.125ZM39 34C38.8674 34 38.7402 34.0527 38.6464 34.1464C38.5527 34.2402 38.5 34.3674 38.5 34.5C38.5 34.6326 38.5527 34.7598 38.6464 34.8536C38.7402 34.9473 38.8674 35 39 35H40.5C40.6326 35 40.7598 34.9473 40.8536 34.8536C40.9473 34.7598 41 34.6326 41 34.5C41 34.3674 40.9473 34.2402 40.8536 34.1464C40.7598 34.0527 40.6326 34 40.5 34H39Z" fill="#242428"/>
<path d="M53.4175 27.5H54.94L58.7575 38H57.4225L56.6425 35.855H51.715L50.9425 38H49.6L53.4175 27.5ZM52.18 34.595H56.1775L54.175 29.1125L52.18 34.595ZM60.1246 38V26.75H61.3846V38H60.1246ZM63.1861 38V26.75H64.4461V38H63.1861ZM72.0562 38L69.3712 27.5H70.6687L72.7837 35.7875L74.8912 27.5H76.0237L78.1387 35.7875L80.2462 27.5H81.5437L78.8737 38H77.4037L75.4612 30.395L73.5187 38H72.0562ZM88.0247 30.5H89.2847V38H88.0247L87.9722 36.7325C87.7372 37.1675 87.4122 37.52 86.9972 37.79C86.5872 38.06 86.0972 38.195 85.5272 38.195C84.9772 38.195 84.4622 38.0925 83.9822 37.8875C83.5022 37.6775 83.0772 37.39 82.7072 37.025C82.3422 36.655 82.0572 36.23 81.8522 35.75C81.6472 35.27 81.5447 34.7525 81.5447 34.1975C81.5447 33.6625 81.6447 33.1575 81.8447 32.6825C82.0447 32.2075 82.3222 31.7925 82.6772 31.4375C83.0372 31.0775 83.4522 30.7975 83.9222 30.5975C84.3922 30.3925 84.8972 30.29 85.4372 30.29C86.0272 30.29 86.5447 30.43 86.9897 30.71C87.4347 30.985 87.7947 31.3425 88.0697 31.7825L88.0247 30.5ZM85.5047 36.9725C85.9997 36.9725 86.4272 36.8525 86.7872 36.6125C87.1522 36.3675 87.4322 36.0375 87.6272 35.6225C87.8272 35.2075 87.9272 34.75 87.9272 34.25C87.9272 33.74 87.8272 33.28 87.6272 32.87C87.4272 32.455 87.1447 32.1275 86.7797 31.8875C86.4197 31.6425 85.9947 31.52 85.5047 31.52C85.0097 31.52 84.5597 31.6425 84.1547 31.8875C83.7497 32.1325 83.4272 32.4625 83.1872 32.8775C82.9522 33.2875 82.8347 33.745 82.8347 34.25C82.8347 34.755 82.9572 35.215 83.2022 35.63C83.4472 36.04 83.7722 36.3675 84.1772 36.6125C84.5822 36.8525 85.0247 36.9725 85.5047 36.9725ZM90.8717 38V26.75H92.1317V38H90.8717ZM93.9332 38V26.75H95.1932V38H93.9332ZM100.221 38.195C99.5315 38.195 98.9015 38.0175 98.3315 37.6625C97.7665 37.3075 97.314 36.8325 96.974 36.2375C96.639 35.6375 96.4715 34.975 96.4715 34.25C96.4715 33.7 96.569 33.1875 96.764 32.7125C96.959 32.2325 97.2265 31.8125 97.5665 31.4525C97.9115 31.0875 98.3115 30.8025 98.7665 30.5975C99.2215 30.3925 99.7065 30.29 100.221 30.29C100.786 30.29 101.304 30.405 101.774 30.635C102.249 30.86 102.654 31.175 102.989 31.58C103.329 31.985 103.581 32.455 103.746 32.99C103.916 33.525 103.979 34.0975 103.934 34.7075H97.814C97.874 35.1325 98.014 35.5125 98.234 35.8475C98.454 36.1775 98.734 36.44 99.074 36.635C99.419 36.83 99.8015 36.93 100.221 36.935C100.671 36.935 101.079 36.82 101.444 36.59C101.809 36.355 102.104 36.035 102.329 35.63L103.611 35.93C103.311 36.595 102.859 37.14 102.254 37.565C101.649 37.985 100.971 38.195 100.221 38.195ZM97.7765 33.7175H102.666C102.626 33.2975 102.491 32.915 102.261 32.57C102.031 32.22 101.739 31.94 101.384 31.73C101.029 31.52 100.641 31.415 100.221 31.415C99.8015 31.415 99.4165 31.5175 99.0665 31.7225C98.7165 31.9275 98.4265 32.205 98.1965 32.555C97.9715 32.9 97.8315 33.2875 97.7765 33.7175ZM108.995 31.76H107.292L107.285 38H106.025L106.032 31.76H104.742V30.5H106.032L106.025 28.145H107.285L107.292 30.5H108.995V31.76ZM112.554 38.1425C112.149 38.1275 111.754 38.0525 111.369 37.9175C110.989 37.7775 110.654 37.59 110.364 37.355C110.079 37.115 109.871 36.84 109.741 36.53L110.821 36.065C110.896 36.235 111.031 36.395 111.226 36.545C111.421 36.695 111.646 36.815 111.901 36.905C112.156 36.995 112.414 37.04 112.674 37.04C112.949 37.04 113.206 36.9975 113.446 36.9125C113.686 36.8275 113.881 36.7025 114.031 36.5375C114.186 36.3675 114.264 36.165 114.264 35.93C114.264 35.68 114.179 35.485 114.009 35.345C113.844 35.2 113.634 35.0875 113.379 35.0075C113.129 34.9225 112.874 34.8425 112.614 34.7675C112.099 34.6375 111.639 34.4825 111.234 34.3025C110.829 34.1175 110.509 33.885 110.274 33.605C110.044 33.32 109.929 32.9575 109.929 32.5175C109.929 32.0525 110.056 31.65 110.311 31.31C110.571 30.97 110.911 30.7075 111.331 30.5225C111.751 30.3375 112.201 30.245 112.681 30.245C113.286 30.245 113.839 30.375 114.339 30.635C114.839 30.895 115.211 31.2475 115.456 31.6925L114.444 32.285C114.359 32.105 114.229 31.9475 114.054 31.8125C113.879 31.6725 113.679 31.5625 113.454 31.4825C113.229 31.4025 112.999 31.36 112.764 31.355C112.474 31.345 112.201 31.3825 111.946 31.4675C111.696 31.5525 111.494 31.6825 111.339 31.8575C111.189 32.0275 111.114 32.24 111.114 32.495C111.114 32.745 111.194 32.935 111.354 33.065C111.519 33.195 111.731 33.3 111.991 33.38C112.256 33.455 112.544 33.5425 112.854 33.6425C113.309 33.7875 113.734 33.955 114.129 34.145C114.524 34.335 114.841 34.5725 115.081 34.8575C115.326 35.1425 115.446 35.495 115.441 35.915C115.441 36.375 115.304 36.7775 115.029 37.1225C114.754 37.4625 114.396 37.7225 113.956 37.9025C113.521 38.0825 113.054 38.1625 112.554 38.1425Z" fill="#242428"/>
<rect x="247" y="23" width="1" height="20" fill="#D9D9D9"/>
<path fill-rule="evenodd" clip-rule="evenodd" d="M268.094 30.2291C267.939 30.0824 267.729 30 267.51 30C267.291 30 267.081 30.0824 266.926 30.2291L262.252 34.6549C262.173 34.7271 262.11 34.8134 262.067 34.9088C262.024 35.0043 262.001 35.107 262 35.2108C261.999 35.3147 262.02 35.4177 262.062 35.5139C262.103 35.61 262.164 35.6974 262.242 35.7709C262.32 35.8443 262.412 35.9024 262.513 35.9417C262.615 35.9811 262.724 36.0009 262.833 36C262.943 35.9991 263.051 35.9775 263.152 35.9365C263.253 35.8955 263.344 35.8359 263.42 35.7612L267.51 31.8885L271.6 35.7612C271.756 35.9037 271.964 35.9825 272.181 35.9807C272.398 35.979 272.605 35.8967 272.758 35.7516C272.911 35.6066 272.998 35.4103 273 35.2052C273.002 35.0001 272.919 34.8024 272.768 34.6549L268.094 30.2291Z" fill="#676768"/>
<rect x="28" y="53" width="246" height="38" rx="19" fill="#E5EDFF"/>
<rect x="31.5" y="56.5" width="67" height="31" rx="15.5" fill="#F4F6FA"/>
<rect x="31.5" y="56.5" width="67" height="31" rx="15.5" stroke="#E9ECF2"/>
<path d="M44 67C44 66.6022 44.158 66.2206 44.4393 65.9393C44.7206 65.658 45.1022 65.5 45.5 65.5H53.875C54.306 65.5 54.7193 65.6712 55.024 65.976C55.3288 66.2807 55.5 66.694 55.5 67.125V67.628C56.374 67.937 57 68.7705 57 69.75V76.25C57 76.8467 56.7629 77.419 56.341 77.841C55.919 78.2629 55.3467 78.5 54.75 78.5H46.25C45.6533 78.5 45.081 78.2629 44.659 77.841C44.2371 77.419 44 76.8467 44 76.25V67.125H44.005C44.0016 67.0834 43.9999 67.0417 44 67ZM54.5 67.125C54.5 66.78 54.22 66.5 53.875 66.5H45.5C45.3674 66.5 45.2402 66.5527 45.1464 66.6464C45.0527 66.7402 45 66.8674 45 67C45 67.1326 45.0527 67.2598 45.1464 67.3536C45.2402 67.4473 45.3674 67.5 45.5 67.5H54.5V67.125ZM53 73C52.8674 73 52.7402 73.0527 52.6464 73.1464C52.5527 73.2402 52.5 73.3674 52.5 73.5C52.5 73.6326 52.5527 73.7598 52.6464 73.8536C52.7402 73.9473 52.8674 74 53 74H54.5C54.6326 74 54.7598 73.9473 54.8536 73.8536C54.9473 73.7598 55 73.6326 55 73.5C55 73.3674 54.9473 73.2402 54.8536 73.1464C54.7598 73.0527 54.6326 73 54.5 73H53Z" fill="#242428"/>
<path d="M66.8285 67.9H68.148L71.4565 77H70.2995L69.6235 75.141H65.353L64.6835 77H63.52L66.8285 67.9ZM65.756 74.049H69.2205L67.485 69.2975L65.756 74.049ZM72.6413 77V67.9H73.7333V75.908H77.8088V77H72.6413ZM79.2429 77V67.9H80.3349V75.908H84.4104V77H79.2429Z" fill="#242428"/>
<path d="M109.418 66.5H110.94L114.758 77H113.423L112.643 74.855H107.715L106.943 77H105.6L109.418 66.5ZM108.18 73.595H112.178L110.175 68.1125L108.18 73.595ZM116.125 77V65.75H117.385V77H116.125ZM119.186 77V65.75H120.446V77H119.186ZM128.056 77L125.371 66.5H126.669L128.784 74.7875L130.891 66.5H132.024L134.139 74.7875L136.246 66.5H137.544L134.874 77H133.404L131.461 69.395L129.519 77H128.056ZM144.025 69.5H145.285V77H144.025L143.972 75.7325C143.737 76.1675 143.412 76.52 142.997 76.79C142.587 77.06 142.097 77.195 141.527 77.195C140.977 77.195 140.462 77.0925 139.982 76.8875C139.502 76.6775 139.077 76.39 138.707 76.025C138.342 75.655 138.057 75.23 137.852 74.75C137.647 74.27 137.545 73.7525 137.545 73.1975C137.545 72.6625 137.645 72.1575 137.845 71.6825C138.045 71.2075 138.322 70.7925 138.677 70.4375C139.037 70.0775 139.452 69.7975 139.922 69.5975C140.392 69.3925 140.897 69.29 141.437 69.29C142.027 69.29 142.545 69.43 142.99 69.71C143.435 69.985 143.795 70.3425 144.07 70.7825L144.025 69.5ZM141.505 75.9725C142 75.9725 142.427 75.8525 142.787 75.6125C143.152 75.3675 143.432 75.0375 143.627 74.6225C143.827 74.2075 143.927 73.75 143.927 73.25C143.927 72.74 143.827 72.28 143.627 71.87C143.427 71.455 143.145 71.1275 142.78 70.8875C142.42 70.6425 141.995 70.52 141.505 70.52C141.01 70.52 140.56 70.6425 140.155 70.8875C139.75 71.1325 139.427 71.4625 139.187 71.8775C138.952 72.2875 138.835 72.745 138.835 73.25C138.835 73.755 138.957 74.215 139.202 74.63C139.447 75.04 139.772 75.3675 140.177 75.6125C140.582 75.8525 141.025 75.9725 141.505 75.9725ZM146.872 77V65.75H148.132V77H146.872ZM149.933 77V65.75H151.193V77H149.933ZM156.221 77.195C155.531 77.195 154.901 77.0175 154.331 76.6625C153.766 76.3075 153.314 75.8325 152.974 75.2375C152.639 74.6375 152.471 73.975 152.471 73.25C152.471 72.7 152.569 72.1875 152.764 71.7125C152.959 71.2325 153.226 70.8125 153.566 70.4525C153.911 70.0875 154.311 69.8025 154.766 69.5975C155.221 69.3925 155.706 69.29 156.221 69.29C156.786 69.29 157.304 69.405 157.774 69.635C158.249 69.86 158.654 70.175 158.989 70.58C159.329 70.985 159.581 71.455 159.746 71.99C159.916 72.525 159.979 73.0975 159.934 73.7075H153.814C153.874 74.1325 154.014 74.5125 154.234 74.8475C154.454 75.1775 154.734 75.44 155.074 75.635C155.419 75.83 155.801 75.93 156.221 75.935C156.671 75.935 157.079 75.82 157.444 75.59C157.809 75.355 158.104 75.035 158.329 74.63L159.611 74.93C159.311 75.595 158.859 76.14 158.254 76.565C157.649 76.985 156.971 77.195 156.221 77.195ZM153.776 72.7175H158.666C158.626 72.2975 158.491 71.915 158.261 71.57C158.031 71.22 157.739 70.94 157.384 70.73C157.029 70.52 156.641 70.415 156.221 70.415C155.801 70.415 155.416 70.5175 155.066 70.7225C154.716 70.9275 154.426 71.205 154.196 71.555C153.971 71.9 153.831 72.2875 153.776 72.7175ZM164.995 70.76H163.292L163.285 77H162.025L162.032 70.76H160.742V69.5H162.032L162.025 67.145H163.285L163.292 69.5H164.995V70.76ZM168.554 77.1425C168.149 77.1275 167.754 77.0525 167.369 76.9175C166.989 76.7775 166.654 76.59 166.364 76.355C166.079 76.115 165.871 75.84 165.741 75.53L166.821 75.065C166.896 75.235 167.031 75.395 167.226 75.545C167.421 75.695 167.646 75.815 167.901 75.905C168.156 75.995 168.414 76.04 168.674 76.04C168.949 76.04 169.206 75.9975 169.446 75.9125C169.686 75.8275 169.881 75.7025 170.031 75.5375C170.186 75.3675 170.264 75.165 170.264 74.93C170.264 74.68 170.179 74.485 170.009 74.345C169.844 74.2 169.634 74.0875 169.379 74.0075C169.129 73.9225 168.874 73.8425 168.614 73.7675C168.099 73.6375 167.639 73.4825 167.234 73.3025C166.829 73.1175 166.509 72.885 166.274 72.605C166.044 72.32 165.929 71.9575 165.929 71.5175C165.929 71.0525 166.056 70.65 166.311 70.31C166.571 69.97 166.911 69.7075 167.331 69.5225C167.751 69.3375 168.201 69.245 168.681 69.245C169.286 69.245 169.839 69.375 170.339 69.635C170.839 69.895 171.211 70.2475 171.456 70.6925L170.444 71.285C170.359 71.105 170.229 70.9475 170.054 70.8125C169.879 70.6725 169.679 70.5625 169.454 70.4825C169.229 70.4025 168.999 70.36 168.764 70.355C168.474 70.345 168.201 70.3825 167.946 70.4675C167.696 70.5525 167.494 70.6825 167.339 70.8575C167.189 71.0275 167.114 71.24 167.114 71.495C167.114 71.745 167.194 71.935 167.354 72.065C167.519 72.195 167.731 72.3 167.991 72.38C168.256 72.455 168.544 72.5425 168.854 72.6425C169.309 72.7875 169.734 72.955 170.129 73.145C170.524 73.335 170.841 73.5725 171.081 73.8575C171.326 74.1425 171.446 74.495 171.441 74.915C171.441 75.375 171.304 75.7775 171.029 76.1225C170.754 76.4625 170.396 76.7225 169.956 76.9025C169.521 77.0825 169.054 77.1625 168.554 77.1425Z" fill="#242428"/>
<path d="M251 72.2667L252.1 71.2L254.85 73.8667L260.9 68L262 69.0667L254.85 76L251 72.2667Z" fill="#242428"/>
<rect x="31.5" y="103.5" width="67" height="31" rx="15.5" fill="#F4F6FA"/>
<rect x="31.5" y="103.5" width="67" height="31" rx="15.5" stroke="#E9ECF2"/>
<g clip-path="url(#clip0_2056_32234)">
<path d="M59.6998 121.419C58.3642 126.776 52.9382 130.037 47.5804 128.701C42.2248 127.365 38.9645 121.939 40.3007 116.582C41.6357 111.224 47.0617 107.963 52.4179 109.299C57.7754 110.635 61.0354 116.062 59.6998 121.419Z" fill="#F7931A"/>
<path d="M54.4092 117.575C54.6082 116.245 53.5951 115.529 52.2098 115.052L52.6592 113.25L51.562 112.976L51.1245 114.731C50.8361 114.659 50.5398 114.592 50.2454 114.524L50.6861 112.758L49.5895 112.484L49.1398 114.286C48.9011 114.232 48.6667 114.178 48.4392 114.122L48.4404 114.116L46.9273 113.738L46.6354 114.91C46.6354 114.91 47.4495 115.097 47.4323 115.108C47.8767 115.219 47.957 115.513 47.9436 115.746L47.4317 117.8C47.4623 117.808 47.502 117.819 47.5457 117.836C47.5092 117.827 47.4701 117.817 47.4298 117.808L46.7123 120.684C46.6579 120.819 46.5201 121.022 46.2095 120.945C46.2204 120.961 45.412 120.746 45.412 120.746L44.8673 122.002L46.2951 122.358C46.5607 122.424 46.8211 122.494 47.0773 122.559L46.6232 124.383L47.7192 124.656L48.1689 122.852C48.4682 122.933 48.7589 123.008 49.0432 123.079L48.5951 124.874L49.6923 125.148L50.1464 123.328C52.0173 123.682 53.4242 123.539 54.0164 121.847C54.4936 120.485 53.9926 119.699 53.0082 119.186C53.7251 119.021 54.2651 118.549 54.4092 117.575ZM51.9023 121.091C51.5632 122.453 49.2692 121.717 48.5254 121.532L49.1279 119.117C49.8717 119.302 52.2567 119.67 51.9023 121.091ZM52.2417 117.556C51.9323 118.795 50.0229 118.165 49.4036 118.011L49.9498 115.82C50.5692 115.975 52.5639 116.263 52.2417 117.556Z" fill="white"/>
</g>
<path d="M66.78 124V114.9H69.9195C70.3702 114.9 70.7797 114.993 71.148 115.179C71.5207 115.361 71.8153 115.628 72.032 115.979C72.2487 116.33 72.357 116.75 72.357 117.24C72.357 117.504 72.3115 117.76 72.2205 118.007C72.1338 118.25 72.0125 118.46 71.8565 118.637C71.7048 118.811 71.5315 118.928 71.3365 118.988C71.6095 119.058 71.8413 119.181 72.032 119.359C72.2227 119.532 72.3765 119.736 72.4935 119.97C72.6148 120.204 72.7015 120.449 72.7535 120.704C72.8055 120.96 72.8315 121.207 72.8315 121.445C72.8315 121.948 72.7167 122.392 72.487 122.778C72.2617 123.159 71.9583 123.458 71.577 123.675C71.1957 123.892 70.7753 124 70.316 124H66.78ZM67.872 123.038H70.2185C70.5175 123.038 70.7883 122.962 71.031 122.81C71.278 122.654 71.4752 122.442 71.6225 122.173C71.7698 121.905 71.8435 121.601 71.8435 121.263C71.8435 120.964 71.7698 120.683 71.6225 120.419C71.4752 120.15 71.278 119.933 71.031 119.768C70.7883 119.604 70.5175 119.521 70.2185 119.521H67.872V123.038ZM67.872 118.579H69.8155C70.2142 118.579 70.5543 118.462 70.836 118.228C71.122 117.99 71.265 117.658 71.265 117.233C71.265 116.774 71.122 116.432 70.836 116.206C70.5543 115.977 70.2142 115.862 69.8155 115.862H67.872V118.579ZM80.4936 114.9V115.992H77.4646V124H76.3726V115.992H73.3501V114.9H80.4936ZM85.49 124.169C84.8747 124.169 84.2962 124.048 83.7545 123.805C83.2129 123.558 82.7362 123.22 82.3245 122.791C81.9172 122.358 81.5965 121.855 81.3625 121.283C81.1329 120.711 81.018 120.1 81.018 119.45C81.018 118.8 81.1329 118.189 81.3625 117.617C81.5965 117.045 81.9172 116.544 82.3245 116.115C82.7362 115.682 83.2129 115.344 83.7545 115.101C84.2962 114.854 84.8747 114.731 85.49 114.731C86.2267 114.731 86.9049 114.902 87.5245 115.244C88.1442 115.587 88.6577 116.042 89.065 116.609L88.0965 117.129C87.7932 116.731 87.4097 116.414 86.946 116.18C86.4867 115.942 86.0014 115.823 85.49 115.823C85.0177 115.823 84.5757 115.918 84.164 116.109C83.7567 116.3 83.3992 116.562 83.0915 116.895C82.7839 117.229 82.5434 117.615 82.37 118.052C82.1967 118.49 82.11 118.956 82.11 119.45C82.11 119.948 82.1967 120.416 82.37 120.854C82.5477 121.292 82.7904 121.677 83.098 122.011C83.41 122.345 83.7697 122.607 84.177 122.797C84.5887 122.984 85.0264 123.077 85.49 123.077C86.0187 123.077 86.5084 122.958 86.959 122.719C87.414 122.477 87.7932 122.16 88.0965 121.77L89.065 122.297C88.6577 122.865 88.1442 123.32 87.5245 123.662C86.9049 124 86.2267 124.169 85.49 124.169Z" fill="#242428"/>
<path d="M106.9 124L108.933 113.5H109.9L112.735 120.955L115.563 113.5H116.53L118.57 124H117.288L115.81 116.38L113.148 123.43H112.315L109.653 116.38L108.183 124H106.9ZM125.747 116.5H127.007V124H125.747L125.695 122.732C125.46 123.167 125.135 123.52 124.72 123.79C124.31 124.06 123.82 124.195 123.25 124.195C122.7 124.195 122.185 124.093 121.705 123.887C121.225 123.677 120.8 123.39 120.43 123.025C120.065 122.655 119.78 122.23 119.575 121.75C119.37 121.27 119.267 120.752 119.267 120.197C119.267 119.662 119.367 119.157 119.567 118.682C119.767 118.207 120.045 117.792 120.4 117.437C120.76 117.077 121.175 116.797 121.645 116.597C122.115 116.392 122.62 116.29 123.16 116.29C123.75 116.29 124.267 116.43 124.712 116.71C125.157 116.985 125.517 117.342 125.792 117.782L125.747 116.5ZM123.227 122.972C123.722 122.972 124.15 122.852 124.51 122.612C124.875 122.367 125.155 122.037 125.35 121.622C125.55 121.207 125.65 120.75 125.65 120.25C125.65 119.74 125.55 119.28 125.35 118.87C125.15 118.455 124.867 118.127 124.502 117.887C124.142 117.642 123.717 117.52 123.227 117.52C122.732 117.52 122.282 117.642 121.877 117.887C121.472 118.132 121.15 118.462 120.91 118.877C120.675 119.287 120.557 119.745 120.557 120.25C120.557 120.755 120.68 121.215 120.925 121.63C121.17 122.04 121.495 122.367 121.9 122.612C122.305 122.852 122.747 122.972 123.227 122.972ZM128.506 116.5H129.766V124H128.506V116.5ZM129.151 115.277C128.951 115.277 128.784 115.212 128.649 115.082C128.514 114.952 128.446 114.79 128.446 114.595C128.446 114.4 128.514 114.237 128.649 114.107C128.784 113.977 128.949 113.912 129.144 113.912C129.339 113.912 129.504 113.977 129.639 114.107C129.774 114.237 129.841 114.4 129.841 114.595C129.841 114.79 129.774 114.952 129.639 115.082C129.509 115.212 129.346 115.277 129.151 115.277ZM138.154 119.335V124H136.894V119.612C136.894 119.232 136.802 118.887 136.617 118.577C136.432 118.267 136.184 118.022 135.874 117.842C135.564 117.657 135.219 117.565 134.839 117.565C134.464 117.565 134.119 117.657 133.804 117.842C133.494 118.022 133.247 118.267 133.062 118.577C132.877 118.887 132.784 119.232 132.784 119.612V124H131.524V116.5H132.784V117.437C133.049 117.087 133.384 116.81 133.789 116.605C134.194 116.395 134.634 116.29 135.109 116.29C135.669 116.29 136.179 116.427 136.639 116.702C137.104 116.972 137.472 117.337 137.742 117.797C138.017 118.257 138.154 118.77 138.154 119.335ZM143.257 124V113.5H146.88C147.4 113.5 147.872 113.607 148.297 113.822C148.727 114.032 149.067 114.34 149.317 114.745C149.567 115.15 149.692 115.635 149.692 116.2C149.692 116.505 149.64 116.8 149.535 117.085C149.435 117.365 149.295 117.607 149.115 117.812C148.94 118.012 148.74 118.147 148.515 118.217C148.83 118.297 149.097 118.44 149.317 118.645C149.537 118.845 149.715 119.08 149.85 119.35C149.99 119.62 150.09 119.902 150.15 120.197C150.21 120.492 150.24 120.777 150.24 121.052C150.24 121.632 150.107 122.145 149.842 122.59C149.582 123.03 149.232 123.375 148.792 123.625C148.352 123.875 147.867 124 147.337 124H143.257ZM144.517 122.89H147.225C147.57 122.89 147.882 122.802 148.162 122.627C148.447 122.447 148.675 122.202 148.845 121.892C149.015 121.582 149.1 121.232 149.1 120.842C149.1 120.497 149.015 120.172 148.845 119.868C148.675 119.557 148.447 119.307 148.162 119.117C147.882 118.927 147.57 118.832 147.225 118.832H144.517V122.89ZM144.517 117.745H146.76C147.22 117.745 147.612 117.61 147.937 117.34C148.267 117.065 148.432 116.682 148.432 116.192C148.432 115.662 148.267 115.267 147.937 115.007C147.612 114.742 147.22 114.61 146.76 114.61H144.517V117.745ZM151.739 116.5H152.999V124H151.739V116.5ZM152.384 115.277C152.184 115.277 152.016 115.212 151.881 115.082C151.746 114.952 151.679 114.79 151.679 114.595C151.679 114.4 151.746 114.237 151.881 114.107C152.016 113.977 152.181 113.912 152.376 113.912C152.571 113.912 152.736 113.977 152.871 114.107C153.006 114.237 153.074 114.4 153.074 114.595C153.074 114.79 153.006 114.952 152.871 115.082C152.741 115.212 152.579 115.277 152.384 115.277ZM158.685 117.76H156.983L156.975 124H155.715L155.723 117.76H154.433V116.5H155.723L155.715 114.145H156.975L156.983 116.5H158.685V117.76ZM165.007 122.02L166.132 122.627C165.792 123.102 165.359 123.482 164.834 123.767C164.314 124.052 163.749 124.195 163.139 124.195C162.449 124.195 161.819 124.017 161.249 123.662C160.684 123.307 160.232 122.832 159.892 122.237C159.557 121.637 159.389 120.975 159.389 120.25C159.389 119.7 159.487 119.187 159.682 118.712C159.877 118.232 160.144 117.812 160.484 117.452C160.829 117.087 161.229 116.802 161.684 116.597C162.139 116.392 162.624 116.29 163.139 116.29C163.749 116.29 164.314 116.432 164.834 116.717C165.359 117.002 165.792 117.385 166.132 117.865L165.007 118.472C164.767 118.177 164.482 117.95 164.152 117.79C163.822 117.63 163.484 117.55 163.139 117.55C162.674 117.55 162.252 117.675 161.872 117.925C161.497 118.17 161.199 118.497 160.979 118.907C160.759 119.317 160.649 119.765 160.649 120.25C160.649 120.735 160.759 121.182 160.979 121.592C161.204 121.997 161.504 122.322 161.879 122.567C162.259 122.812 162.679 122.935 163.139 122.935C163.509 122.935 163.857 122.85 164.182 122.68C164.507 122.51 164.782 122.29 165.007 122.02ZM170.654 124.195C169.964 124.195 169.334 124.017 168.764 123.662C168.199 123.307 167.747 122.832 167.407 122.237C167.072 121.637 166.904 120.975 166.904 120.25C166.904 119.7 167.002 119.187 167.197 118.712C167.392 118.232 167.659 117.812 167.999 117.452C168.344 117.087 168.744 116.802 169.199 116.597C169.654 116.392 170.139 116.29 170.654 116.29C171.344 116.29 171.972 116.467 172.537 116.822C173.107 117.177 173.559 117.655 173.894 118.255C174.234 118.855 174.404 119.52 174.404 120.25C174.404 120.795 174.307 121.305 174.112 121.78C173.917 122.255 173.647 122.675 173.302 123.04C172.962 123.4 172.564 123.682 172.109 123.887C171.659 124.093 171.174 124.195 170.654 124.195ZM170.654 122.935C171.124 122.935 171.547 122.812 171.922 122.567C172.302 122.317 172.599 121.99 172.814 121.585C173.034 121.175 173.144 120.73 173.144 120.25C173.144 119.76 173.032 119.31 172.807 118.9C172.587 118.49 172.289 118.162 171.914 117.917C171.539 117.672 171.119 117.55 170.654 117.55C170.184 117.55 169.762 117.675 169.387 117.925C169.012 118.17 168.714 118.497 168.494 118.907C168.274 119.317 168.164 119.765 168.164 120.25C168.164 120.75 168.277 121.205 168.502 121.615C168.727 122.02 169.029 122.342 169.409 122.582C169.789 122.817 170.204 122.935 170.654 122.935ZM175.543 116.5H176.803V124H175.543V116.5ZM176.188 115.277C175.988 115.277 175.82 115.212 175.685 115.082C175.55 114.952 175.483 114.79 175.483 114.595C175.483 114.4 175.55 114.237 175.685 114.107C175.82 113.977 175.985 113.912 176.18 113.912C176.375 113.912 176.54 113.977 176.675 114.107C176.81 114.237 176.878 114.4 176.878 114.595C176.878 114.79 176.81 114.952 176.675 115.082C176.545 115.212 176.383 115.277 176.188 115.277ZM185.19 119.335V124H183.93V119.612C183.93 119.232 183.838 118.887 183.653 118.577C183.468 118.267 183.22 118.022 182.91 117.842C182.6 117.657 182.255 117.565 181.875 117.565C181.5 117.565 181.155 117.657 180.84 117.842C180.53 118.022 180.283 118.267 180.098 118.577C179.913 118.887 179.82 119.232 179.82 119.612V124H178.56V116.5H179.82V117.437C180.085 117.087 180.42 116.81 180.825 116.605C181.23 116.395 181.67 116.29 182.145 116.29C182.705 116.29 183.215 116.427 183.675 116.702C184.14 116.972 184.508 117.337 184.778 117.797C185.053 118.257 185.19 118.77 185.19 119.335ZM192.499 124L189.814 113.5H191.111L193.226 121.787L195.334 113.5H196.466L198.581 121.787L200.689 113.5H201.986L199.316 124H197.846L195.904 116.395L193.961 124H192.499ZM208.467 116.5H209.727V124H208.467L208.415 122.732C208.18 123.167 207.855 123.52 207.44 123.79C207.03 124.06 206.54 124.195 205.97 124.195C205.42 124.195 204.905 124.093 204.425 123.887C203.945 123.677 203.52 123.39 203.15 123.025C202.785 122.655 202.5 122.23 202.295 121.75C202.09 121.27 201.987 120.752 201.987 120.197C201.987 119.662 202.087 119.157 202.287 118.682C202.487 118.207 202.765 117.792 203.12 117.437C203.48 117.077 203.895 116.797 204.365 116.597C204.835 116.392 205.34 116.29 205.88 116.29C206.47 116.29 206.987 116.43 207.432 116.71C207.877 116.985 208.237 117.342 208.512 117.782L208.467 116.5ZM205.947 122.972C206.442 122.972 206.87 122.852 207.23 122.612C207.595 122.367 207.875 122.037 208.07 121.622C208.27 121.207 208.37 120.75 208.37 120.25C208.37 119.74 208.27 119.28 208.07 118.87C207.87 118.455 207.587 118.127 207.222 117.887C206.862 117.642 206.437 117.52 205.947 117.52C205.452 117.52 205.002 117.642 204.597 117.887C204.192 118.132 203.87 118.462 203.63 118.877C203.395 119.287 203.277 119.745 203.277 120.25C203.277 120.755 203.4 121.215 203.645 121.63C203.89 122.04 204.215 122.367 204.62 122.612C205.025 122.852 205.467 122.972 205.947 122.972ZM211.314 124V112.75H212.574V124H211.314ZM214.376 124V112.75H215.636V124H214.376ZM220.664 124.195C219.974 124.195 219.344 124.017 218.774 123.662C218.209 123.307 217.756 122.832 217.416 122.237C217.081 121.637 216.914 120.975 216.914 120.25C216.914 119.7 217.011 119.187 217.206 118.712C217.401 118.232 217.669 117.812 218.009 117.452C218.354 117.087 218.754 116.802 219.209 116.597C219.664 116.392 220.149 116.29 220.664 116.29C221.229 116.29 221.746 116.405 222.216 116.635C222.691 116.86 223.096 117.175 223.431 117.58C223.771 117.985 224.024 118.455 224.189 118.99C224.359 119.525 224.421 120.097 224.376 120.707H218.256C218.316 121.132 218.456 121.512 218.676 121.847C218.896 122.177 219.176 122.44 219.516 122.635C219.861 122.83 220.244 122.93 220.664 122.935C221.114 122.935 221.521 122.82 221.886 122.59C222.251 122.355 222.546 122.035 222.771 121.63L224.054 121.93C223.754 122.595 223.301 123.14 222.696 123.565C222.091 123.985 221.414 124.195 220.664 124.195ZM218.219 119.717H223.109C223.069 119.297 222.934 118.915 222.704 118.57C222.474 118.22 222.181 117.94 221.826 117.73C221.471 117.52 221.084 117.415 220.664 117.415C220.244 117.415 219.859 117.517 219.509 117.722C219.159 117.927 218.869 118.205 218.639 118.555C218.414 118.9 218.274 119.287 218.219 119.717ZM229.437 117.76H227.735L227.727 124H226.467L226.475 117.76H225.185V116.5H226.475L226.467 114.145H227.727L227.735 116.5H229.437V117.76Z" fill="#242428"/>
<rect x="31.5" y="147.5" width="67" height="31" rx="15.5" fill="#F4F6FA"/>
<rect x="31.5" y="147.5" width="67" height="31" rx="15.5" stroke="#E9ECF2"/>
<g clip-path="url(#clip1_2056_32234)">
<path opacity="0.6" d="M49.9978 160.396L44 163.187L49.9978 166.816L55.9978 163.187L49.9978 160.396Z" fill="#242428"/>
<path opacity="0.45" d="M44.0022 163.184L50 166.814V153L44.0022 163.184Z" fill="#242428"/>
<path opacity="0.8" d="M50 153V166.814L55.9978 163.184L50 153Z" fill="#242428"/>
<path opacity="0.45" d="M44 164.349L49.9978 173V167.976L44 164.349Z" fill="#242428"/>
<path opacity="0.8" d="M49.9978 167.976V173L56 164.349L49.9978 167.976Z" fill="#242428"/>
</g>
<path d="M62.78 168V158.9H68.3635V159.992H63.872V162.579H67.551V163.671H63.872V166.908H68.3635V168H62.78ZM76.6713 158.9V159.992H73.6423V168H72.5503V159.992H69.5278V158.9H76.6713ZM83.5728 158.9H84.6648V168H83.5728V163.671H79.0683V168H77.9763V158.9H79.0683V162.579H83.5728V158.9Z" fill="#676768"/>
<path d="M106.9 168V157.5H113.343V158.76H108.16V161.745H112.405V163.005H108.16V166.74H113.343V168H106.9ZM118.871 161.76H117.168L117.161 168H115.901L115.908 161.76H114.618V160.5H115.908L115.901 158.145H117.161L117.168 160.5H118.871V161.76ZM126.845 163.335V168H125.585V163.612C125.585 163.232 125.493 162.887 125.308 162.577C125.123 162.267 124.875 162.022 124.565 161.842C124.255 161.657 123.91 161.565 123.53 161.565C123.155 161.565 122.81 161.657 122.495 161.842C122.185 162.022 121.938 162.267 121.753 162.577C121.568 162.887 121.475 163.232 121.475 163.612V168H120.215V156.75H121.475V161.437C121.74 161.087 122.075 160.81 122.48 160.605C122.885 160.395 123.325 160.29 123.8 160.29C124.36 160.29 124.87 160.427 125.33 160.702C125.795 160.972 126.163 161.337 126.433 161.797C126.708 162.257 126.845 162.77 126.845 163.335ZM131.499 168.195C130.809 168.195 130.179 168.017 129.609 167.662C129.044 167.307 128.591 166.832 128.251 166.237C127.916 165.637 127.749 164.975 127.749 164.25C127.749 163.7 127.846 163.187 128.041 162.712C128.236 162.232 128.504 161.812 128.844 161.452C129.189 161.087 129.589 160.802 130.044 160.597C130.499 160.392 130.984 160.29 131.499 160.29C132.064 160.29 132.581 160.405 133.051 160.635C133.526 160.86 133.931 161.175 134.266 161.58C134.606 161.985 134.859 162.455 135.024 162.99C135.194 163.525 135.256 164.097 135.211 164.707H129.091C129.151 165.132 129.291 165.512 129.511 165.847C129.731 166.177 130.011 166.44 130.351 166.635C130.696 166.83 131.079 166.93 131.499 166.935C131.949 166.935 132.356 166.82 132.721 166.59C133.086 166.355 133.381 166.035 133.606 165.63L134.889 165.93C134.589 166.595 134.136 167.14 133.531 167.565C132.926 167.985 132.249 168.195 131.499 168.195ZM129.054 163.717H133.944C133.904 163.297 133.769 162.915 133.539 162.57C133.309 162.22 133.016 161.94 132.661 161.73C132.306 161.52 131.919 161.415 131.499 161.415C131.079 161.415 130.694 161.517 130.344 161.722C129.994 161.927 129.704 162.205 129.474 162.555C129.249 162.9 129.109 163.287 129.054 163.717ZM136.475 168V160.5H137.735V161.437C138 161.087 138.335 160.81 138.74 160.605C139.145 160.395 139.585 160.29 140.06 160.29C140.35 160.29 140.63 160.327 140.9 160.402L140.39 161.662C140.185 161.597 139.985 161.565 139.79 161.565C139.415 161.565 139.07 161.657 138.755 161.842C138.445 162.022 138.198 162.267 138.013 162.577C137.828 162.887 137.735 163.232 137.735 163.612V168H136.475ZM144.741 168.195C144.051 168.195 143.421 168.017 142.851 167.662C142.286 167.307 141.834 166.832 141.494 166.237C141.159 165.637 140.991 164.975 140.991 164.25C140.991 163.7 141.089 163.187 141.284 162.712C141.479 162.232 141.746 161.812 142.086 161.452C142.431 161.087 142.831 160.802 143.286 160.597C143.741 160.392 144.226 160.29 144.741 160.29C145.306 160.29 145.824 160.405 146.294 160.635C146.769 160.86 147.174 161.175 147.509 161.58C147.849 161.985 148.101 162.455 148.266 162.99C148.436 163.525 148.499 164.097 148.454 164.707H142.334C142.394 165.132 142.534 165.512 142.754 165.847C142.974 166.177 143.254 166.44 143.594 166.635C143.939 166.83 144.321 166.93 144.741 166.935C145.191 166.935 145.599 166.82 145.964 166.59C146.329 166.355 146.624 166.035 146.849 165.63L148.131 165.93C147.831 166.595 147.379 167.14 146.774 167.565C146.169 167.985 145.491 168.195 144.741 168.195ZM142.296 163.717H147.186C147.146 163.297 147.011 162.915 146.781 162.57C146.551 162.22 146.259 161.94 145.904 161.73C145.549 161.52 145.161 161.415 144.741 161.415C144.321 161.415 143.936 161.517 143.586 161.722C143.236 161.927 142.946 162.205 142.716 162.555C142.491 162.9 142.351 163.287 142.296 163.717ZM149.315 165.15V160.5H150.575V164.872C150.575 165.252 150.667 165.597 150.852 165.907C151.037 166.217 151.285 166.465 151.595 166.65C151.91 166.83 152.255 166.92 152.63 166.92C153.01 166.92 153.352 166.83 153.657 166.65C153.967 166.465 154.215 166.217 154.4 165.907C154.585 165.597 154.677 165.252 154.677 164.872V160.5H155.937L155.945 168H154.685L154.677 167.047C154.412 167.397 154.077 167.677 153.672 167.887C153.267 168.093 152.83 168.195 152.36 168.195C151.8 168.195 151.287 168.06 150.822 167.79C150.362 167.515 149.995 167.147 149.72 166.687C149.45 166.227 149.315 165.715 149.315 165.15ZM157.452 168V160.5H158.712V161.437C158.977 161.087 159.309 160.81 159.709 160.605C160.114 160.395 160.554 160.29 161.029 160.29C161.584 160.29 162.092 160.425 162.552 160.695C163.012 160.965 163.374 161.322 163.639 161.767C163.904 161.322 164.264 160.965 164.719 160.695C165.179 160.425 165.684 160.29 166.234 160.29C166.799 160.29 167.312 160.427 167.772 160.702C168.232 160.972 168.597 161.337 168.867 161.797C169.142 162.257 169.279 162.77 169.279 163.335V168H168.019V163.635C168.019 163.265 167.929 162.922 167.749 162.607C167.569 162.292 167.327 162.04 167.022 161.85C166.717 161.66 166.379 161.565 166.009 161.565C165.639 161.565 165.302 161.655 164.997 161.835C164.692 162.01 164.449 162.255 164.269 162.57C164.089 162.88 163.999 163.235 163.999 163.635V168H162.739V163.635C162.739 163.235 162.649 162.88 162.469 162.57C162.289 162.255 162.044 162.01 161.734 161.835C161.429 161.655 161.092 161.565 160.722 161.565C160.357 161.565 160.019 161.66 159.709 161.85C159.404 162.04 159.162 162.292 158.982 162.607C158.802 162.922 158.712 163.265 158.712 163.635V168H157.452ZM174.385 168V157.5H177.85C178.415 157.5 178.923 157.637 179.373 157.912C179.828 158.187 180.188 158.56 180.453 159.03C180.723 159.495 180.858 160.015 180.858 160.59C180.858 161.175 180.72 161.702 180.445 162.172C180.175 162.637 179.81 163.007 179.35 163.282C178.895 163.552 178.395 163.687 177.85 163.687H175.645V168H174.385ZM175.645 162.427H177.738C178.078 162.427 178.388 162.345 178.668 162.18C178.953 162.01 179.178 161.782 179.343 161.497C179.513 161.207 179.598 160.882 179.598 160.522C179.598 160.157 179.513 159.832 179.343 159.547C179.178 159.257 178.953 159.03 178.668 158.865C178.388 158.695 178.078 158.61 177.738 158.61H175.645V162.427ZM187.754 160.5H189.014V168H187.754L187.702 166.732C187.467 167.167 187.142 167.52 186.727 167.79C186.317 168.06 185.827 168.195 185.257 168.195C184.707 168.195 184.192 168.093 183.712 167.887C183.232 167.677 182.807 167.39 182.437 167.025C182.072 166.655 181.787 166.23 181.582 165.75C181.377 165.27 181.274 164.752 181.274 164.197C181.274 163.662 181.374 163.157 181.574 162.682C181.774 162.207 182.052 161.792 182.407 161.437C182.767 161.077 183.182 160.797 183.652 160.597C184.122 160.392 184.627 160.29 185.167 160.29C185.757 160.29 186.274 160.43 186.719 160.71C187.164 160.985 187.524 161.342 187.799 161.782L187.754 160.5ZM185.234 166.972C185.729 166.972 186.157 166.852 186.517 166.612C186.882 166.367 187.162 166.037 187.357 165.622C187.557 165.207 187.657 164.75 187.657 164.25C187.657 163.74 187.557 163.28 187.357 162.87C187.157 162.455 186.874 162.127 186.509 161.887C186.149 161.642 185.724 161.52 185.234 161.52C184.739 161.52 184.289 161.642 183.884 161.887C183.479 162.132 183.157 162.462 182.917 162.877C182.682 163.287 182.564 163.745 182.564 164.25C182.564 164.755 182.687 165.215 182.932 165.63C183.177 166.04 183.502 166.367 183.907 166.612C184.312 166.852 184.754 166.972 185.234 166.972ZM195.416 160.5H196.751L192.649 171.75H191.314L192.671 168L189.979 160.5H191.359L193.301 166.267L195.416 160.5ZM198.072 168V160.5H199.332V161.437C199.597 161.087 199.929 160.81 200.329 160.605C200.734 160.395 201.174 160.29 201.649 160.29C202.204 160.29 202.712 160.425 203.172 160.695C203.632 160.965 203.994 161.322 204.259 161.767C204.524 161.322 204.884 160.965 205.339 160.695C205.799 160.425 206.304 160.29 206.854 160.29C207.419 160.29 207.932 160.427 208.392 160.702C208.852 160.972 209.217 161.337 209.487 161.797C209.762 162.257 209.899 162.77 209.899 163.335V168H208.639V163.635C208.639 163.265 208.549 162.922 208.369 162.607C208.189 162.292 207.947 162.04 207.642 161.85C207.337 161.66 206.999 161.565 206.629 161.565C206.259 161.565 205.922 161.655 205.617 161.835C205.312 162.01 205.069 162.255 204.889 162.57C204.709 162.88 204.619 163.235 204.619 163.635V168H203.359V163.635C203.359 163.235 203.269 162.88 203.089 162.57C202.909 162.255 202.664 162.01 202.354 161.835C202.049 161.655 201.712 161.565 201.342 161.565C200.977 161.565 200.639 161.66 200.329 161.85C200.024 162.04 199.782 162.292 199.602 162.607C199.422 162.922 199.332 163.265 199.332 163.635V168H198.072ZM214.555 168.195C213.865 168.195 213.235 168.017 212.665 167.662C212.1 167.307 211.648 166.832 211.308 166.237C210.973 165.637 210.805 164.975 210.805 164.25C210.805 163.7 210.903 163.187 211.098 162.712C211.293 162.232 211.56 161.812 211.9 161.452C212.245 161.087 212.645 160.802 213.1 160.597C213.555 160.392 214.04 160.29 214.555 160.29C215.12 160.29 215.638 160.405 216.108 160.635C216.583 160.86 216.988 161.175 217.323 161.58C217.663 161.985 217.915 162.455 218.08 162.99C218.25 163.525 218.313 164.097 218.268 164.707H212.148C212.208 165.132 212.348 165.512 212.568 165.847C212.788 166.177 213.068 166.44 213.408 166.635C213.753 166.83 214.135 166.93 214.555 166.935C215.005 166.935 215.413 166.82 215.778 166.59C216.143 166.355 216.438 166.035 216.663 165.63L217.945 165.93C217.645 166.595 217.193 167.14 216.588 167.565C215.983 167.985 215.305 168.195 214.555 168.195ZM212.11 163.717H217C216.96 163.297 216.825 162.915 216.595 162.57C216.365 162.22 216.073 161.94 215.718 161.73C215.363 161.52 214.975 161.415 214.555 161.415C214.135 161.415 213.75 161.517 213.4 161.722C213.05 161.927 212.76 162.205 212.53 162.555C212.305 162.9 212.165 163.287 212.11 163.717ZM226.162 163.335V168H224.902V163.612C224.902 163.232 224.809 162.887 224.624 162.577C224.439 162.267 224.192 162.022 223.882 161.842C223.572 161.657 223.227 161.565 222.847 161.565C222.472 161.565 222.127 161.657 221.812 161.842C221.502 162.022 221.254 162.267 221.069 162.577C220.884 162.887 220.792 163.232 220.792 163.612V168H219.532V160.5H220.792V161.437C221.057 161.087 221.392 160.81 221.797 160.605C222.202 160.395 222.642 160.29 223.117 160.29C223.677 160.29 224.187 160.427 224.647 160.702C225.112 160.972 225.479 161.337 225.749 161.797C226.024 162.257 226.162 162.77 226.162 163.335ZM231.547 161.76H229.844L229.837 168H228.577L228.584 161.76H227.294V160.5H228.584L228.577 158.145H229.837L229.844 160.5H231.547V161.76ZM235.105 168.143C234.7 168.128 234.305 168.053 233.92 167.917C233.54 167.777 233.205 167.59 232.915 167.355C232.63 167.115 232.423 166.84 232.293 166.53L233.373 166.065C233.448 166.235 233.583 166.395 233.778 166.545C233.973 166.695 234.198 166.815 234.453 166.905C234.708 166.995 234.965 167.04 235.225 167.04C235.5 167.04 235.758 166.997 235.998 166.912C236.238 166.827 236.433 166.702 236.583 166.537C236.738 166.367 236.815 166.165 236.815 165.93C236.815 165.68 236.73 165.485 236.56 165.345C236.395 165.2 236.185 165.087 235.93 165.007C235.68 164.922 235.425 164.842 235.165 164.767C234.65 164.637 234.19 164.482 233.785 164.302C233.38 164.117 233.06 163.885 232.825 163.605C232.595 163.32 232.48 162.957 232.48 162.517C232.48 162.052 232.608 161.65 232.863 161.31C233.123 160.97 233.463 160.707 233.883 160.522C234.303 160.337 234.753 160.245 235.233 160.245C235.838 160.245 236.39 160.375 236.89 160.635C237.39 160.895 237.763 161.247 238.008 161.692L236.995 162.285C236.91 162.105 236.78 161.947 236.605 161.812C236.43 161.672 236.23 161.562 236.005 161.482C235.78 161.402 235.55 161.36 235.315 161.355C235.025 161.345 234.753 161.382 234.498 161.467C234.248 161.552 234.045 161.682 233.89 161.857C233.74 162.027 233.665 162.24 233.665 162.495C233.665 162.745 233.745 162.935 233.905 163.065C234.07 163.195 234.283 163.3 234.543 163.38C234.808 163.455 235.095 163.542 235.405 163.642C235.86 163.787 236.285 163.955 236.68 164.145C237.075 164.335 237.393 164.572 237.633 164.857C237.878 165.142 237.998 165.495 237.993 165.915C237.993 166.375 237.855 166.777 237.58 167.122C237.305 167.462 236.948 167.722 236.508 167.902C236.073 168.083 235.605 168.163 235.105 168.143Z" fill="#242428"/>
<rect x="31.5" y="191.5" width="67" height="31" rx="15.5" fill="#F4F6FA"/>
<rect x="31.5" y="191.5" width="67" height="31" rx="15.5" stroke="#E9ECF2"/>
<g clip-path="url(#clip2_2056_32234)">
<path d="M50.4999 215.918C55.4251 215.918 59.4177 211.925 59.4177 207C59.4177 202.075 55.4251 198.082 50.4999 198.082C45.5748 198.082 41.5822 202.075 41.5822 207C41.5822 211.925 45.5748 215.918 50.4999 215.918Z" fill="white"/>
<path d="M50.5 196.999C44.9774 196.999 40.5 201.478 40.5 207C40.5 212.522 44.9774 217 50.5 217C56.0226 217 60.5004 212.523 60.5004 207C60.5161 201.493 56.0651 197.016 50.5586 196.999H50.5ZM50.6698 207.338L49.6284 210.848H55.1974C55.2719 210.846 55.3444 210.873 55.3989 210.924C55.4534 210.974 55.4856 211.045 55.4882 211.119V211.211L55.0041 212.884C54.9828 212.963 54.9352 213.032 54.8692 213.081C54.8032 213.129 54.7228 213.154 54.641 213.15H46.1177L47.5461 208.284L45.948 208.768L46.3115 207.654L47.9092 207.169L49.9192 200.341C49.9413 200.263 49.989 200.194 50.0548 200.146C50.1206 200.097 50.2007 200.072 50.2823 200.075H52.4373C52.5117 200.072 52.5842 200.1 52.6386 200.15C52.6931 200.201 52.7251 200.272 52.7277 200.346V200.438L51.0329 206.201L52.631 205.717L52.2927 206.879L50.6698 207.338Z" fill="#345D9D"/>
</g>
<path d="M67.28 212V202.9H68.372V210.908H72.4475V212H67.28ZM79.7875 202.9V203.992H76.7585V212H75.6665V203.992H72.644V202.9H79.7875ZM84.784 212.169C84.1687 212.169 83.5902 212.048 83.0485 211.805C82.5068 211.558 82.0302 211.22 81.6185 210.791C81.2112 210.358 80.8905 209.855 80.6565 209.283C80.4268 208.711 80.312 208.1 80.312 207.45C80.312 206.8 80.4268 206.189 80.6565 205.617C80.8905 205.045 81.2112 204.544 81.6185 204.115C82.0302 203.682 82.5068 203.344 83.0485 203.101C83.5902 202.854 84.1687 202.731 84.784 202.731C85.5207 202.731 86.1988 202.902 86.8185 203.244C87.4382 203.587 87.9517 204.042 88.359 204.609L87.3905 205.129C87.0872 204.731 86.7037 204.414 86.24 204.18C85.7807 203.942 85.2953 203.823 84.784 203.823C84.3117 203.823 83.8697 203.918 83.458 204.109C83.0507 204.3 82.6932 204.562 82.3855 204.895C82.0778 205.229 81.8373 205.615 81.664 206.052C81.4907 206.49 81.404 206.956 81.404 207.45C81.404 207.948 81.4907 208.416 81.664 208.854C81.8417 209.292 82.0843 209.677 82.392 210.011C82.704 210.345 83.0637 210.607 83.471 210.797C83.8827 210.984 84.3203 211.077 84.784 211.077C85.3127 211.077 85.8023 210.958 86.253 210.719C86.708 210.477 87.0872 210.16 87.3905 209.77L88.359 210.297C87.9517 210.865 87.4382 211.32 86.8185 211.662C86.1988 212 85.5207 212.169 84.784 212.169Z" fill="#676768"/>
<path d="M106.9 212V201.5H108.16V210.74H112.863V212H106.9ZM114.517 204.5H115.777V212H114.517V204.5ZM115.162 203.277C114.962 203.277 114.795 203.212 114.66 203.082C114.525 202.952 114.457 202.79 114.457 202.595C114.457 202.4 114.525 202.237 114.66 202.107C114.795 201.977 114.96 201.912 115.155 201.912C115.35 201.912 115.515 201.977 115.65 202.107C115.785 202.237 115.852 202.4 115.852 202.595C115.852 202.79 115.785 202.952 115.65 203.082C115.52 203.212 115.357 203.277 115.162 203.277ZM121.464 205.76H119.761L119.754 212H118.494L118.501 205.76H117.211V204.5H118.501L118.494 202.145H119.754L119.761 204.5H121.464V205.76ZM125.918 212.195C125.228 212.195 124.598 212.017 124.028 211.662C123.463 211.307 123.01 210.832 122.67 210.237C122.335 209.637 122.168 208.975 122.168 208.25C122.168 207.7 122.265 207.187 122.46 206.712C122.655 206.232 122.923 205.812 123.263 205.452C123.608 205.087 124.008 204.802 124.463 204.597C124.918 204.392 125.403 204.29 125.918 204.29C126.483 204.29 127 204.405 127.47 204.635C127.945 204.86 128.35 205.175 128.685 205.58C129.025 205.985 129.278 206.455 129.443 206.99C129.613 207.525 129.675 208.097 129.63 208.707H123.51C123.57 209.132 123.71 209.512 123.93 209.847C124.15 210.177 124.43 210.44 124.77 210.635C125.115 210.83 125.498 210.93 125.918 210.935C126.368 210.935 126.775 210.82 127.14 210.59C127.505 210.355 127.8 210.035 128.025 209.63L129.308 209.93C129.008 210.595 128.555 211.14 127.95 211.565C127.345 211.985 126.668 212.195 125.918 212.195ZM123.473 207.717H128.363C128.323 207.297 128.188 206.915 127.958 206.57C127.728 206.22 127.435 205.94 127.08 205.73C126.725 205.52 126.338 205.415 125.918 205.415C125.498 205.415 125.113 205.517 124.763 205.722C124.413 205.927 124.123 206.205 123.893 206.555C123.668 206.9 123.528 207.287 123.473 207.717ZM136.018 210.02L137.143 210.627C136.803 211.102 136.37 211.482 135.845 211.767C135.325 212.052 134.76 212.195 134.15 212.195C133.46 212.195 132.83 212.017 132.26 211.662C131.695 211.307 131.243 210.832 130.903 210.237C130.568 209.637 130.4 208.975 130.4 208.25C130.4 207.7 130.498 207.187 130.693 206.712C130.888 206.232 131.155 205.812 131.495 205.452C131.84 205.087 132.24 204.802 132.695 204.597C133.15 204.392 133.635 204.29 134.15 204.29C134.76 204.29 135.325 204.432 135.845 204.717C136.37 205.002 136.803 205.385 137.143 205.865L136.018 206.472C135.778 206.177 135.493 205.95 135.163 205.79C134.833 205.63 134.495 205.55 134.15 205.55C133.685 205.55 133.263 205.675 132.883 205.925C132.508 206.17 132.21 206.497 131.99 206.907C131.77 207.317 131.66 207.765 131.66 208.25C131.66 208.735 131.77 209.182 131.99 209.592C132.215 209.997 132.515 210.322 132.89 210.567C133.27 210.812 133.69 210.935 134.15 210.935C134.52 210.935 134.868 210.85 135.193 210.68C135.518 210.51 135.793 210.29 136.018 210.02ZM141.665 212.195C140.975 212.195 140.345 212.017 139.775 211.662C139.21 211.307 138.757 210.832 138.417 210.237C138.082 209.637 137.915 208.975 137.915 208.25C137.915 207.7 138.012 207.187 138.207 206.712C138.402 206.232 138.67 205.812 139.01 205.452C139.355 205.087 139.755 204.802 140.21 204.597C140.665 204.392 141.15 204.29 141.665 204.29C142.355 204.29 142.982 204.467 143.547 204.822C144.117 205.177 144.57 205.655 144.905 206.255C145.245 206.855 145.415 207.52 145.415 208.25C145.415 208.795 145.317 209.305 145.122 209.78C144.927 210.255 144.657 210.675 144.312 211.04C143.972 211.4 143.575 211.682 143.12 211.887C142.67 212.093 142.185 212.195 141.665 212.195ZM141.665 210.935C142.135 210.935 142.557 210.812 142.932 210.567C143.312 210.317 143.61 209.99 143.825 209.585C144.045 209.175 144.155 208.73 144.155 208.25C144.155 207.76 144.042 207.31 143.817 206.9C143.597 206.49 143.3 206.162 142.925 205.917C142.55 205.672 142.13 205.55 141.665 205.55C141.195 205.55 140.772 205.675 140.397 205.925C140.022 206.17 139.725 206.497 139.505 206.907C139.285 207.317 139.175 207.765 139.175 208.25C139.175 208.75 139.287 209.205 139.512 209.615C139.737 210.02 140.04 210.342 140.42 210.582C140.8 210.817 141.215 210.935 141.665 210.935ZM146.553 204.5H147.813V212H146.553V204.5ZM147.198 203.277C146.998 203.277 146.831 203.212 146.696 203.082C146.561 202.952 146.493 202.79 146.493 202.595C146.493 202.4 146.561 202.237 146.696 202.107C146.831 201.977 146.996 201.912 147.191 201.912C147.386 201.912 147.551 201.977 147.686 202.107C147.821 202.237 147.888 202.4 147.888 202.595C147.888 202.79 147.821 202.952 147.686 203.082C147.556 203.212 147.393 203.277 147.198 203.277ZM156.201 207.335V212H154.941V207.612C154.941 207.232 154.848 206.887 154.663 206.577C154.478 206.267 154.231 206.022 153.921 205.842C153.611 205.657 153.266 205.565 152.886 205.565C152.511 205.565 152.166 205.657 151.851 205.842C151.541 206.022 151.293 206.267 151.108 206.577C150.923 206.887 150.831 207.232 150.831 207.612V212H149.571V204.5H150.831V205.437C151.096 205.087 151.431 204.81 151.836 204.605C152.241 204.395 152.681 204.29 153.156 204.29C153.716 204.29 154.226 204.427 154.686 204.702C155.151 204.972 155.518 205.337 155.788 205.797C156.063 206.257 156.201 206.77 156.201 207.335ZM163.509 212L160.824 201.5H162.122L164.237 209.787L166.344 201.5H167.477L169.592 209.787L171.699 201.5H172.997L170.327 212H168.857L166.914 204.395L164.972 212H163.509ZM179.478 204.5H180.738V212H179.478L179.425 210.732C179.19 211.167 178.865 211.52 178.45 211.79C178.04 212.06 177.55 212.195 176.98 212.195C176.43 212.195 175.915 212.093 175.435 211.887C174.955 211.677 174.53 211.39 174.16 211.025C173.795 210.655 173.51 210.23 173.305 209.75C173.1 209.27 172.998 208.752 172.998 208.197C172.998 207.662 173.098 207.157 173.298 206.682C173.498 206.207 173.775 205.792 174.13 205.437C174.49 205.077 174.905 204.797 175.375 204.597C175.845 204.392 176.35 204.29 176.89 204.29C177.48 204.29 177.998 204.43 178.443 204.71C178.888 204.985 179.248 205.342 179.523 205.782L179.478 204.5ZM176.958 210.972C177.453 210.972 177.88 210.852 178.24 210.612C178.605 210.367 178.885 210.037 179.08 209.622C179.28 209.207 179.38 208.75 179.38 208.25C179.38 207.74 179.28 207.28 179.08 206.87C178.88 206.455 178.598 206.127 178.233 205.887C177.873 205.642 177.448 205.52 176.958 205.52C176.463 205.52 176.013 205.642 175.608 205.887C175.203 206.132 174.88 206.462 174.64 206.877C174.405 207.287 174.288 207.745 174.288 208.25C174.288 208.755 174.41 209.215 174.655 209.63C174.9 210.04 175.225 210.367 175.63 210.612C176.035 210.852 176.478 210.972 176.958 210.972ZM182.325 212V200.75H183.585V212H182.325ZM185.386 212V200.75H186.646V212H185.386ZM191.675 212.195C190.985 212.195 190.355 212.017 189.785 211.662C189.22 211.307 188.767 210.832 188.427 210.237C188.092 209.637 187.925 208.975 187.925 208.25C187.925 207.7 188.022 207.187 188.217 206.712C188.412 206.232 188.68 205.812 189.02 205.452C189.365 205.087 189.765 204.802 190.22 204.597C190.675 204.392 191.16 204.29 191.675 204.29C192.24 204.29 192.757 204.405 193.227 204.635C193.702 204.86 194.107 205.175 194.442 205.58C194.782 205.985 195.035 206.455 195.2 206.99C195.37 207.525 195.432 208.097 195.387 208.707H189.267C189.327 209.132 189.467 209.512 189.687 209.847C189.907 210.177 190.187 210.44 190.527 210.635C190.872 210.83 191.255 210.93 191.675 210.935C192.125 210.935 192.532 210.82 192.897 210.59C193.262 210.355 193.557 210.035 193.782 209.63L195.065 209.93C194.765 210.595 194.312 211.14 193.707 211.565C193.102 211.985 192.425 212.195 191.675 212.195ZM189.23 207.717H194.12C194.08 207.297 193.945 206.915 193.715 206.57C193.485 206.22 193.192 205.94 192.837 205.73C192.482 205.52 192.095 205.415 191.675 205.415C191.255 205.415 190.87 205.517 190.52 205.722C190.17 205.927 189.88 206.205 189.65 206.555C189.425 206.9 189.285 207.287 189.23 207.717ZM200.448 205.76H198.746L198.738 212H197.478L197.486 205.76H196.196V204.5H197.486L197.478 202.145H198.738L198.746 204.5H200.448V205.76Z" fill="#242428"/>
</g>
<defs>
<filter id="filter0_d_2056_32234" x="0" y="0" width="302" height="259" filterUnits="userSpaceOnUse" color-interpolation-filters="sRGB">
<feFlood flood-opacity="0" result="BackgroundImageFix"/>
<feColorMatrix in="SourceAlpha" type="matrix" values="0 0 0 0 0 0 0 0 0 0 0 0 0 0 0 0 0 0 127 0" result="hardAlpha"/>
<feOffset dy="4"/>
<feGaussianBlur stdDeviation="8"/>
<feComposite in2="hardAlpha" operator="out"/>
<feColorMatrix type="matrix" values="0 0 0 0 0.185888 0 0 0 0 0.185888 0 0 0 0 0.396154 0 0 0 0.15 0"/>
<feBlend mode="normal" in2="BackgroundImageFix" result="effect1_dropShadow_2056_32234"/>
<feBlend mode="normal" in="SourceGraphic" in2="effect1_dropShadow_2056_32234" result="shape"/>
</filter>
<clipPath id="clip0_2056_32234">
<rect width="20" height="20" fill="white" transform="translate(40 109)"/>
</clipPath>
<clipPath id="clip1_2056_32234">
<rect width="12" height="20" fill="white" transform="translate(44 153)"/>
</clipPath>
<clipPath id="clip2_2056_32234">
<rect width="20" height="20" fill="white" transform="translate(40.5 197)"/>
</clipPath>
</defs>
</svg>
