<svg width="54" height="54" viewBox="0 0 54 54" fill="none" xmlns="http://www.w3.org/2000/svg">
<path d="M46.3311 22.5176C48.699 33.3031 41.8748 43.9666 31.088 46.3346C20.3053 48.7011 9.64142 41.8763 7.27489 31.0909C4.90528 20.3049 11.7292 9.64071 22.513 7.27361C33.299 4.9054 43.9629 11.7316 46.3311 22.5176Z" fill="#EAE8FF"/>
<path d="M33.436 20.3322C32.6101 17.7712 30.1592 17.39 27.253 17.7661L26.4563 14.1372L24.2475 14.6224L25.0233 18.1556C24.4426 18.2832 23.8515 18.425 23.2644 18.5662L22.4839 15.0095L20.2762 15.4941L21.0718 19.1221C20.5957 19.2369 20.128 19.3489 19.6701 19.4497L19.6674 19.4385L16.6206 20.1063L17.1391 22.4654C17.1391 22.4654 18.7634 22.0762 18.7429 22.1122C19.6377 21.916 20.0429 22.3715 20.226 22.8011L21.1338 26.9352C21.1956 26.922 21.2767 26.9069 21.3706 26.8993C21.2971 26.9156 21.2182 26.9324 21.1374 26.9509L22.4082 32.7425C22.4308 33.0327 22.3638 33.518 21.739 33.6563C21.7727 33.6751 20.1332 34.0084 20.1332 34.0084L20.2734 36.7427L23.148 36.1115C23.683 35.9947 24.2114 35.8882 24.7288 35.7781L25.5355 39.4481L27.7421 38.9641L26.9448 35.3326C27.5534 35.2122 28.1408 35.0883 28.7131 34.9621L29.5057 38.577L31.7145 38.0918L30.9109 34.428C34.5777 33.3996 36.9715 31.8934 36.5286 28.3353C36.1727 25.47 34.5767 24.507 32.3576 24.4636C33.4951 23.5303 34.0435 22.2055 33.436 20.3322ZM32.0685 28.8585C32.6719 31.601 27.907 32.3201 26.4103 32.6501L25.3433 27.7872C26.8408 27.4588 31.4406 25.9977 32.0685 28.8585ZM29.535 22.2232C30.0821 24.7188 26.1015 25.2874 24.8545 25.5613L23.8864 21.1509C25.1334 20.877 28.9633 19.6206 29.535 22.2232Z" fill="white"/>
</svg>
