<svg width="98" height="98" viewBox="0 0 98 98" fill="none" xmlns="http://www.w3.org/2000/svg">
<path d="M32.8183 2.6742C7.45048 11.3736 -6.05942 39.0037 2.6387 64.3679C11.3368 89.7321 38.9573 103.249 64.3251 94.5499C89.693 85.8506 103.209 58.2325 94.509 32.8629C85.9066 7.54249 58.4089 -6.01079 33.0872 2.58197L32.8183 2.6742ZM49.8844 49.8988L50.6312 67.6652L76.212 58.8928C76.5499 58.7633 76.9253 58.7733 77.2558 58.9207C77.5863 59.068 77.8447 59.3406 77.9742 59.6784L78.1191 60.1008L78.5304 68.5474C78.5568 68.9439 78.4477 69.3376 78.2209 69.6639C77.9941 69.9903 77.6631 70.2298 77.2822 70.3431L38.1312 83.7691L37.0262 59.1639L30.4478 63.9051L30.3632 58.2171L36.9392 53.4747L35.4163 18.9444C35.3939 18.5487 35.5046 18.1569 35.7309 17.8314C35.9571 17.506 36.2857 17.2656 36.6644 17.1487L46.5632 13.7541C46.9012 13.6251 47.2766 13.6357 47.6069 13.7834C47.9371 13.9312 48.1951 14.2041 48.3242 14.5421L48.4697 14.9663L49.7621 44.1067L56.34 39.3636L56.6168 45.2359L49.8844 49.8988Z" fill="#EAE8FF"/>
</svg>
