<svg width="360" height="372" viewBox="0 0 360 372" fill="none" xmlns="http://www.w3.org/2000/svg">
<g filter="url(#filter0_d_2056_32351)">
<rect x="16" y="12" width="328" height="340" rx="14" fill="white"/>
<rect x="16.5" y="12.5" width="327" height="339" rx="13.5" stroke="#E9ECF2"/>
<path d="M50 36.1875C50 36.6797 49.609 37.1336 48.95 37.5C48.1543 37.9402 46.9676 38.252 45.6059 38.3449C45.5047 38.2957 45.4035 38.2492 45.2969 38.2082C44.2195 37.757 42.7867 37.5 41.25 37.5C41.023 37.5 40.8016 37.5055 40.5801 37.5164L40.55 37.5C39.891 37.1336 39.5 36.6797 39.5 36.1875C39.5 34.9789 41.8516 34 44.75 34C47.6484 34 50 34.9789 50 36.1875ZM40.3941 38.4051C40.673 38.3859 40.9602 38.375 41.25 38.375C42.9508 38.375 44.4602 38.7113 45.4199 39.2336C46.098 39.6027 46.5 40.0621 46.5 40.5625C46.5 40.6719 46.4809 40.7785 46.4426 40.8824C46.3168 41.2434 45.9777 41.5742 45.4855 41.8531C45.4828 41.8559 45.4773 41.8559 45.4746 41.8586C45.4664 41.8641 45.4582 41.8668 45.45 41.8723C44.493 42.4027 42.9672 42.7473 41.25 42.7473C39.6203 42.7473 38.1629 42.4383 37.1977 41.9516C37.1457 41.927 37.0965 41.8996 37.0473 41.8723C36.391 41.5086 36 41.0547 36 40.5625C36 39.6109 37.4602 38.7988 39.5 38.5008C39.7871 38.4598 40.0852 38.427 40.3941 38.4051ZM47.375 40.5625C47.375 39.9637 47.0852 39.4715 46.716 39.1023C47.4898 38.982 48.198 38.7906 48.7996 38.5418C49.2453 38.3559 49.6609 38.1262 50 37.8445V38.8125C50 39.3402 49.5488 39.827 48.8023 40.2043C48.4031 40.4066 47.9164 40.5789 47.3695 40.7102C47.3723 40.6609 47.375 40.6145 47.375 40.5652V40.5625ZM46.5 43.1875C46.5 43.6797 46.109 44.1336 45.45 44.5C45.4008 44.5273 45.3516 44.552 45.2996 44.5793C44.3371 45.066 42.8797 45.375 41.25 45.375C39.5328 45.375 38.007 45.0305 37.05 44.5C36.391 44.1336 36 43.6797 36 43.1875V42.2195C36.3418 42.5012 36.7547 42.7309 37.2004 42.9168C38.2805 43.368 39.7133 43.625 41.25 43.625C42.7867 43.625 44.2195 43.368 45.2996 42.9168C45.5129 42.8293 45.718 42.7281 45.9121 42.6188C46.0789 42.5258 46.2348 42.4219 46.3824 42.3125C46.4234 42.2824 46.4617 42.2496 46.5 42.2195V43.1875ZM47.375 43.1875V41.6043C47.8945 41.4895 48.373 41.3445 48.7996 41.1668C49.2453 40.9809 49.6609 40.7512 50 40.4695V41.4375C50 41.7246 49.8633 42.0117 49.5926 42.2824C49.1469 42.7281 48.3621 43.0945 47.3695 43.3324C47.3723 43.2859 47.375 43.2367 47.375 43.1875ZM41.25 46.25C42.7867 46.25 44.2195 45.993 45.2996 45.5418C45.7453 45.3559 46.1609 45.1262 46.5 44.8445V45.8125C46.5 47.0211 44.1484 48 41.25 48C38.3516 48 36 47.0211 36 45.8125V44.8445C36.3418 45.1262 36.7547 45.3559 37.2004 45.5418C38.2805 45.993 39.7133 46.25 41.25 46.25Z" fill="#242428"/>
<path d="M62.23 46L58.42 35.5H59.755L63.01 44.4625L66.2725 35.5H67.6L63.79 46H62.23ZM74.0853 38.5H75.3453V46H74.0853L74.0328 44.7325C73.7978 45.1675 73.4728 45.52 73.0578 45.79C72.6478 46.06 72.1578 46.195 71.5878 46.195C71.0378 46.195 70.5228 46.0925 70.0428 45.8875C69.5628 45.6775 69.1378 45.39 68.7678 45.025C68.4028 44.655 68.1178 44.23 67.9128 43.75C67.7078 43.27 67.6053 42.7525 67.6053 42.1975C67.6053 41.6625 67.7053 41.1575 67.9053 40.6825C68.1053 40.2075 68.3828 39.7925 68.7378 39.4375C69.0978 39.0775 69.5128 38.7975 69.9828 38.5975C70.4528 38.3925 70.9578 38.29 71.4978 38.29C72.0878 38.29 72.6053 38.43 73.0503 38.71C73.4953 38.985 73.8553 39.3425 74.1303 39.7825L74.0853 38.5ZM71.5653 44.9725C72.0603 44.9725 72.4878 44.8525 72.8478 44.6125C73.2128 44.3675 73.4928 44.0375 73.6878 43.6225C73.8878 43.2075 73.9878 42.75 73.9878 42.25C73.9878 41.74 73.8878 41.28 73.6878 40.87C73.4878 40.455 73.2053 40.1275 72.8403 39.8875C72.4803 39.6425 72.0553 39.52 71.5653 39.52C71.0703 39.52 70.6203 39.6425 70.2153 39.8875C69.8103 40.1325 69.4878 40.4625 69.2478 40.8775C69.0128 41.2875 68.8953 41.745 68.8953 42.25C68.8953 42.755 69.0178 43.215 69.2628 43.63C69.5078 44.04 69.8328 44.3675 70.2378 44.6125C70.6428 44.8525 71.0853 44.9725 71.5653 44.9725ZM76.9322 46V34.75H78.1922V46H76.9322ZM79.6938 43.15V38.5H80.9538V42.8725C80.9538 43.2525 81.0463 43.5975 81.2313 43.9075C81.4163 44.2175 81.6638 44.465 81.9738 44.65C82.2888 44.83 82.6338 44.92 83.0088 44.92C83.3888 44.92 83.7313 44.83 84.0363 44.65C84.3463 44.465 84.5938 44.2175 84.7788 43.9075C84.9638 43.5975 85.0563 43.2525 85.0563 42.8725V38.5H86.3163L86.3238 46H85.0638L85.0563 45.0475C84.7913 45.3975 84.4563 45.6775 84.0513 45.8875C83.6463 46.0925 83.2088 46.195 82.7388 46.195C82.1788 46.195 81.6663 46.06 81.2013 45.79C80.7413 45.515 80.3738 45.1475 80.0988 44.6875C79.8288 44.2275 79.6938 43.715 79.6938 43.15ZM91.0574 46.195C90.3674 46.195 89.7374 46.0175 89.1674 45.6625C88.6024 45.3075 88.1499 44.8325 87.8099 44.2375C87.4749 43.6375 87.3074 42.975 87.3074 42.25C87.3074 41.7 87.4049 41.1875 87.5999 40.7125C87.7949 40.2325 88.0624 39.8125 88.4024 39.4525C88.7474 39.0875 89.1474 38.8025 89.6024 38.5975C90.0574 38.3925 90.5424 38.29 91.0574 38.29C91.6224 38.29 92.1399 38.405 92.6099 38.635C93.0849 38.86 93.4899 39.175 93.8249 39.58C94.1649 39.985 94.4174 40.455 94.5824 40.99C94.7524 41.525 94.8149 42.0975 94.7699 42.7075H88.6499C88.7099 43.1325 88.8499 43.5125 89.0699 43.8475C89.2899 44.1775 89.5699 44.44 89.9099 44.635C90.2549 44.83 90.6374 44.93 91.0574 44.935C91.5074 44.935 91.9149 44.82 92.2799 44.59C92.6449 44.355 92.9399 44.035 93.1649 43.63L94.4474 43.93C94.1474 44.595 93.6949 45.14 93.0899 45.565C92.4849 45.985 91.8074 46.195 91.0574 46.195ZM88.6124 41.7175H93.5024C93.4624 41.2975 93.3274 40.915 93.0974 40.57C92.8674 40.22 92.5749 39.94 92.2199 39.73C91.8649 39.52 91.4774 39.415 91.0574 39.415C90.6374 39.415 90.2524 39.5175 89.9024 39.7225C89.5524 39.9275 89.2624 40.205 89.0324 40.555C88.8074 40.9 88.6674 41.2875 88.6124 41.7175ZM101.885 46.84C101.375 46.355 100.962 45.815 100.647 45.22C100.332 44.625 100.102 43.9875 99.9573 43.3075C99.8123 42.6225 99.7398 41.91 99.7398 41.17C99.7398 40.78 99.7698 40.365 99.8298 39.925C99.8898 39.48 99.9798 39.0375 100.1 38.5975C100.22 38.1525 100.365 37.73 100.535 37.33C100.71 36.93 100.91 36.5725 101.135 36.2575C101.36 35.9375 101.61 35.685 101.885 35.5H103.145C102.9 35.72 102.672 35.99 102.462 36.31C102.252 36.625 102.06 36.9775 101.885 37.3675C101.71 37.7525 101.557 38.16 101.427 38.59C101.297 39.02 101.195 39.455 101.12 39.895C101.05 40.33 101.01 40.755 101 41.17C101.015 41.955 101.115 42.695 101.3 43.39C101.49 44.085 101.742 44.7225 102.057 45.3025C102.377 45.8825 102.74 46.395 103.145 46.84H101.885ZM108.341 36.6025C107.896 36.5975 107.481 36.67 107.096 36.82C106.711 36.97 106.399 37.1775 106.159 37.4425C105.919 37.7075 105.799 38.015 105.799 38.365C105.799 38.785 105.909 39.1075 106.129 39.3325C106.354 39.5525 106.659 39.7175 107.044 39.8275C107.429 39.9375 107.861 40.035 108.341 40.12C109.021 40.235 109.651 40.4175 110.231 40.6675C110.811 40.9125 111.276 41.24 111.626 41.65C111.981 42.06 112.159 42.565 112.159 43.165C112.159 43.725 112.006 44.22 111.701 44.65C111.396 45.08 110.991 45.4275 110.486 45.6925C109.981 45.9525 109.424 46.11 108.814 46.165V47.68H107.891V46.165C107.376 46.125 106.889 46.0125 106.429 45.8275C105.969 45.6425 105.569 45.395 105.229 45.085C104.889 44.77 104.644 44.405 104.494 43.99L105.671 43.5475C105.771 43.8275 105.956 44.0725 106.226 44.2825C106.501 44.4875 106.824 44.6475 107.194 44.7625C107.564 44.8775 107.946 44.935 108.341 44.935C108.791 44.935 109.209 44.8625 109.594 44.7175C109.984 44.5675 110.299 44.36 110.539 44.095C110.779 43.83 110.899 43.52 110.899 43.165C110.899 42.8 110.774 42.5025 110.524 42.2725C110.274 42.0375 109.954 41.8525 109.564 41.7175C109.174 41.5775 108.766 41.47 108.341 41.395C107.616 41.275 106.966 41.105 106.391 40.885C105.821 40.66 105.369 40.3475 105.034 39.9475C104.704 39.5475 104.539 39.02 104.539 38.365C104.539 37.805 104.691 37.31 104.996 36.88C105.301 36.445 105.706 36.0975 106.211 35.8375C106.721 35.5775 107.281 35.42 107.891 35.365V33.82H108.814V35.365C109.309 35.41 109.784 35.525 110.239 35.71C110.694 35.89 111.094 36.135 111.439 36.445C111.789 36.755 112.044 37.125 112.204 37.555L111.011 37.99C110.911 37.705 110.724 37.46 110.449 37.255C110.179 37.045 109.859 36.885 109.489 36.775C109.124 36.66 108.741 36.6025 108.341 36.6025ZM113.55 46.84C113.955 46.395 114.315 45.8825 114.63 45.3025C114.945 44.7225 115.197 44.085 115.387 43.39C115.577 42.695 115.68 41.955 115.695 41.17C115.685 40.755 115.642 40.33 115.567 39.895C115.497 39.455 115.397 39.02 115.267 38.59C115.137 38.16 114.985 37.7525 114.81 37.3675C114.635 36.9775 114.442 36.625 114.232 36.31C114.022 35.99 113.795 35.72 113.55 35.5H114.81C115.085 35.685 115.332 35.9375 115.552 36.2575C115.777 36.5725 115.977 36.93 116.152 37.33C116.327 37.73 116.475 38.1525 116.595 38.5975C116.715 39.0375 116.805 39.48 116.865 39.925C116.925 40.365 116.955 40.78 116.955 41.17C116.955 41.91 116.882 42.6225 116.737 43.3075C116.592 43.9875 116.362 44.625 116.047 45.22C115.732 45.815 115.32 46.355 114.81 46.84H113.55Z" fill="#242428"/>
<g filter="url(#filter1_d_2056_32351)">
<rect x="36" y="58" width="288" height="38" rx="6" fill="white"/>
<rect x="36.5" y="58.5" width="287" height="37" rx="5.5" stroke="#E9ECF2"/>
<path d="M50.52 82V81.0315C50.8537 80.7325 51.2285 80.3988 51.6445 80.0305C52.0605 79.6578 52.4743 79.27 52.886 78.867C53.302 78.4597 53.6833 78.0567 54.03 77.658C54.3767 77.2593 54.6562 76.8823 54.8685 76.527C55.0808 76.1673 55.187 75.8532 55.187 75.5845C55.187 75.2638 55.109 74.9713 54.953 74.707C54.797 74.4383 54.5868 74.2238 54.3225 74.0635C54.0625 73.9032 53.7722 73.823 53.4515 73.823C53.1308 73.823 52.8362 73.9032 52.5675 74.0635C52.3032 74.2238 52.0908 74.4383 51.9305 74.707C51.7745 74.9713 51.6965 75.2638 51.6965 75.5845H50.6045C50.6045 75.0515 50.7345 74.5705 50.9945 74.1415C51.2545 73.7082 51.599 73.3658 52.028 73.1145C52.457 72.8588 52.9315 72.731 53.4515 72.731C53.9715 72.731 54.4438 72.8588 54.8685 73.1145C55.2975 73.3702 55.6398 73.7147 55.8955 74.148C56.1512 74.577 56.279 75.0558 56.279 75.5845C56.279 75.8878 56.2053 76.215 56.058 76.566C55.9107 76.9127 55.7092 77.2702 55.4535 77.6385C55.1978 78.0068 54.9075 78.3795 54.5825 78.7565C54.2575 79.1292 53.9152 79.4975 53.5555 79.8615C53.1958 80.2255 52.8383 80.5743 52.483 80.908H56.396V82H50.52ZM60.3969 82.169C59.8465 82.169 59.3569 82.0455 58.9279 81.7985C58.5032 81.5472 58.1695 81.2135 57.9269 80.7975C57.6842 80.3772 57.5629 79.9113 57.5629 79.4H58.6549C58.6549 79.7077 58.7264 79.9893 58.8694 80.245C59.0124 80.4963 59.2139 80.6978 59.4739 80.8495C59.7339 81.0012 60.0415 81.077 60.3969 81.077C60.7045 81.077 60.9905 81.0012 61.2549 80.8495C61.5235 80.6978 61.7402 80.4963 61.9049 80.245C62.0695 79.9893 62.1519 79.7077 62.1519 79.4C62.1519 79.0143 62.0522 78.6937 61.8529 78.438C61.6579 78.178 61.3849 77.9852 61.0339 77.8595C60.6872 77.7295 60.2907 77.6645 59.8444 77.6645V76.787C60.4597 76.787 60.9515 76.6592 61.3199 76.4035C61.6925 76.1478 61.8789 75.7708 61.8789 75.2725C61.8789 75.0082 61.8074 74.7655 61.6644 74.5445C61.5214 74.3235 61.3329 74.148 61.0989 74.018C60.8692 73.8837 60.6222 73.8165 60.3579 73.8165C60.0892 73.8165 59.8314 73.8837 59.5844 74.018C59.3374 74.148 59.1359 74.3235 58.9799 74.5445C58.8239 74.7655 58.7459 75.0082 58.7459 75.2725H57.6539C57.6539 74.9215 57.7254 74.5922 57.8684 74.2845C58.0157 73.9768 58.215 73.706 58.4664 73.472C58.722 73.238 59.0102 73.056 59.3309 72.926C59.6515 72.7917 59.9895 72.7245 60.3449 72.7245C60.8085 72.7245 61.2397 72.8393 61.6384 73.069C62.037 73.2987 62.3577 73.6063 62.6004 73.992C62.8474 74.3777 62.9709 74.8045 62.9709 75.2725C62.9709 75.6928 62.8647 76.0807 62.6524 76.436C62.44 76.7913 62.1519 77.0405 61.7879 77.1835C62.1042 77.2918 62.3707 77.4608 62.5874 77.6905C62.804 77.9158 62.9665 78.1758 63.0749 78.4705C63.1875 78.7652 63.2439 79.075 63.2439 79.4C63.2439 79.907 63.1117 80.3707 62.8474 80.791C62.5874 81.2113 62.2407 81.5472 61.8074 81.7985C61.3784 82.0455 60.9082 82.169 60.3969 82.169ZM68.0678 82V79.543H64.1548V78.438L67.7948 72.9H69.1598V78.451H70.0633V79.543H69.1598V82H68.0678ZM65.4353 78.438L68.0678 78.451L68.0483 74.434L65.4353 78.438ZM74.3232 82.169C73.7599 82.169 73.2485 82.0325 72.7892 81.7595C72.3299 81.4865 71.9659 81.1225 71.6972 80.6675C71.4329 80.2082 71.3007 79.7033 71.3007 79.153H72.3927C72.3927 79.504 72.4794 79.8268 72.6527 80.1215C72.826 80.4118 73.0579 80.6437 73.3482 80.817C73.6429 80.9903 73.9679 81.077 74.3232 81.077C74.6742 81.077 74.9949 80.9903 75.2852 80.817C75.5755 80.6437 75.8074 80.4118 75.9807 80.1215C76.154 79.8268 76.2407 79.504 76.2407 79.153C76.2407 78.802 76.1584 78.4792 75.9937 78.1845C75.8334 77.8898 75.5972 77.6558 75.2852 77.4825C74.9732 77.3048 74.594 77.216 74.1477 77.216H71.9052L72.7892 72.9H77.1052V73.992H73.6732L73.2507 76.124L74.1932 76.1305C74.8129 76.1435 75.3567 76.2822 75.8247 76.5465C76.297 76.8065 76.6654 77.1618 76.9297 77.6125C77.1984 78.0588 77.3327 78.5723 77.3327 79.153C77.3327 79.5647 77.2547 79.9547 77.0987 80.323C76.9427 80.687 76.726 81.0077 76.4487 81.285C76.1714 81.5623 75.8507 81.779 75.4867 81.935C75.127 82.091 74.7392 82.169 74.3232 82.169ZM81.5849 82.169C81.0086 82.169 80.4821 82.026 80.0054 81.74C79.5288 81.454 79.1474 81.0727 78.8614 80.596C78.5754 80.115 78.4324 79.5842 78.4324 79.0035C78.4324 78.6785 78.4693 78.3947 78.5429 78.152C78.6209 77.9093 78.7358 77.6472 78.8874 77.3655L81.4614 72.9H82.7289L80.8894 76.0915C81.2621 75.9745 81.6326 75.9333 82.0009 75.968C82.3693 76.0027 82.7181 76.1023 83.0474 76.267C83.3811 76.4317 83.6758 76.6483 83.9314 76.917C84.1871 77.1857 84.3886 77.4977 84.5359 77.853C84.6833 78.204 84.7569 78.5875 84.7569 79.0035C84.7569 79.4412 84.6724 79.8507 84.5034 80.232C84.3388 80.6133 84.1113 80.9492 83.8209 81.2395C83.5349 81.5298 83.1991 81.7573 82.8134 81.922C82.4278 82.0867 82.0183 82.169 81.5849 82.169ZM81.5849 81.077C81.9836 81.077 82.3389 80.9795 82.6509 80.7845C82.9673 80.5895 83.2143 80.3338 83.3919 80.0175C83.5739 79.7012 83.6649 79.3632 83.6649 79.0035C83.6649 78.6265 83.5718 78.282 83.3854 77.97C83.2034 77.658 82.9543 77.4088 82.6379 77.2225C82.3259 77.0318 81.9793 76.9365 81.5979 76.9365C81.1993 76.9365 80.8439 77.034 80.5319 77.229C80.2199 77.424 79.9729 77.6775 79.7909 77.9895C79.6133 78.3015 79.5244 78.6395 79.5244 79.0035C79.5244 79.3978 79.6198 79.751 79.8104 80.063C80.0011 80.375 80.2524 80.622 80.5644 80.804C80.8808 80.986 81.2209 81.077 81.5849 81.077ZM88.6181 82.169C88.0418 82.169 87.5153 82.026 87.0386 81.74C86.562 81.454 86.1806 81.0727 85.8946 80.596C85.6086 80.115 85.4656 79.5842 85.4656 79.0035C85.4656 78.6785 85.5025 78.3947 85.5761 78.152C85.6541 77.9093 85.769 77.6472 85.9206 77.3655L88.4946 72.9H89.7621L87.9226 76.0915C88.2953 75.9745 88.6658 75.9333 89.0341 75.968C89.4025 76.0027 89.7513 76.1023 90.0806 76.267C90.4143 76.4317 90.709 76.6483 90.9646 76.917C91.2203 77.1857 91.4218 77.4977 91.5691 77.853C91.7165 78.204 91.7901 78.5875 91.7901 79.0035C91.7901 79.4412 91.7056 79.8507 91.5366 80.232C91.372 80.6133 91.1445 80.9492 90.8541 81.2395C90.5681 81.5298 90.2323 81.7573 89.8466 81.922C89.461 82.0867 89.0515 82.169 88.6181 82.169ZM88.6181 81.077C89.0168 81.077 89.3721 80.9795 89.6841 80.7845C90.0005 80.5895 90.2475 80.3338 90.4251 80.0175C90.6071 79.7012 90.6981 79.3632 90.6981 79.0035C90.6981 78.6265 90.605 78.282 90.4186 77.97C90.2366 77.658 89.9875 77.4088 89.6711 77.2225C89.3591 77.0318 89.0125 76.9365 88.6311 76.9365C88.2325 76.9365 87.8771 77.034 87.5651 77.229C87.2531 77.424 87.0061 77.6775 86.8241 77.9895C86.6465 78.3015 86.5576 78.6395 86.5576 79.0035C86.5576 79.3978 86.653 79.751 86.8436 80.063C87.0343 80.375 87.2856 80.622 87.5976 80.804C87.914 80.986 88.2541 81.077 88.6181 81.077ZM95.6513 82.169C95.075 82.169 94.5485 82.026 94.0718 81.74C93.5952 81.454 93.2138 81.0727 92.9278 80.596C92.6418 80.115 92.4988 79.5842 92.4988 79.0035C92.4988 78.6785 92.5357 78.3947 92.6093 78.152C92.6873 77.9093 92.8022 77.6472 92.9538 77.3655L95.5278 72.9H96.7953L94.9558 76.0915C95.3285 75.9745 95.699 75.9333 96.0673 75.968C96.4357 76.0027 96.7845 76.1023 97.1138 76.267C97.4475 76.4317 97.7422 76.6483 97.9978 76.917C98.2535 77.1857 98.455 77.4977 98.6023 77.853C98.7497 78.204 98.8233 78.5875 98.8233 79.0035C98.8233 79.4412 98.7388 79.8507 98.5698 80.232C98.4052 80.6133 98.1777 80.9492 97.8873 81.2395C97.6013 81.5298 97.2655 81.7573 96.8798 81.922C96.4942 82.0867 96.0847 82.169 95.6513 82.169ZM95.6513 81.077C96.05 81.077 96.4053 80.9795 96.7173 80.7845C97.0337 80.5895 97.2807 80.3338 97.4583 80.0175C97.6403 79.7012 97.7313 79.3632 97.7313 79.0035C97.7313 78.6265 97.6382 78.282 97.4518 77.97C97.2698 77.658 97.0207 77.4088 96.7043 77.2225C96.3923 77.0318 96.0457 76.9365 95.6643 76.9365C95.2657 76.9365 94.9103 77.034 94.5983 77.229C94.2863 77.424 94.0393 77.6775 93.8573 77.9895C93.6797 78.3015 93.5908 78.6395 93.5908 79.0035C93.5908 79.3978 93.6862 79.751 93.8768 80.063C94.0675 80.375 94.3188 80.622 94.6308 80.804C94.9472 80.986 95.2873 81.077 95.6513 81.077Z" fill="#242428"/>
</g>
<path fill-rule="evenodd" clip-rule="evenodd" d="M46.0375 116.25H47V115H36V116.25H36.9625V118.822L37.2501 119.009L40.3175 121L37.2507 122.991L36.9631 123.179V125.75H36V127H47V125.75H46.0375V123.179L45.7499 122.991L42.6825 121L45.7493 119.009L46.037 118.822L46.0375 116.25ZM44.6625 116.25H38.3375V118.178L41.5 120.232L44.6625 118.178V116.25Z" fill="#242428"/>
<path d="M55.9 126V115.5H62.3425V116.76H57.16V119.745H61.405V121.005H57.16V124.74H62.3425V126H55.9ZM63.2758 126L66.0208 122.235L63.2908 118.485H64.8433L66.8008 121.155L68.7508 118.485H70.3033L67.5733 122.235L70.3183 126H68.7658L66.8008 123.3L64.8283 126H63.2758ZM72.8778 129.75H71.6178V118.5H72.8778V119.782C73.1328 119.342 73.4728 118.987 73.8978 118.717C74.3228 118.442 74.8278 118.305 75.4128 118.305C75.9578 118.305 76.4678 118.407 76.9428 118.612C77.4228 118.817 77.8428 119.102 78.2028 119.467C78.5628 119.827 78.8453 120.245 79.0503 120.72C79.2553 121.195 79.3578 121.705 79.3578 122.25C79.3578 122.795 79.2553 123.307 79.0503 123.787C78.8453 124.267 78.5628 124.69 78.2028 125.055C77.8428 125.415 77.4228 125.697 76.9428 125.902C76.4678 126.108 75.9578 126.21 75.4128 126.21C74.8278 126.21 74.3228 126.075 73.8978 125.805C73.4728 125.53 73.1328 125.172 72.8778 124.732V129.75ZM75.3978 119.527C74.9128 119.527 74.4878 119.65 74.1228 119.895C73.7578 120.14 73.4753 120.467 73.2753 120.877C73.0803 121.287 72.9828 121.745 72.9828 122.25C72.9828 122.75 73.0803 123.207 73.2753 123.622C73.4753 124.037 73.7553 124.367 74.1153 124.612C74.4803 124.857 74.9078 124.98 75.3978 124.98C75.8828 124.98 76.3278 124.86 76.7328 124.62C77.1378 124.375 77.4628 124.047 77.7078 123.637C77.9528 123.222 78.0753 122.76 78.0753 122.25C78.0753 121.75 77.9553 121.295 77.7153 120.885C77.4753 120.47 77.1528 120.14 76.7478 119.895C76.3428 119.65 75.8928 119.527 75.3978 119.527ZM80.5094 118.5H81.7694V126H80.5094V118.5ZM81.1544 117.277C80.9544 117.277 80.7869 117.212 80.6519 117.082C80.5169 116.952 80.4494 116.79 80.4494 116.595C80.4494 116.4 80.5169 116.237 80.6519 116.107C80.7869 115.977 80.9519 115.912 81.1469 115.912C81.3419 115.912 81.5069 115.977 81.6419 116.107C81.7769 116.237 81.8444 116.4 81.8444 116.595C81.8444 116.79 81.7769 116.952 81.6419 117.082C81.5119 117.212 81.3494 117.277 81.1544 117.277ZM83.527 126V118.5H84.787V119.437C85.052 119.087 85.387 118.81 85.792 118.605C86.197 118.395 86.637 118.29 87.112 118.29C87.402 118.29 87.682 118.327 87.952 118.402L87.442 119.662C87.237 119.597 87.037 119.565 86.842 119.565C86.467 119.565 86.122 119.657 85.807 119.842C85.497 120.022 85.2495 120.267 85.0645 120.577C84.8795 120.887 84.787 121.232 84.787 121.612V126H83.527ZM91.7928 126.195C91.1028 126.195 90.4728 126.017 89.9028 125.662C89.3378 125.307 88.8853 124.832 88.5453 124.237C88.2103 123.637 88.0428 122.975 88.0428 122.25C88.0428 121.7 88.1403 121.187 88.3353 120.712C88.5303 120.232 88.7978 119.812 89.1378 119.452C89.4828 119.087 89.8828 118.802 90.3378 118.597C90.7928 118.392 91.2778 118.29 91.7928 118.29C92.3578 118.29 92.8753 118.405 93.3453 118.635C93.8203 118.86 94.2253 119.175 94.5603 119.58C94.9003 119.985 95.1528 120.455 95.3178 120.99C95.4878 121.525 95.5503 122.097 95.5053 122.707H89.3853C89.4453 123.132 89.5853 123.512 89.8053 123.847C90.0253 124.177 90.3053 124.44 90.6453 124.635C90.9903 124.83 91.3728 124.93 91.7928 124.935C92.2428 124.935 92.6503 124.82 93.0153 124.59C93.3803 124.355 93.6753 124.035 93.9003 123.63L95.1828 123.93C94.8828 124.595 94.4303 125.14 93.8253 125.565C93.2203 125.985 92.5428 126.195 91.7928 126.195ZM89.3478 121.717H94.2378C94.1978 121.297 94.0628 120.915 93.8328 120.57C93.6028 120.22 93.3103 119.94 92.9553 119.73C92.6003 119.52 92.2128 119.415 91.7928 119.415C91.3728 119.415 90.9878 119.517 90.6378 119.722C90.2878 119.927 89.9978 120.205 89.7678 120.555C89.5428 120.9 89.4028 121.287 89.3478 121.717Z" fill="#242428"/>
<g filter="url(#filter2_d_2056_32351)">
<rect x="36" y="138" width="288" height="40" rx="6" fill="white"/>
<rect x="36.5" y="138.5" width="287" height="39" rx="5.5" stroke="#E9ECF2"/>
<path d="M50.78 163V153.9H51.963L56.5065 161.024V153.9H57.5985V163H56.422L51.872 155.876V163H50.78ZM61.9554 163.169C61.3574 163.169 60.8114 163.015 60.3174 162.707C59.8278 162.4 59.4356 161.988 59.1409 161.472C58.8506 160.952 58.7054 160.378 58.7054 159.75C58.7054 159.273 58.7899 158.829 58.9589 158.417C59.1279 158.001 59.3598 157.637 59.6544 157.325C59.9534 157.009 60.3001 156.762 60.6944 156.584C61.0888 156.407 61.5091 156.318 61.9554 156.318C62.5534 156.318 63.0973 156.472 63.5869 156.779C64.0809 157.087 64.4731 157.501 64.7634 158.021C65.0581 158.541 65.2054 159.117 65.2054 159.75C65.2054 160.222 65.1209 160.664 64.9519 161.076C64.7829 161.488 64.5489 161.852 64.2499 162.168C63.9553 162.48 63.6108 162.725 63.2164 162.902C62.8264 163.08 62.4061 163.169 61.9554 163.169ZM61.9554 162.077C62.3628 162.077 62.7289 161.971 63.0539 161.758C63.3833 161.542 63.6411 161.258 63.8274 160.907C64.0181 160.552 64.1134 160.166 64.1134 159.75C64.1134 159.325 64.0159 158.935 63.8209 158.58C63.6303 158.225 63.3724 157.941 63.0474 157.728C62.7224 157.516 62.3584 157.41 61.9554 157.41C61.5481 157.41 61.1819 157.518 60.8569 157.735C60.5319 157.947 60.2741 158.231 60.0834 158.586C59.8928 158.942 59.7974 159.33 59.7974 159.75C59.7974 160.183 59.8949 160.578 60.0899 160.933C60.2849 161.284 60.5471 161.563 60.8764 161.771C61.2058 161.975 61.5654 162.077 61.9554 162.077Z" fill="#242428"/>
<rect x="284" y="148" width="1" height="20" fill="#D9D9D9"/>
<path fill-rule="evenodd" clip-rule="evenodd" d="M305.094 160.771C304.939 160.918 304.729 161 304.51 161C304.291 161 304.081 160.918 303.926 160.771L299.252 156.345C299.173 156.273 299.11 156.187 299.067 156.091C299.024 155.996 299.001 155.893 299 155.789C298.999 155.685 299.02 155.582 299.062 155.486C299.103 155.39 299.164 155.303 299.242 155.229C299.32 155.156 299.412 155.098 299.513 155.058C299.615 155.019 299.724 154.999 299.833 155C299.943 155.001 300.051 155.023 300.152 155.064C300.253 155.105 300.344 155.164 300.42 155.239L304.51 159.112L308.6 155.239C308.756 155.096 308.964 155.017 309.181 155.019C309.398 155.021 309.605 155.103 309.758 155.248C309.911 155.393 309.998 155.59 310 155.795C310.002 156 309.919 156.198 309.768 156.345L305.094 160.771Z" fill="#676768"/>
</g>
<path fill-rule="evenodd" clip-rule="evenodd" d="M36.4688 198.419C36 198.837 36 199.51 36 200.857V205.143C36 206.49 36 207.163 36.4688 207.581C36.9376 208 37.6912 208 39.2 208H48.8C50.3088 208 51.0624 208 51.5312 207.581C52 207.163 52 206.49 52 205.143V200.857C52 199.51 52 198.837 51.5312 198.419C51.0624 198 50.3088 198 48.8 198H39.2C37.6912 198 36.9376 198 36.4688 198.419ZM38.4 199.429C38.1878 199.429 37.9843 199.504 37.8343 199.638C37.6843 199.772 37.6 199.953 37.6 200.143C37.6 200.332 37.6843 200.514 37.8343 200.648C37.9843 200.782 38.1878 200.857 38.4 200.857H40C40.2122 200.857 40.4157 200.782 40.5657 200.648C40.7157 200.514 40.8 200.332 40.8 200.143C40.8 199.953 40.7157 199.772 40.5657 199.638C40.4157 199.504 40.2122 199.429 40 199.429H38.4ZM47.2 205.857C47.2 205.668 47.2843 205.486 47.4343 205.352C47.5843 205.218 47.7878 205.143 48 205.143H49.6C49.8122 205.143 50.0157 205.218 50.1657 205.352C50.3157 205.486 50.4 205.668 50.4 205.857C50.4 206.047 50.3157 206.228 50.1657 206.362C50.0157 206.496 49.8122 206.571 49.6 206.571H48C47.7878 206.571 47.5843 206.496 47.4343 206.362C47.2843 206.228 47.2 206.047 47.2 205.857ZM44.8 203C44.8 203.189 44.7157 203.371 44.5657 203.505C44.4157 203.639 44.2122 203.714 44 203.714C43.7878 203.714 43.5843 203.639 43.4343 203.505C43.2843 203.371 43.2 203.189 43.2 203C43.2 202.811 43.2843 202.629 43.4343 202.495C43.5843 202.361 43.7878 202.286 44 202.286C44.2122 202.286 44.4157 202.361 44.5657 202.495C44.7157 202.629 44.8 202.811 44.8 203ZM46.4 203C46.4 203.568 46.1471 204.113 45.6971 204.515C45.247 204.917 44.6365 205.143 44 205.143C43.3635 205.143 42.753 204.917 42.3029 204.515C41.8529 204.113 41.6 203.568 41.6 203C41.6 202.432 41.8529 201.887 42.3029 201.485C42.753 201.083 43.3635 200.857 44 200.857C44.6365 200.857 45.247 201.083 45.6971 201.485C46.1471 201.887 46.4 202.432 46.4 203Z" fill="#242428"/>
<path d="M60.9 208V197.5H64.5225C65.0425 197.5 65.515 197.607 65.94 197.822C66.37 198.032 66.71 198.34 66.96 198.745C67.21 199.15 67.335 199.635 67.335 200.2C67.335 200.505 67.2825 200.8 67.1775 201.085C67.0775 201.365 66.9375 201.607 66.7575 201.812C66.5825 202.012 66.3825 202.147 66.1575 202.217C66.4725 202.297 66.74 202.44 66.96 202.645C67.18 202.845 67.3575 203.08 67.4925 203.35C67.6325 203.62 67.7325 203.902 67.7925 204.197C67.8525 204.492 67.8825 204.777 67.8825 205.052C67.8825 205.632 67.75 206.145 67.485 206.59C67.225 207.03 66.875 207.375 66.435 207.625C65.995 207.875 65.51 208 64.98 208H60.9ZM62.16 206.89H64.8675C65.2125 206.89 65.525 206.802 65.805 206.627C66.09 206.447 66.3175 206.202 66.4875 205.892C66.6575 205.582 66.7425 205.232 66.7425 204.842C66.7425 204.497 66.6575 204.172 66.4875 203.868C66.3175 203.557 66.09 203.307 65.805 203.117C65.525 202.927 65.2125 202.832 64.8675 202.832H62.16V206.89ZM62.16 201.745H64.4025C64.8625 201.745 65.255 201.61 65.58 201.34C65.91 201.065 66.075 200.682 66.075 200.192C66.075 199.662 65.91 199.267 65.58 199.007C65.255 198.742 64.8625 198.61 64.4025 198.61H62.16V201.745ZM69.2057 208V196.75H70.4657V208H69.2057ZM75.4939 208.195C74.8039 208.195 74.1739 208.017 73.6039 207.662C73.0389 207.307 72.5864 206.832 72.2464 206.237C71.9114 205.637 71.7439 204.975 71.7439 204.25C71.7439 203.7 71.8414 203.187 72.0364 202.712C72.2314 202.232 72.4989 201.812 72.8389 201.452C73.1839 201.087 73.5839 200.802 74.0389 200.597C74.4939 200.392 74.9789 200.29 75.4939 200.29C76.1839 200.29 76.8114 200.467 77.3764 200.822C77.9464 201.177 78.3989 201.655 78.7339 202.255C79.0739 202.855 79.2439 203.52 79.2439 204.25C79.2439 204.795 79.1464 205.305 78.9514 205.78C78.7564 206.255 78.4864 206.675 78.1414 207.04C77.8014 207.4 77.4039 207.682 76.9489 207.887C76.4989 208.093 76.0139 208.195 75.4939 208.195ZM75.4939 206.935C75.9639 206.935 76.3864 206.812 76.7614 206.567C77.1414 206.317 77.4389 205.99 77.6539 205.585C77.8739 205.175 77.9839 204.73 77.9839 204.25C77.9839 203.76 77.8714 203.31 77.6464 202.9C77.4264 202.49 77.1289 202.162 76.7539 201.917C76.3789 201.672 75.9589 201.55 75.4939 201.55C75.0239 201.55 74.6014 201.675 74.2264 201.925C73.8514 202.17 73.5539 202.497 73.3339 202.907C73.1139 203.317 73.0039 203.765 73.0039 204.25C73.0039 204.75 73.1164 205.205 73.3414 205.615C73.5664 206.02 73.8689 206.342 74.2489 206.582C74.6289 206.817 75.0439 206.935 75.4939 206.935ZM85.6085 206.02L86.7335 206.627C86.3935 207.102 85.961 207.482 85.436 207.767C84.916 208.052 84.351 208.195 83.741 208.195C83.051 208.195 82.421 208.017 81.851 207.662C81.286 207.307 80.8335 206.832 80.4935 206.237C80.1585 205.637 79.991 204.975 79.991 204.25C79.991 203.7 80.0885 203.187 80.2835 202.712C80.4785 202.232 80.746 201.812 81.086 201.452C81.431 201.087 81.831 200.802 82.286 200.597C82.741 200.392 83.226 200.29 83.741 200.29C84.351 200.29 84.916 200.432 85.436 200.717C85.961 201.002 86.3935 201.385 86.7335 201.865L85.6085 202.472C85.3685 202.177 85.0835 201.95 84.7535 201.79C84.4235 201.63 84.086 201.55 83.741 201.55C83.276 201.55 82.8535 201.675 82.4735 201.925C82.0985 202.17 81.801 202.497 81.581 202.907C81.361 203.317 81.251 203.765 81.251 204.25C81.251 204.735 81.361 205.182 81.581 205.592C81.806 205.997 82.106 206.322 82.481 206.567C82.861 206.812 83.281 206.935 83.741 206.935C84.111 206.935 84.4585 206.85 84.7835 206.68C85.1085 206.51 85.3835 206.29 85.6085 206.02ZM94.0382 208H92.5907L90.5957 204.557L89.2157 206.207V208H87.9557V196.75H89.2157V204.25L92.3582 200.5H94.0007L91.4507 203.537L94.0382 208ZM100.081 206.02L101.206 206.627C100.866 207.102 100.434 207.482 99.9087 207.767C99.3887 208.052 98.8237 208.195 98.2137 208.195C97.5237 208.195 96.8937 208.017 96.3237 207.662C95.7587 207.307 95.3062 206.832 94.9662 206.237C94.6312 205.637 94.4637 204.975 94.4637 204.25C94.4637 203.7 94.5612 203.187 94.7562 202.712C94.9512 202.232 95.2187 201.812 95.5587 201.452C95.9037 201.087 96.3037 200.802 96.7587 200.597C97.2137 200.392 97.6987 200.29 98.2137 200.29C98.8237 200.29 99.3887 200.432 99.9087 200.717C100.434 201.002 100.866 201.385 101.206 201.865L100.081 202.472C99.8412 202.177 99.5562 201.95 99.2262 201.79C98.8962 201.63 98.5587 201.55 98.2137 201.55C97.7487 201.55 97.3262 201.675 96.9462 201.925C96.5712 202.17 96.2737 202.497 96.0537 202.907C95.8337 203.317 95.7237 203.765 95.7237 204.25C95.7237 204.735 95.8337 205.182 96.0537 205.592C96.2787 205.997 96.5787 206.322 96.9537 206.567C97.3337 206.812 97.7537 206.935 98.2137 206.935C98.5837 206.935 98.9312 206.85 99.2562 206.68C99.5812 206.51 99.8562 206.29 100.081 206.02ZM109.058 203.335V208H107.798V203.612C107.798 203.232 107.706 202.887 107.521 202.577C107.336 202.267 107.088 202.022 106.778 201.842C106.468 201.657 106.123 201.565 105.743 201.565C105.368 201.565 105.023 201.657 104.708 201.842C104.398 202.022 104.151 202.267 103.966 202.577C103.781 202.887 103.688 203.232 103.688 203.612V208H102.428V196.75H103.688V201.437C103.953 201.087 104.288 200.81 104.693 200.605C105.098 200.395 105.538 200.29 106.013 200.29C106.573 200.29 107.083 200.427 107.543 200.702C108.008 200.972 108.376 201.337 108.646 201.797C108.921 202.257 109.058 202.77 109.058 203.335ZM116.442 200.5H117.702V208H116.442L116.389 206.732C116.154 207.167 115.829 207.52 115.414 207.79C115.004 208.06 114.514 208.195 113.944 208.195C113.394 208.195 112.879 208.093 112.399 207.887C111.919 207.677 111.494 207.39 111.124 207.025C110.759 206.655 110.474 206.23 110.269 205.75C110.064 205.27 109.962 204.752 109.962 204.197C109.962 203.662 110.062 203.157 110.262 202.682C110.462 202.207 110.739 201.792 111.094 201.437C111.454 201.077 111.869 200.797 112.339 200.597C112.809 200.392 113.314 200.29 113.854 200.29C114.444 200.29 114.962 200.43 115.407 200.71C115.852 200.985 116.212 201.342 116.487 201.782L116.442 200.5ZM113.922 206.972C114.417 206.972 114.844 206.852 115.204 206.612C115.569 206.367 115.849 206.037 116.044 205.622C116.244 205.207 116.344 204.75 116.344 204.25C116.344 203.74 116.244 203.28 116.044 202.87C115.844 202.455 115.562 202.127 115.197 201.887C114.837 201.642 114.412 201.52 113.922 201.52C113.427 201.52 112.977 201.642 112.572 201.887C112.167 202.132 111.844 202.462 111.604 202.877C111.369 203.287 111.252 203.745 111.252 204.25C111.252 204.755 111.374 205.215 111.619 205.63C111.864 206.04 112.189 206.367 112.594 206.612C112.999 206.852 113.442 206.972 113.922 206.972ZM119.201 200.5H120.461V208H119.201V200.5ZM119.846 199.277C119.646 199.277 119.478 199.212 119.343 199.082C119.208 198.952 119.141 198.79 119.141 198.595C119.141 198.4 119.208 198.237 119.343 198.107C119.478 197.977 119.643 197.912 119.838 197.912C120.033 197.912 120.198 197.977 120.333 198.107C120.468 198.237 120.536 198.4 120.536 198.595C120.536 198.79 120.468 198.952 120.333 199.082C120.203 199.212 120.041 199.277 119.846 199.277ZM128.848 203.335V208H127.588V203.612C127.588 203.232 127.496 202.887 127.311 202.577C127.126 202.267 126.878 202.022 126.568 201.842C126.258 201.657 125.913 201.565 125.533 201.565C125.158 201.565 124.813 201.657 124.498 201.842C124.188 202.022 123.941 202.267 123.756 202.577C123.571 202.887 123.478 203.232 123.478 203.612V208H122.218V200.5H123.478V201.437C123.743 201.087 124.078 200.81 124.483 200.605C124.888 200.395 125.328 200.29 125.803 200.29C126.363 200.29 126.873 200.427 127.333 200.702C127.798 200.972 128.166 201.337 128.436 201.797C128.711 202.257 128.848 202.77 128.848 203.335ZM135.654 198.647V200.5H137.852V201.76H135.654V208H134.394V201.76H133.427V200.5H134.394V198.647C134.394 198.262 134.487 197.915 134.672 197.605C134.862 197.29 135.114 197.04 135.429 196.855C135.749 196.665 136.099 196.57 136.479 196.57C136.759 196.57 137.032 196.627 137.297 196.742C137.562 196.852 137.797 197.017 138.002 197.237L137.102 198.13C137.032 198.035 136.939 197.962 136.824 197.912C136.714 197.857 136.599 197.83 136.479 197.83C136.254 197.83 136.059 197.91 135.894 198.07C135.734 198.23 135.654 198.422 135.654 198.647ZM142.188 208.195C141.498 208.195 140.868 208.017 140.298 207.662C139.733 207.307 139.281 206.832 138.941 206.237C138.606 205.637 138.438 204.975 138.438 204.25C138.438 203.7 138.536 203.187 138.731 202.712C138.926 202.232 139.193 201.812 139.533 201.452C139.878 201.087 140.278 200.802 140.733 200.597C141.188 200.392 141.673 200.29 142.188 200.29C142.753 200.29 143.271 200.405 143.741 200.635C144.216 200.86 144.621 201.175 144.956 201.58C145.296 201.985 145.548 202.455 145.713 202.99C145.883 203.525 145.946 204.097 145.901 204.707H139.781C139.841 205.132 139.981 205.512 140.201 205.847C140.421 206.177 140.701 206.44 141.041 206.635C141.386 206.83 141.768 206.93 142.188 206.935C142.638 206.935 143.046 206.82 143.411 206.59C143.776 206.355 144.071 206.035 144.296 205.63L145.578 205.93C145.278 206.595 144.826 207.14 144.221 207.565C143.616 207.985 142.938 208.195 142.188 208.195ZM139.743 203.717H144.633C144.593 203.297 144.458 202.915 144.228 202.57C143.998 202.22 143.706 201.94 143.351 201.73C142.996 201.52 142.608 201.415 142.188 201.415C141.768 201.415 141.383 201.517 141.033 201.722C140.683 201.927 140.393 202.205 140.163 202.555C139.938 202.9 139.798 203.287 139.743 203.717ZM150.421 208.195C149.731 208.195 149.101 208.017 148.531 207.662C147.966 207.307 147.513 206.832 147.173 206.237C146.838 205.637 146.671 204.975 146.671 204.25C146.671 203.7 146.768 203.187 146.963 202.712C147.158 202.232 147.426 201.812 147.766 201.452C148.111 201.087 148.511 200.802 148.966 200.597C149.421 200.392 149.906 200.29 150.421 200.29C150.986 200.29 151.503 200.405 151.973 200.635C152.448 200.86 152.853 201.175 153.188 201.58C153.528 201.985 153.781 202.455 153.946 202.99C154.116 203.525 154.178 204.097 154.133 204.707H148.013C148.073 205.132 148.213 205.512 148.433 205.847C148.653 206.177 148.933 206.44 149.273 206.635C149.618 206.83 150.001 206.93 150.421 206.935C150.871 206.935 151.278 206.82 151.643 206.59C152.008 206.355 152.303 206.035 152.528 205.63L153.811 205.93C153.511 206.595 153.058 207.14 152.453 207.565C151.848 207.985 151.171 208.195 150.421 208.195ZM147.976 203.717H152.866C152.826 203.297 152.691 202.915 152.461 202.57C152.231 202.22 151.938 201.94 151.583 201.73C151.228 201.52 150.841 201.415 150.421 201.415C150.001 201.415 149.616 201.517 149.266 201.722C148.916 201.927 148.626 202.205 148.396 202.555C148.171 202.9 148.031 203.287 147.976 203.717ZM157.714 208.143C157.309 208.128 156.914 208.053 156.529 207.917C156.149 207.777 155.814 207.59 155.524 207.355C155.239 207.115 155.031 206.84 154.901 206.53L155.981 206.065C156.056 206.235 156.191 206.395 156.386 206.545C156.581 206.695 156.806 206.815 157.061 206.905C157.316 206.995 157.574 207.04 157.834 207.04C158.109 207.04 158.366 206.997 158.606 206.912C158.846 206.827 159.041 206.702 159.191 206.537C159.346 206.367 159.424 206.165 159.424 205.93C159.424 205.68 159.339 205.485 159.169 205.345C159.004 205.2 158.794 205.087 158.539 205.007C158.289 204.922 158.034 204.842 157.774 204.767C157.259 204.637 156.799 204.482 156.394 204.302C155.989 204.117 155.669 203.885 155.434 203.605C155.204 203.32 155.089 202.957 155.089 202.517C155.089 202.052 155.216 201.65 155.471 201.31C155.731 200.97 156.071 200.707 156.491 200.522C156.911 200.337 157.361 200.245 157.841 200.245C158.446 200.245 158.999 200.375 159.499 200.635C159.999 200.895 160.371 201.247 160.616 201.692L159.604 202.285C159.519 202.105 159.389 201.947 159.214 201.812C159.039 201.672 158.839 201.562 158.614 201.482C158.389 201.402 158.159 201.36 157.924 201.355C157.634 201.345 157.361 201.382 157.106 201.467C156.856 201.552 156.654 201.682 156.499 201.857C156.349 202.027 156.274 202.24 156.274 202.495C156.274 202.745 156.354 202.935 156.514 203.065C156.679 203.195 156.891 203.3 157.151 203.38C157.416 203.455 157.704 203.542 158.014 203.642C158.469 203.787 158.894 203.955 159.289 204.145C159.684 204.335 160.001 204.572 160.241 204.857C160.486 205.142 160.606 205.495 160.601 205.915C160.601 206.375 160.464 206.777 160.189 207.122C159.914 207.462 159.556 207.722 159.116 207.902C158.681 208.083 158.214 208.163 157.714 208.143ZM166.75 211.75H165.49V200.5H166.75V201.782C167.005 201.342 167.345 200.987 167.77 200.717C168.195 200.442 168.7 200.305 169.285 200.305C169.83 200.305 170.34 200.407 170.815 200.612C171.295 200.817 171.715 201.102 172.075 201.467C172.435 201.827 172.717 202.245 172.922 202.72C173.127 203.195 173.23 203.705 173.23 204.25C173.23 204.795 173.127 205.307 172.922 205.787C172.717 206.267 172.435 206.69 172.075 207.055C171.715 207.415 171.295 207.697 170.815 207.902C170.34 208.108 169.83 208.21 169.285 208.21C168.7 208.21 168.195 208.075 167.77 207.805C167.345 207.53 167.005 207.172 166.75 206.732V211.75ZM169.27 201.527C168.785 201.527 168.36 201.65 167.995 201.895C167.63 202.14 167.347 202.467 167.147 202.877C166.952 203.287 166.855 203.745 166.855 204.25C166.855 204.75 166.952 205.207 167.147 205.622C167.347 206.037 167.627 206.367 167.987 206.612C168.352 206.857 168.78 206.98 169.27 206.98C169.755 206.98 170.2 206.86 170.605 206.62C171.01 206.375 171.335 206.047 171.58 205.637C171.825 205.222 171.947 204.76 171.947 204.25C171.947 203.75 171.827 203.295 171.587 202.885C171.347 202.47 171.025 202.14 170.62 201.895C170.215 201.65 169.765 201.527 169.27 201.527ZM180.47 200.5H181.73V208H180.47L180.418 206.732C180.183 207.167 179.858 207.52 179.443 207.79C179.033 208.06 178.543 208.195 177.973 208.195C177.423 208.195 176.908 208.093 176.428 207.887C175.948 207.677 175.523 207.39 175.153 207.025C174.788 206.655 174.503 206.23 174.298 205.75C174.093 205.27 173.99 204.752 173.99 204.197C173.99 203.662 174.09 203.157 174.29 202.682C174.49 202.207 174.768 201.792 175.123 201.437C175.483 201.077 175.898 200.797 176.368 200.597C176.838 200.392 177.343 200.29 177.883 200.29C178.473 200.29 178.99 200.43 179.435 200.71C179.88 200.985 180.24 201.342 180.515 201.782L180.47 200.5ZM177.95 206.972C178.445 206.972 178.873 206.852 179.233 206.612C179.598 206.367 179.878 206.037 180.073 205.622C180.273 205.207 180.373 204.75 180.373 204.25C180.373 203.74 180.273 203.28 180.073 202.87C179.873 202.455 179.59 202.127 179.225 201.887C178.865 201.642 178.44 201.52 177.95 201.52C177.455 201.52 177.005 201.642 176.6 201.887C176.195 202.132 175.873 202.462 175.633 202.877C175.398 203.287 175.28 203.745 175.28 204.25C175.28 204.755 175.403 205.215 175.648 205.63C175.893 206.04 176.218 206.367 176.623 206.612C177.028 206.852 177.47 206.972 177.95 206.972ZM183.229 200.5H184.489V208H183.229V200.5ZM183.874 199.277C183.674 199.277 183.507 199.212 183.372 199.082C183.237 198.952 183.169 198.79 183.169 198.595C183.169 198.4 183.237 198.237 183.372 198.107C183.507 197.977 183.672 197.912 183.867 197.912C184.062 197.912 184.227 197.977 184.362 198.107C184.497 198.237 184.564 198.4 184.564 198.595C184.564 198.79 184.497 198.952 184.362 199.082C184.232 199.212 184.069 199.277 183.874 199.277ZM192.226 196.75H193.486V208H192.226V206.725C191.971 207.165 191.628 207.52 191.198 207.79C190.768 208.06 190.263 208.195 189.683 208.195C189.138 208.195 188.628 208.093 188.153 207.887C187.678 207.682 187.258 207.4 186.893 207.04C186.533 206.675 186.251 206.255 186.046 205.78C185.841 205.305 185.738 204.795 185.738 204.25C185.738 203.705 185.841 203.195 186.046 202.72C186.251 202.24 186.533 201.82 186.893 201.46C187.258 201.095 187.678 200.81 188.153 200.605C188.628 200.4 189.138 200.297 189.683 200.297C190.263 200.297 190.768 200.432 191.198 200.702C191.628 200.972 191.971 201.327 192.226 201.767V196.75ZM189.698 206.972C190.193 206.972 190.621 206.852 190.981 206.612C191.346 206.367 191.626 206.037 191.821 205.622C192.021 205.207 192.121 204.75 192.121 204.25C192.121 203.74 192.021 203.28 191.821 202.87C191.621 202.455 191.338 202.127 190.973 201.887C190.613 201.642 190.188 201.52 189.698 201.52C189.203 201.52 188.753 201.642 188.348 201.887C187.948 202.132 187.628 202.462 187.388 202.877C187.148 203.287 187.028 203.745 187.028 204.25C187.028 204.755 187.151 205.215 187.396 205.63C187.641 206.04 187.966 206.367 188.371 206.612C188.776 206.852 189.218 206.972 189.698 206.972ZM202.683 200.29C203.413 200.29 204.076 200.467 204.671 200.822C205.271 201.177 205.748 201.655 206.103 202.255C206.458 202.85 206.636 203.512 206.636 204.242C206.636 204.787 206.533 205.3 206.328 205.78C206.123 206.255 205.838 206.675 205.473 207.04C205.113 207.4 204.693 207.682 204.213 207.887C203.738 208.093 203.228 208.195 202.683 208.195C202.103 208.195 201.598 208.06 201.168 207.79C200.743 207.515 200.403 207.157 200.148 206.717V208H198.888V196.75H200.148V201.767C200.403 201.327 200.743 200.972 201.168 200.702C201.598 200.427 202.103 200.29 202.683 200.29ZM202.668 206.965C203.163 206.965 203.613 206.842 204.018 206.597C204.423 206.352 204.746 206.025 204.986 205.615C205.226 205.2 205.346 204.742 205.346 204.242C205.346 203.732 205.223 203.272 204.978 202.862C204.733 202.447 204.408 202.12 204.003 201.88C203.598 201.635 203.153 201.512 202.668 201.512C202.178 201.512 201.751 201.635 201.386 201.88C201.026 202.125 200.746 202.455 200.546 202.87C200.351 203.285 200.253 203.742 200.253 204.242C200.253 204.747 200.351 205.207 200.546 205.622C200.746 206.032 201.028 206.36 201.393 206.605C201.758 206.845 202.183 206.965 202.668 206.965ZM212.61 200.5H213.945L209.842 211.75H208.507L209.865 208L207.172 200.5H208.552L210.495 206.267L212.61 200.5Z" fill="#242428"/>
<circle cx="48" cy="232" r="11.5" fill="#F4F6FA" stroke="#E9ECF2"/>
<path d="M73.76 237.195C73.05 237.195 72.3825 237.055 71.7575 236.775C71.1325 236.49 70.5825 236.1 70.1075 235.605C69.6375 235.105 69.2675 234.525 68.9975 233.865C68.7325 233.205 68.6 232.5 68.6 231.75C68.6 231 68.7325 230.295 68.9975 229.635C69.2675 228.975 69.6375 228.397 70.1075 227.902C70.5825 227.402 71.1325 227.012 71.7575 226.732C72.3825 226.447 73.05 226.305 73.76 226.305C74.61 226.305 75.3925 226.502 76.1075 226.897C76.8225 227.292 77.415 227.817 77.885 228.472L76.7675 229.072C76.4175 228.612 75.975 228.247 75.44 227.977C74.91 227.702 74.35 227.565 73.76 227.565C73.215 227.565 72.705 227.675 72.23 227.895C71.76 228.115 71.3475 228.417 70.9925 228.802C70.6375 229.187 70.36 229.632 70.16 230.137C69.96 230.642 69.86 231.18 69.86 231.75C69.86 232.325 69.96 232.865 70.16 233.37C70.365 233.875 70.645 234.32 71 234.705C71.36 235.09 71.775 235.392 72.245 235.612C72.72 235.827 73.225 235.935 73.76 235.935C74.37 235.935 74.935 235.797 75.455 235.522C75.98 235.242 76.4175 234.877 76.7675 234.427L77.885 235.035C77.415 235.69 76.8225 236.215 76.1075 236.61C75.3925 237 74.61 237.195 73.76 237.195ZM79.059 234.15V229.5H80.319V233.872C80.319 234.252 80.4115 234.597 80.5965 234.907C80.7815 235.217 81.029 235.465 81.339 235.65C81.654 235.83 81.999 235.92 82.374 235.92C82.754 235.92 83.0965 235.83 83.4015 235.65C83.7115 235.465 83.959 235.217 84.144 234.907C84.329 234.597 84.4215 234.252 84.4215 233.872V229.5H85.6815L85.689 237H84.429L84.4215 236.047C84.1565 236.397 83.8215 236.677 83.4165 236.887C83.0115 237.093 82.574 237.195 82.104 237.195C81.544 237.195 81.0315 237.06 80.5665 236.79C80.1065 236.515 79.739 236.147 79.464 235.687C79.194 235.227 79.059 234.715 79.059 234.15ZM89.4834 237.143C89.0784 237.128 88.6834 237.053 88.2984 236.917C87.9184 236.777 87.5834 236.59 87.2934 236.355C87.0084 236.115 86.8009 235.84 86.6709 235.53L87.7509 235.065C87.8259 235.235 87.9609 235.395 88.1559 235.545C88.3509 235.695 88.5759 235.815 88.8309 235.905C89.0859 235.995 89.3434 236.04 89.6034 236.04C89.8784 236.04 90.1359 235.997 90.3759 235.912C90.6159 235.827 90.8109 235.702 90.9609 235.537C91.1159 235.367 91.1934 235.165 91.1934 234.93C91.1934 234.68 91.1084 234.485 90.9384 234.345C90.7734 234.2 90.5634 234.087 90.3084 234.007C90.0584 233.922 89.8034 233.842 89.5434 233.767C89.0284 233.637 88.5684 233.482 88.1634 233.302C87.7584 233.117 87.4384 232.885 87.2034 232.605C86.9734 232.32 86.8584 231.957 86.8584 231.517C86.8584 231.052 86.9859 230.65 87.2409 230.31C87.5009 229.97 87.8409 229.707 88.2609 229.522C88.6809 229.337 89.1309 229.245 89.6109 229.245C90.2159 229.245 90.7684 229.375 91.2684 229.635C91.7684 229.895 92.1409 230.247 92.3859 230.692L91.3734 231.285C91.2884 231.105 91.1584 230.947 90.9834 230.812C90.8084 230.672 90.6084 230.562 90.3834 230.482C90.1584 230.402 89.9284 230.36 89.6934 230.355C89.4034 230.345 89.1309 230.382 88.8759 230.467C88.6259 230.552 88.4234 230.682 88.2684 230.857C88.1184 231.027 88.0434 231.24 88.0434 231.495C88.0434 231.745 88.1234 231.935 88.2834 232.065C88.4484 232.195 88.6609 232.3 88.9209 232.38C89.1859 232.455 89.4734 232.542 89.7834 232.642C90.2384 232.787 90.6634 232.955 91.0584 233.145C91.4534 233.335 91.7709 233.572 92.0109 233.857C92.2559 234.142 92.3759 234.495 92.3709 234.915C92.3709 235.375 92.2334 235.777 91.9584 236.122C91.6834 236.462 91.3259 236.722 90.8859 236.902C90.4509 237.083 89.9834 237.163 89.4834 237.143ZM97.5409 230.76H95.8384L95.8309 237H94.5709L94.5784 230.76H93.2884V229.5H94.5784L94.5709 227.145H95.8309L95.8384 229.5H97.5409V230.76ZM101.995 237.195C101.305 237.195 100.675 237.017 100.105 236.662C99.5399 236.307 99.0874 235.832 98.7474 235.237C98.4124 234.637 98.2449 233.975 98.2449 233.25C98.2449 232.7 98.3424 232.187 98.5374 231.712C98.7324 231.232 98.9999 230.812 99.3399 230.452C99.6849 230.087 100.085 229.802 100.54 229.597C100.995 229.392 101.48 229.29 101.995 229.29C102.685 229.29 103.312 229.467 103.877 229.822C104.447 230.177 104.9 230.655 105.235 231.255C105.575 231.855 105.745 232.52 105.745 233.25C105.745 233.795 105.647 234.305 105.452 234.78C105.257 235.255 104.987 235.675 104.642 236.04C104.302 236.4 103.905 236.682 103.45 236.887C103 237.093 102.515 237.195 101.995 237.195ZM101.995 235.935C102.465 235.935 102.887 235.812 103.262 235.567C103.642 235.317 103.94 234.99 104.155 234.585C104.375 234.175 104.485 233.73 104.485 233.25C104.485 232.76 104.372 232.31 104.147 231.9C103.927 231.49 103.63 231.162 103.255 230.917C102.88 230.672 102.46 230.55 101.995 230.55C101.525 230.55 101.102 230.675 100.727 230.925C100.352 231.17 100.055 231.497 99.8349 231.907C99.6149 232.317 99.5049 232.765 99.5049 233.25C99.5049 233.75 99.6174 234.205 99.8424 234.615C100.067 235.02 100.37 235.342 100.75 235.582C101.13 235.817 101.545 235.935 101.995 235.935ZM106.986 237V229.5H108.246V230.437C108.511 230.087 108.843 229.81 109.243 229.605C109.648 229.395 110.088 229.29 110.563 229.29C111.118 229.29 111.626 229.425 112.086 229.695C112.546 229.965 112.908 230.322 113.173 230.767C113.438 230.322 113.798 229.965 114.253 229.695C114.713 229.425 115.218 229.29 115.768 229.29C116.333 229.29 116.846 229.427 117.306 229.702C117.766 229.972 118.131 230.337 118.401 230.797C118.676 231.257 118.813 231.77 118.813 232.335V237H117.553V232.635C117.553 232.265 117.463 231.922 117.283 231.607C117.103 231.292 116.861 231.04 116.556 230.85C116.251 230.66 115.913 230.565 115.543 230.565C115.173 230.565 114.836 230.655 114.531 230.835C114.226 231.01 113.983 231.255 113.803 231.57C113.623 231.88 113.533 232.235 113.533 232.635V237H112.273V232.635C112.273 232.235 112.183 231.88 112.003 231.57C111.823 231.255 111.578 231.01 111.268 230.835C110.963 230.655 110.626 230.565 110.256 230.565C109.891 230.565 109.553 230.66 109.243 230.85C108.938 231.04 108.696 231.292 108.516 231.607C108.336 231.922 108.246 232.265 108.246 232.635V237H106.986ZM123.47 237.195C122.78 237.195 122.15 237.017 121.58 236.662C121.015 236.307 120.562 235.832 120.222 235.237C119.887 234.637 119.72 233.975 119.72 233.25C119.72 232.7 119.817 232.187 120.012 231.712C120.207 231.232 120.475 230.812 120.815 230.452C121.16 230.087 121.56 229.802 122.015 229.597C122.47 229.392 122.955 229.29 123.47 229.29C124.035 229.29 124.552 229.405 125.022 229.635C125.497 229.86 125.902 230.175 126.237 230.58C126.577 230.985 126.83 231.455 126.995 231.99C127.165 232.525 127.227 233.097 127.182 233.707H121.062C121.122 234.132 121.262 234.512 121.482 234.847C121.702 235.177 121.982 235.44 122.322 235.635C122.667 235.83 123.05 235.93 123.47 235.935C123.92 235.935 124.327 235.82 124.692 235.59C125.057 235.355 125.352 235.035 125.577 234.63L126.86 234.93C126.56 235.595 126.107 236.14 125.502 236.565C124.897 236.985 124.22 237.195 123.47 237.195ZM121.025 232.717H125.915C125.875 232.297 125.74 231.915 125.51 231.57C125.28 231.22 124.987 230.94 124.632 230.73C124.277 230.52 123.89 230.415 123.47 230.415C123.05 230.415 122.665 230.517 122.315 230.722C121.965 230.927 121.675 231.205 121.445 231.555C121.22 231.9 121.08 232.287 121.025 232.717ZM128.446 237V229.5H129.706V230.437C129.971 230.087 130.306 229.81 130.711 229.605C131.116 229.395 131.556 229.29 132.031 229.29C132.321 229.29 132.601 229.327 132.871 229.402L132.361 230.662C132.156 230.597 131.956 230.565 131.761 230.565C131.386 230.565 131.041 230.657 130.726 230.842C130.416 231.022 130.168 231.267 129.983 231.577C129.798 231.887 129.706 232.232 129.706 232.612V237H128.446ZM139.673 237.84C139.163 237.355 138.75 236.815 138.435 236.22C138.12 235.625 137.89 234.987 137.745 234.307C137.6 233.622 137.528 232.91 137.528 232.17C137.528 231.78 137.558 231.365 137.618 230.925C137.678 230.48 137.768 230.037 137.888 229.597C138.008 229.152 138.153 228.73 138.323 228.33C138.498 227.93 138.698 227.572 138.923 227.257C139.148 226.937 139.398 226.685 139.673 226.5H140.933C140.688 226.72 140.46 226.99 140.25 227.31C140.04 227.625 139.848 227.977 139.673 228.367C139.498 228.752 139.345 229.16 139.215 229.59C139.085 230.02 138.983 230.455 138.908 230.895C138.838 231.33 138.798 231.755 138.788 232.17C138.803 232.955 138.903 233.695 139.088 234.39C139.278 235.085 139.53 235.722 139.845 236.302C140.165 236.883 140.528 237.395 140.933 237.84H139.673ZM144.284 227.647V229.5H146.482V230.76H144.284V237H143.024V230.76H142.057V229.5H143.024V227.647C143.024 227.262 143.117 226.915 143.302 226.605C143.492 226.29 143.744 226.04 144.059 225.855C144.379 225.665 144.729 225.57 145.109 225.57C145.389 225.57 145.662 225.627 145.927 225.742C146.192 225.852 146.427 226.017 146.632 226.237L145.732 227.13C145.662 227.035 145.569 226.962 145.454 226.912C145.344 226.857 145.229 226.83 145.109 226.83C144.884 226.83 144.689 226.91 144.524 227.07C144.364 227.23 144.284 227.422 144.284 227.647ZM150.818 237.195C150.128 237.195 149.498 237.017 148.928 236.662C148.363 236.307 147.911 235.832 147.571 235.237C147.236 234.637 147.068 233.975 147.068 233.25C147.068 232.7 147.166 232.187 147.361 231.712C147.556 231.232 147.823 230.812 148.163 230.452C148.508 230.087 148.908 229.802 149.363 229.597C149.818 229.392 150.303 229.29 150.818 229.29C151.383 229.29 151.901 229.405 152.371 229.635C152.846 229.86 153.251 230.175 153.586 230.58C153.926 230.985 154.178 231.455 154.343 231.99C154.513 232.525 154.576 233.097 154.531 233.707H148.411C148.471 234.132 148.611 234.512 148.831 234.847C149.051 235.177 149.331 235.44 149.671 235.635C150.016 235.83 150.398 235.93 150.818 235.935C151.268 235.935 151.676 235.82 152.041 235.59C152.406 235.355 152.701 235.035 152.926 234.63L154.208 234.93C153.908 235.595 153.456 236.14 152.851 236.565C152.246 236.985 151.568 237.195 150.818 237.195ZM148.373 232.717H153.263C153.223 232.297 153.088 231.915 152.858 231.57C152.628 231.22 152.336 230.94 151.981 230.73C151.626 230.52 151.238 230.415 150.818 230.415C150.398 230.415 150.013 230.517 149.663 230.722C149.313 230.927 149.023 231.205 148.793 231.555C148.568 231.9 148.428 232.287 148.373 232.717ZM159.051 237.195C158.361 237.195 157.731 237.017 157.161 236.662C156.596 236.307 156.143 235.832 155.803 235.237C155.468 234.637 155.301 233.975 155.301 233.25C155.301 232.7 155.398 232.187 155.593 231.712C155.788 231.232 156.056 230.812 156.396 230.452C156.741 230.087 157.141 229.802 157.596 229.597C158.051 229.392 158.536 229.29 159.051 229.29C159.616 229.29 160.133 229.405 160.603 229.635C161.078 229.86 161.483 230.175 161.818 230.58C162.158 230.985 162.411 231.455 162.576 231.99C162.746 232.525 162.808 233.097 162.763 233.707H156.643C156.703 234.132 156.843 234.512 157.063 234.847C157.283 235.177 157.563 235.44 157.903 235.635C158.248 235.83 158.631 235.93 159.051 235.935C159.501 235.935 159.908 235.82 160.273 235.59C160.638 235.355 160.933 235.035 161.158 234.63L162.441 234.93C162.141 235.595 161.688 236.14 161.083 236.565C160.478 236.985 159.801 237.195 159.051 237.195ZM156.606 232.717H161.496C161.456 232.297 161.321 231.915 161.091 231.57C160.861 231.22 160.568 230.94 160.213 230.73C159.858 230.52 159.471 230.415 159.051 230.415C158.631 230.415 158.246 230.517 157.896 230.722C157.546 230.927 157.256 231.205 157.026 231.555C156.801 231.9 156.661 232.287 156.606 232.717ZM166.344 237.143C165.939 237.128 165.544 237.053 165.159 236.917C164.779 236.777 164.444 236.59 164.154 236.355C163.869 236.115 163.661 235.84 163.531 235.53L164.611 235.065C164.686 235.235 164.821 235.395 165.016 235.545C165.211 235.695 165.436 235.815 165.691 235.905C165.946 235.995 166.204 236.04 166.464 236.04C166.739 236.04 166.996 235.997 167.236 235.912C167.476 235.827 167.671 235.702 167.821 235.537C167.976 235.367 168.054 235.165 168.054 234.93C168.054 234.68 167.969 234.485 167.799 234.345C167.634 234.2 167.424 234.087 167.169 234.007C166.919 233.922 166.664 233.842 166.404 233.767C165.889 233.637 165.429 233.482 165.024 233.302C164.619 233.117 164.299 232.885 164.064 232.605C163.834 232.32 163.719 231.957 163.719 231.517C163.719 231.052 163.846 230.65 164.101 230.31C164.361 229.97 164.701 229.707 165.121 229.522C165.541 229.337 165.991 229.245 166.471 229.245C167.076 229.245 167.629 229.375 168.129 229.635C168.629 229.895 169.001 230.247 169.246 230.692L168.234 231.285C168.149 231.105 168.019 230.947 167.844 230.812C167.669 230.672 167.469 230.562 167.244 230.482C167.019 230.402 166.789 230.36 166.554 230.355C166.264 230.345 165.991 230.382 165.736 230.467C165.486 230.552 165.284 230.682 165.129 230.857C164.979 231.027 164.904 231.24 164.904 231.495C164.904 231.745 164.984 231.935 165.144 232.065C165.309 232.195 165.521 232.3 165.781 232.38C166.046 232.455 166.334 232.542 166.644 232.642C167.099 232.787 167.524 232.955 167.919 233.145C168.314 233.335 168.631 233.572 168.871 233.857C169.116 234.142 169.236 234.495 169.231 234.915C169.231 235.375 169.094 235.777 168.819 236.122C168.544 236.462 168.186 236.722 167.746 236.902C167.311 237.083 166.844 237.163 166.344 237.143ZM180.15 229.5H181.41V237H180.15L180.097 235.732C179.862 236.167 179.537 236.52 179.122 236.79C178.712 237.06 178.222 237.195 177.652 237.195C177.102 237.195 176.587 237.093 176.107 236.887C175.627 236.677 175.202 236.39 174.832 236.025C174.467 235.655 174.182 235.23 173.977 234.75C173.772 234.27 173.67 233.752 173.67 233.197C173.67 232.662 173.77 232.157 173.97 231.682C174.17 231.207 174.447 230.792 174.802 230.437C175.162 230.077 175.577 229.797 176.047 229.597C176.517 229.392 177.022 229.29 177.562 229.29C178.152 229.29 178.67 229.43 179.115 229.71C179.56 229.985 179.92 230.342 180.195 230.782L180.15 229.5ZM177.63 235.972C178.125 235.972 178.552 235.852 178.912 235.612C179.277 235.367 179.557 235.037 179.752 234.622C179.952 234.207 180.052 233.75 180.052 233.25C180.052 232.74 179.952 232.28 179.752 231.87C179.552 231.455 179.27 231.127 178.905 230.887C178.545 230.642 178.12 230.52 177.63 230.52C177.135 230.52 176.685 230.642 176.28 230.887C175.875 231.132 175.552 231.462 175.312 231.877C175.077 232.287 174.96 232.745 174.96 233.25C174.96 233.755 175.082 234.215 175.327 234.63C175.572 235.04 175.897 235.367 176.302 235.612C176.707 235.852 177.15 235.972 177.63 235.972ZM188.8 225.75H190.06V237H188.8V235.725C188.545 236.165 188.202 236.52 187.772 236.79C187.342 237.06 186.837 237.195 186.257 237.195C185.712 237.195 185.202 237.093 184.727 236.887C184.252 236.682 183.832 236.4 183.467 236.04C183.107 235.675 182.825 235.255 182.62 234.78C182.415 234.305 182.312 233.795 182.312 233.25C182.312 232.705 182.415 232.195 182.62 231.72C182.825 231.24 183.107 230.82 183.467 230.46C183.832 230.095 184.252 229.81 184.727 229.605C185.202 229.4 185.712 229.297 186.257 229.297C186.837 229.297 187.342 229.432 187.772 229.702C188.202 229.972 188.545 230.327 188.8 230.767V225.75ZM186.272 235.972C186.767 235.972 187.195 235.852 187.555 235.612C187.92 235.367 188.2 235.037 188.395 234.622C188.595 234.207 188.695 233.75 188.695 233.25C188.695 232.74 188.595 232.28 188.395 231.87C188.195 231.455 187.912 231.127 187.547 230.887C187.187 230.642 186.762 230.52 186.272 230.52C185.777 230.52 185.327 230.642 184.922 230.887C184.522 231.132 184.202 231.462 183.962 231.877C183.722 232.287 183.602 232.745 183.602 233.25C183.602 233.755 183.725 234.215 183.97 234.63C184.215 235.04 184.54 235.367 184.945 235.612C185.35 235.852 185.792 235.972 186.272 235.972ZM197.823 225.75H199.083V237H197.823V235.725C197.568 236.165 197.226 236.52 196.796 236.79C196.366 237.06 195.861 237.195 195.281 237.195C194.736 237.195 194.226 237.093 193.751 236.887C193.276 236.682 192.856 236.4 192.491 236.04C192.131 235.675 191.848 235.255 191.643 234.78C191.438 234.305 191.336 233.795 191.336 233.25C191.336 232.705 191.438 232.195 191.643 231.72C191.848 231.24 192.131 230.82 192.491 230.46C192.856 230.095 193.276 229.81 193.751 229.605C194.226 229.4 194.736 229.297 195.281 229.297C195.861 229.297 196.366 229.432 196.796 229.702C197.226 229.972 197.568 230.327 197.823 230.767V225.75ZM195.296 235.972C195.791 235.972 196.218 235.852 196.578 235.612C196.943 235.367 197.223 235.037 197.418 234.622C197.618 234.207 197.718 233.75 197.718 233.25C197.718 232.74 197.618 232.28 197.418 231.87C197.218 231.455 196.936 231.127 196.571 230.887C196.211 230.642 195.786 230.52 195.296 230.52C194.801 230.52 194.351 230.642 193.946 230.887C193.546 231.132 193.226 231.462 192.986 231.877C192.746 232.287 192.626 232.745 192.626 233.25C192.626 233.755 192.748 234.215 192.993 234.63C193.238 235.04 193.563 235.367 193.968 235.612C194.373 235.852 194.816 235.972 195.296 235.972ZM204.109 237.195C203.419 237.195 202.789 237.017 202.219 236.662C201.654 236.307 201.202 235.832 200.862 235.237C200.527 234.637 200.359 233.975 200.359 233.25C200.359 232.7 200.457 232.187 200.652 231.712C200.847 231.232 201.114 230.812 201.454 230.452C201.799 230.087 202.199 229.802 202.654 229.597C203.109 229.392 203.594 229.29 204.109 229.29C204.674 229.29 205.192 229.405 205.662 229.635C206.137 229.86 206.542 230.175 206.877 230.58C207.217 230.985 207.469 231.455 207.634 231.99C207.804 232.525 207.867 233.097 207.822 233.707H201.702C201.762 234.132 201.902 234.512 202.122 234.847C202.342 235.177 202.622 235.44 202.962 235.635C203.307 235.83 203.689 235.93 204.109 235.935C204.559 235.935 204.967 235.82 205.332 235.59C205.697 235.355 205.992 235.035 206.217 234.63L207.499 234.93C207.199 235.595 206.747 236.14 206.142 236.565C205.537 236.985 204.859 237.195 204.109 237.195ZM201.664 232.717H206.554C206.514 232.297 206.379 231.915 206.149 231.57C205.919 231.22 205.627 230.94 205.272 230.73C204.917 230.52 204.529 230.415 204.109 230.415C203.689 230.415 203.304 230.517 202.954 230.722C202.604 230.927 202.314 231.205 202.084 231.555C201.859 231.9 201.719 232.287 201.664 232.717ZM215.079 225.75H216.339V237H215.079V235.725C214.824 236.165 214.482 236.52 214.052 236.79C213.622 237.06 213.117 237.195 212.537 237.195C211.992 237.195 211.482 237.093 211.007 236.887C210.532 236.682 210.112 236.4 209.747 236.04C209.387 235.675 209.104 235.255 208.899 234.78C208.694 234.305 208.592 233.795 208.592 233.25C208.592 232.705 208.694 232.195 208.899 231.72C209.104 231.24 209.387 230.82 209.747 230.46C210.112 230.095 210.532 229.81 211.007 229.605C211.482 229.4 211.992 229.297 212.537 229.297C213.117 229.297 213.622 229.432 214.052 229.702C214.482 229.972 214.824 230.327 215.079 230.767V225.75ZM212.552 235.972C213.047 235.972 213.474 235.852 213.834 235.612C214.199 235.367 214.479 235.037 214.674 234.622C214.874 234.207 214.974 233.75 214.974 233.25C214.974 232.74 214.874 232.28 214.674 231.87C214.474 231.455 214.192 231.127 213.827 230.887C213.467 230.642 213.042 230.52 212.552 230.52C212.057 230.52 211.607 230.642 211.202 230.887C210.802 231.132 210.482 231.462 210.242 231.877C210.002 232.287 209.882 232.745 209.882 233.25C209.882 233.755 210.004 234.215 210.249 234.63C210.494 235.04 210.819 235.367 211.224 235.612C211.629 235.852 212.072 235.972 212.552 235.972ZM225.627 230.76H223.924L223.917 237H222.657L222.664 230.76H221.374V229.5H222.664L222.657 227.145H223.917L223.924 229.5H225.627V230.76ZM230.081 237.195C229.391 237.195 228.761 237.017 228.191 236.662C227.626 236.307 227.173 235.832 226.833 235.237C226.498 234.637 226.331 233.975 226.331 233.25C226.331 232.7 226.428 232.187 226.623 231.712C226.818 231.232 227.086 230.812 227.426 230.452C227.771 230.087 228.171 229.802 228.626 229.597C229.081 229.392 229.566 229.29 230.081 229.29C230.771 229.29 231.398 229.467 231.963 229.822C232.533 230.177 232.986 230.655 233.321 231.255C233.661 231.855 233.831 232.52 233.831 233.25C233.831 233.795 233.733 234.305 233.538 234.78C233.343 235.255 233.073 235.675 232.728 236.04C232.388 236.4 231.991 236.682 231.536 236.887C231.086 237.093 230.601 237.195 230.081 237.195ZM230.081 235.935C230.551 235.935 230.973 235.812 231.348 235.567C231.728 235.317 232.026 234.99 232.241 234.585C232.461 234.175 232.571 233.73 232.571 233.25C232.571 232.76 232.458 232.31 232.233 231.9C232.013 231.49 231.716 231.162 231.341 230.917C230.966 230.672 230.546 230.55 230.081 230.55C229.611 230.55 229.188 230.675 228.813 230.925C228.438 231.17 228.141 231.497 227.921 231.907C227.701 232.317 227.591 232.765 227.591 233.25C227.591 233.75 227.703 234.205 227.928 234.615C228.153 235.02 228.456 235.342 228.836 235.582C229.216 235.817 229.631 235.935 230.081 235.935ZM242.663 230.76H240.96L240.953 237H239.693L239.7 230.76H238.41V229.5H239.7L239.693 227.145H240.953L240.96 229.5H242.663V230.76ZM250.637 232.335V237H249.377V232.612C249.377 232.232 249.285 231.887 249.1 231.577C248.915 231.267 248.667 231.022 248.357 230.842C248.047 230.657 247.702 230.565 247.322 230.565C246.947 230.565 246.602 230.657 246.287 230.842C245.977 231.022 245.73 231.267 245.545 231.577C245.36 231.887 245.267 232.232 245.267 232.612V237H244.007V225.75H245.267V230.437C245.532 230.087 245.867 229.81 246.272 229.605C246.677 229.395 247.117 229.29 247.592 229.29C248.152 229.29 248.662 229.427 249.122 229.702C249.587 229.972 249.955 230.337 250.225 230.797C250.5 231.257 250.637 231.77 250.637 232.335ZM255.291 237.195C254.601 237.195 253.971 237.017 253.401 236.662C252.836 236.307 252.383 235.832 252.043 235.237C251.708 234.637 251.541 233.975 251.541 233.25C251.541 232.7 251.638 232.187 251.833 231.712C252.028 231.232 252.296 230.812 252.636 230.452C252.981 230.087 253.381 229.802 253.836 229.597C254.291 229.392 254.776 229.29 255.291 229.29C255.856 229.29 256.373 229.405 256.843 229.635C257.318 229.86 257.723 230.175 258.058 230.58C258.398 230.985 258.651 231.455 258.816 231.99C258.986 232.525 259.048 233.097 259.003 233.707H252.883C252.943 234.132 253.083 234.512 253.303 234.847C253.523 235.177 253.803 235.44 254.143 235.635C254.488 235.83 254.871 235.93 255.291 235.935C255.741 235.935 256.148 235.82 256.513 235.59C256.878 235.355 257.173 235.035 257.398 234.63L258.681 234.93C258.381 235.595 257.928 236.14 257.323 236.565C256.718 236.985 256.041 237.195 255.291 237.195ZM252.846 232.717H257.736C257.696 232.297 257.561 231.915 257.331 231.57C257.101 231.22 256.808 230.94 256.453 230.73C256.098 230.52 255.711 230.415 255.291 230.415C254.871 230.415 254.486 230.517 254.136 230.722C253.786 230.927 253.496 231.205 253.266 231.555C253.041 231.9 252.901 232.287 252.846 232.717ZM267.858 230.76H266.156L266.148 237H264.888L264.896 230.76H263.606V229.5H264.896L264.888 227.145H266.148L266.156 229.5H267.858V230.76ZM272.312 237.195C271.622 237.195 270.992 237.017 270.422 236.662C269.857 236.307 269.405 235.832 269.065 235.237C268.73 234.637 268.562 233.975 268.562 233.25C268.562 232.7 268.66 232.187 268.855 231.712C269.05 231.232 269.317 230.812 269.657 230.452C270.002 230.087 270.402 229.802 270.857 229.597C271.312 229.392 271.797 229.29 272.312 229.29C273.002 229.29 273.63 229.467 274.195 229.822C274.765 230.177 275.217 230.655 275.552 231.255C275.892 231.855 276.062 232.52 276.062 233.25C276.062 233.795 275.965 234.305 275.77 234.78C275.575 235.255 275.305 235.675 274.96 236.04C274.62 236.4 274.222 236.682 273.767 236.887C273.317 237.093 272.832 237.195 272.312 237.195ZM272.312 235.935C272.782 235.935 273.205 235.812 273.58 235.567C273.96 235.317 274.257 234.99 274.472 234.585C274.692 234.175 274.802 233.73 274.802 233.25C274.802 232.76 274.69 232.31 274.465 231.9C274.245 231.49 273.947 231.162 273.572 230.917C273.197 230.672 272.777 230.55 272.312 230.55C271.842 230.55 271.42 230.675 271.045 230.925C270.67 231.17 270.372 231.497 270.152 231.907C269.932 232.317 269.822 232.765 269.822 233.25C269.822 233.75 269.935 234.205 270.16 234.615C270.385 235.02 270.687 235.342 271.067 235.582C271.447 235.817 271.862 235.935 272.312 235.935ZM281.1 230.76H279.398L279.39 237H278.13L278.138 230.76H276.848V229.5H278.138L278.13 227.145H279.39L279.398 229.5H281.1V230.76ZM288.284 229.5H289.544V237H288.284L288.232 235.732C287.997 236.167 287.672 236.52 287.257 236.79C286.847 237.06 286.357 237.195 285.787 237.195C285.237 237.195 284.722 237.093 284.242 236.887C283.762 236.677 283.337 236.39 282.967 236.025C282.602 235.655 282.317 235.23 282.112 234.75C281.907 234.27 281.804 233.752 281.804 233.197C281.804 232.662 281.904 232.157 282.104 231.682C282.304 231.207 282.582 230.792 282.937 230.437C283.297 230.077 283.712 229.797 284.182 229.597C284.652 229.392 285.157 229.29 285.697 229.29C286.287 229.29 286.804 229.43 287.249 229.71C287.694 229.985 288.054 230.342 288.329 230.782L288.284 229.5ZM285.764 235.972C286.259 235.972 286.687 235.852 287.047 235.612C287.412 235.367 287.692 235.037 287.887 234.622C288.087 234.207 288.187 233.75 288.187 233.25C288.187 232.74 288.087 232.28 287.887 231.87C287.687 231.455 287.404 231.127 287.039 230.887C286.679 230.642 286.254 230.52 285.764 230.52C285.269 230.52 284.819 230.642 284.414 230.887C284.009 231.132 283.687 231.462 283.447 231.877C283.212 232.287 283.094 232.745 283.094 233.25C283.094 233.755 283.217 234.215 283.462 234.63C283.707 235.04 284.032 235.367 284.437 235.612C284.842 235.852 285.284 235.972 285.764 235.972ZM291.131 237V225.75H292.391V237H291.131ZM294.043 237.84C294.448 237.395 294.808 236.883 295.123 236.302C295.438 235.722 295.69 235.085 295.88 234.39C296.07 233.695 296.173 232.955 296.188 232.17C296.178 231.755 296.135 231.33 296.06 230.895C295.99 230.455 295.89 230.02 295.76 229.59C295.63 229.16 295.478 228.752 295.303 228.367C295.128 227.977 294.935 227.625 294.725 227.31C294.515 226.99 294.288 226.72 294.043 226.5H295.303C295.578 226.685 295.825 226.937 296.045 227.257C296.27 227.572 296.47 227.93 296.645 228.33C296.82 228.73 296.968 229.152 297.088 229.597C297.208 230.037 297.298 230.48 297.358 230.925C297.418 231.365 297.448 231.78 297.448 232.17C297.448 232.91 297.375 233.622 297.23 234.307C297.085 234.987 296.855 235.625 296.54 236.22C296.225 236.815 295.813 237.355 295.303 237.84H294.043Z" fill="#242428"/>
<circle cx="48" cy="262" r="11.5" fill="#F4F6FA" stroke="#E9ECF2"/>
<circle cx="48" cy="262" r="6" fill="#0004FF"/>
<path d="M73.76 267.195C73.05 267.195 72.3825 267.055 71.7575 266.775C71.1325 266.49 70.5825 266.1 70.1075 265.605C69.6375 265.105 69.2675 264.525 68.9975 263.865C68.7325 263.205 68.6 262.5 68.6 261.75C68.6 261 68.7325 260.295 68.9975 259.635C69.2675 258.975 69.6375 258.397 70.1075 257.902C70.5825 257.402 71.1325 257.012 71.7575 256.732C72.3825 256.447 73.05 256.305 73.76 256.305C74.61 256.305 75.3925 256.502 76.1075 256.897C76.8225 257.292 77.415 257.817 77.885 258.472L76.7675 259.072C76.4175 258.612 75.975 258.247 75.44 257.977C74.91 257.702 74.35 257.565 73.76 257.565C73.215 257.565 72.705 257.675 72.23 257.895C71.76 258.115 71.3475 258.417 70.9925 258.802C70.6375 259.187 70.36 259.632 70.16 260.137C69.96 260.642 69.86 261.18 69.86 261.75C69.86 262.325 69.96 262.865 70.16 263.37C70.365 263.875 70.645 264.32 71 264.705C71.36 265.09 71.775 265.392 72.245 265.612C72.72 265.827 73.225 265.935 73.76 265.935C74.37 265.935 74.935 265.797 75.455 265.522C75.98 265.242 76.4175 264.877 76.7675 264.427L77.885 265.035C77.415 265.69 76.8225 266.215 76.1075 266.61C75.3925 267 74.61 267.195 73.76 267.195ZM82.2781 267.195C81.5881 267.195 80.9581 267.017 80.3881 266.662C79.8231 266.307 79.3706 265.832 79.0306 265.237C78.6956 264.637 78.5281 263.975 78.5281 263.25C78.5281 262.7 78.6256 262.187 78.8206 261.712C79.0156 261.232 79.2831 260.812 79.6231 260.452C79.9681 260.087 80.3681 259.802 80.8231 259.597C81.2781 259.392 81.7631 259.29 82.2781 259.29C82.9681 259.29 83.5956 259.467 84.1606 259.822C84.7306 260.177 85.1831 260.655 85.5181 261.255C85.8581 261.855 86.0281 262.52 86.0281 263.25C86.0281 263.795 85.9306 264.305 85.7356 264.78C85.5406 265.255 85.2706 265.675 84.9256 266.04C84.5856 266.4 84.1881 266.682 83.7331 266.887C83.2831 267.093 82.7981 267.195 82.2781 267.195ZM82.2781 265.935C82.7481 265.935 83.1706 265.812 83.5456 265.567C83.9256 265.317 84.2231 264.99 84.4381 264.585C84.6581 264.175 84.7681 263.73 84.7681 263.25C84.7681 262.76 84.6556 262.31 84.4306 261.9C84.2106 261.49 83.9131 261.162 83.5381 260.917C83.1631 260.672 82.7431 260.55 82.2781 260.55C81.8081 260.55 81.3856 260.675 81.0106 260.925C80.6356 261.17 80.3381 261.497 80.1181 261.907C79.8981 262.317 79.7881 262.765 79.7881 263.25C79.7881 263.75 79.9006 264.205 80.1256 264.615C80.3506 265.02 80.6531 265.342 81.0331 265.582C81.4131 265.817 81.8281 265.935 82.2781 265.935ZM87.2691 267V259.5H88.5291V260.437C88.7941 260.087 89.1266 259.81 89.5266 259.605C89.9316 259.395 90.3716 259.29 90.8466 259.29C91.4016 259.29 91.9091 259.425 92.3691 259.695C92.8291 259.965 93.1916 260.322 93.4566 260.767C93.7216 260.322 94.0816 259.965 94.5366 259.695C94.9966 259.425 95.5016 259.29 96.0516 259.29C96.6166 259.29 97.1291 259.427 97.5891 259.702C98.0491 259.972 98.4141 260.337 98.6841 260.797C98.9591 261.257 99.0966 261.77 99.0966 262.335V267H97.8366V262.635C97.8366 262.265 97.7466 261.922 97.5666 261.607C97.3866 261.292 97.1441 261.04 96.8391 260.85C96.5341 260.66 96.1966 260.565 95.8266 260.565C95.4566 260.565 95.1191 260.655 94.8141 260.835C94.5091 261.01 94.2666 261.255 94.0866 261.57C93.9066 261.88 93.8166 262.235 93.8166 262.635V267H92.5566V262.635C92.5566 262.235 92.4666 261.88 92.2866 261.57C92.1066 261.255 91.8616 261.01 91.5516 260.835C91.2466 260.655 90.9091 260.565 90.5391 260.565C90.1741 260.565 89.8366 260.66 89.5266 260.85C89.2216 261.04 88.9791 261.292 88.7991 261.607C88.6191 261.922 88.5291 262.265 88.5291 262.635V267H87.2691ZM101.859 270.75H100.599V259.5H101.859V260.782C102.114 260.342 102.454 259.987 102.879 259.717C103.304 259.442 103.809 259.305 104.394 259.305C104.939 259.305 105.449 259.407 105.924 259.612C106.404 259.817 106.824 260.102 107.184 260.467C107.544 260.827 107.827 261.245 108.032 261.72C108.237 262.195 108.339 262.705 108.339 263.25C108.339 263.795 108.237 264.307 108.032 264.787C107.827 265.267 107.544 265.69 107.184 266.055C106.824 266.415 106.404 266.697 105.924 266.902C105.449 267.108 104.939 267.21 104.394 267.21C103.809 267.21 103.304 267.075 102.879 266.805C102.454 266.53 102.114 266.172 101.859 265.732V270.75ZM104.379 260.527C103.894 260.527 103.469 260.65 103.104 260.895C102.739 261.14 102.457 261.467 102.257 261.877C102.062 262.287 101.964 262.745 101.964 263.25C101.964 263.75 102.062 264.207 102.257 264.622C102.457 265.037 102.737 265.367 103.097 265.612C103.462 265.857 103.889 265.98 104.379 265.98C104.864 265.98 105.309 265.86 105.714 265.62C106.119 265.375 106.444 265.047 106.689 264.637C106.934 264.222 107.057 263.76 107.057 263.25C107.057 262.75 106.937 262.295 106.697 261.885C106.457 261.47 106.134 261.14 105.729 260.895C105.324 260.65 104.874 260.527 104.379 260.527ZM115.579 259.5H116.839V267H115.579L115.527 265.732C115.292 266.167 114.967 266.52 114.552 266.79C114.142 267.06 113.652 267.195 113.082 267.195C112.532 267.195 112.017 267.093 111.537 266.887C111.057 266.677 110.632 266.39 110.262 266.025C109.897 265.655 109.612 265.23 109.407 264.75C109.202 264.27 109.099 263.752 109.099 263.197C109.099 262.662 109.199 262.157 109.399 261.682C109.599 261.207 109.877 260.792 110.232 260.437C110.592 260.077 111.007 259.797 111.477 259.597C111.947 259.392 112.452 259.29 112.992 259.29C113.582 259.29 114.099 259.43 114.544 259.71C114.989 259.985 115.349 260.342 115.624 260.782L115.579 259.5ZM113.059 265.972C113.554 265.972 113.982 265.852 114.342 265.612C114.707 265.367 114.987 265.037 115.182 264.622C115.382 264.207 115.482 263.75 115.482 263.25C115.482 262.74 115.382 262.28 115.182 261.87C114.982 261.455 114.699 261.127 114.334 260.887C113.974 260.642 113.549 260.52 113.059 260.52C112.564 260.52 112.114 260.642 111.709 260.887C111.304 261.132 110.982 261.462 110.742 261.877C110.507 262.287 110.389 262.745 110.389 263.25C110.389 263.755 110.512 264.215 110.757 264.63C111.002 265.04 111.327 265.367 111.732 265.612C112.137 265.852 112.579 265.972 113.059 265.972ZM124.968 262.335V267H123.708V262.612C123.708 262.232 123.616 261.887 123.431 261.577C123.246 261.267 122.998 261.022 122.688 260.842C122.378 260.657 122.033 260.565 121.653 260.565C121.278 260.565 120.933 260.657 120.618 260.842C120.308 261.022 120.061 261.267 119.876 261.577C119.691 261.887 119.598 262.232 119.598 262.612V267H118.338V259.5H119.598V260.437C119.863 260.087 120.198 259.81 120.603 259.605C121.008 259.395 121.448 259.29 121.923 259.29C122.483 259.29 122.993 259.427 123.453 259.702C123.918 259.972 124.286 260.337 124.556 260.797C124.831 261.257 124.968 261.77 124.968 262.335ZM131.371 259.5H132.706L128.604 270.75H127.269L128.626 267L125.934 259.5H127.314L129.256 265.267L131.371 259.5ZM139.951 267.84C139.441 267.355 139.029 266.815 138.714 266.22C138.399 265.625 138.169 264.987 138.024 264.307C137.879 263.622 137.806 262.91 137.806 262.17C137.806 261.78 137.836 261.365 137.896 260.925C137.956 260.48 138.046 260.037 138.166 259.597C138.286 259.152 138.431 258.73 138.601 258.33C138.776 257.93 138.976 257.572 139.201 257.257C139.426 256.937 139.676 256.685 139.951 256.5H141.211C140.966 256.72 140.739 256.99 140.529 257.31C140.319 257.625 140.126 257.977 139.951 258.367C139.776 258.752 139.624 259.16 139.494 259.59C139.364 260.02 139.261 260.455 139.186 260.895C139.116 261.33 139.076 261.755 139.066 262.17C139.081 262.955 139.181 263.695 139.366 264.39C139.556 265.085 139.809 265.722 140.124 266.302C140.444 266.883 140.806 267.395 141.211 267.84H139.951ZM146.197 267H144.922L142.41 259.5H143.64L145.575 265.222L147.487 259.5H148.785L150.705 265.222L152.617 259.5H153.862L151.35 267H150.067L148.125 261.225L146.197 267ZM158.084 267.195C157.394 267.195 156.764 267.017 156.194 266.662C155.629 266.307 155.176 265.832 154.836 265.237C154.501 264.637 154.334 263.975 154.334 263.25C154.334 262.7 154.431 262.187 154.626 261.712C154.821 261.232 155.089 260.812 155.429 260.452C155.774 260.087 156.174 259.802 156.629 259.597C157.084 259.392 157.569 259.29 158.084 259.29C158.649 259.29 159.166 259.405 159.636 259.635C160.111 259.86 160.516 260.175 160.851 260.58C161.191 260.985 161.444 261.455 161.609 261.99C161.779 262.525 161.841 263.097 161.796 263.707H155.676C155.736 264.132 155.876 264.512 156.096 264.847C156.316 265.177 156.596 265.44 156.936 265.635C157.281 265.83 157.664 265.93 158.084 265.935C158.534 265.935 158.941 265.82 159.306 265.59C159.671 265.355 159.966 265.035 160.191 264.63L161.474 264.93C161.174 265.595 160.721 266.14 160.116 266.565C159.511 266.985 158.834 267.195 158.084 267.195ZM155.639 262.717H160.529C160.489 262.297 160.354 261.915 160.124 261.57C159.894 261.22 159.601 260.94 159.246 260.73C158.891 260.52 158.504 260.415 158.084 260.415C157.664 260.415 157.279 260.517 156.929 260.722C156.579 260.927 156.289 261.205 156.059 261.555C155.834 261.9 155.694 262.287 155.639 262.717ZM168.026 270.75H166.766V259.5H168.026V260.782C168.281 260.342 168.621 259.987 169.046 259.717C169.471 259.442 169.976 259.305 170.561 259.305C171.106 259.305 171.616 259.407 172.091 259.612C172.571 259.817 172.991 260.102 173.351 260.467C173.711 260.827 173.994 261.245 174.199 261.72C174.404 262.195 174.506 262.705 174.506 263.25C174.506 263.795 174.404 264.307 174.199 264.787C173.994 265.267 173.711 265.69 173.351 266.055C172.991 266.415 172.571 266.697 172.091 266.902C171.616 267.108 171.106 267.21 170.561 267.21C169.976 267.21 169.471 267.075 169.046 266.805C168.621 266.53 168.281 266.172 168.026 265.732V270.75ZM170.546 260.527C170.061 260.527 169.636 260.65 169.271 260.895C168.906 261.14 168.624 261.467 168.424 261.877C168.229 262.287 168.131 262.745 168.131 263.25C168.131 263.75 168.229 264.207 168.424 264.622C168.624 265.037 168.904 265.367 169.264 265.612C169.629 265.857 170.056 265.98 170.546 265.98C171.031 265.98 171.476 265.86 171.881 265.62C172.286 265.375 172.611 265.047 172.856 264.637C173.101 264.222 173.224 263.76 173.224 263.25C173.224 262.75 173.104 262.295 172.864 261.885C172.624 261.47 172.301 261.14 171.896 260.895C171.491 260.65 171.041 260.527 170.546 260.527ZM181.746 259.5H183.006V267H181.746L181.694 265.732C181.459 266.167 181.134 266.52 180.719 266.79C180.309 267.06 179.819 267.195 179.249 267.195C178.699 267.195 178.184 267.093 177.704 266.887C177.224 266.677 176.799 266.39 176.429 266.025C176.064 265.655 175.779 265.23 175.574 264.75C175.369 264.27 175.266 263.752 175.266 263.197C175.266 262.662 175.366 262.157 175.566 261.682C175.766 261.207 176.044 260.792 176.399 260.437C176.759 260.077 177.174 259.797 177.644 259.597C178.114 259.392 178.619 259.29 179.159 259.29C179.749 259.29 180.266 259.43 180.711 259.71C181.156 259.985 181.516 260.342 181.791 260.782L181.746 259.5ZM179.226 265.972C179.721 265.972 180.149 265.852 180.509 265.612C180.874 265.367 181.154 265.037 181.349 264.622C181.549 264.207 181.649 263.75 181.649 263.25C181.649 262.74 181.549 262.28 181.349 261.87C181.149 261.455 180.866 261.127 180.501 260.887C180.141 260.642 179.716 260.52 179.226 260.52C178.731 260.52 178.281 260.642 177.876 260.887C177.471 261.132 177.149 261.462 176.909 261.877C176.674 262.287 176.556 262.745 176.556 263.25C176.556 263.755 176.679 264.215 176.924 264.63C177.169 265.04 177.494 265.367 177.899 265.612C178.304 265.852 178.746 265.972 179.226 265.972ZM189.409 259.5H190.744L186.641 270.75H185.306L186.664 267L183.971 259.5H185.351L187.294 265.267L189.409 259.5ZM199.728 260.76H198.026L198.018 267H196.758L196.766 260.76H195.476V259.5H196.766L196.758 257.145H198.018L198.026 259.5H199.728V260.76ZM207.703 262.335V267H206.443V262.612C206.443 262.232 206.35 261.887 206.165 261.577C205.98 261.267 205.733 261.022 205.423 260.842C205.113 260.657 204.768 260.565 204.388 260.565C204.013 260.565 203.668 260.657 203.353 260.842C203.043 261.022 202.795 261.267 202.61 261.577C202.425 261.887 202.333 262.232 202.333 262.612V267H201.073V255.75H202.333V260.437C202.598 260.087 202.933 259.81 203.338 259.605C203.743 259.395 204.183 259.29 204.658 259.29C205.218 259.29 205.728 259.427 206.188 259.702C206.653 259.972 207.02 260.337 207.29 260.797C207.565 261.257 207.703 261.77 207.703 262.335ZM212.356 267.195C211.666 267.195 211.036 267.017 210.466 266.662C209.901 266.307 209.449 265.832 209.109 265.237C208.774 264.637 208.606 263.975 208.606 263.25C208.606 262.7 208.704 262.187 208.899 261.712C209.094 261.232 209.361 260.812 209.701 260.452C210.046 260.087 210.446 259.802 210.901 259.597C211.356 259.392 211.841 259.29 212.356 259.29C212.921 259.29 213.439 259.405 213.909 259.635C214.384 259.86 214.789 260.175 215.124 260.58C215.464 260.985 215.716 261.455 215.881 261.99C216.051 262.525 216.114 263.097 216.069 263.707H209.949C210.009 264.132 210.149 264.512 210.369 264.847C210.589 265.177 210.869 265.44 211.209 265.635C211.554 265.83 211.936 265.93 212.356 265.935C212.806 265.935 213.214 265.82 213.579 265.59C213.944 265.355 214.239 265.035 214.464 264.63L215.746 264.93C215.446 265.595 214.994 266.14 214.389 266.565C213.784 266.985 213.106 267.195 212.356 267.195ZM209.911 262.717H214.801C214.761 262.297 214.626 261.915 214.396 261.57C214.166 261.22 213.874 260.94 213.519 260.73C213.164 260.52 212.776 260.415 212.356 260.415C211.936 260.415 211.551 260.517 211.201 260.722C210.851 260.927 210.561 261.205 210.331 261.555C210.106 261.9 209.966 262.287 209.911 262.717ZM222.741 257.647V259.5H224.939V260.76H222.741V267H221.481V260.76H220.514V259.5H221.481V257.647C221.481 257.262 221.574 256.915 221.759 256.605C221.949 256.29 222.201 256.04 222.516 255.855C222.836 255.665 223.186 255.57 223.566 255.57C223.846 255.57 224.119 255.627 224.384 255.742C224.649 255.852 224.884 256.017 225.089 256.237L224.189 257.13C224.119 257.035 224.026 256.962 223.911 256.912C223.801 256.857 223.686 256.83 223.566 256.83C223.341 256.83 223.146 256.91 222.981 257.07C222.821 257.23 222.741 257.422 222.741 257.647ZM229.275 267.195C228.585 267.195 227.955 267.017 227.385 266.662C226.82 266.307 226.368 265.832 226.028 265.237C225.693 264.637 225.525 263.975 225.525 263.25C225.525 262.7 225.623 262.187 225.818 261.712C226.013 261.232 226.28 260.812 226.62 260.452C226.965 260.087 227.365 259.802 227.82 259.597C228.275 259.392 228.76 259.29 229.275 259.29C229.84 259.29 230.358 259.405 230.828 259.635C231.303 259.86 231.708 260.175 232.043 260.58C232.383 260.985 232.635 261.455 232.8 261.99C232.97 262.525 233.033 263.097 232.988 263.707H226.868C226.928 264.132 227.068 264.512 227.288 264.847C227.508 265.177 227.788 265.44 228.128 265.635C228.473 265.83 228.855 265.93 229.275 265.935C229.725 265.935 230.133 265.82 230.498 265.59C230.863 265.355 231.158 265.035 231.383 264.63L232.665 264.93C232.365 265.595 231.913 266.14 231.308 266.565C230.703 266.985 230.025 267.195 229.275 267.195ZM226.83 262.717H231.72C231.68 262.297 231.545 261.915 231.315 261.57C231.085 261.22 230.793 260.94 230.438 260.73C230.083 260.52 229.695 260.415 229.275 260.415C228.855 260.415 228.47 260.517 228.12 260.722C227.77 260.927 227.48 261.205 227.25 261.555C227.025 261.9 226.885 262.287 226.83 262.717ZM237.508 267.195C236.818 267.195 236.188 267.017 235.618 266.662C235.053 266.307 234.6 265.832 234.26 265.237C233.925 264.637 233.758 263.975 233.758 263.25C233.758 262.7 233.855 262.187 234.05 261.712C234.245 261.232 234.513 260.812 234.853 260.452C235.198 260.087 235.598 259.802 236.053 259.597C236.508 259.392 236.993 259.29 237.508 259.29C238.073 259.29 238.59 259.405 239.06 259.635C239.535 259.86 239.94 260.175 240.275 260.58C240.615 260.985 240.868 261.455 241.033 261.99C241.203 262.525 241.265 263.097 241.22 263.707H235.1C235.16 264.132 235.3 264.512 235.52 264.847C235.74 265.177 236.02 265.44 236.36 265.635C236.705 265.83 237.088 265.93 237.508 265.935C237.958 265.935 238.365 265.82 238.73 265.59C239.095 265.355 239.39 265.035 239.615 264.63L240.898 264.93C240.598 265.595 240.145 266.14 239.54 266.565C238.935 266.985 238.258 267.195 237.508 267.195ZM235.063 262.717H239.953C239.913 262.297 239.778 261.915 239.548 261.57C239.318 261.22 239.025 260.94 238.67 260.73C238.315 260.52 237.928 260.415 237.508 260.415C237.088 260.415 236.703 260.517 236.353 260.722C236.003 260.927 235.713 261.205 235.483 261.555C235.258 261.9 235.118 262.287 235.063 262.717ZM244.801 267.143C244.396 267.128 244.001 267.053 243.616 266.917C243.236 266.777 242.901 266.59 242.611 266.355C242.326 266.115 242.118 265.84 241.988 265.53L243.068 265.065C243.143 265.235 243.278 265.395 243.473 265.545C243.668 265.695 243.893 265.815 244.148 265.905C244.403 265.995 244.661 266.04 244.921 266.04C245.196 266.04 245.453 265.997 245.693 265.912C245.933 265.827 246.128 265.702 246.278 265.537C246.433 265.367 246.511 265.165 246.511 264.93C246.511 264.68 246.426 264.485 246.256 264.345C246.091 264.2 245.881 264.087 245.626 264.007C245.376 263.922 245.121 263.842 244.861 263.767C244.346 263.637 243.886 263.482 243.481 263.302C243.076 263.117 242.756 262.885 242.521 262.605C242.291 262.32 242.176 261.957 242.176 261.517C242.176 261.052 242.303 260.65 242.558 260.31C242.818 259.97 243.158 259.707 243.578 259.522C243.998 259.337 244.448 259.245 244.928 259.245C245.533 259.245 246.086 259.375 246.586 259.635C247.086 259.895 247.458 260.247 247.703 260.692L246.691 261.285C246.606 261.105 246.476 260.947 246.301 260.812C246.126 260.672 245.926 260.562 245.701 260.482C245.476 260.402 245.246 260.36 245.011 260.355C244.721 260.345 244.448 260.382 244.193 260.467C243.943 260.552 243.741 260.682 243.586 260.857C243.436 261.027 243.361 261.24 243.361 261.495C243.361 261.745 243.441 261.935 243.601 262.065C243.766 262.195 243.978 262.3 244.238 262.38C244.503 262.455 244.791 262.542 245.101 262.642C245.556 262.787 245.981 262.955 246.376 263.145C246.771 263.335 247.088 263.572 247.328 263.857C247.573 264.142 247.693 264.495 247.688 264.915C247.688 265.375 247.551 265.777 247.276 266.122C247.001 266.462 246.643 266.722 246.203 266.902C245.768 267.083 245.301 267.163 244.801 267.143ZM248.823 267.84C249.228 267.395 249.588 266.883 249.903 266.302C250.218 265.722 250.471 265.085 250.661 264.39C250.851 263.695 250.953 262.955 250.968 262.17C250.958 261.755 250.916 261.33 250.841 260.895C250.771 260.455 250.671 260.02 250.541 259.59C250.411 259.16 250.258 258.752 250.083 258.367C249.908 257.977 249.716 257.625 249.506 257.31C249.296 256.99 249.068 256.72 248.823 256.5H250.083C250.358 256.685 250.606 256.937 250.826 257.257C251.051 257.572 251.251 257.93 251.426 258.33C251.601 258.73 251.748 259.152 251.868 259.597C251.988 260.037 252.078 260.48 252.138 260.925C252.198 261.365 252.228 261.78 252.228 262.17C252.228 262.91 252.156 263.622 252.011 264.307C251.866 264.987 251.636 265.625 251.321 266.22C251.006 266.815 250.593 267.355 250.083 267.84H248.823Z" fill="#242428"/>
<rect x="36" y="292" width="288" height="40" rx="6" fill="#0004FF"/>
<path d="M129.76 317.195C129.05 317.195 128.383 317.055 127.758 316.775C127.133 316.49 126.583 316.097 126.108 315.597C125.638 315.097 125.268 314.52 124.998 313.865C124.733 313.205 124.6 312.5 124.6 311.75C124.6 310.995 124.733 310.29 124.998 309.635C125.268 308.975 125.638 308.397 126.108 307.902C126.583 307.402 127.133 307.012 127.758 306.732C128.383 306.447 129.05 306.305 129.76 306.305C130.61 306.305 131.393 306.502 132.108 306.897C132.823 307.287 133.415 307.81 133.885 308.465L132.25 309.342C131.955 308.977 131.588 308.685 131.148 308.465C130.713 308.245 130.25 308.135 129.76 308.135C129.3 308.135 128.868 308.23 128.463 308.42C128.058 308.605 127.703 308.865 127.398 309.2C127.093 309.53 126.855 309.915 126.685 310.355C126.515 310.79 126.43 311.255 126.43 311.75C126.43 312.25 126.515 312.717 126.685 313.152C126.86 313.587 127.1 313.972 127.405 314.307C127.71 314.637 128.063 314.897 128.463 315.087C128.868 315.272 129.3 315.365 129.76 315.365C130.26 315.365 130.725 315.255 131.155 315.035C131.59 314.81 131.955 314.515 132.25 314.15L133.885 315.035C133.415 315.685 132.823 316.207 132.108 316.602C131.393 316.997 130.61 317.195 129.76 317.195ZM135.249 317L135.242 309.5H137.072L137.079 310.167C137.334 309.897 137.639 309.685 137.994 309.53C138.349 309.37 138.732 309.29 139.142 309.29C139.417 309.29 139.692 309.33 139.967 309.41L139.247 311.255C139.057 311.18 138.867 311.142 138.677 311.142C138.382 311.142 138.112 311.215 137.867 311.36C137.627 311.5 137.434 311.692 137.289 311.937C137.149 312.177 137.079 312.445 137.079 312.74V317H135.249ZM143.757 317.195C143.067 317.195 142.437 317.017 141.867 316.662C141.302 316.307 140.849 315.83 140.509 315.23C140.174 314.63 140.007 313.967 140.007 313.242C140.007 312.697 140.104 312.187 140.299 311.712C140.494 311.232 140.762 310.812 141.102 310.452C141.447 310.087 141.847 309.802 142.302 309.597C142.757 309.392 143.242 309.29 143.757 309.29C144.342 309.29 144.877 309.415 145.362 309.665C145.852 309.91 146.267 310.247 146.607 310.677C146.947 311.107 147.194 311.597 147.349 312.147C147.504 312.697 147.539 313.272 147.454 313.872H141.972C142.042 314.152 142.157 314.405 142.317 314.63C142.477 314.85 142.679 315.027 142.924 315.162C143.169 315.292 143.447 315.36 143.757 315.365C144.077 315.37 144.367 315.295 144.627 315.14C144.892 314.98 145.112 314.765 145.287 314.495L147.154 314.93C146.849 315.595 146.394 316.14 145.789 316.565C145.184 316.985 144.507 317.195 143.757 317.195ZM141.912 312.5H145.602C145.547 312.2 145.429 311.93 145.249 311.69C145.074 311.445 144.857 311.25 144.597 311.105C144.337 310.96 144.057 310.887 143.757 310.887C143.457 310.887 143.179 310.96 142.924 311.105C142.669 311.245 142.452 311.437 142.272 311.682C142.097 311.922 141.977 312.195 141.912 312.5ZM154.359 309.5H156.189V317H154.359L154.276 316.07C154.071 316.405 153.799 316.677 153.459 316.887C153.124 317.093 152.726 317.195 152.266 317.195C151.711 317.195 151.191 317.09 150.706 316.88C150.221 316.67 149.794 316.38 149.424 316.01C149.059 315.64 148.771 315.212 148.561 314.727C148.356 314.242 148.254 313.722 148.254 313.167C148.254 312.632 148.351 312.13 148.546 311.66C148.746 311.19 149.024 310.777 149.379 310.422C149.734 310.067 150.144 309.79 150.609 309.59C151.074 309.39 151.574 309.29 152.109 309.29C152.604 309.29 153.046 309.4 153.436 309.62C153.831 309.84 154.166 310.12 154.441 310.46L154.359 309.5ZM152.221 315.432C152.611 315.432 152.956 315.335 153.256 315.14C153.556 314.945 153.791 314.682 153.961 314.352C154.131 314.017 154.216 313.65 154.216 313.25C154.216 312.845 154.131 312.477 153.961 312.147C153.791 311.812 153.554 311.547 153.249 311.352C152.949 311.157 152.606 311.06 152.221 311.06C151.836 311.06 151.484 311.16 151.164 311.36C150.849 311.555 150.596 311.817 150.406 312.147C150.221 312.477 150.129 312.845 150.129 313.25C150.129 313.655 150.224 314.022 150.414 314.352C150.604 314.682 150.856 314.945 151.171 315.14C151.491 315.335 151.841 315.432 152.221 315.432ZM161.703 311.33H160.248V317H158.418V311.33H157.308V309.5H158.418V307.145H160.248V309.5H161.703V311.33ZM166.183 317.195C165.493 317.195 164.863 317.017 164.293 316.662C163.728 316.307 163.276 315.83 162.936 315.23C162.601 314.63 162.433 313.967 162.433 313.242C162.433 312.697 162.531 312.187 162.726 311.712C162.921 311.232 163.188 310.812 163.528 310.452C163.873 310.087 164.273 309.802 164.728 309.597C165.183 309.392 165.668 309.29 166.183 309.29C166.768 309.29 167.303 309.415 167.788 309.665C168.278 309.91 168.693 310.247 169.033 310.677C169.373 311.107 169.621 311.597 169.776 312.147C169.931 312.697 169.966 313.272 169.881 313.872H164.398C164.468 314.152 164.583 314.405 164.743 314.63C164.903 314.85 165.106 315.027 165.351 315.162C165.596 315.292 165.873 315.36 166.183 315.365C166.503 315.37 166.793 315.295 167.053 315.14C167.318 314.98 167.538 314.765 167.713 314.495L169.581 314.93C169.276 315.595 168.821 316.14 168.216 316.565C167.611 316.985 166.933 317.195 166.183 317.195ZM164.338 312.5H168.028C167.973 312.2 167.856 311.93 167.676 311.69C167.501 311.445 167.283 311.25 167.023 311.105C166.763 310.96 166.483 310.887 166.183 310.887C165.883 310.887 165.606 310.96 165.351 311.105C165.096 311.245 164.878 311.437 164.698 311.682C164.523 311.922 164.403 312.195 164.338 312.5ZM176.71 320.75H174.88V309.5H176.71V310.452C176.955 310.112 177.255 309.837 177.61 309.627C177.97 309.412 178.39 309.305 178.87 309.305C179.42 309.305 179.933 309.407 180.408 309.612C180.883 309.817 181.3 310.102 181.66 310.467C182.025 310.827 182.308 311.245 182.508 311.72C182.713 312.195 182.815 312.705 182.815 313.25C182.815 313.795 182.713 314.307 182.508 314.787C182.308 315.267 182.025 315.69 181.66 316.055C181.3 316.415 180.883 316.697 180.408 316.902C179.933 317.108 179.42 317.21 178.87 317.21C178.39 317.21 177.97 317.105 177.61 316.895C177.255 316.68 176.955 316.402 176.71 316.062V320.75ZM178.848 311.067C178.468 311.067 178.128 311.167 177.828 311.367C177.528 311.562 177.293 311.825 177.123 312.155C176.953 312.485 176.868 312.85 176.868 313.25C176.868 313.65 176.953 314.017 177.123 314.352C177.293 314.682 177.528 314.947 177.828 315.147C178.128 315.342 178.468 315.44 178.848 315.44C179.233 315.44 179.585 315.342 179.905 315.147C180.225 314.952 180.48 314.69 180.67 314.36C180.86 314.025 180.955 313.655 180.955 313.25C180.955 312.85 180.86 312.485 180.67 312.155C180.48 311.825 180.225 311.562 179.905 311.367C179.59 311.167 179.238 311.067 178.848 311.067ZM189.676 309.5H191.506V317H189.676L189.594 316.07C189.389 316.405 189.116 316.677 188.776 316.887C188.441 317.093 188.044 317.195 187.584 317.195C187.029 317.195 186.509 317.09 186.024 316.88C185.539 316.67 185.111 316.38 184.741 316.01C184.376 315.64 184.089 315.212 183.879 314.727C183.674 314.242 183.571 313.722 183.571 313.167C183.571 312.632 183.669 312.13 183.864 311.66C184.064 311.19 184.341 310.777 184.696 310.422C185.051 310.067 185.461 309.79 185.926 309.59C186.391 309.39 186.891 309.29 187.426 309.29C187.921 309.29 188.364 309.4 188.754 309.62C189.149 309.84 189.484 310.12 189.759 310.46L189.676 309.5ZM187.539 315.432C187.929 315.432 188.274 315.335 188.574 315.14C188.874 314.945 189.109 314.682 189.279 314.352C189.449 314.017 189.534 313.65 189.534 313.25C189.534 312.845 189.449 312.477 189.279 312.147C189.109 311.812 188.871 311.547 188.566 311.352C188.266 311.157 187.924 311.06 187.539 311.06C187.154 311.06 186.801 311.16 186.481 311.36C186.166 311.555 185.914 311.817 185.724 312.147C185.539 312.477 185.446 312.845 185.446 313.25C185.446 313.655 185.541 314.022 185.731 314.352C185.921 314.682 186.174 314.945 186.489 315.14C186.809 315.335 187.159 315.432 187.539 315.432ZM197.735 309.5H199.678L195.575 320.75H193.633L194.99 317L192.29 309.5H194.293L195.905 314.495L197.735 309.5ZM200.881 317V309.5H202.711V310.167C202.966 309.897 203.271 309.685 203.626 309.53C203.981 309.37 204.364 309.29 204.774 309.29C205.294 309.29 205.771 309.412 206.206 309.657C206.646 309.902 206.996 310.23 207.256 310.64C207.521 310.23 207.871 309.902 208.306 309.657C208.741 309.412 209.219 309.29 209.739 309.29C210.289 309.29 210.786 309.425 211.231 309.695C211.681 309.96 212.039 310.317 212.304 310.767C212.574 311.212 212.709 311.71 212.709 312.26V317H210.879V312.747C210.879 312.457 210.806 312.192 210.661 311.952C210.521 311.707 210.331 311.512 210.091 311.367C209.856 311.217 209.591 311.142 209.296 311.142C209.001 311.142 208.734 311.215 208.494 311.36C208.259 311.5 208.069 311.69 207.924 311.93C207.779 312.17 207.706 312.442 207.706 312.747V317H205.876V312.747C205.876 312.442 205.806 312.17 205.666 311.93C205.526 311.69 205.336 311.5 205.096 311.36C204.856 311.215 204.589 311.142 204.294 311.142C204.004 311.142 203.739 311.217 203.499 311.367C203.259 311.512 203.066 311.707 202.921 311.952C202.781 312.192 202.711 312.457 202.711 312.747V317H200.881ZM217.365 317.195C216.675 317.195 216.045 317.017 215.475 316.662C214.91 316.307 214.458 315.83 214.118 315.23C213.783 314.63 213.615 313.967 213.615 313.242C213.615 312.697 213.713 312.187 213.908 311.712C214.103 311.232 214.37 310.812 214.71 310.452C215.055 310.087 215.455 309.802 215.91 309.597C216.365 309.392 216.85 309.29 217.365 309.29C217.95 309.29 218.485 309.415 218.97 309.665C219.46 309.91 219.875 310.247 220.215 310.677C220.555 311.107 220.803 311.597 220.958 312.147C221.113 312.697 221.148 313.272 221.063 313.872H215.58C215.65 314.152 215.765 314.405 215.925 314.63C216.085 314.85 216.288 315.027 216.533 315.162C216.778 315.292 217.055 315.36 217.365 315.365C217.685 315.37 217.975 315.295 218.235 315.14C218.5 314.98 218.72 314.765 218.895 314.495L220.763 314.93C220.458 315.595 220.003 316.14 219.398 316.565C218.793 316.985 218.115 317.195 217.365 317.195ZM215.52 312.5H219.21C219.155 312.2 219.038 311.93 218.858 311.69C218.683 311.445 218.465 311.25 218.205 311.105C217.945 310.96 217.665 310.887 217.365 310.887C217.065 310.887 216.788 310.96 216.533 311.105C216.278 311.245 216.06 311.437 215.88 311.682C215.705 311.922 215.585 312.195 215.52 312.5ZM229.153 312.26V317H227.323V312.74C227.323 312.445 227.25 312.177 227.105 311.937C226.96 311.692 226.765 311.5 226.52 311.36C226.28 311.215 226.013 311.142 225.718 311.142C225.423 311.142 225.153 311.215 224.908 311.36C224.668 311.5 224.475 311.692 224.33 311.937C224.19 312.177 224.12 312.445 224.12 312.74V317H222.29L222.283 309.5H224.113L224.12 310.167C224.375 309.897 224.68 309.685 225.035 309.53C225.39 309.37 225.773 309.29 226.183 309.29C226.728 309.29 227.225 309.425 227.675 309.695C228.125 309.96 228.483 310.317 228.748 310.767C229.018 311.212 229.153 311.71 229.153 312.26ZM234.667 311.33H233.212V317H231.382V311.33H230.272V309.5H231.382V307.145H233.212V309.5H234.667V311.33Z" fill="white"/>
</g>
<defs>
<filter id="filter0_d_2056_32351" x="0" y="0" width="360" height="372" filterUnits="userSpaceOnUse" color-interpolation-filters="sRGB">
<feFlood flood-opacity="0" result="BackgroundImageFix"/>
<feColorMatrix in="SourceAlpha" type="matrix" values="0 0 0 0 0 0 0 0 0 0 0 0 0 0 0 0 0 0 127 0" result="hardAlpha"/>
<feOffset dy="4"/>
<feGaussianBlur stdDeviation="8"/>
<feComposite in2="hardAlpha" operator="out"/>
<feColorMatrix type="matrix" values="0 0 0 0 0.185888 0 0 0 0 0.185888 0 0 0 0 0.396154 0 0 0 0.15 0"/>
<feBlend mode="normal" in2="BackgroundImageFix" result="effect1_dropShadow_2056_32351"/>
<feBlend mode="normal" in="SourceGraphic" in2="effect1_dropShadow_2056_32351" result="shape"/>
</filter>
<filter id="filter1_d_2056_32351" x="34" y="57" width="292" height="42" filterUnits="userSpaceOnUse" color-interpolation-filters="sRGB">
<feFlood flood-opacity="0" result="BackgroundImageFix"/>
<feColorMatrix in="SourceAlpha" type="matrix" values="0 0 0 0 0 0 0 0 0 0 0 0 0 0 0 0 0 0 127 0" result="hardAlpha"/>
<feOffset dy="1"/>
<feGaussianBlur stdDeviation="1"/>
<feColorMatrix type="matrix" values="0 0 0 0 0.0627451 0 0 0 0 0.0941176 0 0 0 0 0.156863 0 0 0 0.05 0"/>
<feBlend mode="normal" in2="BackgroundImageFix" result="effect1_dropShadow_2056_32351"/>
<feBlend mode="normal" in="SourceGraphic" in2="effect1_dropShadow_2056_32351" result="shape"/>
</filter>
<filter id="filter2_d_2056_32351" x="34" y="137" width="292" height="44" filterUnits="userSpaceOnUse" color-interpolation-filters="sRGB">
<feFlood flood-opacity="0" result="BackgroundImageFix"/>
<feColorMatrix in="SourceAlpha" type="matrix" values="0 0 0 0 0 0 0 0 0 0 0 0 0 0 0 0 0 0 127 0" result="hardAlpha"/>
<feOffset dy="1"/>
<feGaussianBlur stdDeviation="1"/>
<feColorMatrix type="matrix" values="0 0 0 0 0.0627451 0 0 0 0 0.0941176 0 0 0 0 0.156863 0 0 0 0.05 0"/>
<feBlend mode="normal" in2="BackgroundImageFix" result="effect1_dropShadow_2056_32351"/>
<feBlend mode="normal" in="SourceGraphic" in2="effect1_dropShadow_2056_32351" result="shape"/>
</filter>
</defs>
</svg>
