<svg width="369" height="252" viewBox="0 0 369 252" fill="none" xmlns="http://www.w3.org/2000/svg">
<g filter="url(#filter0_d_2058_34001)">
<rect x="16.8834" y="12.6626" width="335" height="219.401" rx="9.63039" fill="white"/>
<rect x="17.3834" y="13.1626" width="334" height="218.401" rx="9.13039" stroke="#E9ECF2"/>
<path d="M31.4666 39.4199V29.7895H37.1141V30.9452H32.6222V33.683H36.4537V34.8386H32.6222V39.4199H31.4666ZM40.472 39.5988C39.8391 39.5988 39.2613 39.436 38.7385 39.1104C38.2203 38.7848 37.8053 38.3491 37.4934 37.8034C37.1862 37.2531 37.0325 36.6455 37.0325 35.9805C37.0325 35.476 37.122 35.006 37.3008 34.5703C37.4797 34.1301 37.725 33.7449 38.0368 33.4147C38.3533 33.0799 38.7201 32.8185 39.1375 32.6305C39.5548 32.4425 39.9996 32.3485 40.472 32.3485C40.9902 32.3485 41.4648 32.4539 41.8959 32.6649C42.3315 32.8713 42.703 33.1602 43.0103 33.5316C43.3221 33.9031 43.5537 34.3342 43.705 34.8248C43.8609 35.3155 43.9183 35.8406 43.877 36.4001H38.2638C38.3189 36.7899 38.4473 37.1384 38.6491 37.4457C38.8508 37.7484 39.1077 37.9891 39.4195 38.168C39.7359 38.3468 40.0867 38.4385 40.472 38.4431C40.8847 38.4431 41.2584 38.3376 41.5932 38.1267C41.928 37.9112 42.1985 37.6177 42.4049 37.2462L43.5812 37.5214C43.306 38.1313 42.891 38.6311 42.3361 39.0209C41.7812 39.4062 41.1598 39.5988 40.472 39.5988ZM38.2295 35.4921H42.7145C42.6778 35.1069 42.554 34.7561 42.343 34.4396C42.1321 34.1186 41.8638 33.8618 41.5382 33.6692C41.2126 33.4766 40.8572 33.3803 40.472 33.3803C40.0867 33.3803 39.7336 33.4743 39.4126 33.6623C39.0916 33.8503 38.8256 34.1049 38.6147 34.4259C38.4083 34.7423 38.2799 35.0977 38.2295 35.4921ZM48.0226 39.5988C47.3897 39.5988 46.8119 39.436 46.2891 39.1104C45.7709 38.7848 45.3559 38.3491 45.044 37.8034C44.7368 37.2531 44.5831 36.6455 44.5831 35.9805C44.5831 35.476 44.6726 35.006 44.8514 34.5703C45.0303 34.1301 45.2756 33.7449 45.5875 33.4147C45.9039 33.0799 46.2708 32.8185 46.6881 32.6305C47.1054 32.4425 47.5502 32.3485 48.0226 32.3485C48.5408 32.3485 49.0154 32.4539 49.4465 32.6649C49.8822 32.8713 50.2536 33.1602 50.5609 33.5316C50.8727 33.9031 51.1043 34.3342 51.2556 34.8248C51.4116 35.3155 51.4689 35.8406 51.4276 36.4001H45.8145C45.8695 36.7899 45.9979 37.1384 46.1997 37.4457C46.4015 37.7484 46.6583 37.9891 46.9701 38.168C47.2865 38.3468 47.6374 38.4385 48.0226 38.4431C48.4353 38.4431 48.8091 38.3376 49.1438 38.1267C49.4786 37.9112 49.7492 37.6177 49.9555 37.2462L51.1318 37.5214C50.8567 38.1313 50.4416 38.6311 49.8867 39.0209C49.3318 39.4062 48.7105 39.5988 48.0226 39.5988ZM45.7801 35.4921H50.2651C50.2284 35.1069 50.1046 34.7561 49.8936 34.4396C49.6827 34.1186 49.4144 33.8618 49.0888 33.6692C48.7632 33.4766 48.4078 33.3803 48.0226 33.3803C47.6374 33.3803 47.2842 33.4743 46.9632 33.6623C46.6422 33.8503 46.3762 34.1049 46.1653 34.4259C45.9589 34.7423 45.8305 35.0977 45.7801 35.4921ZM63.2706 29.7895V30.9452H60.0651V39.4199H58.9094V30.9452H55.7108V29.7895H63.2706ZM63.8724 32.5411H65.0281V39.4199H63.8724V32.5411ZM64.464 31.4198C64.2806 31.4198 64.1269 31.3602 64.0031 31.241C63.8793 31.1217 63.8174 30.9727 63.8174 30.7938C63.8174 30.615 63.8793 30.466 64.0031 30.3467C64.1269 30.2275 64.2783 30.1679 64.4571 30.1679C64.636 30.1679 64.7873 30.2275 64.9111 30.3467C65.0349 30.466 65.0968 30.615 65.0968 30.7938C65.0968 30.9727 65.0349 31.1217 64.9111 31.241C64.7919 31.3602 64.6428 31.4198 64.464 31.4198ZM69.613 39.5988C68.9802 39.5988 68.4023 39.436 67.8796 39.1104C67.3613 38.7848 66.9463 38.3491 66.6345 37.8034C66.3272 37.2531 66.1736 36.6455 66.1736 35.9805C66.1736 35.476 66.263 35.006 66.4419 34.5703C66.6207 34.1301 66.8661 33.7449 67.1779 33.4147C67.4943 33.0799 67.8612 32.8185 68.2785 32.6305C68.6958 32.4425 69.1407 32.3485 69.613 32.3485C70.1312 32.3485 70.6059 32.4539 71.0369 32.6649C71.4726 32.8713 71.8441 33.1602 72.1513 33.5316C72.4632 33.9031 72.6947 34.3342 72.8461 34.8248C73.002 35.3155 73.0593 35.8406 73.0181 36.4001H67.4049C67.4599 36.7899 67.5883 37.1384 67.7901 37.4457C67.9919 37.7484 68.2487 37.9891 68.5606 38.168C68.877 38.3468 69.2278 38.4385 69.613 38.4431C70.0258 38.4431 70.3995 38.3376 70.7343 38.1267C71.069 37.9112 71.3396 37.6177 71.546 37.2462L72.7223 37.5214C72.4471 38.1313 72.0321 38.6311 71.4772 39.0209C70.9223 39.4062 70.3009 39.5988 69.613 39.5988ZM67.3705 35.4921H71.8555C71.8188 35.1069 71.695 34.7561 71.4841 34.4396C71.2731 34.1186 71.0048 33.8618 70.6792 33.6692C70.3536 33.4766 69.9982 33.3803 69.613 33.3803C69.2278 33.3803 68.8747 33.4743 68.5537 33.6623C68.2327 33.8503 67.9667 34.1049 67.7557 34.4259C67.5494 34.7423 67.421 35.0977 67.3705 35.4921ZM74.1772 39.4199V32.5411H75.3329V33.4009C75.5759 33.0799 75.8832 32.8254 76.2547 32.6374C76.6261 32.4448 77.0297 32.3485 77.4653 32.3485C77.7313 32.3485 77.9881 32.3829 78.2358 32.4516L77.768 33.6073C77.58 33.5477 77.3965 33.5179 77.2177 33.5179C76.8738 33.5179 76.5573 33.6027 76.2684 33.7724C75.9841 33.9375 75.7571 34.1622 75.5874 34.4465C75.4177 34.7308 75.3329 35.0473 75.3329 35.3958V39.4199H74.1772ZM82.5071 39.4199V29.7895H85.6851C86.2033 29.7895 86.6688 29.9156 87.0815 30.1679C87.4989 30.4201 87.829 30.7617 88.0721 31.1928C88.3197 31.6193 88.4436 32.0962 88.4436 32.6236C88.4436 33.1602 88.3174 33.644 88.0652 34.0751C87.8176 34.5015 87.4828 34.8409 87.0609 35.0931C86.6436 35.3408 86.185 35.4646 85.6851 35.4646H83.6628V39.4199H82.5071ZM83.6628 34.3089H85.582C85.8938 34.3089 86.1781 34.2333 86.4349 34.0819C86.6963 33.926 86.9027 33.7174 87.054 33.456C87.2099 33.19 87.2879 32.8919 87.2879 32.5617C87.2879 32.2269 87.2099 31.9289 87.054 31.6675C86.9027 31.4015 86.6963 31.1928 86.4349 31.0415C86.1781 30.8856 85.8938 30.8076 85.582 30.8076H83.6628V34.3089ZM89.6278 39.4199V32.5411H90.7834V33.4009C91.0265 33.0799 91.3337 32.8254 91.7052 32.6374C92.0767 32.4448 92.4802 32.3485 92.9159 32.3485C93.1819 32.3485 93.4387 32.3829 93.6863 32.4516L93.2185 33.6073C93.0305 33.5477 92.8471 33.5179 92.6682 33.5179C92.3243 33.5179 92.0079 33.6027 91.719 33.7724C91.4346 33.9375 91.2076 34.1622 91.038 34.4465C90.8683 34.7308 90.7834 35.0473 90.7834 35.3958V39.4199H89.6278ZM97.209 39.5988C96.5762 39.5988 95.9984 39.436 95.4756 39.1104C94.9574 38.7848 94.5423 38.3491 94.2305 37.8034C93.9232 37.2531 93.7696 36.6455 93.7696 35.9805C93.7696 35.476 93.859 35.006 94.0379 34.5703C94.2167 34.1301 94.4621 33.7449 94.7739 33.4147C95.0904 33.0799 95.4572 32.8185 95.8745 32.6305C96.2919 32.4425 96.7367 32.3485 97.209 32.3485C97.8419 32.3485 98.4174 32.5113 98.9356 32.8369C99.4584 33.1625 99.8734 33.6004 100.181 34.1507C100.493 34.701 100.648 35.311 100.648 35.9805C100.648 36.4804 100.559 36.9481 100.38 37.3838C100.201 37.8194 99.9537 38.2047 99.6373 38.5394C99.3254 38.8696 98.9609 39.1287 98.5435 39.3167C98.1308 39.5048 97.686 39.5988 97.209 39.5988ZM97.209 38.4431C97.6401 38.4431 98.0276 38.3308 98.3716 38.1061C98.7201 37.8768 98.993 37.5764 99.1901 37.2049C99.3919 36.8289 99.4928 36.4207 99.4928 35.9805C99.4928 35.5311 99.3896 35.1183 99.1833 34.7423C98.9815 34.3663 98.7086 34.0659 98.3647 33.8412C98.0207 33.6165 97.6355 33.5041 97.209 33.5041C96.778 33.5041 96.3905 33.6188 96.0465 33.8481C95.7026 34.0728 95.4297 34.3731 95.2279 34.7492C95.0261 35.1252 94.9253 35.5357 94.9253 35.9805C94.9253 36.4391 95.0284 36.8564 95.2348 37.2324C95.4412 37.6039 95.7186 37.8997 96.0671 38.1198C96.4157 38.3354 96.7963 38.4431 97.209 38.4431ZM107.119 32.5411H108.274V39.64C108.274 40.094 108.176 40.516 107.979 40.9058C107.786 41.3001 107.525 41.6418 107.194 41.9307C106.864 42.2242 106.488 42.4512 106.066 42.6117C105.644 42.7768 105.204 42.8593 104.746 42.8593C104.269 42.8593 103.808 42.7516 103.363 42.536C102.918 42.3251 102.528 42.0408 102.194 41.6831C101.863 41.3299 101.625 40.9333 101.478 40.493L102.537 40.0115C102.625 40.3279 102.781 40.6123 103.005 40.8645C103.235 41.1213 103.5 41.3231 103.803 41.4698C104.11 41.6212 104.425 41.6968 104.746 41.6968C105.048 41.6968 105.339 41.6441 105.619 41.5386C105.904 41.4331 106.158 41.2864 106.383 41.0984C106.612 40.9149 106.791 40.6971 106.919 40.4449C107.052 40.1972 107.119 39.929 107.119 39.64V38.2712C106.885 38.6655 106.575 38.9866 106.19 39.2342C105.809 39.4772 105.365 39.5988 104.856 39.5988C104.37 39.5988 103.913 39.5048 103.487 39.3167C103.06 39.1287 102.687 38.8696 102.365 38.5394C102.044 38.2047 101.792 37.8194 101.609 37.3838C101.425 36.9481 101.334 36.4804 101.334 35.9805C101.334 35.4806 101.425 35.0129 101.609 34.5772C101.792 34.137 102.044 33.7517 102.365 33.4216C102.687 33.0868 103.06 32.8254 103.487 32.6374C103.913 32.4494 104.37 32.3553 104.856 32.3553C105.365 32.3553 105.809 32.4769 106.19 32.7199C106.575 32.963 106.885 33.284 107.119 33.683V32.5411ZM104.863 38.4775C105.307 38.4775 105.693 38.3629 106.018 38.1336C106.348 37.9043 106.603 37.5993 106.782 37.2187C106.961 36.8381 107.05 36.4253 107.05 35.9805C107.05 35.5219 106.958 35.1046 106.775 34.7285C106.596 34.3479 106.341 34.0452 106.011 33.8205C105.686 33.5912 105.303 33.4766 104.863 33.4766C104.431 33.4766 104.037 33.5889 103.679 33.8137C103.322 34.0384 103.037 34.341 102.826 34.7217C102.62 35.0977 102.517 35.5173 102.517 35.9805C102.517 36.4437 102.622 36.8656 102.833 37.2462C103.049 37.6222 103.333 37.9226 103.686 38.1473C104.044 38.3675 104.436 38.4775 104.863 38.4775ZM109.928 39.4199V32.5411H111.084V33.4009C111.327 33.0799 111.634 32.8254 112.006 32.6374C112.377 32.4448 112.781 32.3485 113.217 32.3485C113.483 32.3485 113.739 32.3829 113.987 32.4516L113.519 33.6073C113.331 33.5477 113.148 33.5179 112.969 33.5179C112.625 33.5179 112.309 33.6027 112.02 33.7724C111.735 33.9375 111.508 34.1622 111.339 34.4465C111.169 34.7308 111.084 35.0473 111.084 35.3958V39.4199H109.928ZM117.51 39.5988C116.877 39.5988 116.299 39.436 115.776 39.1104C115.258 38.7848 114.843 38.3491 114.531 37.8034C114.224 37.2531 114.07 36.6455 114.07 35.9805C114.07 35.476 114.16 35.006 114.339 34.5703C114.517 34.1301 114.763 33.7449 115.075 33.4147C115.391 33.0799 115.758 32.8185 116.175 32.6305C116.593 32.4425 117.037 32.3485 117.51 32.3485C118.028 32.3485 118.503 32.4539 118.934 32.6649C119.369 32.8713 119.741 33.1602 120.048 33.5316C120.36 33.9031 120.591 34.3342 120.743 34.8248C120.899 35.3155 120.956 35.8406 120.915 36.4001H115.302C115.357 36.7899 115.485 37.1384 115.687 37.4457C115.889 37.7484 116.145 37.9891 116.457 38.168C116.774 38.3468 117.124 38.4385 117.51 38.4431C117.922 38.4431 118.296 38.3376 118.631 38.1267C118.966 37.9112 119.236 37.6177 119.443 37.2462L120.619 37.5214C120.344 38.1313 119.929 38.6311 119.374 39.0209C118.819 39.4062 118.198 39.5988 117.51 39.5988ZM115.267 35.4921H119.752C119.716 35.1069 119.592 34.7561 119.381 34.4396C119.17 34.1186 118.902 33.8618 118.576 33.6692C118.25 33.4766 117.895 33.3803 117.51 33.3803C117.124 33.3803 116.771 33.4743 116.45 33.6623C116.129 33.8503 115.863 34.1049 115.652 34.4259C115.446 34.7423 115.318 35.0977 115.267 35.4921ZM124.199 39.5506C123.827 39.5369 123.465 39.4681 123.112 39.3443C122.763 39.2158 122.456 39.0439 122.19 38.8283C121.929 38.6082 121.739 38.356 121.619 38.0717L122.61 37.6452C122.679 37.8011 122.802 37.9478 122.981 38.0854C123.16 38.223 123.367 38.3331 123.6 38.4156C123.834 38.4982 124.07 38.5394 124.309 38.5394C124.561 38.5394 124.797 38.5004 125.017 38.4225C125.238 38.3445 125.416 38.2299 125.554 38.0785C125.696 37.9226 125.767 37.7369 125.767 37.5214C125.767 37.2921 125.689 37.1132 125.533 36.9848C125.382 36.8518 125.189 36.7486 124.956 36.6753C124.726 36.5973 124.492 36.5239 124.254 36.4551C123.782 36.3359 123.36 36.1937 122.988 36.0286C122.617 35.859 122.323 35.6457 122.108 35.3889C121.897 35.1275 121.791 34.795 121.791 34.3915C121.791 33.965 121.908 33.5958 122.142 33.284C122.381 32.9721 122.692 32.7314 123.078 32.5617C123.463 32.392 123.876 32.3072 124.316 32.3072C124.871 32.3072 125.377 32.4264 125.836 32.6649C126.295 32.9034 126.636 33.2267 126.861 33.6348L125.932 34.1782C125.854 34.0131 125.735 33.8687 125.575 33.7449C125.414 33.6165 125.231 33.5156 125.024 33.4422C124.818 33.3688 124.607 33.3298 124.391 33.3253C124.125 33.3161 123.876 33.3505 123.642 33.4284C123.412 33.5064 123.227 33.6256 123.084 33.7861C122.947 33.9421 122.878 34.137 122.878 34.3708C122.878 34.6001 122.951 34.7744 123.098 34.8936C123.25 35.0129 123.444 35.1092 123.683 35.1825C123.926 35.2513 124.19 35.3316 124.474 35.4233C124.891 35.5563 125.281 35.7099 125.643 35.8842C126.006 36.0585 126.297 36.2763 126.517 36.5377C126.742 36.7991 126.852 37.1224 126.847 37.5076C126.847 37.9295 126.721 38.2987 126.469 38.6151C126.217 38.9269 125.889 39.1654 125.485 39.3305C125.086 39.4956 124.657 39.569 124.199 39.5506ZM130.124 39.5506C129.752 39.5369 129.39 39.4681 129.037 39.3443C128.688 39.2158 128.381 39.0439 128.115 38.8283C127.854 38.6082 127.663 38.356 127.544 38.0717L128.535 37.6452C128.604 37.8011 128.727 37.9478 128.906 38.0854C129.085 38.223 129.291 38.3331 129.525 38.4156C129.759 38.4982 129.995 38.5394 130.234 38.5394C130.486 38.5394 130.722 38.5004 130.942 38.4225C131.162 38.3445 131.341 38.2299 131.479 38.0785C131.621 37.9226 131.692 37.7369 131.692 37.5214C131.692 37.2921 131.614 37.1132 131.458 36.9848C131.307 36.8518 131.114 36.7486 130.88 36.6753C130.651 36.5973 130.417 36.5239 130.179 36.4551C129.706 36.3359 129.285 36.1937 128.913 36.0286C128.542 35.859 128.248 35.6457 128.033 35.3889C127.822 35.1275 127.716 34.795 127.716 34.3915C127.716 33.965 127.833 33.5958 128.067 33.284C128.305 32.9721 128.617 32.7314 129.003 32.5617C129.388 32.392 129.8 32.3072 130.241 32.3072C130.796 32.3072 131.302 32.4264 131.761 32.6649C132.22 32.9034 132.561 33.2267 132.786 33.6348L131.857 34.1782C131.779 34.0131 131.66 33.8687 131.5 33.7449C131.339 33.6165 131.156 33.5156 130.949 33.4422C130.743 33.3688 130.532 33.3298 130.316 33.3253C130.05 33.3161 129.8 33.3505 129.567 33.4284C129.337 33.5064 129.152 33.6256 129.009 33.7861C128.872 33.9421 128.803 34.137 128.803 34.3708C128.803 34.6001 128.876 34.7744 129.023 34.8936C129.175 35.0129 129.369 35.1092 129.608 35.1825C129.851 35.2513 130.115 35.3316 130.399 35.4233C130.816 35.5563 131.206 35.7099 131.568 35.8842C131.931 36.0585 132.222 36.2763 132.442 36.5377C132.667 36.7991 132.777 37.1224 132.772 37.5076C132.772 37.9295 132.646 38.2987 132.394 38.6151C132.142 38.9269 131.814 39.1654 131.41 39.3305C131.011 39.4956 130.582 39.569 130.124 39.5506Z" fill="#242428"/>
<path d="M35.014 50.2876H35.8993L33.7799 53.7171V56.5474H33.0288V53.7171L30.9094 50.2876H31.7947L33.4043 52.8943L35.014 50.2876ZM37.8957 56.6636C37.4844 56.6636 37.1088 56.5578 36.769 56.3462C36.4321 56.1345 36.1624 55.8513 35.9597 55.4966C35.76 55.1389 35.6601 54.744 35.6601 54.3117C35.6601 53.9838 35.7182 53.6783 35.8345 53.3951C35.9507 53.109 36.1102 52.8586 36.3129 52.644C36.5186 52.4264 36.757 52.2565 37.0283 52.1342C37.2996 52.012 37.5887 51.9509 37.8957 51.9509C38.3071 51.9509 38.6812 52.0567 39.018 52.2684C39.3578 52.48 39.6276 52.7647 39.8273 53.1224C40.03 53.4801 40.1313 53.8765 40.1313 54.3117C40.1313 54.6366 40.0732 54.9407 39.957 55.2239C39.8407 55.5071 39.6798 55.7574 39.4741 55.975C39.2714 56.1897 39.0344 56.3581 38.7631 56.4803C38.4949 56.6025 38.2057 56.6636 37.8957 56.6636ZM37.8957 55.9124C38.1759 55.9124 38.4278 55.8394 38.6514 55.6934C38.8779 55.5443 39.0553 55.3491 39.1834 55.1076C39.3146 54.8632 39.3802 54.5979 39.3802 54.3117C39.3802 54.0196 39.3131 53.7513 39.179 53.5069C39.0478 53.2625 38.8705 53.0672 38.6469 52.9212C38.4233 52.7751 38.1729 52.7021 37.8957 52.7021C37.6155 52.7021 37.3636 52.7766 37.1401 52.9256C36.9165 53.0717 36.7392 53.267 36.608 53.5114C36.4768 53.7558 36.4113 54.0226 36.4113 54.3117C36.4113 54.6098 36.4783 54.8811 36.6125 55.1255C36.7466 55.367 36.9269 55.5592 37.1535 55.7023C37.38 55.8424 37.6274 55.9124 37.8957 55.9124ZM40.6312 54.8483V52.0761H41.3824V54.6829C41.3824 54.9094 41.4375 55.1151 41.5478 55.2999C41.6581 55.4847 41.8057 55.6322 41.9905 55.7425C42.1783 55.8498 42.384 55.9035 42.6075 55.9035C42.8341 55.9035 43.0382 55.8498 43.2201 55.7425C43.4049 55.6322 43.5524 55.4847 43.6627 55.2999C43.773 55.1151 43.8282 54.9094 43.8282 54.6829V52.0761H44.5793L44.5838 56.5474H43.8326L43.8282 55.9795C43.6702 56.1882 43.4705 56.3551 43.229 56.4803C42.9876 56.6025 42.7267 56.6636 42.4465 56.6636C42.1127 56.6636 41.8072 56.5831 41.5299 56.4222C41.2557 56.2582 41.0366 56.0391 40.8727 55.7649C40.7117 55.4907 40.6312 55.1851 40.6312 54.8483ZM45.4822 56.5474V52.0761H46.2334V52.635C46.3913 52.4264 46.5911 52.2609 46.8325 52.1387C47.0739 52.0135 47.3363 51.9509 47.6194 51.9509C47.7923 51.9509 47.9593 51.9733 48.1202 52.018L47.8162 52.7692C47.694 52.7304 47.5747 52.711 47.4585 52.711C47.2349 52.711 47.0292 52.7662 46.8414 52.8765C46.6566 52.9838 46.5091 53.1298 46.3988 53.3146C46.2885 53.4995 46.2334 53.7051 46.2334 53.9317V56.5474H45.4822ZM51.6478 58.783H50.8966V52.0761H51.6478V52.8407C51.7998 52.5784 52.0025 52.3667 52.2558 52.2058C52.5092 52.0418 52.8103 51.9599 53.159 51.9599C53.484 51.9599 53.788 52.021 54.0712 52.1432C54.3573 52.2654 54.6077 52.4353 54.8223 52.6529C55.037 52.8675 55.2054 53.1164 55.3276 53.3996C55.4498 53.6828 55.5109 53.9868 55.5109 54.3117C55.5109 54.6366 55.4498 54.9422 55.3276 55.2283C55.2054 55.5145 55.037 55.7664 54.8223 55.984C54.6077 56.1986 54.3573 56.367 54.0712 56.4892C53.788 56.6115 53.484 56.6726 53.159 56.6726C52.8103 56.6726 52.5092 56.5921 52.2558 56.4311C52.0025 56.2672 51.7998 56.054 51.6478 55.7917V58.783ZM53.1501 52.6887C52.861 52.6887 52.6076 52.7617 52.39 52.9078C52.1724 53.0538 52.004 53.2491 51.8847 53.4935C51.7685 53.7379 51.7104 54.0107 51.7104 54.3117C51.7104 54.6098 51.7685 54.8826 51.8847 55.13C52.004 55.3774 52.1709 55.5741 52.3855 55.7202C52.6031 55.8662 52.858 55.9393 53.1501 55.9393C53.4392 55.9393 53.7045 55.8677 53.946 55.7247C54.1874 55.5786 54.3812 55.3833 54.5272 55.1389C54.6733 54.8915 54.7463 54.6158 54.7463 54.3117C54.7463 54.0137 54.6748 53.7424 54.5317 53.498C54.3886 53.2506 54.1964 53.0538 53.9549 52.9078C53.7135 52.7617 53.4452 52.6887 53.1501 52.6887ZM56.2586 56.5474V52.0761H57.0098V52.635C57.1678 52.4264 57.3675 52.2609 57.6089 52.1387C57.8504 52.0135 58.1127 51.9509 58.3959 51.9509C58.5687 51.9509 58.7357 51.9733 58.8966 52.018L58.5926 52.7692C58.4704 52.7304 58.3511 52.711 58.2349 52.711C58.0113 52.711 57.8057 52.7662 57.6179 52.8765C57.433 52.9838 57.2855 53.1298 57.1752 53.3146C57.0649 53.4995 57.0098 53.7051 57.0098 53.9317V56.5474H56.2586ZM61.1864 56.6636C60.7751 56.6636 60.3995 56.5578 60.0597 56.3462C59.7228 56.1345 59.4531 55.8513 59.2504 55.4966C59.0506 55.1389 58.9508 54.744 58.9508 54.3117C58.9508 53.9838 59.0089 53.6783 59.1252 53.3951C59.2414 53.109 59.4009 52.8586 59.6036 52.644C59.8093 52.4264 60.0477 52.2565 60.319 52.1342C60.5902 52.012 60.8794 51.9509 61.1864 51.9509C61.5978 51.9509 61.9719 52.0567 62.3087 52.2684C62.6485 52.48 62.9183 52.7647 63.118 53.1224C63.3207 53.4801 63.422 53.8765 63.422 54.3117C63.422 54.6366 63.3639 54.9407 63.2477 55.2239C63.1314 55.5071 62.9704 55.7574 62.7648 55.975C62.5621 56.1897 62.3251 56.3581 62.0538 56.4803C61.7856 56.6025 61.4964 56.6636 61.1864 56.6636ZM61.1864 55.9124C61.4666 55.9124 61.7185 55.8394 61.9421 55.6934C62.1686 55.5443 62.346 55.3491 62.4741 55.1076C62.6053 54.8632 62.6709 54.5979 62.6709 54.3117C62.6709 54.0196 62.6038 53.7513 62.4697 53.5069C62.3385 53.2625 62.1611 53.0672 61.9376 52.9212C61.714 52.7751 61.4636 52.7021 61.1864 52.7021C60.9062 52.7021 60.6543 52.7766 60.4308 52.9256C60.2072 53.0717 60.0298 53.267 59.8987 53.5114C59.7675 53.7558 59.702 54.0226 59.702 54.3117C59.702 54.6098 59.769 54.8811 59.9032 55.1255C60.0373 55.367 60.2176 55.5592 60.4442 55.7023C60.6707 55.8424 60.9181 55.9124 61.1864 55.9124ZM67.6277 52.0761H68.3789V56.6904C68.3789 56.9855 68.3148 57.2598 68.1866 57.5132C68.0614 57.7695 67.8915 57.9916 67.6769 58.1794C67.4623 58.3701 67.2179 58.5177 66.9436 58.622C66.6694 58.7293 66.3832 58.783 66.0852 58.783C65.7751 58.783 65.4756 58.7129 65.1864 58.5728C64.8973 58.4357 64.6439 58.2509 64.4263 58.0184C64.2117 57.7889 64.0567 57.531 63.9613 57.2449L64.6499 56.9319C64.7065 57.1376 64.8079 57.3224 64.9539 57.4863C65.103 57.6533 65.2759 57.7844 65.4726 57.8798C65.6723 57.9782 65.8765 58.0273 66.0852 58.0273C66.2819 58.0273 66.4712 57.9931 66.653 57.9245C66.8378 57.856 67.0033 57.7606 67.1493 57.6383C67.2984 57.5191 67.4146 57.3775 67.4981 57.2136C67.5845 57.0526 67.6277 56.8782 67.6277 56.6904V55.8007C67.4757 56.057 67.2745 56.2657 67.0241 56.4266C66.7767 56.5846 66.4876 56.6636 66.1567 56.6636C65.8407 56.6636 65.5441 56.6025 65.2669 56.4803C64.9897 56.3581 64.7468 56.1897 64.5381 55.975C64.3294 55.7574 64.1655 55.5071 64.0463 55.2239C63.927 54.9407 63.8674 54.6366 63.8674 54.3117C63.8674 53.9868 63.927 53.6828 64.0463 53.3996C64.1655 53.1134 64.3294 52.8631 64.5381 52.6484C64.7468 52.4308 64.9897 52.2609 65.2669 52.1387C65.5441 52.0165 65.8407 51.9554 66.1567 51.9554C66.4876 51.9554 66.7767 52.0344 67.0241 52.1924C67.2745 52.3503 67.4757 52.559 67.6277 52.8183V52.0761ZM66.1612 55.9348C66.4503 55.9348 66.7007 55.8603 66.9123 55.7112C67.127 55.5622 67.2924 55.364 67.4086 55.1166C67.5249 54.8692 67.583 54.6009 67.583 54.3117C67.583 54.0137 67.5234 53.7424 67.4042 53.498C67.2879 53.2506 67.1225 53.0538 66.9079 52.9078C66.6962 52.7587 66.4473 52.6842 66.1612 52.6842C65.881 52.6842 65.6246 52.7572 65.3921 52.9033C65.1596 53.0494 64.9748 53.2461 64.8377 53.4935C64.7035 53.7379 64.6365 54.0107 64.6365 54.3117C64.6365 54.6128 64.705 54.887 64.8421 55.1344C64.9822 55.3789 65.1671 55.5741 65.3966 55.7202C65.6291 55.8633 65.8839 55.9348 66.1612 55.9348ZM69.454 56.5474V52.0761H70.2052V52.635C70.3632 52.4264 70.5629 52.2609 70.8044 52.1387C71.0458 52.0135 71.3081 51.9509 71.5913 51.9509C71.7642 51.9509 71.9311 51.9733 72.0921 52.018L71.788 52.7692C71.6658 52.7304 71.5466 52.711 71.4303 52.711C71.2068 52.711 71.0011 52.7662 70.8133 52.8765C70.6285 52.9838 70.4809 53.1298 70.3706 53.3146C70.2604 53.4995 70.2052 53.7051 70.2052 53.9317V56.5474H69.454ZM74.3818 56.6636C73.9705 56.6636 73.5949 56.5578 73.2551 56.3462C72.9183 56.1345 72.6485 55.8513 72.4458 55.4966C72.2461 55.1389 72.1462 54.744 72.1462 54.3117C72.1462 53.9838 72.2043 53.6783 72.3206 53.3951C72.4368 53.109 72.5963 52.8586 72.799 52.644C73.0047 52.4264 73.2432 52.2565 73.5144 52.1342C73.7857 52.012 74.0748 51.9509 74.3818 51.9509C74.7187 51.9509 75.0272 52.0195 75.3074 52.1566C75.5906 52.2907 75.832 52.4785 76.0317 52.72C76.2344 52.9614 76.385 53.2416 76.4833 53.5606C76.5847 53.8795 76.6219 54.2208 76.5951 54.5845H72.9466C72.9823 54.8379 73.0658 55.0644 73.197 55.2641C73.3281 55.4608 73.495 55.6173 73.6977 55.7336C73.9034 55.8498 74.1315 55.9095 74.3818 55.9124C74.6501 55.9124 74.8931 55.8439 75.1107 55.7068C75.3283 55.5667 75.5041 55.3759 75.6383 55.1344L76.4028 55.3133C76.224 55.7097 75.9542 56.0347 75.5936 56.288C75.2329 56.5384 74.829 56.6636 74.3818 56.6636ZM72.9242 53.9943H75.8395C75.8156 53.7439 75.7351 53.5159 75.598 53.3102C75.4609 53.1015 75.2865 52.9346 75.0749 52.8094C74.8632 52.6842 74.6322 52.6216 74.3818 52.6216C74.1315 52.6216 73.9019 52.6827 73.6933 52.8049C73.4846 52.9271 73.3117 53.0926 73.1746 53.3012C73.0405 53.5069 72.957 53.7379 72.9242 53.9943ZM78.7298 56.6323C78.4883 56.6234 78.2529 56.5787 78.0233 56.4982C77.7968 56.4147 77.5971 56.3029 77.4242 56.1628C77.2543 56.0198 77.1306 55.8558 77.0531 55.671L77.6969 55.3938C77.7416 55.4951 77.8221 55.5905 77.9384 55.6799C78.0546 55.7694 78.1888 55.8409 78.3408 55.8946C78.4928 55.9482 78.6463 55.975 78.8013 55.975C78.9653 55.975 79.1188 55.9497 79.2619 55.899C79.4049 55.8484 79.5212 55.7738 79.6106 55.6755C79.703 55.5741 79.7492 55.4534 79.7492 55.3133C79.7492 55.1643 79.6986 55.048 79.5972 54.9645C79.4988 54.8781 79.3736 54.811 79.2216 54.7633C79.0726 54.7127 78.9206 54.665 78.7656 54.6203C78.4585 54.5428 78.1843 54.4503 77.9428 54.343C77.7014 54.2327 77.5106 54.0941 77.3705 53.9272C77.2334 53.7573 77.1648 53.5412 77.1648 53.2789C77.1648 53.0017 77.2409 52.7617 77.3929 52.559C77.5479 52.3563 77.7506 52.1998 78.001 52.0895C78.2514 51.9792 78.5196 51.9241 78.8058 51.9241C79.1665 51.9241 79.4959 52.0016 79.7939 52.1566C80.092 52.3116 80.3141 52.5217 80.4602 52.787L79.8565 53.1403C79.8059 53.033 79.7284 52.9391 79.624 52.8586C79.5197 52.7751 79.4005 52.7095 79.2663 52.6618C79.1322 52.6142 78.9951 52.5888 78.855 52.5858C78.6821 52.5799 78.5196 52.6022 78.3676 52.6529C78.2186 52.7036 78.0979 52.7811 78.0054 52.8854C77.916 52.9868 77.8713 53.1134 77.8713 53.2655C77.8713 53.4145 77.919 53.5278 78.0144 53.6053C78.1128 53.6828 78.2394 53.7454 78.3944 53.7931C78.5524 53.8378 78.7238 53.8899 78.9086 53.9496C79.1799 54.036 79.4333 54.1359 79.6688 54.2491C79.9042 54.3624 80.0935 54.504 80.2366 54.6739C80.3827 54.8438 80.4542 55.054 80.4512 55.3044C80.4512 55.5786 80.3692 55.8185 80.2053 56.0242C80.0414 56.2269 79.8282 56.3819 79.5659 56.4892C79.3066 56.5965 79.0279 56.6442 78.7298 56.6323ZM82.581 56.6323C82.3396 56.6234 82.1041 56.5787 81.8745 56.4982C81.648 56.4147 81.4483 56.3029 81.2754 56.1628C81.1055 56.0198 80.9818 55.8558 80.9043 55.671L81.5481 55.3938C81.5929 55.4951 81.6733 55.5905 81.7896 55.6799C81.9058 55.7694 82.04 55.8409 82.192 55.8946C82.344 55.9482 82.4975 55.975 82.6525 55.975C82.8165 55.975 82.97 55.9497 83.1131 55.899C83.2562 55.8484 83.3724 55.7738 83.4618 55.6755C83.5542 55.5741 83.6004 55.4534 83.6004 55.3133C83.6004 55.1643 83.5498 55.048 83.4484 54.9645C83.3501 54.8781 83.2249 54.811 83.0728 54.7633C82.9238 54.7127 82.7718 54.665 82.6168 54.6203C82.3097 54.5428 82.0355 54.4503 81.7941 54.343C81.5526 54.2327 81.3618 54.0941 81.2217 53.9272C81.0846 53.7573 81.0161 53.5412 81.0161 53.2789C81.0161 53.0017 81.0921 52.7617 81.2441 52.559C81.3991 52.3563 81.6018 52.1998 81.8522 52.0895C82.1026 51.9792 82.3709 51.9241 82.657 51.9241C83.0177 51.9241 83.3471 52.0016 83.6452 52.1566C83.9432 52.3116 84.1653 52.5217 84.3114 52.787L83.7078 53.1403C83.6571 53.033 83.5796 52.9391 83.4753 52.8586C83.3709 52.7751 83.2517 52.7095 83.1176 52.6618C82.9834 52.6142 82.8463 52.5888 82.7062 52.5858C82.5333 52.5799 82.3709 52.6022 82.2188 52.6529C82.0698 52.7036 81.9491 52.7811 81.8567 52.8854C81.7672 52.9868 81.7225 53.1134 81.7225 53.2655C81.7225 53.4145 81.7702 53.5278 81.8656 53.6053C81.964 53.6828 82.0907 53.7454 82.2457 53.7931C82.4036 53.8378 82.575 53.8899 82.7599 53.9496C83.0311 54.036 83.2845 54.1359 83.52 54.2491C83.7555 54.3624 83.9447 54.504 84.0878 54.6739C84.2339 54.8438 84.3054 55.054 84.3024 55.3044C84.3024 55.5786 84.2205 55.8185 84.0565 56.0242C83.8926 56.2269 83.6794 56.3819 83.4171 56.4892C83.1578 56.5965 82.8791 56.6442 82.581 56.6323ZM89.5329 52.8273H88.5179L88.5134 56.5474H87.7623L87.7667 52.8273H86.9977V52.0761H87.7667L87.7623 50.6721H88.5134L88.5179 52.0761H89.5329V52.8273ZM92.1883 56.6636C91.7769 56.6636 91.4013 56.5578 91.0615 56.3462C90.7247 56.1345 90.4549 55.8513 90.2522 55.4966C90.0525 55.1389 89.9526 54.744 89.9526 54.3117C89.9526 53.9838 90.0108 53.6783 90.127 53.3951C90.2433 53.109 90.4027 52.8586 90.6054 52.644C90.8111 52.4264 91.0496 52.2565 91.3208 52.1342C91.5921 52.012 91.8812 51.9509 92.1883 51.9509C92.5996 51.9509 92.9737 52.0567 93.3105 52.2684C93.6504 52.48 93.9201 52.7647 94.1198 53.1224C94.3225 53.4801 94.4239 53.8765 94.4239 54.3117C94.4239 54.6366 94.3658 54.9407 94.2495 55.2239C94.1333 55.5071 93.9723 55.7574 93.7666 55.975C93.5639 56.1897 93.3269 56.3581 93.0557 56.4803C92.7874 56.6025 92.4983 56.6636 92.1883 56.6636ZM92.1883 55.9124C92.4685 55.9124 92.7203 55.8394 92.9439 55.6934C93.1704 55.5443 93.3478 55.3491 93.476 55.1076C93.6071 54.8632 93.6727 54.5979 93.6727 54.3117C93.6727 54.0196 93.6056 53.7513 93.4715 53.5069C93.3404 53.2625 93.163 53.0672 92.9394 52.9212C92.7159 52.7751 92.4655 52.7021 92.1883 52.7021C91.9081 52.7021 91.6562 52.7766 91.4326 52.9256C91.2091 53.0717 91.0317 53.267 90.9005 53.5114C90.7694 53.7558 90.7038 54.0226 90.7038 54.3117C90.7038 54.6098 90.7709 54.8811 90.905 55.1255C91.0391 55.367 91.2195 55.5592 91.446 55.7023C91.6726 55.8424 91.92 55.9124 92.1883 55.9124ZM96.9613 56.5474H96.2012L94.7033 52.0761H95.4366L96.5902 55.4877L97.7304 52.0761H98.5039L99.6485 55.4877L100.789 52.0761H101.531L100.033 56.5474H99.2685L98.1104 53.1045L96.9613 56.5474ZM105.675 52.0761H106.426V56.5474H105.675L105.644 55.7917C105.504 56.0511 105.31 56.2612 105.063 56.4222C104.818 56.5831 104.526 56.6636 104.186 56.6636C103.858 56.6636 103.551 56.6025 103.265 56.4803C102.979 56.3551 102.726 56.1837 102.505 55.9661C102.287 55.7455 102.117 55.4921 101.995 55.206C101.873 54.9198 101.812 54.6113 101.812 54.2804C101.812 53.9615 101.872 53.6604 101.991 53.3772C102.11 53.0941 102.275 52.8467 102.487 52.635C102.702 52.4204 102.949 52.2535 103.229 52.1342C103.51 52.012 103.811 51.9509 104.133 51.9509C104.484 51.9509 104.793 52.0344 105.058 52.2013C105.323 52.3653 105.538 52.5784 105.702 52.8407L105.675 52.0761ZM104.173 55.9348C104.468 55.9348 104.723 55.8633 104.937 55.7202C105.155 55.5741 105.322 55.3774 105.438 55.13C105.557 54.8826 105.617 54.6098 105.617 54.3117C105.617 54.0077 105.557 53.7335 105.438 53.489C105.319 53.2416 105.15 53.0464 104.933 52.9033C104.718 52.7572 104.465 52.6842 104.173 52.6842C103.878 52.6842 103.609 52.7572 103.368 52.9033C103.126 53.0494 102.934 53.2461 102.791 53.4935C102.651 53.7379 102.581 54.0107 102.581 54.3117C102.581 54.6128 102.654 54.887 102.8 55.1344C102.946 55.3789 103.14 55.5741 103.381 55.7202C103.623 55.8633 103.887 55.9348 104.173 55.9348ZM107.32 56.5474V52.0761H108.071V52.635C108.229 52.4264 108.429 52.2609 108.67 52.1387C108.912 52.0135 109.174 51.9509 109.457 51.9509C109.63 51.9509 109.797 51.9733 109.958 52.018L109.654 52.7692C109.532 52.7304 109.413 52.711 109.296 52.711C109.073 52.711 108.867 52.7662 108.679 52.8765C108.494 52.9838 108.347 53.1298 108.237 53.3146C108.126 53.4995 108.071 53.7051 108.071 53.9317V56.5474H107.32ZM113.88 49.8405H114.631V56.5474H113.88V55.7873C113.728 56.0496 113.524 56.2612 113.267 56.4222C113.011 56.5831 112.71 56.6636 112.364 56.6636C112.039 56.6636 111.735 56.6025 111.452 56.4803C111.169 56.3581 110.918 56.1897 110.701 55.975C110.486 55.7574 110.318 55.5071 110.195 55.2239C110.073 54.9407 110.012 54.6366 110.012 54.3117C110.012 53.9868 110.073 53.6828 110.195 53.3996C110.318 53.1134 110.486 52.8631 110.701 52.6484C110.918 52.4308 111.169 52.2609 111.452 52.1387C111.735 52.0165 112.039 51.9554 112.364 51.9554C112.71 51.9554 113.011 52.0359 113.267 52.1968C113.524 52.3578 113.728 52.5694 113.88 52.8318V49.8405ZM112.373 55.9348C112.668 55.9348 112.923 55.8633 113.138 55.7202C113.355 55.5741 113.522 55.3774 113.638 55.13C113.758 54.8826 113.817 54.6098 113.817 54.3117C113.817 54.0077 113.758 53.7335 113.638 53.489C113.519 53.2416 113.351 53.0464 113.133 52.9033C112.918 52.7572 112.665 52.6842 112.373 52.6842C112.078 52.6842 111.81 52.7572 111.568 52.9033C111.33 53.0494 111.139 53.2461 110.996 53.4935C110.853 53.7379 110.781 54.0107 110.781 54.3117C110.781 54.6128 110.854 54.887 111 55.1344C111.146 55.3789 111.34 55.5741 111.582 55.7202C111.823 55.8633 112.087 55.9348 112.373 55.9348ZM120.168 52.8273H119.153L119.149 56.5474H118.397L118.402 52.8273H117.633V52.0761H118.402L118.397 50.6721H119.149L119.153 52.0761H120.168V52.8273ZM124.922 53.7662V56.5474H124.171V53.9317C124.171 53.7051 124.116 53.4995 124.005 53.3146C123.895 53.1298 123.748 52.9838 123.563 52.8765C123.378 52.7662 123.172 52.711 122.946 52.711C122.722 52.711 122.517 52.7662 122.329 52.8765C122.144 52.9838 121.996 53.1298 121.886 53.3146C121.776 53.4995 121.721 53.7051 121.721 53.9317V56.5474H120.97V49.8405H121.721V52.635C121.879 52.4264 122.078 52.2609 122.32 52.1387C122.561 52.0135 122.824 51.9509 123.107 51.9509C123.441 51.9509 123.745 52.0329 124.019 52.1968C124.296 52.3578 124.515 52.5754 124.676 52.8496C124.84 53.1239 124.922 53.4294 124.922 53.7662ZM127.696 56.6636C127.285 56.6636 126.909 56.5578 126.57 56.3462C126.233 56.1345 125.963 55.8513 125.76 55.4966C125.561 55.1389 125.461 54.744 125.461 54.3117C125.461 53.9838 125.519 53.6783 125.635 53.3951C125.751 53.109 125.911 52.8586 126.113 52.644C126.319 52.4264 126.558 52.2565 126.829 52.1342C127.1 52.012 127.389 51.9509 127.696 51.9509C128.033 51.9509 128.342 52.0195 128.622 52.1566C128.905 52.2907 129.146 52.4785 129.346 52.72C129.549 52.9614 129.699 53.2416 129.798 53.5606C129.899 53.8795 129.936 54.2208 129.91 54.5845H126.261C126.297 54.8379 126.38 55.0644 126.511 55.2641C126.643 55.4608 126.809 55.6173 127.012 55.7336C127.218 55.8498 127.446 55.9095 127.696 55.9124C127.965 55.9124 128.208 55.8439 128.425 55.7068C128.643 55.5667 128.819 55.3759 128.953 55.1344L129.717 55.3133C129.538 55.7097 129.269 56.0347 128.908 56.288C128.547 56.5384 128.143 56.6636 127.696 56.6636ZM126.239 53.9943H129.154C129.13 53.7439 129.05 53.5159 128.912 53.3102C128.775 53.1015 128.601 52.9346 128.389 52.8094C128.178 52.6842 127.947 52.6216 127.696 52.6216C127.446 52.6216 127.216 52.6827 127.008 52.8049C126.799 52.9271 126.626 53.0926 126.489 53.3012C126.355 53.5069 126.271 53.7379 126.239 53.9943ZM136.825 53.7662V56.5474H136.074V53.9317C136.074 53.7051 136.019 53.4995 135.908 53.3146C135.798 53.1298 135.651 52.9838 135.466 52.8765C135.281 52.7662 135.075 52.711 134.849 52.711C134.625 52.711 134.42 52.7662 134.232 52.8765C134.047 52.9838 133.899 53.1298 133.789 53.3146C133.679 53.4995 133.624 53.7051 133.624 53.9317V56.5474H132.872V52.0761H133.624V52.635C133.782 52.4264 133.981 52.2609 134.223 52.1387C134.464 52.0135 134.727 51.9509 135.01 51.9509C135.344 51.9509 135.648 52.0329 135.922 52.1968C136.199 52.3578 136.418 52.5754 136.579 52.8496C136.743 53.1239 136.825 53.4294 136.825 53.7662ZM139.599 56.6636C139.188 56.6636 138.812 56.5578 138.473 56.3462C138.136 56.1345 137.866 55.8513 137.663 55.4966C137.463 55.1389 137.364 54.744 137.364 54.3117C137.364 53.9838 137.422 53.6783 137.538 53.3951C137.654 53.109 137.814 52.8586 138.016 52.644C138.222 52.4264 138.461 52.2565 138.732 52.1342C139.003 52.012 139.292 51.9509 139.599 51.9509C139.936 51.9509 140.245 52.0195 140.525 52.1566C140.808 52.2907 141.049 52.4785 141.249 52.72C141.452 52.9614 141.602 53.2416 141.701 53.5606C141.802 53.8795 141.839 54.2208 141.813 54.5845H138.164C138.2 54.8379 138.283 55.0644 138.414 55.2641C138.546 55.4608 138.712 55.6173 138.915 55.7336C139.121 55.8498 139.349 55.9095 139.599 55.9124C139.868 55.9124 140.11 55.8439 140.328 55.7068C140.546 55.5667 140.722 55.3759 140.856 55.1344L141.62 55.3133C141.441 55.7097 141.172 56.0347 140.811 56.288C140.45 56.5384 140.046 56.6636 139.599 56.6636ZM138.142 53.9943H141.057C141.033 53.7439 140.953 53.5159 140.815 53.3102C140.678 53.1015 140.504 52.9346 140.292 52.8094C140.081 52.6842 139.85 52.6216 139.599 52.6216C139.349 52.6216 139.119 52.6827 138.911 52.8049C138.702 52.9271 138.529 53.0926 138.392 53.3012C138.258 53.5069 138.174 53.7379 138.142 53.9943ZM142.055 56.5474L143.692 54.3028L142.064 52.0672H142.99L144.157 53.6589L145.319 52.0672H146.245L144.617 54.3028L146.254 56.5474H145.328L144.157 54.9377L142.981 56.5474H142.055ZM149.467 52.8273H148.452L148.447 56.5474H147.696L147.701 52.8273H146.932V52.0761H147.701L147.696 50.6721H148.447L148.452 52.0761H149.467V52.8273ZM153.432 50.9717V52.0761H154.742V52.8273H153.432V56.5474H152.681V52.8273H152.104V52.0761H152.681V50.9717C152.681 50.7422 152.736 50.535 152.846 50.3502C152.959 50.1624 153.11 50.0134 153.298 49.9031C153.488 49.7898 153.697 49.7332 153.924 49.7332C154.09 49.7332 154.253 49.7675 154.411 49.836C154.569 49.9016 154.709 50 154.831 50.1311L154.295 50.6632C154.253 50.6066 154.198 50.5633 154.129 50.5335C154.064 50.5007 153.995 50.4843 153.924 50.4843C153.789 50.4843 153.673 50.532 153.575 50.6274C153.479 50.7228 153.432 50.8376 153.432 50.9717ZM157.327 56.6636C156.916 56.6636 156.54 56.5578 156.2 56.3462C155.863 56.1345 155.594 55.8513 155.391 55.4966C155.191 55.1389 155.091 54.744 155.091 54.3117C155.091 53.9838 155.15 53.6783 155.266 53.3951C155.382 53.109 155.542 52.8586 155.744 52.644C155.95 52.4264 156.188 52.2565 156.46 52.1342C156.731 52.012 157.02 51.9509 157.327 51.9509C157.664 51.9509 157.972 52.0195 158.253 52.1566C158.536 52.2907 158.777 52.4785 158.977 52.72C159.18 52.9614 159.33 53.2416 159.429 53.5606C159.53 53.8795 159.567 54.2208 159.54 54.5845H155.892C155.928 54.8379 156.011 55.0644 156.142 55.2641C156.273 55.4608 156.44 55.6173 156.643 55.7336C156.849 55.8498 157.077 55.9095 157.327 55.9124C157.595 55.9124 157.838 55.8439 158.056 55.7068C158.273 55.5667 158.449 55.3759 158.583 55.1344L159.348 55.3133C159.169 55.7097 158.899 56.0347 158.539 56.288C158.178 56.5384 157.774 56.6636 157.327 56.6636ZM155.869 53.9943H158.785C158.761 53.7439 158.68 53.5159 158.543 53.3102C158.406 53.1015 158.232 52.9346 158.02 52.8094C157.808 52.6842 157.577 52.6216 157.327 52.6216C157.077 52.6216 156.847 52.6827 156.639 52.8049C156.43 52.9271 156.257 53.0926 156.12 53.3012C155.986 53.5069 155.902 53.7379 155.869 53.9943ZM162.235 56.6636C161.824 56.6636 161.448 56.5578 161.108 56.3462C160.771 56.1345 160.502 55.8513 160.299 55.4966C160.099 55.1389 159.999 54.744 159.999 54.3117C159.999 53.9838 160.057 53.6783 160.174 53.3951C160.29 53.109 160.449 52.8586 160.652 52.644C160.858 52.4264 161.096 52.2565 161.368 52.1342C161.639 52.012 161.928 51.9509 162.235 51.9509C162.572 51.9509 162.88 52.0195 163.161 52.1566C163.444 52.2907 163.685 52.4785 163.885 52.72C164.088 52.9614 164.238 53.2416 164.336 53.5606C164.438 53.8795 164.475 54.2208 164.448 54.5845H160.8C160.835 54.8379 160.919 55.0644 161.05 55.2641C161.181 55.4608 161.348 55.6173 161.551 55.7336C161.757 55.8498 161.985 55.9095 162.235 55.9124C162.503 55.9124 162.746 55.8439 162.964 55.7068C163.181 55.5667 163.357 55.3759 163.491 55.1344L164.256 55.3133C164.077 55.7097 163.807 56.0347 163.447 56.288C163.086 56.5384 162.682 56.6636 162.235 56.6636ZM160.777 53.9943H163.693C163.669 53.7439 163.588 53.5159 163.451 53.3102C163.314 53.1015 163.14 52.9346 162.928 52.8094C162.716 52.6842 162.485 52.6216 162.235 52.6216C161.985 52.6216 161.755 52.6827 161.546 52.8049C161.338 52.9271 161.165 53.0926 161.028 53.3012C160.894 53.5069 160.81 53.7379 160.777 53.9943ZM169.727 52.8273H168.712L168.708 56.5474H167.957L167.961 52.8273H167.192V52.0761H167.961L167.957 50.6721H168.708L168.712 52.0761H169.727V52.8273ZM170.485 52.0761H171.236V56.5474H170.485V52.0761ZM170.87 51.3473C170.75 51.3473 170.651 51.3085 170.57 51.231C170.49 51.1535 170.449 51.0567 170.449 50.9404C170.449 50.8242 170.49 50.7273 170.57 50.6498C170.651 50.5723 170.749 50.5335 170.865 50.5335C170.981 50.5335 171.08 50.5723 171.16 50.6498C171.241 50.7273 171.281 50.8242 171.281 50.9404C171.281 51.0567 171.241 51.1535 171.16 51.231C171.083 51.3085 170.986 51.3473 170.87 51.3473ZM174.217 56.6636C173.805 56.6636 173.43 56.5578 173.09 56.3462C172.753 56.1345 172.483 55.8513 172.28 55.4966C172.081 55.1389 171.981 54.744 171.981 54.3117C171.981 53.9838 172.039 53.6783 172.155 53.3951C172.272 53.109 172.431 52.8586 172.634 52.644C172.839 52.4264 173.078 52.2565 173.349 52.1342C173.62 52.012 173.91 51.9509 174.217 51.9509C174.553 51.9509 174.862 52.0195 175.142 52.1566C175.425 52.2907 175.667 52.4785 175.866 52.72C176.069 52.9614 176.22 53.2416 176.318 53.5606C176.419 53.8795 176.457 54.2208 176.43 54.5845H172.781C172.817 54.8379 172.9 55.0644 173.032 55.2641C173.163 55.4608 173.33 55.6173 173.532 55.7336C173.738 55.8498 173.966 55.9095 174.217 55.9124C174.485 55.9124 174.728 55.8439 174.945 55.7068C175.163 55.5667 175.339 55.3759 175.473 55.1344L176.238 55.3133C176.059 55.7097 175.789 56.0347 175.428 56.288C175.068 56.5384 174.664 56.6636 174.217 56.6636ZM172.759 53.9943H175.674C175.65 53.7439 175.57 53.5159 175.433 53.3102C175.296 53.1015 175.121 52.9346 174.91 52.8094C174.698 52.6842 174.467 52.6216 174.217 52.6216C173.966 52.6216 173.737 52.6827 173.528 52.8049C173.319 52.9271 173.146 53.0926 173.009 53.3012C172.875 53.5069 172.792 53.7379 172.759 53.9943ZM177.183 56.5474V52.0761H177.934V52.635C178.092 52.4264 178.292 52.2609 178.534 52.1387C178.775 52.0135 179.037 51.9509 179.321 51.9509C179.493 51.9509 179.66 51.9733 179.821 52.018L179.517 52.7692C179.395 52.7304 179.276 52.711 179.16 52.711C178.936 52.711 178.73 52.7662 178.543 52.8765C178.358 52.9838 178.21 53.1298 178.1 53.3146C177.99 53.4995 177.934 53.7051 177.934 53.9317V56.5474H177.183Z" fill="#676768"/>
<path d="M31.1777 84.5718L32.3894 78.312H32.9662L34.6563 82.7564L36.342 78.312H36.9188L38.1349 84.5718H37.3703L36.4895 80.029L34.9022 84.232H34.4059L32.8186 80.029L31.9422 84.5718H31.1777ZM40.7863 84.688C40.375 84.688 39.9994 84.5822 39.6596 84.3706C39.3227 84.1589 39.053 83.8758 38.8503 83.521C38.6505 83.1633 38.5507 82.7684 38.5507 82.3362C38.5507 82.0083 38.6088 81.7027 38.7251 81.4195C38.8413 81.1334 39.0008 80.883 39.2035 80.6684C39.4092 80.4508 39.6476 80.2809 39.9189 80.1587C40.1901 80.0364 40.4793 79.9753 40.7863 79.9753C41.1977 79.9753 41.5718 80.0811 41.9086 80.2928C42.2484 80.5044 42.5182 80.7891 42.7179 81.1468C42.9206 81.5045 43.0219 81.9009 43.0219 82.3362C43.0219 82.6611 42.9638 82.9651 42.8476 83.2483C42.7313 83.5315 42.5703 83.7819 42.3647 83.9995C42.162 84.2141 41.925 84.3825 41.6537 84.5047C41.3855 84.6269 41.0963 84.688 40.7863 84.688ZM40.7863 83.9369C41.0665 83.9369 41.3184 83.8638 41.542 83.7178C41.7685 83.5687 41.9459 83.3735 42.074 83.132C42.2052 82.8876 42.2708 82.6223 42.2708 82.3362C42.2708 82.044 42.2037 81.7758 42.0696 81.5313C41.9384 81.2869 41.761 81.0917 41.5375 80.9456C41.3139 80.7995 41.0635 80.7265 40.7863 80.7265C40.5061 80.7265 40.2542 80.801 40.0307 80.9501C39.8071 81.0961 39.6298 81.2914 39.4986 81.5358C39.3674 81.7802 39.3019 82.047 39.3019 82.3362C39.3019 82.6342 39.3689 82.9055 39.5031 83.1499C39.6372 83.3914 39.8175 83.5836 40.0441 83.7267C40.2706 83.8668 40.518 83.9369 40.7863 83.9369ZM47.7144 81.7907V84.5718H46.9632V81.9561C46.9632 81.7296 46.9081 81.5239 46.7978 81.3391C46.6875 81.1542 46.5399 81.0082 46.3551 80.9009C46.1703 80.7906 45.9646 80.7354 45.7381 80.7354C45.5145 80.7354 45.3088 80.7906 45.1211 80.9009C44.9362 81.0082 44.7887 81.1542 44.6784 81.3391C44.5681 81.5239 44.513 81.7296 44.513 81.9561V84.5718H43.7618V80.1005H44.513V80.6594C44.6709 80.4508 44.8707 80.2853 45.1121 80.1631C45.3536 80.0379 45.6159 79.9753 45.8991 79.9753C46.2329 79.9753 46.537 80.0573 46.8112 80.2212C47.0884 80.3822 47.3075 80.5998 47.4685 80.8741C47.6324 81.1483 47.7144 81.4538 47.7144 81.7907ZM50.9247 80.8517H49.9097L49.9052 84.5718H49.1541L49.1585 80.8517H48.3895V80.1005H49.1585L49.1541 78.6966H49.9052L49.9097 80.1005H50.9247V80.8517ZM55.6788 81.7907V84.5718H54.9276V81.9561C54.9276 81.7296 54.8725 81.5239 54.7622 81.3391C54.6519 81.1542 54.5044 81.0082 54.3195 80.9009C54.1347 80.7906 53.9291 80.7354 53.7025 80.7354C53.4789 80.7354 53.2733 80.7906 53.0855 80.9009C52.9007 81.0082 52.7531 81.1542 52.6428 81.3391C52.5325 81.5239 52.4774 81.7296 52.4774 81.9561V84.5718H51.7262V77.8649H52.4774V80.6594C52.6354 80.4508 52.8351 80.2853 53.0765 80.1631C53.318 80.0379 53.5803 79.9753 53.8635 79.9753C54.1973 79.9753 54.5014 80.0573 54.7756 80.2212C55.0528 80.3822 55.2719 80.5998 55.4329 80.8741C55.5968 81.1483 55.6788 81.4538 55.6788 81.7907ZM56.6254 84.5718V77.8649H57.3765V84.5718H56.6254ZM61.3387 80.1005H62.1346L59.6888 86.8074H58.8929L59.7022 84.5718L58.0971 80.1005H58.9198L60.0778 83.5389L61.3387 80.1005ZM67.1601 84.5718L64.8887 78.312H65.6846L67.6252 83.6552L69.5701 78.312H70.3616L68.0902 84.5718H67.1601ZM72.6003 84.688C72.189 84.688 71.8134 84.5822 71.4736 84.3706C71.1367 84.1589 70.867 83.8758 70.6643 83.521C70.4646 83.1633 70.3647 82.7684 70.3647 82.3362C70.3647 82.0083 70.4228 81.7027 70.5391 81.4195C70.6553 81.1334 70.8148 80.883 71.0175 80.6684C71.2232 80.4508 71.4617 80.2809 71.7329 80.1587C72.0042 80.0364 72.2933 79.9753 72.6003 79.9753C73.0117 79.9753 73.3858 80.0811 73.7226 80.2928C74.0624 80.5044 74.3322 80.7891 74.5319 81.1468C74.7346 81.5045 74.836 81.9009 74.836 82.3362C74.836 82.6611 74.7778 82.9651 74.6616 83.2483C74.5453 83.5315 74.3844 83.7819 74.1787 83.9995C73.976 84.2141 73.739 84.3825 73.4678 84.5047C73.1995 84.6269 72.9103 84.688 72.6003 84.688ZM72.6003 83.9369C72.8805 83.9369 73.1324 83.8638 73.356 83.7178C73.5825 83.5687 73.7599 83.3735 73.8881 83.132C74.0192 82.8876 74.0848 82.6223 74.0848 82.3362C74.0848 82.044 74.0177 81.7758 73.8836 81.5313C73.7524 81.2869 73.5751 81.0917 73.3515 80.9456C73.1279 80.7995 72.8775 80.7265 72.6003 80.7265C72.3201 80.7265 72.0683 80.801 71.8447 80.9501C71.6211 81.0961 71.4438 81.2914 71.3126 81.5358C71.1815 81.7802 71.1159 82.047 71.1159 82.3362C71.1159 82.6342 71.1829 82.9055 71.3171 83.1499C71.4512 83.3914 71.6316 83.5836 71.8581 83.7267C72.0846 83.8668 72.3321 83.9369 72.6003 83.9369ZM75.5321 84.5718V77.8649H76.2833V84.5718H75.5321ZM77.1785 82.8727V80.1005H77.9296V82.7073C77.9296 82.9338 77.9848 83.1395 78.0951 83.3243C78.2054 83.5091 78.3529 83.6567 78.5377 83.767C78.7255 83.8743 78.9312 83.9279 79.1548 83.9279C79.3813 83.9279 79.5855 83.8743 79.7673 83.767C79.9521 83.6567 80.0997 83.5091 80.21 83.3243C80.3203 83.1395 80.3754 82.9338 80.3754 82.7073V80.1005H81.1266L81.1311 84.5718H80.3799L80.3754 84.0039C80.2174 84.2126 80.0177 84.3795 79.7763 84.5047C79.5348 84.6269 79.274 84.688 78.9938 84.688C78.6599 84.688 78.3544 84.6075 78.0772 84.4466C77.803 84.2826 77.5839 84.0635 77.4199 83.7893C77.259 83.5151 77.1785 83.2095 77.1785 82.8727ZM82.0294 84.5718V80.1005H82.7806V80.6594C82.9386 80.4508 83.1368 80.2853 83.3753 80.1631C83.6167 80.0379 83.879 79.9753 84.1622 79.9753C84.4931 79.9753 84.7956 80.0558 85.0699 80.2168C85.3441 80.3777 85.5602 80.5909 85.7182 80.8562C85.8762 80.5909 86.0908 80.3777 86.3621 80.2168C86.6363 80.0558 86.9374 79.9753 87.2653 79.9753C87.6021 79.9753 87.9076 80.0573 88.1819 80.2212C88.4561 80.3822 88.6737 80.5998 88.8347 80.8741C88.9986 81.1483 89.0806 81.4538 89.0806 81.7907V84.5718H88.3294V81.9695C88.3294 81.7489 88.2758 81.5447 88.1685 81.3569C88.0612 81.1692 87.9166 81.0186 87.7348 80.9053C87.5529 80.7921 87.3517 80.7354 87.1311 80.7354C86.9106 80.7354 86.7093 80.7891 86.5275 80.8964C86.3457 81.0007 86.2011 81.1468 86.0938 81.3346C85.9865 81.5194 85.9328 81.731 85.9328 81.9695V84.5718H85.1817V81.9695C85.1817 81.731 85.128 81.5194 85.0207 81.3346C84.9134 81.1468 84.7673 81.0007 84.5825 80.8964C84.4007 80.7891 84.1995 80.7354 83.9789 80.7354C83.7613 80.7354 83.5601 80.7921 83.3753 80.9053C83.1934 81.0186 83.0489 81.1692 82.9416 81.3569C82.8343 81.5447 82.7806 81.7489 82.7806 81.9695V84.5718H82.0294ZM91.8564 84.688C91.4451 84.688 91.0695 84.5822 90.7297 84.3706C90.3928 84.1589 90.1231 83.8758 89.9204 83.521C89.7206 83.1633 89.6208 82.7684 89.6208 82.3362C89.6208 82.0083 89.6789 81.7027 89.7952 81.4195C89.9114 81.1334 90.0709 80.883 90.2736 80.6684C90.4793 80.4508 90.7177 80.2809 90.989 80.1587C91.2602 80.0364 91.5494 79.9753 91.8564 79.9753C92.1932 79.9753 92.5018 80.0439 92.782 80.181C93.0651 80.3151 93.3066 80.5029 93.5063 80.7444C93.709 80.9858 93.8595 81.266 93.9579 81.585C94.0592 81.9039 94.0965 82.2452 94.0697 82.6089H90.4211C90.4569 82.8623 90.5404 83.0888 90.6715 83.2885C90.8027 83.4853 90.9696 83.6418 91.1723 83.758C91.378 83.8743 91.606 83.9339 91.8564 83.9369C92.1247 83.9369 92.3676 83.8683 92.5852 83.7312C92.8028 83.5911 92.9787 83.4003 93.1128 83.1589L93.8774 83.3377C93.6986 83.7342 93.4288 84.0591 93.0681 84.3124C92.7074 84.5628 92.3035 84.688 91.8564 84.688ZM90.3988 82.0187H93.314C93.2902 81.7683 93.2097 81.5403 93.0726 81.3346C92.9355 81.1259 92.7611 80.959 92.5495 80.8338C92.3378 80.7086 92.1068 80.646 91.8564 80.646C91.606 80.646 91.3765 80.7071 91.1678 80.8293C90.9592 80.9516 90.7863 81.117 90.6492 81.3256C90.515 81.5313 90.4316 81.7623 90.3988 82.0187Z" fill="#676768"/>
<path d="M249.93 78.1074C249.624 78.1039 249.339 78.1538 249.074 78.257C248.809 78.3602 248.594 78.5029 248.429 78.6852C248.264 78.8675 248.182 79.079 248.182 79.3198C248.182 79.6087 248.257 79.8305 248.409 79.9853C248.563 80.1366 248.773 80.2501 249.038 80.3258C249.303 80.4015 249.6 80.4685 249.93 80.527C250.398 80.6061 250.832 80.7317 251.231 80.9036C251.63 81.0722 251.949 81.2974 252.19 81.5795C252.434 81.8615 252.556 82.2089 252.556 82.6216C252.556 83.0068 252.452 83.3473 252.242 83.6431C252.032 83.9389 251.753 84.178 251.406 84.3603C251.059 84.5391 250.675 84.6474 250.255 84.6853V85.7274H249.621V84.6853C249.267 84.6578 248.931 84.5804 248.615 84.4531C248.298 84.3259 248.023 84.1556 247.789 83.9424C247.556 83.7257 247.387 83.4746 247.284 83.1891L248.094 82.8847C248.163 83.0773 248.29 83.2459 248.476 83.3903C248.665 83.5314 248.887 83.6414 249.141 83.7205C249.396 83.7996 249.659 83.8392 249.93 83.8392C250.24 83.8392 250.527 83.7893 250.792 83.6896C251.06 83.5864 251.277 83.4436 251.442 83.2614C251.607 83.0791 251.69 82.8658 251.69 82.6216C251.69 82.3705 251.604 82.1659 251.432 82.0077C251.26 81.846 251.04 81.7188 250.771 81.6259C250.503 81.5296 250.223 81.4557 249.93 81.4041C249.432 81.3215 248.985 81.2046 248.589 81.0532C248.197 80.8985 247.886 80.6835 247.655 80.4084C247.428 80.1332 247.315 79.7703 247.315 79.3198C247.315 78.9346 247.42 78.5941 247.629 78.2983C247.839 77.999 248.118 77.76 248.465 77.5811C248.816 77.4023 249.201 77.294 249.621 77.2561V76.1933H250.255V77.2561C250.596 77.2871 250.923 77.3662 251.236 77.4934C251.549 77.6173 251.824 77.7858 252.061 77.999C252.302 78.2123 252.477 78.4668 252.587 78.7626L251.767 79.0618C251.698 78.8658 251.569 78.6972 251.38 78.5562C251.194 78.4118 250.974 78.3017 250.72 78.226C250.469 78.1469 250.206 78.1074 249.93 78.1074ZM255.758 84.7059C255.3 84.7059 254.882 84.5924 254.504 84.3654C254.126 84.1384 253.823 83.8357 253.596 83.4574C253.369 83.0756 253.256 82.6543 253.256 82.1934C253.256 81.9355 253.285 81.7102 253.343 81.5176C253.405 81.325 253.496 81.1169 253.617 80.8933L255.66 77.349H256.666L255.206 79.8821C255.501 79.7893 255.796 79.7566 256.088 79.7841C256.38 79.8116 256.657 79.8907 256.919 80.0214C257.183 80.1521 257.417 80.3241 257.62 80.5373C257.823 80.7506 257.983 80.9982 258.1 81.2802C258.217 81.5588 258.275 81.8632 258.275 82.1934C258.275 82.5408 258.208 82.8658 258.074 83.1685C257.943 83.4712 257.763 83.7377 257.532 83.9682C257.305 84.1986 257.039 84.3792 256.733 84.5099C256.427 84.6406 256.102 84.7059 255.758 84.7059ZM255.758 83.8392C256.074 83.8392 256.356 83.7618 256.604 83.607C256.855 83.4522 257.051 83.2493 257.192 82.9982C257.336 82.7472 257.409 82.4789 257.409 82.1934C257.409 81.8942 257.335 81.6208 257.187 81.3731C257.042 81.1255 256.845 80.9277 256.593 80.7798C256.346 80.6285 256.071 80.5528 255.768 80.5528C255.452 80.5528 255.17 80.6302 254.922 80.785C254.674 80.9397 254.478 81.141 254.334 81.3886C254.193 81.6362 254.122 81.9045 254.122 82.1934C254.122 82.5064 254.198 82.7867 254.349 83.0344C254.501 83.282 254.7 83.478 254.948 83.6225C255.199 83.767 255.469 83.8392 255.758 83.8392ZM264.577 84.5718V82.6216H261.471V81.7446L264.361 77.349H265.444V81.7549H266.161V82.6216H265.444V84.5718H264.577ZM262.488 81.7446L264.577 81.7549L264.562 78.5665L262.488 81.7446ZM267.468 84.5718L271.131 78.2157H266.989V77.349H272.132V78.2157L268.459 84.5718H267.468ZM274.063 84.5718L275.605 81.9097C275.244 82.0163 274.888 82.0352 274.537 81.9664C274.19 81.8942 273.873 81.7532 273.588 81.5434C273.302 81.3301 273.074 81.0618 272.902 80.7385C272.73 80.4152 272.644 80.0558 272.644 79.6603C272.644 79.3232 272.707 79.0068 272.835 78.711C272.962 78.4152 273.137 78.1555 273.361 77.932C273.584 77.7084 273.842 77.533 274.135 77.4057C274.431 77.2785 274.747 77.2148 275.084 77.2148C275.531 77.2148 275.937 77.3249 276.302 77.545C276.67 77.7652 276.964 78.0609 277.184 78.4324C277.407 78.8004 277.519 79.2097 277.519 79.6603C277.519 79.9045 277.488 80.1212 277.426 80.3103C277.368 80.4961 277.278 80.699 277.158 80.9191L275.063 84.5718H274.063ZM275.074 81.2338C275.38 81.2338 275.652 81.1616 275.889 81.0171C276.13 80.8692 276.317 80.6749 276.451 80.4341C276.589 80.1934 276.658 79.9354 276.658 79.6603C276.658 79.361 276.585 79.0928 276.441 78.8555C276.296 78.6147 276.104 78.4255 275.863 78.2879C275.622 78.1469 275.363 78.0764 275.084 78.0764C274.778 78.0764 274.505 78.1504 274.264 78.2983C274.026 78.4462 273.839 78.6422 273.701 78.8864C273.567 79.1272 273.5 79.3851 273.5 79.6603C273.5 79.9492 273.569 80.214 273.707 80.4548C273.848 80.6921 274.037 80.8813 274.274 81.0223C274.515 81.1633 274.781 81.2338 275.074 81.2338ZM278.239 85.1496L278.559 83.4058H279.425L278.816 85.1496H278.239ZM280.455 84.5718V83.8031C280.72 83.5657 281.018 83.3009 281.348 83.0086C281.678 82.7128 282.007 82.4049 282.333 82.0851C282.664 81.7618 282.966 81.4419 283.241 81.1255C283.517 80.809 283.738 80.5098 283.907 80.2278C284.075 79.9423 284.16 79.693 284.16 79.4797C284.16 79.2252 284.098 78.993 283.974 78.7832C283.85 78.57 283.683 78.3997 283.474 78.2725C283.267 78.1452 283.037 78.0816 282.782 78.0816C282.528 78.0816 282.294 78.1452 282.081 78.2725C281.871 78.3997 281.702 78.57 281.575 78.7832C281.451 78.993 281.389 79.2252 281.389 79.4797H280.523C280.523 79.0567 280.626 78.6749 280.832 78.3344C281.038 77.9904 281.312 77.7187 281.652 77.5192C281.993 77.3163 282.37 77.2148 282.782 77.2148C283.195 77.2148 283.57 77.3163 283.907 77.5192C284.247 77.7222 284.519 77.9956 284.722 78.3395C284.925 78.68 285.026 79.0601 285.026 79.4797C285.026 79.7205 284.968 79.9801 284.851 80.2587C284.734 80.5339 284.574 80.8176 284.371 81.11C284.168 81.4023 283.938 81.6981 283.68 81.9974C283.422 82.2932 283.15 82.5855 282.865 82.8744C282.579 83.1633 282.296 83.4402 282.014 83.705H285.119V84.5718H280.455ZM288.496 84.7059C288.049 84.7059 287.643 84.5976 287.279 84.3809C286.914 84.1642 286.625 83.8753 286.412 83.5142C286.202 83.1496 286.097 82.7489 286.097 82.3121H286.964C286.964 82.5907 287.033 82.8469 287.17 83.0808C287.308 83.3112 287.492 83.4952 287.722 83.6328C287.956 83.7704 288.214 83.8392 288.496 83.8392C288.775 83.8392 289.029 83.7704 289.26 83.6328C289.49 83.4952 289.674 83.3112 289.812 83.0808C289.949 82.8469 290.018 82.5907 290.018 82.3121C290.018 82.0335 289.953 81.7772 289.822 81.5434C289.695 81.3095 289.507 81.1238 289.26 80.9862C289.012 80.8452 288.711 80.7747 288.357 80.7747H286.577L287.279 77.349H290.704V78.2157H287.98L287.645 79.9079L288.393 79.9131C288.885 79.9234 289.316 80.0335 289.688 80.2433C290.063 80.4496 290.355 80.7317 290.565 81.0894C290.778 81.4436 290.885 81.8512 290.885 82.3121C290.885 82.6388 290.823 82.9484 290.699 83.2407C290.575 83.5296 290.403 83.7841 290.183 84.0043C289.963 84.2244 289.708 84.3964 289.42 84.5202C289.134 84.644 288.826 84.7059 288.496 84.7059Z" fill="#242428"/>
<path d="M298.918 78.312L297.107 85.0726H296.356L298.167 78.312H298.918Z" fill="#676768"/>
<path d="M306.777 78.9693C306.512 78.9663 306.264 79.0095 306.035 79.099C305.805 79.1884 305.619 79.3121 305.476 79.4701C305.333 79.6281 305.261 79.8114 305.261 80.02C305.261 80.2704 305.327 80.4627 305.458 80.5968C305.592 80.728 305.774 80.8264 306.004 80.8919C306.233 80.9575 306.491 81.0156 306.777 81.0663C307.183 81.1349 307.558 81.2437 307.904 81.3927C308.25 81.5388 308.527 81.734 308.736 81.9785C308.947 82.2229 309.053 82.5239 309.053 82.8816C309.053 83.2155 308.962 83.5106 308.78 83.767C308.598 84.0233 308.357 84.2305 308.056 84.3885C307.755 84.5435 307.423 84.6374 307.059 84.6701V85.5733H306.509V84.6701C306.202 84.6463 305.911 84.5792 305.637 84.4689C305.363 84.3586 305.124 84.2111 304.922 84.0263C304.719 83.8385 304.573 83.6209 304.483 83.3735L305.185 83.1097C305.245 83.2766 305.355 83.4227 305.516 83.5479C305.68 83.6701 305.873 83.7655 306.093 83.834C306.314 83.9026 306.542 83.9369 306.777 83.9369C307.045 83.9369 307.294 83.8936 307.524 83.8072C307.756 83.7178 307.944 83.5941 308.087 83.4361C308.23 83.2781 308.302 83.0933 308.302 82.8816C308.302 82.664 308.227 82.4867 308.078 82.3496C307.929 82.2095 307.739 82.0992 307.506 82.0187C307.273 81.9352 307.031 81.8711 306.777 81.8264C306.345 81.7549 305.957 81.6535 305.615 81.5224C305.275 81.3882 305.005 81.2019 304.805 80.9635C304.609 80.725 304.51 80.4105 304.51 80.02C304.51 79.6862 304.601 79.3911 304.783 79.1347C304.965 78.8754 305.206 78.6682 305.507 78.5132C305.811 78.3582 306.145 78.2643 306.509 78.2315V77.3105H307.059V78.2315C307.354 78.2584 307.637 78.3269 307.908 78.4372C308.18 78.5445 308.418 78.6906 308.624 78.8754C308.832 79.0602 308.984 79.2808 309.08 79.5371L308.369 79.7965C308.309 79.6266 308.198 79.4805 308.034 79.3583C307.873 79.2331 307.682 79.1377 307.461 79.0721C307.244 79.0036 307.016 78.9693 306.777 78.9693ZM311.827 84.688C311.44 84.688 311.088 84.5941 310.772 84.4063C310.456 84.2185 310.206 83.9682 310.021 83.6552C309.839 83.3392 309.748 82.9919 309.748 82.6134H310.5C310.5 82.8548 310.559 83.0769 310.678 83.2796C310.798 83.4793 310.957 83.6388 311.157 83.758C311.359 83.8772 311.583 83.9369 311.827 83.9369C312.069 83.9369 312.289 83.8772 312.489 83.758C312.689 83.6388 312.848 83.4793 312.968 83.2796C313.087 83.0769 313.146 82.8548 313.146 82.6134C313.146 82.3719 313.09 82.1498 312.977 81.9472C312.866 81.7445 312.704 81.5835 312.489 81.4643C312.275 81.342 312.014 81.2809 311.707 81.2809H310.164L310.772 78.312H313.741V79.0632H311.38L311.09 80.5298L311.738 80.5342C312.164 80.5432 312.538 80.6386 312.86 80.8204C313.185 80.9992 313.439 81.2437 313.62 81.5537C313.805 81.8607 313.898 82.2139 313.898 82.6134C313.898 82.8965 313.844 83.1648 313.737 83.4182C313.629 83.6686 313.48 83.8892 313.29 84.0799C313.099 84.2707 312.878 84.4198 312.628 84.5271C312.38 84.6344 312.114 84.688 311.827 84.688ZM316.838 84.688C316.466 84.688 316.132 84.6046 315.837 84.4376C315.541 84.2677 315.288 84.0337 315.076 83.7357C314.865 83.4376 314.704 83.0933 314.594 82.7028C314.483 82.3093 314.428 81.889 314.428 81.4419C314.428 80.9948 314.483 80.5745 314.594 80.181C314.704 79.7875 314.865 79.4432 315.076 79.1481C315.288 78.8501 315.541 78.6176 315.837 78.4506C316.132 78.2807 316.466 78.1958 316.838 78.1958C317.208 78.1958 317.54 78.2807 317.835 78.4506C318.133 78.6176 318.385 78.8501 318.591 79.1481C318.8 79.4432 318.959 79.7875 319.069 80.181C319.183 80.5745 319.239 80.9948 319.239 81.4419C319.239 81.889 319.183 82.3093 319.069 82.7028C318.959 83.0933 318.8 83.4376 318.591 83.7357C318.385 84.0337 318.133 84.2677 317.835 84.4376C317.54 84.6046 317.208 84.688 316.838 84.688ZM316.838 83.9369C317.211 83.9369 317.522 83.8221 317.773 83.5926C318.026 83.3601 318.215 83.0545 318.34 82.676C318.466 82.2974 318.528 81.886 318.528 81.4419C318.528 80.9739 318.463 80.5521 318.332 80.1765C318.203 79.798 318.013 79.4984 317.759 79.2778C317.509 79.0572 317.202 78.9469 316.838 78.9469C316.552 78.9469 316.302 79.014 316.087 79.1481C315.875 79.2823 315.699 79.4656 315.559 79.6981C315.419 79.9306 315.313 80.1974 315.242 80.4985C315.173 80.7965 315.139 81.111 315.139 81.4419C315.139 81.886 315.203 82.2989 315.331 82.6804C315.459 83.059 315.649 83.363 315.899 83.5926C316.153 83.8221 316.466 83.9369 316.838 83.9369ZM319.862 85.0726L320.139 83.5613H320.89L320.363 85.0726H319.862ZM324.104 84.688C323.731 84.688 323.397 84.6046 323.102 84.4376C322.807 84.2677 322.554 84.0337 322.342 83.7357C322.131 83.4376 321.97 83.0933 321.859 82.7028C321.749 82.3093 321.694 81.889 321.694 81.4419C321.694 80.9948 321.749 80.5745 321.859 80.181C321.97 79.7875 322.131 79.4432 322.342 79.1481C322.554 78.8501 322.807 78.6176 323.102 78.4506C323.397 78.2807 323.731 78.1958 324.104 78.1958C324.474 78.1958 324.806 78.2807 325.101 78.4506C325.399 78.6176 325.651 78.8501 325.857 79.1481C326.065 79.4432 326.225 79.7875 326.335 80.181C326.448 80.5745 326.505 80.9948 326.505 81.4419C326.505 81.889 326.448 82.3093 326.335 82.7028C326.225 83.0933 326.065 83.4376 325.857 83.7357C325.651 84.0337 325.399 84.2677 325.101 84.4376C324.806 84.6046 324.474 84.688 324.104 84.688ZM324.104 83.9369C324.477 83.9369 324.788 83.8221 325.038 83.5926C325.292 83.3601 325.481 83.0545 325.606 82.676C325.731 82.2974 325.794 81.886 325.794 81.4419C325.794 80.9739 325.728 80.5521 325.597 80.1765C325.469 79.798 325.278 79.4984 325.025 79.2778C324.775 79.0572 324.468 78.9469 324.104 78.9469C323.818 78.9469 323.567 79.014 323.353 79.1481C323.141 79.2823 322.965 79.4656 322.825 79.6981C322.685 79.9306 322.579 80.1974 322.508 80.4985C322.439 80.7965 322.405 81.111 322.405 81.4419C322.405 81.886 322.469 82.2989 322.597 82.6804C322.725 83.059 322.915 83.363 323.165 83.5926C323.418 83.8221 323.731 83.9369 324.104 83.9369ZM329.326 84.688C328.954 84.688 328.62 84.6046 328.325 84.4376C328.03 84.2677 327.776 84.0337 327.565 83.7357C327.353 83.4376 327.192 83.0933 327.082 82.7028C326.971 82.3093 326.916 81.889 326.916 81.4419C326.916 80.9948 326.971 80.5745 327.082 80.181C327.192 79.7875 327.353 79.4432 327.565 79.1481C327.776 78.8501 328.03 78.6176 328.325 78.4506C328.62 78.2807 328.954 78.1958 329.326 78.1958C329.696 78.1958 330.028 78.2807 330.323 78.4506C330.621 78.6176 330.873 78.8501 331.079 79.1481C331.288 79.4432 331.447 79.7875 331.557 80.181C331.671 80.5745 331.727 80.9948 331.727 81.4419C331.727 81.889 331.671 82.3093 331.557 82.7028C331.447 83.0933 331.288 83.4376 331.079 83.7357C330.873 84.0337 330.621 84.2677 330.323 84.4376C330.028 84.6046 329.696 84.688 329.326 84.688ZM329.326 83.9369C329.699 83.9369 330.01 83.8221 330.261 83.5926C330.514 83.3601 330.703 83.0545 330.829 82.676C330.954 82.2974 331.016 81.886 331.016 81.4419C331.016 80.9739 330.951 80.5521 330.82 80.1765C330.691 79.798 330.501 79.4984 330.247 79.2778C329.997 79.0572 329.69 78.9469 329.326 78.9469C329.04 78.9469 328.79 79.014 328.575 79.1481C328.363 79.2823 328.188 79.4656 328.047 79.6981C327.907 79.9306 327.802 80.1974 327.73 80.4985C327.661 80.7965 327.627 81.111 327.627 81.4419C327.627 81.886 327.691 82.2989 327.819 82.6804C327.948 83.059 328.137 83.363 328.387 83.5926C328.641 83.8221 328.954 83.9369 329.326 83.9369ZM334.548 84.688C334.176 84.688 333.842 84.6046 333.547 84.4376C333.252 84.2677 332.998 84.0337 332.787 83.7357C332.575 83.4376 332.414 83.0933 332.304 82.7028C332.194 82.3093 332.138 81.889 332.138 81.4419C332.138 80.9948 332.194 80.5745 332.304 80.181C332.414 79.7875 332.575 79.4432 332.787 79.1481C332.998 78.8501 333.252 78.6176 333.547 78.4506C333.842 78.2807 334.176 78.1958 334.548 78.1958C334.918 78.1958 335.25 78.2807 335.546 78.4506C335.844 78.6176 336.096 78.8501 336.301 79.1481C336.51 79.4432 336.669 79.7875 336.78 80.181C336.893 80.5745 336.95 80.9948 336.95 81.4419C336.95 81.889 336.893 82.3093 336.78 82.7028C336.669 83.0933 336.51 83.4376 336.301 83.7357C336.096 84.0337 335.844 84.2677 335.546 84.4376C335.25 84.6046 334.918 84.688 334.548 84.688ZM334.548 83.9369C334.921 83.9369 335.233 83.8221 335.483 83.5926C335.736 83.3601 335.926 83.0545 336.051 82.676C336.176 82.2974 336.239 81.886 336.239 81.4419C336.239 80.9739 336.173 80.5521 336.042 80.1765C335.914 79.798 335.723 79.4984 335.47 79.2778C335.219 79.0572 334.912 78.9469 334.548 78.9469C334.262 78.9469 334.012 79.014 333.797 79.1481C333.586 79.2823 333.41 79.4656 333.27 79.6981C333.13 79.9306 333.024 80.1974 332.952 80.4985C332.884 80.7965 332.849 81.111 332.849 81.4419C332.849 81.886 332.913 82.2989 333.042 82.6804C333.17 83.059 333.359 83.363 333.61 83.5926C333.863 83.8221 334.176 83.9369 334.548 83.9369Z" fill="#676768"/>
<rect x="30.6411" y="96.2021" width="6.87885" height="103.803" rx="3.43942" fill="#0004FF"/>
<rect x="41.7747" y="96.2021" width="6.87885" height="103.803" rx="3.43942" fill="#0004FF"/>
<rect x="52.9082" y="96.2021" width="6.87885" height="103.803" rx="3.43942" fill="#0004FF"/>
<rect x="64.0417" y="96.2021" width="6.87885" height="103.803" rx="3.43942" fill="#0004FF"/>
<rect x="75.1753" y="96.2021" width="6.87885" height="103.803" rx="3.43942" fill="#0004FF"/>
<rect x="86.3088" y="96.2021" width="6.87885" height="103.803" rx="3.43942" fill="#0004FF"/>
<rect x="97.4424" y="96.2021" width="6.87885" height="103.803" rx="3.43942" fill="#E5EDFF"/>
<rect x="108.576" y="96.2021" width="6.87885" height="103.803" rx="3.43942" fill="#E5EDFF"/>
<rect x="119.709" y="96.2021" width="6.87885" height="103.803" rx="3.43942" fill="#E5EDFF"/>
<rect x="130.843" y="96.2021" width="6.87885" height="103.803" rx="3.43942" fill="#E5EDFF"/>
<rect x="141.977" y="96.2021" width="6.87885" height="103.803" rx="3.43942" fill="#E5EDFF"/>
<rect x="153.11" y="96.2021" width="6.87885" height="103.803" rx="3.43942" fill="#E5EDFF"/>
<rect x="164.244" y="96.2021" width="6.87885" height="103.803" rx="3.43942" fill="#E5EDFF"/>
<rect x="175.377" y="96.2021" width="6.87885" height="103.803" rx="3.43942" fill="#E5EDFF"/>
<rect x="186.511" y="96.2021" width="6.87885" height="103.803" rx="3.43942" fill="#E5EDFF"/>
<rect x="197.644" y="96.2021" width="6.87885" height="103.803" rx="3.43942" fill="#E5EDFF"/>
<rect x="208.778" y="96.2021" width="6.87885" height="103.803" rx="3.43942" fill="#E5EDFF"/>
<rect x="219.911" y="96.2021" width="6.87885" height="103.803" rx="3.43942" fill="#E5EDFF"/>
<rect x="231.045" y="96.2021" width="6.87885" height="103.803" rx="3.43942" fill="#E5EDFF"/>
<rect x="242.178" y="96.2021" width="6.87885" height="103.803" rx="3.43942" fill="#E5EDFF"/>
<rect x="253.312" y="96.2021" width="6.87885" height="103.803" rx="3.43942" fill="#E5EDFF"/>
<rect x="264.446" y="96.2021" width="6.87885" height="103.803" rx="3.43942" fill="#E5EDFF"/>
<rect x="275.579" y="96.2021" width="6.87885" height="103.803" rx="3.43942" fill="#E5EDFF"/>
<rect x="286.713" y="96.2021" width="6.87885" height="103.803" rx="3.43942" fill="#E5EDFF"/>
<rect x="297.846" y="96.2021" width="6.87885" height="103.803" rx="3.43942" fill="#E5EDFF"/>
<rect x="308.98" y="96.2021" width="6.87885" height="103.803" rx="3.43942" fill="#E5EDFF"/>
<rect x="320.113" y="96.2021" width="6.87885" height="103.803" rx="3.43942" fill="#E5EDFF"/>
<rect x="331.247" y="96.2021" width="6.87885" height="103.803" rx="3.43942" fill="#E5EDFF"/>
<path d="M31.7008 218.635V213.127H30.9988L31.209 212.375H32.452V218.635H31.7008ZM35.3827 218.752C35.0041 218.752 34.6673 218.667 34.3722 218.497C34.08 218.324 33.8505 218.094 33.6836 217.808C33.5167 217.519 33.4332 217.198 33.4332 216.847H34.1844C34.1844 217.058 34.2336 217.252 34.3319 217.428C34.4303 217.601 34.5689 217.74 34.7477 217.844C34.9266 217.948 35.1382 218 35.3827 218C35.5943 218 35.791 217.948 35.9729 217.844C36.1577 217.74 36.3067 217.601 36.42 217.428C36.5333 217.252 36.5899 217.058 36.5899 216.847C36.5899 216.581 36.5213 216.361 36.3842 216.185C36.2501 216.006 36.0623 215.874 35.8209 215.787C35.5824 215.698 35.3096 215.653 35.0026 215.653V215.049C35.4259 215.049 35.7642 214.961 36.0176 214.786C36.2739 214.61 36.4021 214.35 36.4021 214.008C36.4021 213.826 36.3529 213.659 36.2546 213.507C36.1562 213.355 36.0265 213.234 35.8656 213.145C35.7076 213.052 35.5377 213.006 35.3558 213.006C35.171 213.006 34.9937 213.052 34.8238 213.145C34.6539 213.234 34.5152 213.355 34.4079 213.507C34.3006 213.659 34.247 213.826 34.247 214.008H33.4958C33.4958 213.766 33.545 213.54 33.6434 213.328C33.7447 213.116 33.8818 212.93 34.0547 212.769C34.2306 212.608 34.4288 212.483 34.6494 212.393C34.87 212.301 35.1025 212.255 35.3469 212.255C35.6658 212.255 35.9624 212.334 36.2367 212.492C36.5109 212.65 36.7315 212.861 36.8984 213.127C37.0683 213.392 37.1533 213.686 37.1533 214.008C37.1533 214.297 37.0803 214.563 36.9342 214.808C36.7881 215.052 36.5899 215.224 36.3395 215.322C36.5571 215.397 36.7404 215.513 36.8895 215.671C37.0385 215.826 37.1503 216.005 37.2248 216.207C37.3023 216.41 37.3411 216.623 37.3411 216.847C37.3411 217.196 37.2502 217.514 37.0683 217.804C36.8895 218.093 36.651 218.324 36.3529 218.497C36.0578 218.667 35.7344 218.752 35.3827 218.752ZM38.3746 218.752C38.2613 218.752 38.1644 218.711 38.0839 218.631C38.0064 218.55 37.9677 218.452 37.9677 218.336C37.9677 218.225 38.0064 218.13 38.0839 218.05C38.1644 217.969 38.2613 217.929 38.3746 217.929C38.4908 217.929 38.5892 217.969 38.6697 218.05C38.7501 218.13 38.7904 218.225 38.7904 218.336C38.7904 218.452 38.7501 218.55 38.6697 218.631C38.5892 218.711 38.4908 218.752 38.3746 218.752ZM42.0086 218.752C41.636 218.752 41.3022 218.668 41.0071 218.501C40.712 218.331 40.4586 218.097 40.247 217.799C40.0353 217.501 39.8744 217.157 39.7641 216.766C39.6538 216.373 39.5986 215.953 39.5986 215.505C39.5986 215.058 39.6538 214.638 39.7641 214.244C39.8744 213.851 40.0353 213.507 40.247 213.212C40.4586 212.914 40.712 212.681 41.0071 212.514C41.3022 212.344 41.636 212.259 42.0086 212.259C42.3783 212.259 42.7106 212.344 43.0057 212.514C43.3038 212.681 43.5557 212.914 43.7614 213.212C43.97 213.507 44.1295 213.851 44.2398 214.244C44.3531 214.638 44.4097 215.058 44.4097 215.505C44.4097 215.953 44.3531 216.373 44.2398 216.766C44.1295 217.157 43.97 217.501 43.7614 217.799C43.5557 218.097 43.3038 218.331 43.0057 218.501C42.7106 218.668 42.3783 218.752 42.0086 218.752ZM42.0086 218C42.3812 218 42.6927 217.886 42.9431 217.656C43.1965 217.424 43.3858 217.118 43.511 216.739C43.6362 216.361 43.6988 215.95 43.6988 215.505C43.6988 215.037 43.6332 214.616 43.502 214.24C43.3739 213.861 43.1831 213.562 42.9297 213.341C42.6793 213.121 42.3723 213.01 42.0086 213.01C41.7225 213.01 41.4721 213.077 41.2575 213.212C41.0458 213.346 40.87 213.529 40.7299 213.762C40.5898 213.994 40.4839 214.261 40.4124 214.562C40.3438 214.86 40.3096 215.175 40.3096 215.505C40.3096 215.95 40.3737 216.362 40.5018 216.744C40.63 217.122 40.8193 217.427 41.0697 217.656C41.3231 217.886 41.636 218 42.0086 218ZM45.435 218.635L49.0478 212.375H49.9152L46.3024 218.635H45.435ZM46.1772 214.893C45.9656 214.893 45.7733 214.842 45.6005 214.741C45.4306 214.639 45.2934 214.502 45.1891 214.329C45.0848 214.157 45.0326 213.964 45.0326 213.753C45.0326 213.535 45.0848 213.341 45.1891 213.171C45.2934 212.998 45.432 212.861 45.6049 212.76C45.7778 212.659 45.9686 212.608 46.1772 212.608C46.3859 212.608 46.5767 212.66 46.7496 212.764C46.9225 212.866 47.0596 213.003 47.1609 213.176C47.2653 213.346 47.3174 213.538 47.3174 213.753C47.3174 213.967 47.2653 214.161 47.1609 214.334C47.0566 214.504 46.918 214.639 46.7451 214.741C46.5722 214.842 46.3829 214.893 46.1772 214.893ZM46.1772 214.343C46.3412 214.343 46.4798 214.286 46.5931 214.173C46.7093 214.057 46.7675 213.917 46.7675 213.753C46.7675 213.586 46.7093 213.446 46.5931 213.332C46.4798 213.216 46.3412 213.158 46.1772 213.158C46.0133 213.158 45.8732 213.216 45.757 213.332C45.6407 213.446 45.5826 213.586 45.5826 213.753C45.5826 213.917 45.6407 214.057 45.757 214.173C45.8732 214.286 46.0133 214.343 46.1772 214.343ZM49.1775 218.407C48.9688 218.407 48.7765 218.355 48.6007 218.251C48.4278 218.143 48.2892 218.003 48.1848 217.83C48.0835 217.655 48.0328 217.465 48.0328 217.263C48.0328 217.048 48.085 216.854 48.1893 216.681C48.2966 216.508 48.4367 216.371 48.6096 216.27C48.7825 216.169 48.9718 216.118 49.1775 216.118C49.3921 216.118 49.5858 216.172 49.7587 216.279C49.9316 216.383 50.0687 216.522 50.1701 216.695C50.2714 216.868 50.3221 217.057 50.3221 217.263C50.3221 217.474 50.2699 217.666 50.1656 217.839C50.0643 218.012 49.9271 218.151 49.7543 218.255C49.5814 218.357 49.3891 218.407 49.1775 218.407ZM49.1775 217.857C49.3414 217.857 49.4815 217.799 49.5978 217.683C49.714 217.567 49.7721 217.427 49.7721 217.263C49.7721 217.099 49.714 216.959 49.5978 216.842C49.4815 216.726 49.3414 216.668 49.1775 216.668C49.0135 216.668 48.8734 216.726 48.7572 216.842C48.6409 216.959 48.5828 217.099 48.5828 217.263C48.5828 217.427 48.6409 217.567 48.7572 217.683C48.8734 217.799 49.0135 217.857 49.1775 217.857ZM56.4487 217.455L57.1194 217.817C56.9167 218.1 56.6588 218.327 56.3459 218.497C56.0358 218.667 55.699 218.752 55.3354 218.752C54.924 218.752 54.5484 218.646 54.2086 218.434C53.8718 218.222 53.602 217.939 53.3993 217.585C53.1996 217.227 53.0997 216.832 53.0997 216.4C53.0997 216.072 53.1579 215.766 53.2741 215.483C53.3904 215.197 53.5498 214.946 53.7525 214.732C53.9582 214.514 54.1967 214.344 54.4679 214.222C54.7392 214.1 55.0283 214.039 55.3354 214.039C55.699 214.039 56.0358 214.124 56.3459 214.294C56.6588 214.464 56.9167 214.692 57.1194 214.978L56.4487 215.34C56.3056 215.164 56.1357 215.028 55.939 214.933C55.7422 214.838 55.541 214.79 55.3354 214.79C55.0581 214.79 54.8063 214.864 54.5797 215.014C54.3561 215.16 54.1788 215.355 54.0476 215.599C53.9165 215.844 53.8509 216.11 53.8509 216.4C53.8509 216.689 53.9165 216.956 54.0476 217.2C54.1818 217.441 54.3606 217.635 54.5842 217.781C54.8107 217.927 55.0611 218 55.3354 218C55.5559 218 55.7631 217.95 55.9569 217.848C56.1506 217.747 56.3146 217.616 56.4487 217.455ZM59.8153 218.752C59.404 218.752 59.0284 218.646 58.6886 218.434C58.3517 218.222 58.082 217.939 57.8793 217.585C57.6796 217.227 57.5797 216.832 57.5797 216.4C57.5797 216.072 57.6378 215.766 57.7541 215.483C57.8703 215.197 58.0298 214.946 58.2325 214.732C58.4382 214.514 58.6767 214.344 58.9479 214.222C59.2192 214.1 59.5083 214.039 59.8153 214.039C60.2267 214.039 60.6008 214.145 60.9376 214.356C61.2774 214.568 61.5472 214.853 61.7469 215.21C61.9496 215.568 62.051 215.964 62.051 216.4C62.051 216.725 61.9928 217.029 61.8766 217.312C61.7603 217.595 61.5994 217.845 61.3937 218.063C61.191 218.278 60.954 218.446 60.6828 218.568C60.4145 218.69 60.1253 218.752 59.8153 218.752ZM59.8153 218C60.0955 218 60.3474 217.927 60.571 217.781C60.7975 217.632 60.9749 217.437 61.1031 217.196C61.2342 216.951 61.2998 216.686 61.2998 216.4C61.2998 216.108 61.2327 215.839 61.0986 215.595C60.9674 215.35 60.7901 215.155 60.5665 215.009C60.3429 214.863 60.0926 214.79 59.8153 214.79C59.5351 214.79 59.2833 214.864 59.0597 215.014C58.8361 215.16 58.6588 215.355 58.5276 215.599C58.3965 215.844 58.3309 216.11 58.3309 216.4C58.3309 216.698 58.398 216.969 58.5321 217.213C58.6662 217.455 58.8466 217.647 59.0731 217.79C59.2997 217.93 59.5471 218 59.8153 218ZM62.7908 218.635V214.164H63.542V214.723C63.7 214.514 63.8982 214.349 64.1367 214.227C64.3781 214.101 64.6404 214.039 64.9236 214.039C65.2545 214.039 65.557 214.119 65.8313 214.28C66.1055 214.441 66.3216 214.654 66.4796 214.92C66.6376 214.654 66.8522 214.441 67.1235 214.28C67.3977 214.119 67.6988 214.039 68.0267 214.039C68.3635 214.039 68.669 214.121 68.9433 214.285C69.2175 214.446 69.4351 214.663 69.5961 214.938C69.76 215.212 69.842 215.517 69.842 215.854V218.635H69.0908V216.033C69.0908 215.812 69.0372 215.608 68.9298 215.42C68.8225 215.233 68.678 215.082 68.4961 214.969C68.3143 214.856 68.1131 214.799 67.8925 214.799C67.6719 214.799 67.4707 214.853 67.2889 214.96C67.1071 215.064 66.9625 215.21 66.8552 215.398C66.7479 215.583 66.6942 215.795 66.6942 216.033V218.635H65.9431V216.033C65.9431 215.795 65.8894 215.583 65.7821 215.398C65.6748 215.21 65.5287 215.064 65.3439 214.96C65.1621 214.853 64.9609 214.799 64.7403 214.799C64.5227 214.799 64.3215 214.856 64.1367 214.969C63.9548 215.082 63.8103 215.233 63.703 215.42C63.5956 215.608 63.542 215.812 63.542 216.033V218.635H62.7908ZM71.4889 220.871H70.7378V214.164H71.4889V214.929C71.641 214.666 71.8437 214.455 72.097 214.294C72.3504 214.13 72.6515 214.048 73.0002 214.048C73.3251 214.048 73.6292 214.109 73.9124 214.231C74.1985 214.353 74.4489 214.523 74.6635 214.741C74.8782 214.955 75.0466 215.204 75.1688 215.487C75.291 215.771 75.3521 216.075 75.3521 216.4C75.3521 216.725 75.291 217.03 75.1688 217.316C75.0466 217.602 74.8782 217.854 74.6635 218.072C74.4489 218.286 74.1985 218.455 73.9124 218.577C73.6292 218.699 73.3251 218.76 73.0002 218.76C72.6515 218.76 72.3504 218.68 72.097 218.519C71.8437 218.355 71.641 218.142 71.4889 217.88V220.871ZM72.9913 214.777C72.7021 214.777 72.4488 214.85 72.2312 214.996C72.0136 215.142 71.8452 215.337 71.7259 215.581C71.6097 215.826 71.5515 216.099 71.5515 216.4C71.5515 216.698 71.6097 216.97 71.7259 217.218C71.8452 217.465 72.0121 217.662 72.2267 217.808C72.4443 217.954 72.6992 218.027 72.9913 218.027C73.2804 218.027 73.5457 217.956 73.7872 217.813C74.0286 217.666 74.2224 217.471 74.3684 217.227C74.5145 216.979 74.5875 216.704 74.5875 216.4C74.5875 216.102 74.516 215.83 74.3729 215.586C74.2298 215.338 74.0376 215.142 73.7961 214.996C73.5547 214.85 73.2864 214.777 72.9913 214.777ZM76.0561 218.635V211.928H76.8073V218.635H76.0561ZM79.805 218.752C79.3936 218.752 79.018 218.646 78.6782 218.434C78.3414 218.222 78.0716 217.939 77.8689 217.585C77.6692 217.227 77.5694 216.832 77.5694 216.4C77.5694 216.072 77.6275 215.766 77.7437 215.483C77.86 215.197 78.0195 214.946 78.2222 214.732C78.4278 214.514 78.6663 214.344 78.9376 214.222C79.2088 214.1 79.498 214.039 79.805 214.039C80.1418 214.039 80.4503 214.107 80.7305 214.244C81.0137 214.379 81.2552 214.566 81.4549 214.808C81.6576 215.049 81.8081 215.33 81.9065 215.648C82.0078 215.967 82.0451 216.309 82.0183 216.672H78.3697C78.4055 216.926 78.4889 217.152 78.6201 217.352C78.7513 217.549 78.9182 217.705 79.1209 217.821C79.3266 217.938 79.5546 217.997 79.805 218C80.0733 218 80.3162 217.932 80.5338 217.795C80.7514 217.655 80.9273 217.464 81.0614 217.222L81.826 217.401C81.6471 217.798 81.3774 218.123 81.0167 218.376C80.656 218.626 80.2521 218.752 79.805 218.752ZM78.3474 216.082H81.2626C81.2388 215.832 81.1583 215.604 81.0212 215.398C80.884 215.189 80.7097 215.022 80.498 214.897C80.2864 214.772 80.0554 214.709 79.805 214.709C79.5546 214.709 79.3251 214.771 79.1164 214.893C78.9078 215.015 78.7349 215.18 78.5977 215.389C78.4636 215.595 78.3801 215.826 78.3474 216.082ZM85.0354 214.915H84.0205L84.016 218.635H83.2648L83.2693 214.915H82.5002V214.164H83.2693L83.2648 212.76H84.016L84.0205 214.164H85.0354V214.915ZM87.6908 218.752C87.2795 218.752 86.9039 218.646 86.5641 218.434C86.2272 218.222 85.9575 217.939 85.7548 217.585C85.555 217.227 85.4552 216.832 85.4552 216.4C85.4552 216.072 85.5133 215.766 85.6296 215.483C85.7458 215.197 85.9053 214.946 86.108 214.732C86.3137 214.514 86.5521 214.344 86.8234 214.222C87.0946 214.1 87.3838 214.039 87.6908 214.039C88.0276 214.039 88.3362 214.107 88.6164 214.244C88.8995 214.379 89.141 214.566 89.3407 214.808C89.5434 215.049 89.6939 215.33 89.7923 215.648C89.8936 215.967 89.9309 216.309 89.9041 216.672H86.2555C86.2913 216.926 86.3748 217.152 86.5059 217.352C86.6371 217.549 86.804 217.705 87.0067 217.821C87.2124 217.938 87.4404 217.997 87.6908 218C87.9591 218 88.202 217.932 88.4196 217.795C88.6372 217.655 88.8131 217.464 88.9472 217.222L89.7118 217.401C89.533 217.798 89.2632 218.123 88.9025 218.376C88.5418 218.626 88.1379 218.752 87.6908 218.752ZM86.2332 216.082H89.1484C89.1246 215.832 89.0441 215.604 88.907 215.398C88.7699 215.189 88.5955 215.022 88.3839 214.897C88.1722 214.772 87.9412 214.709 87.6908 214.709C87.4404 214.709 87.2109 214.771 87.0022 214.893C86.7936 215.015 86.6207 215.18 86.4836 215.389C86.3494 215.595 86.266 215.826 86.2332 216.082Z" fill="#0004FF"/>
<path d="M251.777 213.033C251.512 213.03 251.264 213.073 251.035 213.162C250.805 213.252 250.619 213.376 250.476 213.534C250.333 213.692 250.261 213.875 250.261 214.084C250.261 214.334 250.327 214.526 250.458 214.66C250.592 214.791 250.774 214.89 251.004 214.955C251.233 215.021 251.491 215.079 251.777 215.13C252.183 215.198 252.558 215.307 252.904 215.456C253.25 215.602 253.527 215.797 253.736 216.042C253.947 216.286 254.053 216.587 254.053 216.945C254.053 217.279 253.962 217.574 253.78 217.83C253.598 218.087 253.357 218.294 253.056 218.452C252.755 218.607 252.423 218.701 252.059 218.734V219.637H251.509V218.734C251.202 218.71 250.911 218.643 250.637 218.532C250.363 218.422 250.124 218.275 249.922 218.09C249.719 217.902 249.573 217.684 249.483 217.437L250.185 217.173C250.245 217.34 250.355 217.486 250.516 217.611C250.68 217.734 250.873 217.829 251.093 217.897C251.314 217.966 251.542 218 251.777 218C252.045 218 252.294 217.957 252.524 217.871C252.756 217.781 252.944 217.658 253.087 217.5C253.23 217.342 253.302 217.157 253.302 216.945C253.302 216.728 253.227 216.55 253.078 216.413C252.929 216.273 252.739 216.163 252.506 216.082C252.273 215.999 252.031 215.935 251.777 215.89C251.345 215.818 250.957 215.717 250.615 215.586C250.275 215.452 250.005 215.265 249.805 215.027C249.609 214.788 249.51 214.474 249.51 214.084C249.51 213.75 249.601 213.455 249.783 213.198C249.965 212.939 250.206 212.732 250.507 212.577C250.811 212.422 251.145 212.328 251.509 212.295V211.374H252.059V212.295C252.354 212.322 252.637 212.39 252.908 212.501C253.18 212.608 253.418 212.754 253.624 212.939C253.832 213.124 253.984 213.344 254.08 213.601L253.369 213.86C253.309 213.69 253.198 213.544 253.034 213.422C252.873 213.297 252.682 213.201 252.461 213.136C252.244 213.067 252.016 213.033 251.777 213.033ZM257.485 218.635V216.945H254.793V216.185L257.297 212.375H258.236V216.194H258.857V216.945H258.236V218.635H257.485ZM255.674 216.185L257.485 216.194L257.471 213.431L255.674 216.185ZM261.613 218.752C261.235 218.752 260.898 218.667 260.603 218.497C260.311 218.324 260.081 218.094 259.914 217.808C259.747 217.519 259.664 217.198 259.664 216.847H260.415C260.415 217.058 260.464 217.252 260.563 217.428C260.661 217.601 260.8 217.74 260.978 217.844C261.157 217.948 261.369 218 261.613 218C261.825 218 262.022 217.948 262.204 217.844C262.388 217.74 262.537 217.601 262.651 217.428C262.764 217.252 262.821 217.058 262.821 216.847C262.821 216.581 262.752 216.361 262.615 216.185C262.481 216.006 262.293 215.874 262.052 215.787C261.813 215.698 261.54 215.653 261.233 215.653V215.049C261.657 215.049 261.995 214.961 262.248 214.786C262.505 214.61 262.633 214.35 262.633 214.008C262.633 213.826 262.584 213.659 262.485 213.507C262.387 213.355 262.257 213.234 262.096 213.145C261.938 213.052 261.768 213.006 261.587 213.006C261.402 213.006 261.224 213.052 261.054 213.145C260.885 213.234 260.746 213.355 260.639 213.507C260.531 213.659 260.478 213.826 260.478 214.008H259.727C259.727 213.766 259.776 213.54 259.874 213.328C259.975 213.116 260.113 212.93 260.285 212.769C260.461 212.608 260.66 212.483 260.88 212.393C261.101 212.301 261.333 212.255 261.578 212.255C261.897 212.255 262.193 212.334 262.467 212.492C262.742 212.65 262.962 212.861 263.129 213.127C263.299 213.392 263.384 213.686 263.384 214.008C263.384 214.297 263.311 214.563 263.165 214.808C263.019 215.052 262.821 215.224 262.57 215.322C262.788 215.397 262.971 215.513 263.12 215.671C263.269 215.826 263.381 216.005 263.456 216.207C263.533 216.41 263.572 216.623 263.572 216.847C263.572 217.196 263.481 217.514 263.299 217.804C263.12 218.093 262.882 218.324 262.584 218.497C262.289 218.667 261.965 218.752 261.613 218.752ZM268.381 218.752C267.994 218.752 267.642 218.658 267.326 218.47C267.01 218.282 266.76 218.032 266.575 217.719C266.393 217.403 266.302 217.055 266.302 216.677H267.053C267.053 216.918 267.113 217.14 267.232 217.343C267.351 217.543 267.511 217.702 267.71 217.821C267.913 217.941 268.137 218 268.381 218C268.623 218 268.843 217.941 269.043 217.821C269.243 217.702 269.402 217.543 269.521 217.343C269.641 217.14 269.7 216.918 269.7 216.677C269.7 216.435 269.643 216.213 269.53 216.011C269.42 215.808 269.257 215.647 269.043 215.528C268.828 215.406 268.567 215.344 268.26 215.344H266.718L267.326 212.375H270.295V213.127H267.934L267.643 214.593L268.292 214.598C268.718 214.607 269.092 214.702 269.414 214.884C269.739 215.063 269.992 215.307 270.174 215.617C270.359 215.924 270.451 216.277 270.451 216.677C270.451 216.96 270.398 217.228 270.29 217.482C270.183 217.732 270.034 217.953 269.843 218.143C269.652 218.334 269.432 218.483 269.181 218.591C268.934 218.698 268.667 218.752 268.381 218.752ZM271.342 218.635V217.969C271.571 217.763 271.829 217.534 272.115 217.28C272.402 217.024 272.686 216.757 272.969 216.48C273.256 216.2 273.518 215.923 273.756 215.648C273.995 215.374 274.187 215.115 274.333 214.87C274.479 214.623 274.552 214.407 274.552 214.222C274.552 214.002 274.499 213.8 274.391 213.619C274.284 213.434 274.139 213.286 273.958 213.176C273.779 213.066 273.579 213.01 273.358 213.01C273.138 213.01 272.935 213.066 272.75 213.176C272.569 213.286 272.422 213.434 272.312 213.619C272.205 213.8 272.151 214.002 272.151 214.222H271.4C271.4 213.855 271.489 213.525 271.668 213.23C271.847 212.931 272.084 212.696 272.379 212.523C272.674 212.347 273.001 212.259 273.358 212.259C273.716 212.259 274.041 212.347 274.333 212.523C274.628 212.699 274.864 212.936 275.04 213.234C275.216 213.529 275.303 213.858 275.303 214.222C275.303 214.431 275.253 214.656 275.151 214.897C275.05 215.136 274.911 215.382 274.736 215.635C274.56 215.888 274.36 216.145 274.136 216.404C273.913 216.66 273.677 216.914 273.43 217.164C273.183 217.415 272.937 217.655 272.692 217.884H275.384V218.635H271.342ZM278.37 218.752C277.997 218.752 277.663 218.668 277.368 218.501C277.073 218.331 276.82 218.097 276.608 217.799C276.396 217.501 276.235 217.157 276.125 216.766C276.015 216.373 275.96 215.953 275.96 215.505C275.96 215.058 276.015 214.638 276.125 214.244C276.235 213.851 276.396 213.507 276.608 213.212C276.82 212.914 277.073 212.681 277.368 212.514C277.663 212.344 277.997 212.259 278.37 212.259C278.739 212.259 279.072 212.344 279.367 212.514C279.665 212.681 279.917 212.914 280.122 213.212C280.331 213.507 280.49 213.851 280.601 214.244C280.714 214.638 280.771 215.058 280.771 215.505C280.771 215.953 280.714 216.373 280.601 216.766C280.49 217.157 280.331 217.501 280.122 217.799C279.917 218.097 279.665 218.331 279.367 218.501C279.072 218.668 278.739 218.752 278.37 218.752ZM278.37 218C278.742 218 279.054 217.886 279.304 217.656C279.557 217.424 279.747 217.118 279.872 216.739C279.997 216.361 280.06 215.95 280.06 215.505C280.06 215.037 279.994 214.616 279.863 214.24C279.735 213.861 279.544 213.562 279.291 213.341C279.04 213.121 278.733 213.01 278.37 213.01C278.083 213.01 277.833 213.077 277.618 213.212C277.407 213.346 277.231 213.529 277.091 213.762C276.951 213.994 276.845 214.261 276.773 214.562C276.705 214.86 276.67 215.175 276.67 215.505C276.67 215.95 276.735 216.362 276.863 216.744C276.991 217.122 277.18 217.427 277.431 217.656C277.684 217.886 277.997 218 278.37 218ZM281.394 219.136L281.671 217.625H282.422L281.894 219.136H281.394ZM283.552 218.635L286.726 213.127H283.136V212.375H287.594V213.127L284.41 218.635H283.552ZM290.161 218.752C289.773 218.752 289.422 218.658 289.106 218.47C288.79 218.282 288.539 218.032 288.355 217.719C288.173 217.403 288.082 217.055 288.082 216.677H288.833C288.833 216.918 288.893 217.14 289.012 217.343C289.131 217.543 289.291 217.702 289.49 217.821C289.693 217.941 289.917 218 290.161 218C290.402 218 290.623 217.941 290.823 217.821C291.022 217.702 291.182 217.543 291.301 217.343C291.42 217.14 291.48 216.918 291.48 216.677C291.48 216.435 291.423 216.213 291.31 216.011C291.2 215.808 291.037 215.647 290.823 215.528C290.608 215.406 290.347 215.344 290.04 215.344H288.498L289.106 212.375H292.075V213.127H289.714L289.423 214.593L290.072 214.598C290.498 214.607 290.872 214.702 291.194 214.884C291.519 215.063 291.772 215.307 291.954 215.617C292.139 215.924 292.231 216.277 292.231 216.677C292.231 216.96 292.178 217.228 292.07 217.482C291.963 217.732 291.814 217.953 291.623 218.143C291.432 218.334 291.212 218.483 290.961 218.591C290.714 218.698 290.447 218.752 290.161 218.752ZM297.765 214.915H296.75L296.746 218.635H295.994L295.999 214.915H295.23V214.164H295.999L295.994 212.76H296.746L296.75 214.164H297.765V214.915ZM300.42 218.752C300.009 218.752 299.633 218.646 299.294 218.434C298.957 218.222 298.687 217.939 298.484 217.585C298.285 217.227 298.185 216.832 298.185 216.4C298.185 216.072 298.243 215.766 298.359 215.483C298.475 215.197 298.635 214.946 298.838 214.732C299.043 214.514 299.282 214.344 299.553 214.222C299.824 214.1 300.113 214.039 300.42 214.039C300.832 214.039 301.206 214.145 301.543 214.356C301.883 214.568 302.152 214.853 302.352 215.21C302.555 215.568 302.656 215.964 302.656 216.4C302.656 216.725 302.598 217.029 302.482 217.312C302.365 217.595 302.204 217.845 301.999 218.063C301.796 218.278 301.559 218.446 301.288 218.568C301.02 218.69 300.73 218.752 300.42 218.752ZM300.42 218C300.701 218 300.953 217.927 301.176 217.781C301.403 217.632 301.58 217.437 301.708 217.196C301.839 216.951 301.905 216.686 301.905 216.4C301.905 216.108 301.838 215.839 301.704 215.595C301.573 215.35 301.395 215.155 301.172 215.009C300.948 214.863 300.698 214.79 300.42 214.79C300.14 214.79 299.888 214.864 299.665 215.014C299.441 215.16 299.264 215.355 299.133 215.599C299.002 215.844 298.936 216.11 298.936 216.4C298.936 216.698 299.003 216.969 299.137 217.213C299.271 217.455 299.452 217.647 299.678 217.79C299.905 217.93 300.152 218 300.42 218ZM309.558 215.854V218.635H308.807V216.02C308.807 215.793 308.752 215.587 308.641 215.403C308.531 215.218 308.383 215.072 308.199 214.964C308.014 214.854 307.808 214.799 307.582 214.799C307.358 214.799 307.152 214.854 306.965 214.964C306.78 215.072 306.632 215.218 306.522 215.403C306.412 215.587 306.357 215.793 306.357 216.02V218.635H305.605V214.164H306.357V214.723C306.514 214.514 306.714 214.349 306.956 214.227C307.197 214.101 307.459 214.039 307.743 214.039C308.076 214.039 308.38 214.121 308.655 214.285C308.932 214.446 309.151 214.663 309.312 214.938C309.476 215.212 309.558 215.517 309.558 215.854ZM312.332 218.752C311.921 218.752 311.545 218.646 311.205 218.434C310.869 218.222 310.599 217.939 310.396 217.585C310.196 217.227 310.097 216.832 310.097 216.4C310.097 216.072 310.155 215.766 310.271 215.483C310.387 215.197 310.547 214.946 310.749 214.732C310.955 214.514 311.193 214.344 311.465 214.222C311.736 214.1 312.025 214.039 312.332 214.039C312.669 214.039 312.977 214.107 313.258 214.244C313.541 214.379 313.782 214.566 313.982 214.808C314.185 215.049 314.335 215.33 314.434 215.648C314.535 215.967 314.572 216.309 314.545 216.672H310.897C310.933 216.926 311.016 217.152 311.147 217.352C311.278 217.549 311.445 217.705 311.648 217.821C311.854 217.938 312.082 217.997 312.332 218C312.6 218 312.843 217.932 313.061 217.795C313.279 217.655 313.454 217.464 313.589 217.222L314.353 217.401C314.174 217.798 313.905 218.123 313.544 218.376C313.183 218.626 312.779 218.752 312.332 218.752ZM310.875 216.082H313.79C313.766 215.832 313.685 215.604 313.548 215.398C313.411 215.189 313.237 215.022 313.025 214.897C312.814 214.772 312.583 214.709 312.332 214.709C312.082 214.709 311.852 214.771 311.644 214.893C311.435 215.015 311.262 215.18 311.125 215.389C310.991 215.595 310.907 215.826 310.875 216.082ZM314.788 218.635L316.425 216.391L314.797 214.155H315.723L316.89 215.747L318.052 214.155H318.978L317.35 216.391L318.987 218.635H318.061L316.89 217.026L315.714 218.635H314.788ZM322.2 214.915H321.185L321.18 218.635H320.429L320.434 214.915H319.665V214.164H320.434L320.429 212.76H321.18L321.185 214.164H322.2V214.915ZM327.466 214.915H326.451L326.446 218.635H325.695L325.7 214.915H324.931V214.164H325.7L325.695 212.76H326.446L326.451 214.164H327.466V214.915ZM328.224 214.164H328.975V218.635H328.224V214.164ZM328.608 213.435C328.489 213.435 328.389 213.396 328.309 213.319C328.228 213.241 328.188 213.145 328.188 213.028C328.188 212.912 328.228 212.815 328.309 212.738C328.389 212.66 328.487 212.621 328.604 212.621C328.72 212.621 328.818 212.66 328.899 212.738C328.979 212.815 329.019 212.912 329.019 213.028C329.019 213.145 328.979 213.241 328.899 213.319C328.821 213.396 328.724 213.435 328.608 213.435ZM331.955 218.752C331.544 218.752 331.168 218.646 330.828 218.434C330.491 218.222 330.222 217.939 330.019 217.585C329.819 217.227 329.719 216.832 329.719 216.4C329.719 216.072 329.777 215.766 329.894 215.483C330.01 215.197 330.169 214.946 330.372 214.732C330.578 214.514 330.816 214.344 331.088 214.222C331.359 214.1 331.648 214.039 331.955 214.039C332.292 214.039 332.6 214.107 332.881 214.244C333.164 214.379 333.405 214.566 333.605 214.808C333.808 215.049 333.958 215.33 334.056 215.648C334.158 215.967 334.195 216.309 334.168 216.672H330.52C330.555 216.926 330.639 217.152 330.77 217.352C330.901 217.549 331.068 217.705 331.271 217.821C331.477 217.938 331.705 217.997 331.955 218C332.223 218 332.466 217.932 332.684 217.795C332.901 217.655 333.077 217.464 333.211 217.222L333.976 217.401C333.797 217.798 333.527 218.123 333.167 218.376C332.806 218.626 332.402 218.752 331.955 218.752ZM330.497 216.082H333.413C333.389 215.832 333.308 215.604 333.171 215.398C333.034 215.189 332.86 215.022 332.648 214.897C332.436 214.772 332.205 214.709 331.955 214.709C331.705 214.709 331.475 214.771 331.266 214.893C331.058 215.015 330.885 215.18 330.748 215.389C330.614 215.595 330.53 215.826 330.497 216.082ZM334.922 218.635V214.164H335.673V214.723C335.831 214.514 336.031 214.349 336.272 214.227C336.514 214.101 336.776 214.039 337.059 214.039C337.232 214.039 337.399 214.061 337.56 214.106L337.256 214.857C337.134 214.818 337.014 214.799 336.898 214.799C336.674 214.799 336.469 214.854 336.281 214.964C336.096 215.072 335.949 215.218 335.838 215.403C335.728 215.587 335.673 215.793 335.673 216.02V218.635H334.922Z" fill="#676768"/>
<circle cx="329.871" cy="34.6747" r="13.4138" fill="#F4F6FA" stroke="#E9ECF2" stroke-width="0.687885"/>
<path d="M329.871 40.8658C326.452 40.8658 323.68 38.0941 323.68 34.6749C323.68 31.2556 326.452 28.4839 329.871 28.4839C333.29 28.4839 336.062 31.2556 336.062 34.6749C336.062 38.0941 333.29 40.8658 329.871 40.8658ZM327.704 35.913V37.1512H329.252V38.3894H330.49V37.1512H331.109C331.52 37.1512 331.913 36.9882 332.204 36.6979C332.494 36.4077 332.657 36.014 332.657 35.6035C332.657 35.193 332.494 34.7993 332.204 34.5091C331.913 34.2188 331.52 34.0558 331.109 34.0558H328.633C328.551 34.0558 328.472 34.0231 328.414 33.9651C328.356 33.907 328.323 33.8283 328.323 33.7462C328.323 33.6641 328.356 33.5854 328.414 33.5273C328.472 33.4693 328.551 33.4367 328.633 33.4367H332.038V32.1985H330.49V30.9603H329.252V32.1985H328.633C328.222 32.1985 327.829 32.3615 327.539 32.6518C327.248 32.942 327.085 33.3357 327.085 33.7462C327.085 34.1567 327.248 34.5504 327.539 34.8406C327.829 35.1309 328.222 35.2939 328.633 35.2939H331.109C331.191 35.2939 331.27 35.3266 331.328 35.3846C331.386 35.4427 331.419 35.5214 331.419 35.6035C331.419 35.6856 331.386 35.7643 331.328 35.8224C331.27 35.8804 331.191 35.913 331.109 35.913H327.704Z" fill="#676768"/>
</g>
<defs>
<filter id="filter0_d_2058_34001" x="-1.33514e-05" y="2.0504e-05" width="368.767" height="253.168" filterUnits="userSpaceOnUse" color-interpolation-filters="sRGB">
<feFlood flood-opacity="0" result="BackgroundImageFix"/>
<feColorMatrix in="SourceAlpha" type="matrix" values="0 0 0 0 0 0 0 0 0 0 0 0 0 0 0 0 0 0 127 0" result="hardAlpha"/>
<feOffset dy="4.22086"/>
<feGaussianBlur stdDeviation="8.44172"/>
<feComposite in2="hardAlpha" operator="out"/>
<feColorMatrix type="matrix" values="0 0 0 0 0.185888 0 0 0 0 0.185888 0 0 0 0 0.396154 0 0 0 0.15 0"/>
<feBlend mode="normal" in2="BackgroundImageFix" result="effect1_dropShadow_2058_34001"/>
<feBlend mode="normal" in="SourceGraphic" in2="effect1_dropShadow_2058_34001" result="shape"/>
</filter>
</defs>
</svg>
