<svg width="318" height="229" viewBox="0 0 318 229" fill="none" xmlns="http://www.w3.org/2000/svg">
<g filter="url(#filter0_d_2056_31981)">
<rect x="30" y="26" width="258" height="168.795" rx="7.47826" fill="white"/>
<rect x="30.5" y="26.5" width="257" height="167.795" rx="6.97826" stroke="#E9ECF2"/>
<circle cx="53.5031" cy="49.5031" r="12.6164" fill="#F4F6FA" stroke="#E9ECF2" stroke-width="0.40698"/>
<path d="M59.7206 51.0537C58.8645 54.4876 55.3865 56.5775 51.9522 55.7211C48.5192 54.865 46.4294 51.3868 47.2859 47.9531C48.1417 44.5187 51.6196 42.4287 55.053 43.2848C58.4871 44.141 60.5767 47.6196 59.7206 51.0537Z" fill="#F7931A"/>
<path d="M56.3293 48.5898C56.4569 47.7369 55.8075 47.2784 54.9195 46.9725L55.2076 45.8171L54.5043 45.6418L54.2238 46.7668C54.0389 46.7207 53.8491 46.6772 53.6604 46.6342L53.9428 45.5018L53.2399 45.3265L52.9517 46.4815C52.7986 46.4467 52.6484 46.4122 52.5026 46.376L52.5034 46.3724L51.5335 46.1302L51.3464 46.8814C51.3464 46.8814 51.8682 47.0009 51.8572 47.0083C52.142 47.0795 52.1935 47.268 52.1849 47.4174L51.8568 48.7336C51.8764 48.7386 51.9018 48.7458 51.9299 48.7571C51.9064 48.7513 51.8814 48.7448 51.8556 48.7386L51.3956 50.5825C51.3608 50.669 51.2725 50.7988 51.0733 50.7496C51.0804 50.7598 50.5622 50.622 50.5622 50.622L50.213 51.427L51.1282 51.6552C51.2985 51.6978 51.4654 51.7425 51.6296 51.7846L51.3386 52.9532L52.041 53.1284L52.3293 51.9723C52.5212 52.0243 52.7075 52.0724 52.8898 52.1177L52.6025 53.2685L53.3058 53.4437L53.5969 52.2773C54.7961 52.5043 55.6979 52.4127 56.0775 51.3281C56.3834 50.4547 56.0623 49.9509 55.4313 49.6224C55.8908 49.5164 56.237 49.2142 56.3293 48.5898ZM54.7224 50.8431C54.5051 51.7165 53.0346 51.2443 52.5579 51.1259L52.9441 49.5777C53.4208 49.6967 54.9496 49.9323 54.7224 50.8431ZM54.9399 48.5772C54.7416 49.3716 53.5177 48.968 53.1207 48.869L53.4709 47.4649C53.8679 47.5638 55.1465 47.7485 54.9399 48.5772Z" fill="white"/>
<path d="M72.3055 53.0031L73.7531 45.5248H74.4422L76.4613 50.8344L78.4751 45.5248H79.1642L80.6171 53.0031H79.7037L78.6514 47.576L76.7551 52.5971H76.1622L74.2659 47.576L73.219 53.0031H72.3055ZM85.7289 47.6614H86.6263V53.0031H85.7289L85.6915 52.1003C85.5242 52.4101 85.2927 52.6612 84.9971 52.8535C84.7051 53.0458 84.3561 53.1419 83.9502 53.1419C83.5585 53.1419 83.1917 53.0689 82.8498 52.9229C82.5079 52.7734 82.2053 52.5686 81.9417 52.3086C81.6818 52.0451 81.4788 51.7424 81.3328 51.4006C81.1868 51.0587 81.1138 50.6901 81.1138 50.2949C81.1138 49.9138 81.185 49.5541 81.3274 49.2158C81.4699 48.8775 81.6675 48.582 81.9204 48.3291C82.1768 48.0727 82.4723 47.8733 82.8071 47.7309C83.1418 47.5849 83.5015 47.5119 83.8861 47.5119C84.3063 47.5119 84.6749 47.6116 84.9918 47.811C85.3087 48.0069 85.5651 48.2615 85.761 48.5749L85.7289 47.6614ZM83.9342 52.2713C84.2867 52.2713 84.5912 52.1858 84.8476 52.0149C85.1075 51.8404 85.307 51.6053 85.4458 51.3098C85.5883 51.0142 85.6595 50.6884 85.6595 50.3322C85.6595 49.969 85.5883 49.6414 85.4458 49.3494C85.3034 49.0538 85.1022 48.8206 84.8422 48.6496C84.5858 48.4751 84.2831 48.3879 83.9342 48.3879C83.5816 48.3879 83.2611 48.4751 82.9727 48.6496C82.6842 48.8241 82.4545 49.0592 82.2836 49.3547C82.1162 49.6467 82.0325 49.9726 82.0325 50.3322C82.0325 50.6919 82.1198 51.0195 82.2943 51.3151C82.4688 51.6071 82.7002 51.8404 82.9887 52.0149C83.2771 52.1858 83.5923 52.2713 83.9342 52.2713ZM87.694 47.6614H88.5914V53.0031H87.694V47.6614ZM88.1534 46.7908C88.0109 46.7908 87.8916 46.7445 87.7955 46.6519C87.6993 46.5593 87.6513 46.4435 87.6513 46.3047C87.6513 46.1658 87.6993 46.05 87.7955 45.9575C87.8916 45.8649 88.0091 45.8186 88.148 45.8186C88.2869 45.8186 88.4044 45.8649 88.5006 45.9575C88.5967 46.05 88.6448 46.1658 88.6448 46.3047C88.6448 46.4435 88.5967 46.5593 88.5006 46.6519C88.408 46.7445 88.2922 46.7908 88.1534 46.7908ZM94.5651 49.6806V53.0031H93.6677V49.8782C93.6677 49.6076 93.6019 49.3619 93.4701 49.1411C93.3383 48.9203 93.1621 48.7458 92.9413 48.6176C92.7205 48.4858 92.4748 48.4199 92.2041 48.4199C91.9371 48.4199 91.6914 48.4858 91.467 48.6176C91.2462 48.7458 91.0699 48.9203 90.9382 49.1411C90.8064 49.3619 90.7405 49.6076 90.7405 49.8782V53.0031H89.8432V47.6614H90.7405V48.3291C90.9293 48.0799 91.1679 47.8822 91.4563 47.7362C91.7448 47.5867 92.0581 47.5119 92.3964 47.5119C92.7953 47.5119 93.1585 47.6098 93.4861 47.8057C93.8173 47.998 94.0791 48.2579 94.2714 48.5855C94.4672 48.9132 94.5651 49.2782 94.5651 49.6806ZM98.1999 53.0031V45.5248H100.78C101.15 45.5248 101.487 45.6014 101.789 45.7545C102.096 45.904 102.338 46.1231 102.516 46.4115C102.694 46.6999 102.783 47.0454 102.783 47.4478C102.783 47.665 102.746 47.8751 102.671 48.0781C102.6 48.2775 102.5 48.4502 102.372 48.5962C102.247 48.7387 102.105 48.8348 101.944 48.8847C102.169 48.9416 102.359 49.0431 102.516 49.1891C102.673 49.3316 102.799 49.499 102.895 49.6913C102.995 49.8835 103.066 50.0847 103.109 50.2949C103.152 50.505 103.173 50.7079 103.173 50.9038C103.173 51.3169 103.079 51.6819 102.89 51.9988C102.705 52.3122 102.455 52.5579 102.142 52.736C101.829 52.914 101.483 53.0031 101.106 53.0031H98.1999ZM99.0972 52.2125H101.026C101.271 52.2125 101.494 52.1502 101.693 52.0255C101.896 51.8973 102.058 51.7228 102.179 51.5021C102.3 51.2813 102.361 51.032 102.361 50.7542C102.361 50.5085 102.3 50.277 102.179 50.0598C102.058 49.839 101.896 49.661 101.693 49.5257C101.494 49.3903 101.271 49.3227 101.026 49.3227H99.0972V52.2125ZM99.0972 48.5481H100.694C101.022 48.5481 101.302 48.452 101.533 48.2597C101.768 48.0638 101.886 47.7914 101.886 47.4424C101.886 47.065 101.768 46.7836 101.533 46.5985C101.302 46.4097 101.022 46.3153 100.694 46.3153H99.0972V48.5481ZM104.24 47.6614H105.138V53.0031H104.24V47.6614ZM104.7 46.7908C104.557 46.7908 104.438 46.7445 104.342 46.6519C104.246 46.5593 104.198 46.4435 104.198 46.3047C104.198 46.1658 104.246 46.05 104.342 45.9575C104.438 45.8649 104.556 45.8186 104.695 45.8186C104.833 45.8186 104.951 45.8649 105.047 45.9575C105.143 46.05 105.191 46.1658 105.191 46.3047C105.191 46.4435 105.143 46.5593 105.047 46.6519C104.954 46.7445 104.839 46.7908 104.7 46.7908ZM109.188 48.5588H107.975L107.97 53.0031H107.073L107.078 48.5588H106.159V47.6614H107.078L107.073 45.9842H107.97L107.975 47.6614H109.188V48.5588ZM113.69 51.5929L114.491 52.0255C114.249 52.3638 113.941 52.6345 113.567 52.8375C113.197 53.0404 112.795 53.1419 112.36 53.1419C111.869 53.1419 111.42 53.0155 111.014 52.7627C110.612 52.5098 110.289 52.1715 110.047 51.7478C109.809 51.3204 109.689 50.8486 109.689 50.3322C109.689 49.9405 109.759 49.5755 109.898 49.2372C110.037 48.8953 110.227 48.5962 110.469 48.3398C110.715 48.0799 111 47.8769 111.324 47.7309C111.648 47.5849 111.993 47.5119 112.36 47.5119C112.795 47.5119 113.197 47.6134 113.567 47.8163C113.941 48.0193 114.249 48.2917 114.491 48.6336L113.69 49.0663C113.519 48.8562 113.316 48.6941 113.081 48.5802C112.846 48.4662 112.606 48.4093 112.36 48.4093C112.029 48.4093 111.728 48.4983 111.457 48.6763C111.19 48.8508 110.978 49.0841 110.822 49.3761C110.665 49.6681 110.587 49.9868 110.587 50.3322C110.587 50.6777 110.665 50.9964 110.822 51.2884C110.982 51.5768 111.196 51.8083 111.463 51.9828C111.733 52.1573 112.033 52.2445 112.36 52.2445C112.624 52.2445 112.871 52.184 113.103 52.0629C113.334 51.9419 113.53 51.7852 113.69 51.5929ZM117.712 53.1419C117.221 53.1419 116.772 53.0155 116.366 52.7627C115.964 52.5098 115.641 52.1715 115.399 51.7478C115.161 51.3204 115.041 50.8486 115.041 50.3322C115.041 49.9405 115.111 49.5755 115.25 49.2372C115.389 48.8953 115.579 48.5962 115.821 48.3398C116.067 48.0799 116.352 47.8769 116.676 47.7309C117 47.5849 117.345 47.5119 117.712 47.5119C118.204 47.5119 118.651 47.6383 119.053 47.8911C119.459 48.144 119.781 48.484 120.02 48.9114C120.262 49.3387 120.383 49.8123 120.383 50.3322C120.383 50.7204 120.314 51.0836 120.175 51.4219C120.036 51.7602 119.843 52.0594 119.598 52.3193C119.356 52.5757 119.073 52.7769 118.748 52.9229C118.428 53.0689 118.083 53.1419 117.712 53.1419ZM117.712 52.2445C118.047 52.2445 118.348 52.1573 118.615 51.9828C118.886 51.8047 119.097 51.5715 119.251 51.2831C119.407 50.991 119.486 50.6741 119.486 50.3322C119.486 49.9833 119.405 49.6628 119.245 49.3708C119.089 49.0787 118.877 48.8455 118.61 48.671C118.343 48.4965 118.043 48.4093 117.712 48.4093C117.377 48.4093 117.077 48.4983 116.809 48.6763C116.542 48.8508 116.33 49.0841 116.174 49.3761C116.017 49.6681 115.939 49.9868 115.939 50.3322C115.939 50.6884 116.019 51.0124 116.179 51.3044C116.339 51.5929 116.555 51.8226 116.825 51.9935C117.096 52.1609 117.392 52.2445 117.712 52.2445ZM121.194 47.6614H122.091V53.0031H121.194V47.6614ZM121.653 46.7908C121.511 46.7908 121.391 46.7445 121.295 46.6519C121.199 46.5593 121.151 46.4435 121.151 46.3047C121.151 46.1658 121.199 46.05 121.295 45.9575C121.391 45.8649 121.509 45.8186 121.648 45.8186C121.787 45.8186 121.904 45.8649 122 45.9575C122.097 46.05 122.145 46.1658 122.145 46.3047C122.145 46.4435 122.097 46.5593 122 46.6519C121.908 46.7445 121.792 46.7908 121.653 46.7908ZM128.065 49.6806V53.0031H127.168V49.8782C127.168 49.6076 127.102 49.3619 126.97 49.1411C126.838 48.9203 126.662 48.7458 126.441 48.6176C126.22 48.4858 125.975 48.4199 125.704 48.4199C125.437 48.4199 125.191 48.4858 124.967 48.6176C124.746 48.7458 124.57 48.9203 124.438 49.1411C124.306 49.3619 124.24 49.6076 124.24 49.8782V53.0031H123.343V47.6614H124.24V48.3291C124.429 48.0799 124.668 47.8822 124.956 47.7362C125.245 47.5867 125.558 47.5119 125.896 47.5119C126.295 47.5119 126.658 47.6098 126.986 47.8057C127.317 47.998 127.579 48.2579 127.771 48.5855C127.967 48.9132 128.065 49.2782 128.065 49.6806ZM134.077 53.0031H133.169L131.379 47.6614H132.255L133.633 51.7371L134.995 47.6614H135.92L137.287 51.7371L138.649 47.6614H139.536L137.746 53.0031H136.833L135.45 48.89L134.077 53.0031ZM144.487 47.6614H145.384V53.0031H144.487L144.449 52.1003C144.282 52.4101 144.05 52.6612 143.755 52.8535C143.463 53.0458 143.114 53.1419 142.708 53.1419C142.316 53.1419 141.949 53.0689 141.608 52.9229C141.266 52.7734 140.963 52.5686 140.7 52.3086C140.44 52.0451 140.237 51.7424 140.091 51.4006C139.945 51.0587 139.872 50.6901 139.872 50.2949C139.872 49.9138 139.943 49.5541 140.085 49.2158C140.228 48.8775 140.425 48.582 140.678 48.3291C140.935 48.0727 141.23 47.8733 141.565 47.7309C141.9 47.5849 142.259 47.5119 142.644 47.5119C143.064 47.5119 143.433 47.6116 143.75 47.811C144.067 48.0069 144.323 48.2615 144.519 48.5749L144.487 47.6614ZM142.692 52.2713C143.044 52.2713 143.349 52.1858 143.605 52.0149C143.865 51.8404 144.065 51.6053 144.204 51.3098C144.346 51.0142 144.417 50.6884 144.417 50.3322C144.417 49.969 144.346 49.6414 144.204 49.3494C144.061 49.0538 143.86 48.8206 143.6 48.6496C143.344 48.4751 143.041 48.3879 142.692 48.3879C142.339 48.3879 142.019 48.4751 141.73 48.6496C141.442 48.8241 141.212 49.0592 141.041 49.3547C140.874 49.6467 140.79 49.9726 140.79 50.3322C140.79 50.6919 140.878 51.0195 141.052 51.3151C141.227 51.6071 141.458 51.8404 141.746 52.0149C142.035 52.1858 142.35 52.2713 142.692 52.2713ZM146.514 53.0031V44.9906H147.412V53.0031H146.514ZM148.695 53.0031V44.9906H149.592V53.0031H148.695ZM153.173 53.1419C152.682 53.1419 152.233 53.0155 151.827 52.7627C151.425 52.5098 151.103 52.1715 150.861 51.7478C150.622 51.3204 150.503 50.8486 150.503 50.3322C150.503 49.9405 150.572 49.5755 150.711 49.2372C150.85 48.8953 151.04 48.5962 151.282 48.3398C151.528 48.0799 151.813 47.8769 152.137 47.7309C152.461 47.5849 152.807 47.5119 153.173 47.5119C153.576 47.5119 153.944 47.5938 154.279 47.7576C154.617 47.9178 154.906 48.1422 155.144 48.4306C155.387 48.7191 155.566 49.0538 155.684 49.4349C155.805 49.8159 155.85 50.2236 155.818 50.6581H151.459C151.502 50.9608 151.601 51.2314 151.758 51.47C151.915 51.705 152.114 51.892 152.356 52.0309C152.602 52.1698 152.874 52.241 153.173 52.2445C153.494 52.2445 153.784 52.1626 154.044 51.9988C154.304 51.8315 154.514 51.6035 154.674 51.3151L155.588 51.5288C155.374 52.0024 155.052 52.3905 154.621 52.6932C154.19 52.9924 153.708 53.1419 153.173 53.1419ZM151.432 49.953H154.915C154.886 49.6539 154.79 49.3814 154.626 49.1357C154.463 48.8864 154.254 48.687 154.001 48.5375C153.749 48.3879 153.473 48.3131 153.173 48.3131C152.874 48.3131 152.6 48.3861 152.351 48.5321C152.102 48.6781 151.895 48.8758 151.731 49.125C151.571 49.3708 151.471 49.6467 151.432 49.953ZM159.422 48.5588H158.209L158.204 53.0031H157.307L157.312 48.5588H156.393V47.6614H157.312L157.307 45.9842H158.204L158.209 47.6614H159.422V48.5588Z" fill="#242428"/>
<rect x="40.9503" y="163.012" width="100.789" height="20.8323" rx="2.93789" fill="white"/>
<rect x="40.9503" y="163.012" width="100.789" height="20.8323" rx="2.93789" stroke="#0004FF" stroke-width="0.534162"/>
<path d="M55.7626 176.429L53.7275 170.82H54.4406L56.1793 175.607L57.922 170.82H58.6311L56.5959 176.429H55.7626ZM59.0464 172.422H59.7194V176.429H59.0464V172.422ZM59.3909 171.769C59.2841 171.769 59.1946 171.735 59.1225 171.665C59.0504 171.596 59.0143 171.509 59.0143 171.405C59.0143 171.301 59.0504 171.214 59.1225 171.144C59.1946 171.075 59.2828 171.04 59.3869 171.04C59.4911 171.04 59.5792 171.075 59.6513 171.144C59.7234 171.214 59.7595 171.301 59.7595 171.405C59.7595 171.509 59.7234 171.596 59.6513 171.665C59.5819 171.735 59.4951 171.769 59.3909 171.769ZM62.3897 176.533C62.0211 176.533 61.6846 176.438 61.3801 176.248C61.0783 176.059 60.8366 175.805 60.655 175.487C60.4761 175.167 60.3866 174.813 60.3866 174.425C60.3866 174.132 60.4387 173.858 60.5428 173.604C60.647 173.348 60.7899 173.123 60.9715 172.931C61.1558 172.736 61.3695 172.584 61.6125 172.474C61.8555 172.365 62.1146 172.31 62.3897 172.31C62.6915 172.31 62.9679 172.372 63.219 172.494C63.4727 172.615 63.6891 172.783 63.868 172.999C64.0496 173.216 64.1845 173.467 64.2726 173.752C64.3634 174.038 64.3968 174.344 64.3728 174.67H61.1037C61.1358 174.897 61.2105 175.1 61.3281 175.279C61.4456 175.455 61.5951 175.595 61.7768 175.699C61.961 175.804 62.1654 175.857 62.3897 175.86C62.6301 175.86 62.8477 175.798 63.0427 175.675C63.2377 175.55 63.3953 175.379 63.5154 175.163L64.2005 175.323C64.0403 175.678 63.7986 175.969 63.4754 176.196C63.1522 176.421 62.7903 176.533 62.3897 176.533ZM61.0837 174.141H63.6957C63.6744 173.917 63.6022 173.712 63.4794 173.528C63.3565 173.341 63.2003 173.192 63.0107 173.079C62.821 172.967 62.6141 172.911 62.3897 172.911C62.1654 172.911 61.9597 172.966 61.7727 173.075C61.5858 173.185 61.4309 173.333 61.308 173.52C61.1878 173.704 61.1131 173.911 61.0837 174.141ZM66.6585 176.429H65.9775L64.6354 172.422H65.2924L66.326 175.479L67.3476 172.422H68.0407L69.0662 175.479L70.0878 172.422H70.7529L69.4108 176.429H68.7257L67.6881 173.344L66.6585 176.429ZM77.6393 170.82V171.493H75.7725V176.429H75.0994V171.493H73.2365V170.82H77.6393ZM77.802 176.429V172.422H78.4751V172.923C78.6166 172.736 78.7956 172.588 79.0119 172.478C79.2282 172.366 79.4633 172.31 79.717 172.31C79.8719 172.31 80.0215 172.33 80.1657 172.37L79.8933 173.043C79.7838 173.009 79.6769 172.991 79.5728 172.991C79.3725 172.991 79.1882 173.041 79.0199 173.139C78.8543 173.236 78.7221 173.367 78.6233 173.532C78.5245 173.698 78.4751 173.882 78.4751 174.085V176.429H77.802ZM83.6756 172.422H84.3486V176.429H83.6756L83.6475 175.752C83.522 175.984 83.3484 176.172 83.1267 176.316C82.9077 176.461 82.646 176.533 82.3415 176.533C82.0477 176.533 81.7726 176.478 81.5162 176.368C81.2598 176.256 81.0328 176.103 80.8352 175.908C80.6402 175.71 80.488 175.483 80.3785 175.227C80.269 174.97 80.2142 174.694 80.2142 174.397C80.2142 174.112 80.2676 173.842 80.3745 173.588C80.4813 173.334 80.6295 173.113 80.8192 172.923C81.0114 172.731 81.2331 172.581 81.4842 172.474C81.7352 172.365 82.005 172.31 82.2934 172.31C82.6086 172.31 82.885 172.385 83.1227 172.535C83.3604 172.681 83.5527 172.872 83.6996 173.107L83.6756 172.422ZM82.3295 175.88C82.5939 175.88 82.8223 175.816 83.0146 175.687C83.2095 175.557 83.3591 175.38 83.4633 175.159C83.5701 174.937 83.6235 174.693 83.6235 174.425C83.6235 174.153 83.5701 173.907 83.4633 173.688C83.3564 173.467 83.2055 173.292 83.0105 173.164C82.8183 173.033 82.5912 172.967 82.3295 172.967C82.0651 172.967 81.8247 173.033 81.6084 173.164C81.392 173.294 81.2198 173.471 81.0916 173.692C80.966 173.911 80.9033 174.156 80.9033 174.425C80.9033 174.695 80.9687 174.941 81.0996 175.163C81.2305 175.382 81.4041 175.557 81.6204 175.687C81.8367 175.816 82.0731 175.88 82.3295 175.88ZM88.6909 173.937V176.429H88.0178V174.085C88.0178 173.882 87.9684 173.698 87.8696 173.532C87.7708 173.367 87.6386 173.236 87.473 173.139C87.3074 173.041 87.1231 172.991 86.9201 172.991C86.7198 172.991 86.5355 173.041 86.3673 173.139C86.2017 173.236 86.0695 173.367 85.9706 173.532C85.8718 173.698 85.8224 173.882 85.8224 174.085V176.429H85.1494V172.422H85.8224V172.923C85.964 172.736 86.1429 172.588 86.3592 172.478C86.5756 172.366 86.8106 172.31 87.0643 172.31C87.3635 172.31 87.6359 172.384 87.8816 172.531C88.13 172.675 88.3263 172.87 88.4705 173.115C88.6174 173.361 88.6909 173.635 88.6909 173.937ZM90.7139 176.505C90.4976 176.497 90.2866 176.457 90.0809 176.385C89.878 176.31 89.699 176.21 89.5441 176.084C89.3919 175.956 89.281 175.809 89.2116 175.643L89.7885 175.395C89.8286 175.486 89.9007 175.571 90.0048 175.651C90.109 175.732 90.2292 175.796 90.3654 175.844C90.5016 175.892 90.6391 175.916 90.778 175.916C90.9249 175.916 91.0625 175.893 91.1907 175.848C91.3189 175.802 91.423 175.736 91.5032 175.647C91.586 175.557 91.6273 175.448 91.6273 175.323C91.6273 175.189 91.5819 175.085 91.4911 175.01C91.403 174.933 91.2908 174.873 91.1546 174.83C91.0211 174.785 90.8849 174.742 90.746 174.702C90.4709 174.632 90.2252 174.55 90.0088 174.454C89.7925 174.355 89.6216 174.231 89.496 174.081C89.3732 173.929 89.3118 173.735 89.3118 173.5C89.3118 173.252 89.3799 173.037 89.5161 172.855C89.655 172.673 89.8366 172.533 90.0609 172.434C90.2853 172.336 90.5256 172.286 90.782 172.286C91.1052 172.286 91.4003 172.356 91.6674 172.494C91.9345 172.633 92.1335 172.822 92.2643 173.059L91.7235 173.376C91.6781 173.28 91.6087 173.196 91.5152 173.123C91.4217 173.049 91.3149 172.99 91.1947 172.947C91.0745 172.904 90.9516 172.882 90.8261 172.879C90.6712 172.874 90.5256 172.894 90.3894 172.939C90.2559 172.985 90.1477 173.054 90.0649 173.148C89.9848 173.238 89.9447 173.352 89.9447 173.488C89.9447 173.622 89.9875 173.723 90.0729 173.793C90.1611 173.862 90.2746 173.918 90.4135 173.961C90.555 174.001 90.7086 174.048 90.8742 174.101C91.1172 174.178 91.3442 174.268 91.5552 174.369C91.7662 174.471 91.9358 174.598 92.064 174.75C92.1949 174.902 92.259 175.091 92.2563 175.315C92.2563 175.561 92.1829 175.776 92.036 175.96C91.8891 176.141 91.6981 176.28 91.4631 176.377C91.2307 176.473 90.981 176.515 90.7139 176.505ZM96.1246 172.422H96.7976V176.429H96.1246L96.0965 175.752C95.971 175.984 95.7974 176.172 95.5757 176.316C95.3567 176.461 95.095 176.533 94.7905 176.533C94.4967 176.533 94.2216 176.478 93.9652 176.368C93.7088 176.256 93.4818 176.103 93.2842 175.908C93.0892 175.71 92.937 175.483 92.8275 175.227C92.718 174.97 92.6632 174.694 92.6632 174.397C92.6632 174.112 92.7166 173.842 92.8234 173.588C92.9303 173.334 93.0785 173.113 93.2681 172.923C93.4604 172.731 93.6821 172.581 93.9332 172.474C94.1842 172.365 94.454 172.31 94.7424 172.31C95.0576 172.31 95.334 172.385 95.5717 172.535C95.8094 172.681 96.0017 172.872 96.1486 173.107L96.1246 172.422ZM94.7785 175.88C95.0429 175.88 95.2712 175.816 95.4635 175.687C95.6585 175.557 95.8081 175.38 95.9122 175.159C96.0191 174.937 96.0725 174.693 96.0725 174.425C96.0725 174.153 96.0191 173.907 95.9122 173.688C95.8054 173.467 95.6545 173.292 95.4595 173.164C95.2672 173.033 95.0402 172.967 94.7785 172.967C94.5141 172.967 94.2737 173.033 94.0574 173.164C93.841 173.294 93.6688 173.471 93.5406 173.692C93.415 173.911 93.3523 174.156 93.3523 174.425C93.3523 174.695 93.4177 174.941 93.5486 175.163C93.6794 175.382 93.853 175.557 94.0694 175.687C94.2857 175.816 94.5221 175.88 94.7785 175.88ZM100.28 175.371L100.881 175.695C100.7 175.949 100.469 176.152 100.188 176.304C99.9105 176.457 99.6087 176.533 99.2828 176.533C98.9143 176.533 98.5777 176.438 98.2733 176.248C97.9715 176.059 97.7298 175.805 97.5482 175.487C97.3692 175.167 97.2797 174.813 97.2797 174.425C97.2797 174.132 97.3318 173.858 97.436 173.604C97.5401 173.348 97.683 173.123 97.8646 172.931C98.0489 172.736 98.2626 172.584 98.5056 172.474C98.7487 172.365 99.0077 172.31 99.2828 172.31C99.6087 172.31 99.9105 172.386 100.188 172.539C100.469 172.691 100.7 172.895 100.881 173.152L100.28 173.476C100.152 173.318 100 173.197 99.8237 173.111C99.6474 173.026 99.4671 172.983 99.2828 172.983C99.0345 172.983 98.8088 173.05 98.6058 173.184C98.4055 173.314 98.2466 173.489 98.1291 173.708C98.0115 173.927 97.9528 174.166 97.9528 174.425C97.9528 174.685 98.0115 174.924 98.1291 175.143C98.2492 175.359 98.4095 175.533 98.6098 175.663C98.8128 175.794 99.0371 175.86 99.2828 175.86C99.4805 175.86 99.6661 175.814 99.8397 175.723C100.013 175.633 100.16 175.515 100.28 175.371ZM103.68 173.095H102.77L102.766 176.429H102.093L102.097 173.095H101.408V172.422H102.097L102.093 171.164H102.766L102.77 172.422H103.68V173.095ZM104.359 172.422H105.032V176.429H104.359V172.422ZM104.703 171.769C104.597 171.769 104.507 171.735 104.435 171.665C104.363 171.596 104.327 171.509 104.327 171.405C104.327 171.301 104.363 171.214 104.435 171.144C104.507 171.075 104.595 171.04 104.699 171.04C104.804 171.04 104.892 171.075 104.964 171.144C105.036 171.214 105.072 171.301 105.072 171.405C105.072 171.509 105.036 171.596 104.964 171.665C104.894 171.735 104.808 171.769 104.703 171.769ZM107.702 176.533C107.334 176.533 106.997 176.438 106.693 176.248C106.391 176.059 106.149 175.805 105.967 175.487C105.789 175.167 105.699 174.813 105.699 174.425C105.699 174.132 105.751 173.858 105.855 173.604C105.959 173.348 106.102 173.123 106.284 172.931C106.468 172.736 106.682 172.584 106.925 172.474C107.168 172.365 107.427 172.31 107.702 172.31C108.071 172.31 108.406 172.405 108.708 172.595C109.012 172.784 109.254 173.039 109.433 173.36C109.614 173.68 109.705 174.036 109.705 174.425C109.705 174.717 109.653 174.989 109.549 175.243C109.445 175.496 109.301 175.721 109.116 175.916C108.935 176.108 108.722 176.259 108.479 176.368C108.239 176.478 107.98 176.533 107.702 176.533ZM107.702 175.86C107.953 175.86 108.179 175.794 108.379 175.663C108.582 175.53 108.741 175.355 108.856 175.139C108.973 174.92 109.032 174.682 109.032 174.425C109.032 174.164 108.972 173.923 108.852 173.704C108.734 173.485 108.575 173.31 108.375 173.18C108.175 173.049 107.951 172.983 107.702 172.983C107.451 172.983 107.225 173.05 107.025 173.184C106.825 173.314 106.666 173.489 106.548 173.708C106.431 173.927 106.372 174.166 106.372 174.425C106.372 174.693 106.432 174.936 106.552 175.155C106.673 175.371 106.834 175.543 107.037 175.671C107.24 175.797 107.462 175.86 107.702 175.86ZM113.91 173.937V176.429H113.237V174.085C113.237 173.882 113.187 173.698 113.088 173.532C112.99 173.367 112.857 173.236 112.692 173.139C112.526 173.041 112.342 172.991 112.139 172.991C111.939 172.991 111.754 173.041 111.586 173.139C111.42 173.236 111.288 173.367 111.189 173.532C111.091 173.698 111.041 173.882 111.041 174.085V176.429H110.368V172.422H111.041V172.923C111.183 172.736 111.362 172.588 111.578 172.478C111.794 172.366 112.029 172.31 112.283 172.31C112.582 172.31 112.855 172.384 113.1 172.531C113.349 172.675 113.545 172.87 113.689 173.115C113.836 173.361 113.91 173.635 113.91 173.937ZM115.933 176.505C115.716 176.497 115.505 176.457 115.3 176.385C115.097 176.31 114.918 176.21 114.763 176.084C114.611 175.956 114.5 175.809 114.43 175.643L115.007 175.395C115.047 175.486 115.119 175.571 115.224 175.651C115.328 175.732 115.448 175.796 115.584 175.844C115.72 175.892 115.858 175.916 115.997 175.916C116.144 175.916 116.281 175.893 116.409 175.848C116.538 175.802 116.642 175.736 116.722 175.647C116.805 175.557 116.846 175.448 116.846 175.323C116.846 175.189 116.801 175.085 116.71 175.01C116.622 174.933 116.51 174.873 116.373 174.83C116.24 174.785 116.104 174.742 115.965 174.702C115.69 174.632 115.444 174.55 115.228 174.454C115.011 174.355 114.84 174.231 114.715 174.081C114.592 173.929 114.531 173.735 114.531 173.5C114.531 173.252 114.599 173.037 114.735 172.855C114.874 172.673 115.055 172.533 115.28 172.434C115.504 172.336 115.744 172.286 116.001 172.286C116.324 172.286 116.619 172.356 116.886 172.494C117.153 172.633 117.352 172.822 117.483 173.059L116.942 173.376C116.897 173.28 116.827 173.196 116.734 173.123C116.64 173.049 116.534 172.99 116.413 172.947C116.293 172.904 116.17 172.882 116.045 172.879C115.89 172.874 115.744 172.894 115.608 172.939C115.475 172.985 115.367 173.054 115.284 173.148C115.204 173.238 115.164 173.352 115.164 173.488C115.164 173.622 115.206 173.723 115.292 173.793C115.38 173.862 115.493 173.918 115.632 173.961C115.774 174.001 115.927 174.048 116.093 174.101C116.336 174.178 116.563 174.268 116.774 174.369C116.985 174.471 117.155 174.598 117.283 174.75C117.414 174.902 117.478 175.091 117.475 175.315C117.475 175.561 117.402 175.776 117.255 175.96C117.108 176.141 116.917 176.28 116.682 176.377C116.45 176.473 116.2 176.515 115.933 176.505Z" fill="#0004FF"/>
<path d="M125.137 176.307L128.584 172.86V176.027L129.386 176.024V171.492H124.853V172.29L128.018 172.293L124.57 175.741L125.137 176.307Z" fill="#0004FF"/>
<rect x="227.373" y="163.012" width="20.8323" height="20.8323" rx="2.93789" stroke="#242428" stroke-width="0.534162"/>
<path fill-rule="evenodd" clip-rule="evenodd" d="M238.232 170.223H235.055C234.5 170.223 234.05 170.702 234.05 171.291V176.633C234.05 177.224 234.5 177.702 235.055 177.702H240.585C241.141 177.702 241.591 177.224 241.591 176.633V172.723L239.623 174.814C239.451 174.998 239.227 175.126 238.981 175.179L237.634 175.466C236.754 175.652 235.979 174.829 236.155 173.894L236.424 172.462C236.473 172.204 236.592 171.966 236.768 171.78L238.232 170.223Z" fill="#242428"/>
<path fill-rule="evenodd" clip-rule="evenodd" d="M242.518 169.286C242.468 169.156 242.393 169.038 242.299 168.936C242.206 168.837 242.094 168.758 241.97 168.703C241.848 168.649 241.715 168.621 241.582 168.621C241.448 168.621 241.316 168.649 241.194 168.703C241.07 168.758 240.958 168.837 240.865 168.936L240.59 169.228L242.024 170.752L242.299 170.46C242.394 170.359 242.469 170.24 242.518 170.11C242.622 169.845 242.622 169.551 242.518 169.286ZM241.314 171.507L239.88 169.983L237.478 172.536C237.443 172.574 237.419 172.621 237.409 172.672L237.14 174.105C237.105 174.291 237.26 174.456 237.435 174.418L238.784 174.132C238.833 174.121 238.877 174.096 238.912 174.059L241.314 171.507Z" fill="#242428"/>
<rect x="256.217" y="163.012" width="20.8323" height="20.8323" rx="2.93789" stroke="#676768" stroke-width="0.534162"/>
<path d="M266.096 171.181H267.805C267.805 170.955 267.715 170.737 267.555 170.577C267.394 170.417 267.177 170.327 266.95 170.327C266.724 170.327 266.506 170.417 266.346 170.577C266.186 170.737 266.096 170.955 266.096 171.181ZM265.241 171.181C265.241 170.728 265.421 170.293 265.742 169.973C266.062 169.652 266.497 169.472 266.95 169.472C267.404 169.472 267.838 169.652 268.159 169.973C268.48 170.293 268.66 170.728 268.66 171.181H270.796C270.91 171.181 271.018 171.226 271.098 171.307C271.179 171.387 271.224 171.495 271.224 171.609C271.224 171.722 271.179 171.831 271.098 171.911C271.018 171.991 270.91 172.036 270.796 172.036H270.419L270.041 176.455C270.004 176.881 269.809 177.279 269.494 177.568C269.178 177.858 268.766 178.019 268.337 178.019H265.563C265.135 178.019 264.722 177.858 264.407 177.568C264.091 177.279 263.896 176.881 263.86 176.455L263.481 172.036H263.104C262.991 172.036 262.882 171.991 262.802 171.911C262.722 171.831 262.677 171.722 262.677 171.609C262.677 171.495 262.722 171.387 262.802 171.307C262.882 171.226 262.991 171.181 263.104 171.181H265.241ZM268.232 173.745C268.232 173.632 268.187 173.523 268.107 173.443C268.027 173.363 267.918 173.318 267.805 173.318C267.692 173.318 267.583 173.363 267.503 173.443C267.423 173.523 267.378 173.632 267.378 173.745V175.455C267.378 175.568 267.423 175.677 267.503 175.757C267.583 175.837 267.692 175.882 267.805 175.882C267.918 175.882 268.027 175.837 268.107 175.757C268.187 175.677 268.232 175.568 268.232 175.455V173.745ZM266.096 173.318C265.982 173.318 265.874 173.363 265.793 173.443C265.713 173.523 265.668 173.632 265.668 173.745V175.455C265.668 175.568 265.713 175.677 265.793 175.757C265.874 175.837 265.982 175.882 266.096 175.882C266.209 175.882 266.318 175.837 266.398 175.757C266.478 175.677 266.523 175.568 266.523 175.455V173.745C266.523 173.632 266.478 173.523 266.398 173.443C266.318 173.363 266.209 173.318 266.096 173.318Z" fill="#676768"/>
<path d="M48.0279 76.1366H41.3509C41.1738 76.1366 41.004 76.2069 40.8788 76.3322C40.7536 76.4574 40.6832 76.6272 40.6832 76.8043V83.4813C40.6832 83.6584 40.7536 83.8282 40.8788 83.9535C41.004 84.0787 41.1738 84.149 41.3509 84.149H48.0279C48.205 84.149 48.3749 84.0787 48.5001 83.9535C48.6253 83.8282 48.6957 83.6584 48.6957 83.4813V76.8043C48.6957 76.6272 48.6253 76.4574 48.5001 76.3322C48.3749 76.2069 48.205 76.1366 48.0279 76.1366ZM44.1761 82.8341C43.8041 83.0876 43.3509 83.1932 42.9051 83.1302C42.4593 83.0671 42.0531 82.84 41.766 82.4932C41.4789 82.1465 41.3316 81.705 41.3528 81.2553C41.3741 80.8056 41.5624 80.38 41.8809 80.0618L42.9396 79.0031C43.2788 78.6646 43.7384 78.4744 44.2177 78.4744C44.6969 78.4744 45.1565 78.6646 45.4957 79.0031C45.6789 79.1853 45.8206 79.405 45.9109 79.647C45.9263 79.6881 45.9334 79.7319 45.9318 79.7757C45.9303 79.8196 45.9201 79.8627 45.9019 79.9026C45.8837 79.9425 45.8578 79.9784 45.8257 80.0083C45.7936 80.0382 45.7559 80.0615 45.7148 80.0769C45.6737 80.0922 45.63 80.0993 45.5861 80.0978C45.5423 80.0962 45.4992 80.086 45.4592 80.0678C45.4193 80.0496 45.3834 80.0237 45.3535 79.9916C45.3236 79.9595 45.3003 79.9218 45.2849 79.8807C45.2179 79.7022 45.1071 79.5433 44.9627 79.4187C44.8183 79.294 44.645 79.2076 44.4586 79.1672C44.2722 79.1269 44.0787 79.1339 43.8957 79.1877C43.7127 79.2415 43.5461 79.3403 43.4112 79.4751L42.3525 80.5338C42.1518 80.7345 42.0332 81.0029 42.0198 81.2864C42.0065 81.5699 42.0994 81.8482 42.2803 82.0668C42.4612 82.2855 42.7172 82.4288 42.9982 82.4687C43.2792 82.5087 43.565 82.4424 43.7997 82.2828C43.8358 82.2558 43.877 82.2364 43.9208 82.2257C43.9646 82.2151 44.0101 82.2134 44.0546 82.2209C44.0991 82.2283 44.1416 82.2446 44.1795 82.2689C44.2175 82.2932 44.2502 82.3249 44.2756 82.3622C44.3009 82.3994 44.3185 82.4414 44.3272 82.4857C44.3359 82.5299 44.3356 82.5754 44.3262 82.6195C44.3169 82.6636 44.2987 82.7054 44.2727 82.7422C44.2468 82.7791 44.2136 82.8103 44.1753 82.8341H44.1761ZM47.4984 80.2238L46.4397 81.2825C46.2723 81.4509 46.0732 81.5844 45.8538 81.6753C45.6345 81.7662 45.3993 81.8127 45.1618 81.8121C44.794 81.8116 44.4351 81.699 44.133 81.4894C43.8308 81.2797 43.5997 80.9829 43.4705 80.6386C43.4395 80.5556 43.4427 80.4636 43.4795 80.383C43.5163 80.3024 43.5836 80.2397 43.6666 80.2087C43.7496 80.1778 43.8415 80.181 43.9221 80.2178C44.0028 80.2546 44.0654 80.3219 44.0964 80.4049C44.1779 80.6214 44.3232 80.8081 44.5132 80.9402C44.7032 81.0722 44.9288 81.1434 45.1602 81.1444C45.31 81.1448 45.4583 81.1155 45.5967 81.0582C45.7351 81.0009 45.8608 80.9167 45.9664 80.8105L47.0264 79.7518C47.2271 79.5511 47.3457 79.2828 47.359 78.9992C47.3724 78.7157 47.2795 78.4375 47.0986 78.2188C46.9176 78.0001 46.6616 77.8568 46.3806 77.8169C46.0996 77.7769 45.8139 77.8432 45.5792 78.0028C45.5431 78.0298 45.5019 78.0492 45.4581 78.0599C45.4142 78.0705 45.3687 78.0722 45.3243 78.0648C45.2798 78.0573 45.2373 78.041 45.1993 78.0167C45.1614 77.9924 45.1287 77.9607 45.1033 77.9234C45.0779 77.8862 45.0604 77.8442 45.0517 77.7999C45.0429 77.7557 45.0433 77.7102 45.0527 77.6661C45.062 77.622 45.0802 77.5802 45.1062 77.5434C45.1321 77.5065 45.1652 77.4753 45.2036 77.4516C45.5757 77.1993 46.0284 77.0947 46.4734 77.1581C46.9185 77.2216 47.3239 77.4487 47.6106 77.7949C47.8973 78.1412 48.0447 78.5819 48.024 79.031C48.0033 79.48 47.8161 79.9053 47.4988 80.2238H47.4984Z" fill="#676768"/>
<path d="M55.3286 77.5341H56.1419L58.181 83.1428H57.4679L57.0513 81.997H54.4192L54.0065 83.1428H53.2894L55.3286 77.5341ZM54.6676 81.324H56.8029L55.7332 78.3955L54.6676 81.324ZM61.8076 77.1335H62.4807V83.1428H61.8076V82.4618C61.6714 82.6968 61.4885 82.8864 61.2588 83.0306C61.0291 83.1749 60.7593 83.247 60.4495 83.247C60.1584 83.247 59.886 83.1922 59.6323 83.0827C59.3785 82.9732 59.1542 82.8223 58.9592 82.63C58.7669 82.4351 58.616 82.2107 58.5065 81.957C58.397 81.7033 58.3423 81.4308 58.3423 81.1397C58.3423 80.8486 58.397 80.5762 58.5065 80.3224C58.616 80.0661 58.7669 79.8417 58.9592 79.6494C59.1542 79.4544 59.3785 79.3022 59.6323 79.1927C59.886 79.0832 60.1584 79.0284 60.4495 79.0284C60.7593 79.0284 61.0291 79.1006 61.2588 79.2448C61.4885 79.389 61.6714 79.5786 61.8076 79.8137V77.1335ZM60.4575 82.594C60.722 82.594 60.9503 82.5299 61.1426 82.4017C61.3376 82.2708 61.4871 82.0945 61.5913 81.8729C61.6981 81.6512 61.7516 81.4068 61.7516 81.1397C61.7516 80.8673 61.6981 80.6216 61.5913 80.4026C61.4845 80.1809 61.3336 80.006 61.1386 79.8778C60.9463 79.7469 60.7193 79.6815 60.4575 79.6815C60.1931 79.6815 59.9528 79.7469 59.7364 79.8778C59.5228 80.0086 59.3518 80.1849 59.2236 80.4066C59.0954 80.6256 59.0313 80.87 59.0313 81.1397C59.0313 81.4095 59.0968 81.6552 59.2276 81.8769C59.3585 82.0959 59.5321 82.2708 59.7484 82.4017C59.9648 82.5299 60.2011 82.594 60.4575 82.594ZM66.6276 77.1335H67.3007V83.1428H66.6276V82.4618C66.4914 82.6968 66.3084 82.8864 66.0788 83.0306C65.8491 83.1749 65.5793 83.247 65.2695 83.247C64.9784 83.247 64.706 83.1922 64.4522 83.0827C64.1985 82.9732 63.9742 82.8223 63.7792 82.63C63.5869 82.4351 63.436 82.2107 63.3265 81.957C63.217 81.7033 63.1622 81.4308 63.1622 81.1397C63.1622 80.8486 63.217 80.5762 63.3265 80.3224C63.436 80.0661 63.5869 79.8417 63.7792 79.6494C63.9742 79.4544 64.1985 79.3022 64.4522 79.1927C64.706 79.0832 64.9784 79.0284 65.2695 79.0284C65.5793 79.0284 65.8491 79.1006 66.0788 79.2448C66.3084 79.389 66.4914 79.5786 66.6276 79.8137V77.1335ZM65.2775 82.594C65.5419 82.594 65.7703 82.5299 65.9626 82.4017C66.1575 82.2708 66.3071 82.0945 66.4113 81.8729C66.5181 81.6512 66.5715 81.4068 66.5715 81.1397C66.5715 80.8673 66.5181 80.6216 66.4113 80.4026C66.3044 80.1809 66.1535 80.006 65.9586 79.8778C65.7663 79.7469 65.5393 79.6815 65.2775 79.6815C65.0131 79.6815 64.7727 79.7469 64.5564 79.8778C64.3427 80.0086 64.1718 80.1849 64.0436 80.4066C63.9154 80.6256 63.8513 80.87 63.8513 81.1397C63.8513 81.4095 63.9167 81.6552 64.0476 81.8769C64.1785 82.0959 64.3521 82.2708 64.5684 82.4017C64.7848 82.5299 65.0211 82.594 65.2775 82.594ZM68.2617 83.1428V79.1366H68.9347V79.6374C69.0763 79.4504 69.2552 79.3022 69.4716 79.1927C69.6879 79.0805 69.9229 79.0244 70.1767 79.0244C70.3316 79.0244 70.4811 79.0445 70.6254 79.0845L70.3529 79.7576C70.2434 79.7229 70.1366 79.7055 70.0325 79.7055C69.8321 79.7055 69.6479 79.7549 69.4796 79.8537C69.314 79.9499 69.1818 80.0807 69.083 80.2463C68.9842 80.4119 68.9347 80.5962 68.9347 80.7992V83.1428H68.2617ZM72.677 83.247C72.3084 83.247 71.9719 83.1522 71.6674 82.9625C71.3656 82.7729 71.1239 82.5192 70.9423 82.2014C70.7634 81.8809 70.6739 81.527 70.6739 81.1397C70.6739 80.8459 70.726 80.5722 70.8301 80.3184C70.9343 80.062 71.0772 79.8377 71.2588 79.6454C71.4431 79.4504 71.6567 79.2982 71.8998 79.1887C72.1428 79.0792 72.4019 79.0244 72.677 79.0244C72.9788 79.0244 73.2552 79.0859 73.5063 79.2087C73.76 79.3289 73.9763 79.4972 74.1553 79.7135C74.3369 79.9298 74.4718 80.1809 74.5599 80.4667C74.6507 80.7524 74.6841 81.0583 74.6601 81.3841H71.391C71.423 81.6111 71.4978 81.8141 71.6153 81.993C71.7329 82.1693 71.8824 82.3095 72.064 82.4137C72.2483 82.5179 72.4526 82.5713 72.677 82.5739C72.9174 82.5739 73.135 82.5125 73.33 82.3897C73.525 82.2641 73.6825 82.0932 73.8027 81.8769L74.4878 82.0371C74.3275 82.3923 74.0858 82.6834 73.7627 82.9105C73.4395 83.1348 73.0776 83.247 72.677 83.247ZM71.371 80.8553H73.983C73.9616 80.6309 73.8895 80.4266 73.7667 80.2423C73.6438 80.0554 73.4876 79.9058 73.298 79.7936C73.1083 79.6815 72.9013 79.6254 72.677 79.6254C72.4526 79.6254 72.247 79.6801 72.06 79.7896C71.8731 79.8991 71.7182 80.0474 71.5953 80.2343C71.4751 80.4186 71.4003 80.6256 71.371 80.8553ZM76.5727 83.2189C76.3564 83.2109 76.1454 83.1709 75.9397 83.0988C75.7368 83.024 75.5578 82.9238 75.4029 82.7983C75.2507 82.6701 75.1398 82.5232 75.0704 82.3576L75.6473 82.1092C75.6873 82.2 75.7595 82.2855 75.8636 82.3656C75.9678 82.4457 76.088 82.5098 76.2242 82.5579C76.3604 82.606 76.4979 82.63 76.6368 82.63C76.7837 82.63 76.9213 82.6073 77.0495 82.5619C77.1777 82.5165 77.2818 82.4497 77.3619 82.3616C77.4447 82.2708 77.4861 82.1626 77.4861 82.0371C77.4861 81.9036 77.4407 81.7994 77.3499 81.7246C77.2618 81.6472 77.1496 81.5871 77.0134 81.5443C76.8799 81.4989 76.7436 81.4562 76.6048 81.4161C76.3297 81.3467 76.084 81.2639 75.8676 81.1678C75.6513 81.0689 75.4804 80.9447 75.3548 80.7952C75.232 80.6429 75.1705 80.4493 75.1705 80.2143C75.1705 79.9659 75.2386 79.7509 75.3749 79.5693C75.5137 79.3877 75.6954 79.2474 75.9197 79.1486C76.1441 79.0498 76.3844 79.0004 76.6408 79.0004C76.964 79.0004 77.2591 79.0698 77.5262 79.2087C77.7933 79.3476 77.9923 79.5359 78.1231 79.7736L77.5823 80.0901C77.5369 79.9939 77.4674 79.9098 77.374 79.8377C77.2805 79.7629 77.1736 79.7042 77.0535 79.6614C76.9333 79.6187 76.8104 79.596 76.6849 79.5933C76.53 79.588 76.3844 79.608 76.2482 79.6534C76.1147 79.6988 76.0065 79.7683 75.9237 79.8617C75.8436 79.9525 75.8035 80.0661 75.8035 80.2023C75.8035 80.3358 75.8463 80.4373 75.9317 80.5067C76.0199 80.5762 76.1334 80.6323 76.2723 80.675C76.4138 80.7151 76.5674 80.7618 76.733 80.8152C76.976 80.8927 77.203 80.9821 77.414 81.0836C77.625 81.1851 77.7946 81.312 77.9228 81.4642C78.0537 81.6165 78.1178 81.8047 78.1151 82.0291C78.1151 82.2748 78.0417 82.4898 77.8948 82.6741C77.7479 82.8557 77.5569 82.9946 77.3219 83.0907C77.0895 83.1869 76.8398 83.2296 76.5727 83.2189ZM80.0234 83.2189C79.807 83.2109 79.5961 83.1709 79.3904 83.0988C79.1874 83.024 79.0085 82.9238 78.8536 82.7983C78.7013 82.6701 78.5905 82.5232 78.5211 82.3576L79.0979 82.1092C79.138 82.2 79.2101 82.2855 79.3143 82.3656C79.4184 82.4457 79.5386 82.5098 79.6748 82.5579C79.8111 82.606 79.9486 82.63 80.0875 82.63C80.2344 82.63 80.3719 82.6073 80.5001 82.5619C80.6283 82.5165 80.7325 82.4497 80.8126 82.3616C80.8954 82.2708 80.9368 82.1626 80.9368 82.0371C80.9368 81.9036 80.8914 81.7994 80.8006 81.7246C80.7124 81.6472 80.6003 81.5871 80.4641 81.5443C80.3305 81.4989 80.1943 81.4562 80.0554 81.4161C79.7803 81.3467 79.5346 81.2639 79.3183 81.1678C79.102 81.0689 78.931 80.9447 78.8055 80.7952C78.6826 80.6429 78.6212 80.4493 78.6212 80.2143C78.6212 79.9659 78.6893 79.7509 78.8255 79.5693C78.9644 79.3877 79.146 79.2474 79.3704 79.1486C79.5947 79.0498 79.8351 79.0004 80.0915 79.0004C80.4147 79.0004 80.7098 79.0698 80.9769 79.2087C81.2439 79.3476 81.4429 79.5359 81.5738 79.7736L81.0329 80.0901C80.9875 79.9939 80.9181 79.9098 80.8246 79.8377C80.7311 79.7629 80.6243 79.7042 80.5041 79.6614C80.3839 79.6187 80.2611 79.596 80.1356 79.5933C79.9806 79.588 79.8351 79.608 79.6989 79.6534C79.5653 79.6988 79.4572 79.7683 79.3744 79.8617C79.2942 79.9525 79.2542 80.0661 79.2542 80.2023C79.2542 80.3358 79.2969 80.4373 79.3824 80.5067C79.4705 80.5762 79.584 80.6323 79.7229 80.675C79.8645 80.7151 80.018 80.7618 80.1836 80.8152C80.4267 80.8927 80.6537 80.9821 80.8647 81.0836C81.0757 81.1851 81.2453 81.312 81.3735 81.4642C81.5043 81.6165 81.5684 81.8047 81.5658 82.0291C81.5658 82.2748 81.4923 82.4898 81.3454 82.6741C81.1985 82.8557 81.0076 82.9946 80.7725 83.0907C80.5402 83.1869 80.2905 83.2296 80.0234 83.2189Z" fill="#676768"/>
<g filter="url(#filter1_d_2056_31981)">
<rect x="40.6832" y="90.4845" width="209.925" height="21.3665" rx="4.27329" fill="white"/>
<rect x="40.9503" y="90.7516" width="209.391" height="20.8323" rx="4.00621" stroke="#E9ECF2" stroke-width="0.534162"/>
<path d="M48.9844 103.168V98.8902H48.4393L48.6024 98.3069H49.5677V103.168H48.9844ZM52.1663 98.3069H52.8712L54.6384 103.168H54.0204L53.6593 102.175H51.3782L51.0206 103.168H50.3991L52.1663 98.3069ZM51.5935 101.591H53.4441L52.517 99.0533L51.5935 101.591ZM55.7386 103.168V98.8902H55.1935L55.3567 98.3069H56.3219V103.168H55.7386ZM60.1184 100.279L57.9831 102.584H60.1184V103.168H57.1533V102.584L59.2886 100.279H57.1533V99.6957H60.1184V100.279ZM60.8117 103.168V98.3069H62.4158C62.6773 98.3069 62.9123 98.3705 63.1206 98.4978C63.3312 98.6251 63.4979 98.7976 63.6206 99.0152C63.7456 99.2304 63.8081 99.4711 63.8081 99.7373C63.8081 100.008 63.7444 100.252 63.6171 100.47C63.4921 100.685 63.3231 100.856 63.1102 100.984C62.8996 101.109 62.6681 101.171 62.4158 101.171H61.395V103.168H60.8117ZM61.395 100.588H62.3637C62.5211 100.588 62.6646 100.55 62.7942 100.473C62.9262 100.395 63.0303 100.289 63.1067 100.157C63.1854 100.023 63.2248 99.8727 63.2248 99.7061C63.2248 99.5371 63.1854 99.3867 63.1067 99.2547C63.0303 99.1205 62.9262 99.0152 62.7942 98.9388C62.6646 98.8601 62.5211 98.8207 62.3637 98.8207H61.395V100.588ZM64.907 103.168V98.8902H64.3619L64.5251 98.3069H65.4903V103.168H64.907ZM67.9883 103.258C67.6688 103.258 67.3772 103.176 67.1133 103.011C66.8517 102.847 66.6423 102.627 66.4849 102.352C66.3298 102.074 66.2522 101.767 66.2522 101.432C66.2522 101.177 66.2974 100.94 66.3876 100.72C66.4779 100.498 66.6018 100.303 66.7592 100.137C66.9189 99.9677 67.104 99.8357 67.3147 99.7408C67.5253 99.6459 67.7498 99.5985 67.9883 99.5985C68.2498 99.5985 68.4894 99.6517 68.707 99.7582C68.9269 99.8623 69.1144 100.008 69.2694 100.196C69.4268 100.383 69.5437 100.601 69.6201 100.848C69.6988 101.096 69.7278 101.361 69.7069 101.643H66.8737C66.9015 101.84 66.9663 102.016 67.0682 102.171C67.17 102.324 67.2996 102.446 67.457 102.536C67.6167 102.626 67.7938 102.672 67.9883 102.675C68.1966 102.675 68.3852 102.621 68.5542 102.515C68.7232 102.406 68.8597 102.258 68.9639 102.071L69.5576 102.209C69.4187 102.517 69.2093 102.77 68.9292 102.966C68.6491 103.161 68.3355 103.258 67.9883 103.258ZM66.8564 101.185H69.1201C69.1016 100.991 69.0391 100.814 68.9327 100.654C68.8262 100.492 68.6908 100.362 68.5264 100.265C68.3621 100.168 68.1827 100.119 67.9883 100.119C67.7938 100.119 67.6156 100.167 67.4536 100.262C67.2915 100.357 67.1573 100.485 67.0508 100.647C66.9466 100.807 66.8818 100.986 66.8564 101.185ZM70.2581 103.168V98.3069H71.8622C72.1238 98.3069 72.3587 98.3705 72.567 98.4978C72.7777 98.6251 72.9443 98.7976 73.067 99.0152C73.192 99.2304 73.2545 99.4711 73.2545 99.7373C73.2545 100.008 73.1908 100.252 73.0635 100.47C72.9385 100.685 72.7696 100.856 72.5566 100.984C72.346 101.109 72.1145 101.171 71.8622 101.171H70.8414V103.168H70.2581ZM70.8414 100.588H71.8101C71.9675 100.588 72.111 100.55 72.2407 100.473C72.3726 100.395 72.4768 100.289 72.5531 100.157C72.6318 100.023 72.6712 99.8727 72.6712 99.7061C72.6712 99.5371 72.6318 99.3867 72.5531 99.2547C72.4768 99.1205 72.3726 99.0152 72.2407 98.9388C72.111 98.8601 71.9675 98.8207 71.8101 98.8207H70.8414V100.588ZM75.3881 103.258C75.0872 103.258 74.814 103.185 74.5687 103.039C74.3233 102.893 74.1289 102.699 73.9854 102.456C73.8442 102.211 73.7736 101.941 73.7736 101.647H74.3569C74.3569 101.834 74.4032 102.007 74.4957 102.164C74.5883 102.319 74.7122 102.443 74.8673 102.536C75.0247 102.628 75.1983 102.675 75.3881 102.675C75.5756 102.675 75.7468 102.628 75.9019 102.536C76.057 102.443 76.1809 102.319 76.2734 102.164C76.366 102.007 76.4123 101.834 76.4123 101.647C76.4123 101.459 76.3683 101.287 76.2804 101.13C76.1947 100.972 76.0686 100.847 75.9019 100.755C75.7353 100.66 75.5327 100.612 75.2943 100.612H74.0965L74.5687 98.3069H76.8741V98.8902H75.0409L74.8152 100.029L75.3186 100.032C75.6496 100.039 75.9401 100.113 76.1901 100.255C76.4424 100.394 76.6392 100.583 76.7804 100.824C76.9239 101.063 76.9956 101.337 76.9956 101.647C76.9956 101.867 76.954 102.075 76.8706 102.272C76.7873 102.466 76.6716 102.638 76.5234 102.786C76.3753 102.934 76.204 103.05 76.0096 103.133C75.8174 103.216 75.6103 103.258 75.3881 103.258ZM82.1245 103.268L81.5551 102.699C81.356 102.87 81.1303 103.005 80.878 103.102C80.628 103.197 80.363 103.244 80.0829 103.244C79.7519 103.244 79.4418 103.179 79.1524 103.05C78.8631 102.918 78.6085 102.737 78.3886 102.508C78.1687 102.277 77.9962 102.008 77.8712 101.703C77.7486 101.397 77.6872 101.071 77.6872 100.723C77.6872 100.376 77.7486 100.051 77.8712 99.7478C77.9962 99.4422 78.1687 99.1737 78.3886 98.9422C78.6085 98.7108 78.8631 98.5302 79.1524 98.4006C79.4418 98.2687 79.7519 98.2027 80.0829 98.2027C80.4139 98.2027 80.7229 98.2687 81.01 98.4006C81.2993 98.5302 81.5539 98.7108 81.7738 98.9422C81.9937 99.1737 82.165 99.4422 82.2877 99.7478C82.4127 100.051 82.4752 100.376 82.4752 100.723C82.4752 101.02 82.4289 101.3 82.3363 101.564C82.246 101.828 82.1199 102.067 81.9578 102.282L82.5377 102.855L82.1245 103.268ZM80.0829 102.661C80.2727 102.661 80.4591 102.628 80.6419 102.564C80.8248 102.496 80.988 102.4 81.1315 102.275L80.4857 101.633L80.8989 101.216L81.5238 101.848C81.6442 101.689 81.7356 101.513 81.7981 101.321C81.8606 101.126 81.8919 100.927 81.8919 100.723C81.8919 100.457 81.8444 100.207 81.7495 99.9734C81.6569 99.7397 81.5273 99.5336 81.3606 99.3554C81.194 99.1772 81.0007 99.0383 80.7808 98.9388C80.5632 98.8369 80.3306 98.786 80.0829 98.786C79.8306 98.786 79.5945 98.8381 79.3746 98.9422C79.157 99.0441 78.9649 99.1853 78.7983 99.3658C78.6339 99.5441 78.5043 99.7501 78.4094 99.9839C78.3168 100.215 78.2705 100.462 78.2705 100.723C78.2705 100.99 78.318 101.24 78.4129 101.473C78.5078 101.707 78.6386 101.914 78.8052 102.095C78.9719 102.273 79.164 102.412 79.3816 102.512C79.6015 102.611 79.8353 102.661 80.0829 102.661ZM85.4571 103.258C85.1214 103.258 84.8078 103.193 84.5161 103.064C84.2268 102.932 83.9733 102.75 83.7558 102.518C83.5405 102.285 83.3715 102.016 83.2488 101.713C83.1262 101.407 83.0648 101.081 83.0648 100.734C83.0648 100.375 83.1285 100.043 83.2558 99.7373C83.3854 99.4318 83.5613 99.1656 83.7835 98.9388C84.0081 98.7119 84.2638 98.536 84.5509 98.411C84.8402 98.2837 85.1457 98.2201 85.4675 98.2201C85.8332 98.2201 86.1816 98.3057 86.5126 98.477C86.8436 98.6483 87.1283 98.8959 87.3667 99.22L86.8459 99.5012C86.6677 99.2744 86.4559 99.1008 86.2105 98.9804C85.9675 98.8601 85.7175 98.7999 85.4605 98.7999C85.2152 98.7999 84.9825 98.8497 84.7627 98.9492C84.5451 99.0487 84.3518 99.1876 84.1828 99.3658C84.0162 99.5441 83.8854 99.7501 83.7905 99.9839C83.6956 100.218 83.6481 100.471 83.6481 100.744C83.6481 101.01 83.6956 101.26 83.7905 101.494C83.8854 101.728 84.015 101.934 84.1793 102.112C84.346 102.288 84.5393 102.426 84.7592 102.525C84.9791 102.625 85.214 102.675 85.464 102.675C85.6631 102.675 85.8517 102.641 86.03 102.574C86.2105 102.507 86.376 102.412 86.5265 102.289C86.6792 102.167 86.8088 102.022 86.9153 101.855C87.0241 101.689 87.1063 101.506 87.1618 101.307H85.964V100.786H87.8424C87.84 101.126 87.7752 101.446 87.6479 101.744C87.5229 102.043 87.3505 102.305 87.1306 102.532C86.913 102.759 86.6607 102.937 86.3737 103.067C86.089 103.194 85.7834 103.258 85.4571 103.258ZM90.0005 103.258C89.6811 103.258 89.3894 103.176 89.1256 103.011C88.864 102.847 88.6545 102.627 88.4971 102.352C88.342 102.074 88.2645 101.767 88.2645 101.432C88.2645 101.177 88.3096 100.94 88.3999 100.72C88.4902 100.498 88.614 100.303 88.7714 100.137C88.9311 99.9677 89.1163 99.8357 89.3269 99.7408C89.5376 99.6459 89.7621 99.5985 90.0005 99.5985C90.2621 99.5985 90.5016 99.6517 90.7192 99.7582C90.9391 99.8623 91.1266 100.008 91.2817 100.196C91.4391 100.383 91.556 100.601 91.6324 100.848C91.7111 101.096 91.74 101.361 91.7192 101.643H88.886C88.9138 101.84 88.9786 102.016 89.0804 102.171C89.1823 102.324 89.3119 102.446 89.4693 102.536C89.629 102.626 89.8061 102.672 90.0005 102.675C90.2088 102.675 90.3975 102.621 90.5665 102.515C90.7354 102.406 90.872 102.258 90.9762 102.071L91.5699 102.209C91.431 102.517 91.2215 102.77 90.9414 102.966C90.6614 103.161 90.3477 103.258 90.0005 103.258ZM88.8686 101.185H91.1324C91.1139 100.991 91.0514 100.814 90.9449 100.654C90.8384 100.492 90.703 100.362 90.5387 100.265C90.3743 100.168 90.1949 100.119 90.0005 100.119C89.8061 100.119 89.6278 100.167 89.4658 100.262C89.3038 100.357 89.1695 100.485 89.0631 100.647C88.9589 100.807 88.8941 100.986 88.8686 101.185ZM93.1399 98.8381V99.6957H94.1572V100.279H93.1399V103.168H92.5566V100.279H92.1087V99.6957H92.5566V98.8381C92.5566 98.6598 92.5994 98.499 92.6851 98.3555C92.773 98.2096 92.8899 98.0939 93.0357 98.0083C93.1839 97.9203 93.3459 97.8763 93.5218 97.8763C93.6514 97.8763 93.7776 97.9029 93.9003 97.9562C94.023 98.0071 94.1317 98.0835 94.2266 98.1853L93.81 98.5985C93.7776 98.5545 93.7348 98.521 93.6815 98.4978C93.6306 98.4724 93.5774 98.4596 93.5218 98.4596C93.4177 98.4596 93.3274 98.4967 93.251 98.5707C93.1769 98.6448 93.1399 98.7339 93.1399 98.8381ZM94.6913 99.6957H95.2746V103.168H94.6913V99.6957ZM94.9899 99.1297C94.8973 99.1297 94.8198 99.0996 94.7573 99.0395C94.6948 98.9793 94.6635 98.904 94.6635 98.8138C94.6635 98.7235 94.6948 98.6483 94.7573 98.5881C94.8198 98.5279 94.8962 98.4978 94.9864 98.4978C95.0767 98.4978 95.1531 98.5279 95.2156 98.5881C95.2781 98.6483 95.3093 98.7235 95.3093 98.8138C95.3093 98.904 95.2781 98.9793 95.2156 99.0395C95.1554 99.0996 95.0802 99.1297 94.9899 99.1297ZM95.9697 103.168V102.65C96.148 102.491 96.3482 102.312 96.5704 102.116C96.7926 101.917 97.0137 101.709 97.2336 101.494C97.4558 101.277 97.6595 101.061 97.8446 100.848C98.0298 100.635 98.1791 100.434 98.2925 100.244C98.4059 100.052 98.4627 99.8843 98.4627 99.7408C98.4627 99.5695 98.421 99.4133 98.3377 99.2721C98.2543 99.1286 98.1421 99.014 98.0009 98.9284C97.862 98.8427 97.7069 98.7999 97.5356 98.7999C97.3643 98.7999 97.2069 98.8427 97.0634 98.9284C96.9222 99.014 96.8088 99.1286 96.7232 99.2721C96.6398 99.4133 96.5982 99.5695 96.5982 99.7408H96.0149C96.0149 99.4561 96.0843 99.1992 96.2232 98.97C96.3621 98.7385 96.5461 98.5557 96.7752 98.4214C97.0044 98.2849 97.2579 98.2166 97.5356 98.2166C97.8134 98.2166 98.0657 98.2849 98.2925 98.4214C98.5217 98.558 98.7045 98.742 98.8411 98.9735C98.9777 99.2026 99.046 99.4584 99.046 99.7408C99.046 99.9028 99.0066 100.078 98.9279 100.265C98.8492 100.45 98.7416 100.641 98.605 100.838C98.4684 101.035 98.3134 101.234 98.1398 101.435C97.9662 101.634 97.7833 101.831 97.5912 102.025C97.3991 102.22 97.2081 102.406 97.0183 102.584H99.1085V103.168H95.9697ZM99.9401 103.168V98.3069H101.548C101.883 98.3069 102.198 98.3705 102.492 98.4978C102.786 98.6228 103.044 98.7976 103.266 99.0221C103.489 99.2443 103.662 99.5024 103.787 99.7964C103.914 100.088 103.978 100.402 103.978 100.737C103.978 101.073 103.914 101.388 103.787 101.682C103.662 101.973 103.489 102.231 103.266 102.456C103.044 102.678 102.786 102.853 102.492 102.98C102.198 103.105 101.883 103.168 101.548 103.168H99.9401ZM100.523 102.584H101.548C101.802 102.584 102.041 102.537 102.263 102.442C102.487 102.345 102.684 102.212 102.853 102.043C103.022 101.874 103.154 101.678 103.249 101.456C103.346 101.231 103.395 100.992 103.395 100.737C103.395 100.483 103.346 100.244 103.249 100.022C103.154 99.7975 103.021 99.6008 102.85 99.4318C102.681 99.2628 102.485 99.1309 102.263 99.036C102.041 98.9388 101.802 98.8902 101.548 98.8902H100.523V102.584ZM104.47 103.168L105.411 98.3069H105.859L107.171 101.758L108.48 98.3069H108.928L109.873 103.168H109.279L108.595 99.6401L107.362 102.904H106.977L105.744 99.6401L105.064 103.168H104.47ZM110.587 103.168V98.3069H112.191C112.452 98.3069 112.687 98.3705 112.896 98.4978C113.106 98.6251 113.273 98.7976 113.396 99.0152C113.521 99.2304 113.583 99.4711 113.583 99.7373C113.583 100.008 113.52 100.252 113.392 100.47C113.267 100.685 113.098 100.856 112.885 100.984C112.675 101.109 112.443 101.171 112.191 101.171H111.17V103.168H110.587ZM111.17 100.588H112.139C112.296 100.588 112.44 100.55 112.569 100.473C112.701 100.395 112.805 100.289 112.882 100.157C112.961 100.023 113 99.8727 113 99.7061C113 99.5371 112.961 99.3867 112.882 99.2547C112.805 99.1205 112.701 99.0152 112.569 98.9388C112.44 98.8601 112.296 98.8207 112.139 98.8207H111.17V100.588ZM117.756 98.3069V98.8902H116.138V103.168H115.555V98.8902H113.94V98.3069H117.756ZM119.241 98.8381V99.6957H120.259V100.279H119.241V103.168H118.658V100.279H118.21V99.6957H118.658V98.8381C118.658 98.6598 118.701 98.499 118.786 98.3555C118.874 98.2096 118.991 98.0939 119.137 98.0083C119.285 97.9203 119.447 97.8763 119.623 97.8763C119.753 97.8763 119.879 97.9029 120.002 97.9562C120.124 98.0071 120.233 98.0835 120.328 98.1853L119.911 98.5985C119.879 98.5545 119.836 98.521 119.783 98.4978C119.732 98.4724 119.679 98.4596 119.623 98.4596C119.519 98.4596 119.429 98.4967 119.352 98.5707C119.278 98.6448 119.241 98.7339 119.241 98.8381ZM124.504 98.3069V98.8902H122.886V103.168H122.302V98.8902H120.688V98.3069H124.504ZM125.201 103.168V98.3069H125.784V102.584H127.961V103.168H125.201ZM130.168 103.258C129.867 103.258 129.594 103.185 129.348 103.039C129.103 102.893 128.909 102.699 128.765 102.456C128.624 102.211 128.553 101.941 128.553 101.647H129.137C129.137 101.834 129.183 102.007 129.275 102.164C129.368 102.319 129.492 102.443 129.647 102.536C129.804 102.628 129.978 102.675 130.168 102.675C130.355 102.675 130.527 102.628 130.682 102.536C130.837 102.443 130.961 102.319 131.053 102.164C131.146 102.007 131.192 101.834 131.192 101.647C131.192 101.459 131.148 101.287 131.06 101.13C130.974 100.972 130.848 100.847 130.682 100.755C130.515 100.66 130.312 100.612 130.074 100.612H128.876L129.348 98.3069H131.654V98.8902H129.821L129.595 100.029L130.098 100.032C130.429 100.039 130.72 100.113 130.97 100.255C131.222 100.394 131.419 100.583 131.56 100.824C131.704 101.063 131.775 101.337 131.775 101.647C131.775 101.867 131.734 102.075 131.65 102.272C131.567 102.466 131.451 102.638 131.303 102.786C131.155 102.934 130.984 103.05 130.789 103.133C130.597 103.216 130.39 103.258 130.168 103.258ZM134.318 103.258C134.056 103.258 133.804 103.217 133.561 103.136C133.318 103.053 133.105 102.935 132.922 102.782C132.741 102.63 132.613 102.448 132.536 102.237L133.081 102.032C133.128 102.162 133.213 102.275 133.338 102.373C133.466 102.468 133.615 102.542 133.786 102.595C133.958 102.648 134.135 102.675 134.318 102.675C134.526 102.675 134.719 102.641 134.897 102.574C135.078 102.505 135.224 102.409 135.335 102.286C135.446 102.163 135.502 102.02 135.502 101.855C135.502 101.686 135.444 101.549 135.328 101.442C135.212 101.333 135.064 101.248 134.883 101.185C134.703 101.12 134.514 101.071 134.318 101.036C133.982 100.98 133.681 100.902 133.415 100.8C133.151 100.696 132.941 100.551 132.786 100.366C132.634 100.181 132.557 99.9364 132.557 99.6332C132.557 99.3508 132.638 99.1043 132.8 98.8936C132.965 98.683 133.181 98.5198 133.45 98.4041C133.718 98.2883 134.007 98.2305 134.318 98.2305C134.574 98.2305 134.823 98.271 135.064 98.352C135.307 98.4307 135.521 98.5464 135.706 98.6992C135.892 98.852 136.025 99.0383 136.106 99.2582L135.554 99.4596C135.507 99.3276 135.42 99.2142 135.293 99.1193C135.168 99.0221 135.02 98.948 134.849 98.8971C134.68 98.8439 134.503 98.8172 134.318 98.8172C134.112 98.8149 133.919 98.8485 133.741 98.9179C133.563 98.9874 133.418 99.0834 133.307 99.2061C133.196 99.3288 133.141 99.4711 133.141 99.6332C133.141 99.8276 133.191 99.9769 133.293 100.081C133.397 100.183 133.539 100.259 133.717 100.31C133.895 100.361 134.095 100.406 134.318 100.446C134.632 100.499 134.924 100.583 135.192 100.699C135.461 100.813 135.676 100.964 135.838 101.154C136.003 101.344 136.085 101.578 136.085 101.855C136.085 102.138 136.003 102.384 135.838 102.595C135.676 102.805 135.461 102.969 135.192 103.084C134.924 103.2 134.632 103.258 134.318 103.258ZM136.912 103.168V98.3069H137.495V102.584H139.672V103.168H136.912ZM140.438 103.168V99.6957H141.022V100.13C141.144 99.9677 141.298 99.8392 141.483 99.7443C141.671 99.6471 141.875 99.5985 142.094 99.5985C142.351 99.5985 142.586 99.661 142.799 99.7859C143.012 99.9109 143.18 100.076 143.303 100.282C143.425 100.076 143.592 99.9109 143.803 99.7859C144.016 99.661 144.249 99.5985 144.504 99.5985C144.766 99.5985 145.003 99.6621 145.216 99.7894C145.429 99.9144 145.598 100.083 145.723 100.296C145.85 100.509 145.914 100.747 145.914 101.008V103.168H145.33V101.147C145.33 100.976 145.289 100.817 145.205 100.671C145.122 100.525 145.01 100.409 144.869 100.321C144.727 100.233 144.571 100.189 144.4 100.189C144.229 100.189 144.072 100.23 143.931 100.314C143.79 100.395 143.678 100.508 143.594 100.654C143.511 100.797 143.469 100.962 143.469 101.147V103.168H142.886V101.147C142.886 100.962 142.844 100.797 142.761 100.654C142.678 100.508 142.564 100.395 142.421 100.314C142.28 100.23 142.123 100.189 141.952 100.189C141.783 100.189 141.627 100.233 141.483 100.321C141.342 100.409 141.23 100.525 141.147 100.671C141.063 100.817 141.022 100.976 141.022 101.147V103.168H140.438ZM148.32 103.168H147.573L146.306 99.6887H146.928L147.945 102.491L148.962 99.6887H149.584L148.32 103.168ZM150.255 103.168L152.72 98.8902H149.932V98.3069H153.394V98.8902L150.922 103.168H150.255ZM153.947 103.168V98.3069H155.554C155.89 98.3069 156.205 98.3705 156.499 98.4978C156.793 98.6228 157.051 98.7976 157.273 99.0221C157.495 99.2443 157.669 99.5024 157.794 99.7964C157.921 100.088 157.985 100.402 157.985 100.737C157.985 101.073 157.921 101.388 157.794 101.682C157.669 101.973 157.495 102.231 157.273 102.456C157.051 102.678 156.793 102.853 156.499 102.98C156.205 103.105 155.89 103.168 155.554 103.168H153.947ZM154.53 102.584H155.554C155.809 102.584 156.047 102.537 156.27 102.442C156.494 102.345 156.691 102.212 156.86 102.043C157.029 101.874 157.161 101.678 157.256 101.456C157.353 101.231 157.401 100.992 157.401 100.737C157.401 100.483 157.353 100.244 157.256 100.022C157.161 99.7975 157.028 99.6008 156.856 99.4318C156.687 99.2628 156.492 99.1309 156.27 99.036C156.047 98.9388 155.809 98.8902 155.554 98.8902H154.53V102.584ZM158.578 99.6957H159.162V103.168H158.578V99.6957ZM158.877 99.1297C158.784 99.1297 158.707 99.0996 158.644 99.0395C158.582 98.9793 158.551 98.904 158.551 98.8138C158.551 98.7235 158.582 98.6483 158.644 98.5881C158.707 98.5279 158.783 98.4978 158.873 98.4978C158.964 98.4978 159.04 98.5279 159.103 98.5881C159.165 98.6483 159.196 98.7235 159.196 98.8138C159.196 98.904 159.165 98.9793 159.103 99.0395C159.042 99.0996 158.967 99.1297 158.877 99.1297ZM161.74 103.168H160.994L159.726 99.6887H160.348L161.365 102.491L162.382 99.6887H163.004L161.74 103.168ZM164.419 98.8381V99.6957H165.436V100.279H164.419V103.168H163.835V100.279H163.387V99.6957H163.835V98.8381C163.835 98.6598 163.878 98.499 163.964 98.3555C164.052 98.2096 164.169 98.0939 164.314 98.0083C164.463 97.9203 164.625 97.8763 164.801 97.8763C164.93 97.8763 165.056 97.9029 165.179 97.9562C165.302 98.0071 165.41 98.0835 165.505 98.1853L165.089 98.5985C165.056 98.5545 165.014 98.521 164.96 98.4978C164.909 98.4724 164.856 98.4596 164.801 98.4596C164.696 98.4596 164.606 98.4967 164.53 98.5707C164.456 98.6448 164.419 98.7339 164.419 98.8381ZM166.038 103.168V98.3069H166.67L169.097 102.112V98.3069H169.68V103.168H169.052L166.621 99.3624V103.168H166.038ZM173.271 99.6957H173.854V103.168H173.271L173.247 102.581C173.138 102.782 172.988 102.946 172.795 103.071C172.606 103.196 172.379 103.258 172.115 103.258C171.86 103.258 171.622 103.211 171.4 103.116C171.178 103.018 170.981 102.885 170.809 102.716C170.641 102.545 170.509 102.348 170.414 102.126C170.319 101.904 170.271 101.664 170.271 101.407C170.271 101.16 170.318 100.926 170.41 100.706C170.503 100.486 170.631 100.294 170.796 100.13C170.962 99.963 171.154 99.8334 171.372 99.7408C171.59 99.6459 171.823 99.5985 172.073 99.5985C172.346 99.5985 172.586 99.6633 172.792 99.7929C172.998 99.9202 173.165 100.086 173.292 100.289L173.271 99.6957ZM172.105 102.692C172.334 102.692 172.532 102.637 172.698 102.525C172.867 102.412 172.997 102.259 173.087 102.067C173.18 101.875 173.226 101.663 173.226 101.432C173.226 101.196 173.18 100.983 173.087 100.793C172.995 100.601 172.864 100.449 172.695 100.338C172.528 100.225 172.331 100.168 172.105 100.168C171.875 100.168 171.667 100.225 171.48 100.338C171.292 100.451 171.143 100.604 171.032 100.796C170.923 100.986 170.869 101.198 170.869 101.432C170.869 101.665 170.925 101.878 171.039 102.071C171.152 102.26 171.303 102.412 171.49 102.525C171.677 102.637 171.882 102.692 172.105 102.692Z" fill="#242428"/>
</g>
<rect x="256.217" y="90.7516" width="20.8323" height="20.8323" rx="2.93789" stroke="#0004FF" stroke-width="0.534162"/>
<path d="M268.514 98.7959V97.8985C268.513 97.7536 268.456 97.6147 268.353 97.5123C268.251 97.4098 268.112 97.3523 267.967 97.3523H263.233C263.088 97.3523 262.949 97.4099 262.846 97.5123C262.744 97.6148 262.686 97.7538 262.686 97.8987V102.633C262.686 102.778 262.744 102.917 262.846 103.019C262.949 103.122 263.088 103.179 263.233 103.18H264.14" stroke="#0004FF" stroke-width="1.06832" stroke-linecap="round" stroke-linejoin="round"/>
<path d="M264.786 98.9062H269.521C269.666 98.9064 269.805 98.964 269.907 99.0664C270.01 99.1689 270.067 99.3078 270.067 99.4526V104.187C270.067 104.332 270.01 104.471 269.907 104.573C269.805 104.676 269.666 104.733 269.521 104.733H264.786C264.642 104.733 264.503 104.676 264.4 104.573C264.298 104.471 264.24 104.332 264.24 104.187V99.4523C264.24 99.3074 264.298 99.1686 264.4 99.0662C264.503 98.9638 264.642 98.9063 264.786 98.9062Z" fill="#0004FF" stroke="#0004FF" stroke-width="1.06832" stroke-linejoin="round"/>
<path d="M49.2298 124.596C49.2298 124.897 48.9911 125.174 48.5888 125.398C48.1031 125.666 47.3786 125.857 46.5473 125.913C46.4856 125.883 46.4238 125.855 46.3587 125.83C45.701 125.554 44.8263 125.398 43.8882 125.398C43.7496 125.398 43.6144 125.401 43.4792 125.408L43.4609 125.398C43.0586 125.174 42.8199 124.897 42.8199 124.596C42.8199 123.858 44.2554 123.261 46.0248 123.261C47.7943 123.261 49.2298 123.858 49.2298 124.596ZM43.3657 125.95C43.536 125.938 43.7113 125.932 43.8882 125.932C44.9265 125.932 45.8479 126.137 46.4338 126.456C46.8478 126.681 47.0932 126.962 47.0932 127.267C47.0932 127.334 47.0815 127.399 47.0581 127.462C46.9813 127.683 46.7743 127.885 46.4739 128.055C46.4722 128.057 46.4689 128.057 46.4672 128.058C46.4622 128.062 46.4572 128.063 46.4522 128.067C45.8679 128.39 44.9365 128.601 43.8882 128.601C42.8933 128.601 42.0036 128.412 41.4144 128.115C41.3826 128.1 41.3526 128.083 41.3226 128.067C40.9219 127.845 40.6832 127.568 40.6832 127.267C40.6832 126.686 41.5746 126.19 42.8199 126.008C42.9951 125.983 43.1771 125.963 43.3657 125.95ZM47.6273 127.267C47.6273 126.902 47.4504 126.601 47.225 126.376C47.6974 126.302 48.1298 126.185 48.497 126.033C48.7691 125.92 49.0228 125.78 49.2298 125.608V126.199C49.2298 126.521 48.9544 126.818 48.4987 127.048C48.255 127.172 47.9578 127.277 47.624 127.357C47.6257 127.327 47.6273 127.299 47.6273 127.269V127.267ZM47.0932 128.87C47.0932 129.17 46.8545 129.447 46.4522 129.671C46.4221 129.687 46.3921 129.703 46.3604 129.719C45.7728 130.016 44.8831 130.205 43.8882 130.205C42.8399 130.205 41.9085 129.995 41.3242 129.671C40.9219 129.447 40.6832 129.17 40.6832 128.87V128.279C40.8919 128.451 41.1439 128.591 41.416 128.704C42.0754 128.98 42.9501 129.137 43.8882 129.137C44.8263 129.137 45.701 128.98 46.3604 128.704C46.4906 128.651 46.6158 128.589 46.7343 128.522C46.8361 128.466 46.9312 128.402 47.0214 128.335C47.0464 128.317 47.0698 128.297 47.0932 128.279V128.87ZM47.6273 128.87V127.903C47.9445 127.833 48.2366 127.744 48.497 127.636C48.7691 127.522 49.0228 127.382 49.2298 127.21V127.801C49.2298 127.977 49.1463 128.152 48.9811 128.317C48.709 128.589 48.2299 128.813 47.624 128.958C47.6257 128.93 47.6273 128.9 47.6273 128.87ZM43.8882 130.739C44.8263 130.739 45.701 130.582 46.3604 130.307C46.6325 130.193 46.8862 130.053 47.0932 129.881V130.472C47.0932 131.21 45.6576 131.807 43.8882 131.807C42.1188 131.807 40.6832 131.21 40.6832 130.472V129.881C40.8919 130.053 41.1439 130.193 41.416 130.307C42.0754 130.582 42.9501 130.739 43.8882 130.739Z" fill="#676768"/>
<path d="M58.2264 124.925V125.599H56.3595V130.534H55.6865V125.599H53.8236V124.925H58.2264ZM60.1753 130.638C59.8068 130.638 59.4702 130.544 59.1658 130.354C58.864 130.164 58.6223 129.911 58.4406 129.593C58.2617 129.272 58.1722 128.918 58.1722 128.531C58.1722 128.237 58.2243 127.964 58.3285 127.71C58.4326 127.453 58.5755 127.229 58.7571 127.037C58.9414 126.842 59.1551 126.69 59.3981 126.58C59.6412 126.471 59.9002 126.416 60.1753 126.416C60.5439 126.416 60.8791 126.511 61.1809 126.7C61.4854 126.89 61.7271 127.145 61.906 127.465C62.0876 127.786 62.1784 128.141 62.1784 128.531C62.1784 128.822 62.1264 129.095 62.0222 129.348C61.918 129.602 61.7738 129.826 61.5895 130.021C61.4079 130.214 61.1956 130.365 60.9525 130.474C60.7122 130.584 60.4531 130.638 60.1753 130.638ZM60.1753 129.965C60.4264 129.965 60.6521 129.9 60.8524 129.769C61.0554 129.635 61.2143 129.461 61.3291 129.244C61.4466 129.025 61.5054 128.787 61.5054 128.531C61.5054 128.269 61.4453 128.029 61.3251 127.81C61.2076 127.591 61.0487 127.416 60.8484 127.285C60.6481 127.154 60.4237 127.089 60.1753 127.089C59.9243 127.089 59.6986 127.156 59.4983 127.289C59.298 127.42 59.1391 127.595 59.0215 127.814C58.904 128.033 58.8453 128.272 58.8453 128.531C58.8453 128.798 58.9054 129.041 59.0255 129.26C59.1457 129.477 59.3073 129.649 59.5103 129.777C59.7133 129.903 59.935 129.965 60.1753 129.965ZM64.8696 127.201H63.9602L63.9562 130.534H63.2832L63.2872 127.201H62.5981V126.528H63.2872L63.2832 125.27H63.9562L63.9602 126.528H64.8696V127.201ZM68.7071 126.528H69.3801V130.534H68.7071L68.679 129.857C68.5535 130.089 68.3799 130.278 68.1582 130.422C67.9392 130.566 67.6775 130.638 67.373 130.638C67.0792 130.638 66.8041 130.584 66.5477 130.474C66.2913 130.362 66.0643 130.208 65.8667 130.013C65.6717 129.816 65.5195 129.589 65.4099 129.332C65.3004 129.076 65.2457 128.799 65.2457 128.503C65.2457 128.217 65.2991 127.948 65.4059 127.694C65.5128 127.44 65.661 127.218 65.8506 127.029C66.0429 126.836 66.2646 126.687 66.5157 126.58C66.7667 126.471 67.0365 126.416 67.3249 126.416C67.6401 126.416 67.9165 126.491 68.1542 126.64C68.3919 126.787 68.5842 126.978 68.7311 127.213L68.7071 126.528ZM67.361 129.985C67.6254 129.985 67.8537 129.921 68.046 129.793C68.241 129.662 68.3906 129.486 68.4947 129.264C68.6016 129.043 68.655 128.798 68.655 128.531C68.655 128.259 68.6016 128.013 68.4947 127.794C68.3879 127.572 68.237 127.397 68.042 127.269C67.8497 127.138 67.6227 127.073 67.361 127.073C67.0966 127.073 66.8562 127.138 66.6399 127.269C66.4235 127.4 66.2513 127.576 66.1231 127.798C65.9975 128.017 65.9348 128.261 65.9348 128.531C65.9348 128.801 66.0002 129.047 66.1311 129.268C66.2619 129.487 66.4355 129.662 66.6519 129.793C66.8682 129.921 67.1046 129.985 67.361 129.985ZM70.2278 130.534V124.525H70.9008V130.534H70.2278ZM74.461 132.537H73.788V126.528H74.461V127.213C74.5973 126.978 74.7789 126.788 75.0059 126.644C75.2329 126.497 75.5027 126.424 75.8151 126.424C76.1063 126.424 76.3787 126.479 76.6324 126.588C76.8888 126.698 77.1132 126.85 77.3055 127.045C77.4978 127.237 77.6487 127.46 77.7582 127.714C77.8677 127.968 77.9224 128.24 77.9224 128.531C77.9224 128.822 77.8677 129.096 77.7582 129.352C77.6487 129.609 77.4978 129.834 77.3055 130.029C77.1132 130.222 76.8888 130.373 76.6324 130.482C76.3787 130.592 76.1063 130.646 75.8151 130.646C75.5027 130.646 75.2329 130.574 75.0059 130.43C74.7789 130.283 74.5973 130.092 74.461 129.857V132.537ZM75.8071 127.077C75.5481 127.077 75.321 127.142 75.1261 127.273C74.9311 127.404 74.7802 127.579 74.6734 127.798C74.5692 128.017 74.5171 128.261 74.5171 128.531C74.5171 128.798 74.5692 129.043 74.6734 129.264C74.7802 129.486 74.9298 129.662 75.1221 129.793C75.317 129.924 75.5454 129.989 75.8071 129.989C76.0662 129.989 76.3039 129.925 76.5202 129.797C76.7366 129.666 76.9102 129.491 77.041 129.272C77.1719 129.051 77.2373 128.803 77.2373 128.531C77.2373 128.264 77.1732 128.021 77.0451 127.802C76.9169 127.58 76.7446 127.404 76.5282 127.273C76.3119 127.142 76.0715 127.077 75.8071 127.077ZM78.5923 130.534V126.528H79.2654V127.029C79.4069 126.842 79.5859 126.694 79.8022 126.584C80.0185 126.472 80.2536 126.416 80.5073 126.416C80.6622 126.416 80.8118 126.436 80.956 126.476L80.6836 127.149C80.5741 127.114 80.4672 127.097 80.3631 127.097C80.1628 127.097 79.9785 127.146 79.8102 127.245C79.6446 127.341 79.5124 127.472 79.4136 127.638C79.3148 127.803 79.2654 127.988 79.2654 128.191V130.534H78.5923ZM83.0076 130.638C82.639 130.638 82.3025 130.544 81.998 130.354C81.6962 130.164 81.4545 129.911 81.2729 129.593C81.094 129.272 81.0045 128.918 81.0045 128.531C81.0045 128.237 81.0566 127.964 81.1607 127.71C81.2649 127.453 81.4078 127.229 81.5894 127.037C81.7737 126.842 81.9874 126.69 82.2304 126.58C82.4734 126.471 82.7325 126.416 83.0076 126.416C83.3762 126.416 83.7114 126.511 84.0132 126.7C84.3176 126.89 84.5593 127.145 84.7383 127.465C84.9199 127.786 85.0107 128.141 85.0107 128.531C85.0107 128.822 84.9586 129.095 84.8545 129.348C84.7503 129.602 84.6061 129.826 84.4218 130.021C84.2402 130.214 84.0279 130.365 83.7848 130.474C83.5444 130.584 83.2854 130.638 83.0076 130.638ZM83.0076 129.965C83.2587 129.965 83.4843 129.9 83.6847 129.769C83.8876 129.635 84.0466 129.461 84.1614 129.244C84.2789 129.025 84.3377 128.787 84.3377 128.531C84.3377 128.269 84.2776 128.029 84.1574 127.81C84.0399 127.591 83.881 127.416 83.6806 127.285C83.4803 127.154 83.256 127.089 83.0076 127.089C82.7566 127.089 82.5309 127.156 82.3306 127.289C82.1302 127.42 81.9713 127.595 81.8538 127.814C81.7363 128.033 81.6775 128.272 81.6775 128.531C81.6775 128.798 81.7376 129.041 81.8578 129.26C81.978 129.477 82.1396 129.649 82.3426 129.777C82.5456 129.903 82.7672 129.965 83.0076 129.965ZM88.4104 129.477L89.0114 129.801C88.8297 130.055 88.5987 130.258 88.3183 130.41C88.0405 130.562 87.7387 130.638 87.4129 130.638C87.0443 130.638 86.7078 130.544 86.4033 130.354C86.1015 130.164 85.8598 129.911 85.6782 129.593C85.4992 129.272 85.4098 128.918 85.4098 128.531C85.4098 128.237 85.4618 127.964 85.566 127.71C85.6702 127.453 85.8131 127.229 85.9947 127.037C86.179 126.842 86.3926 126.69 86.6357 126.58C86.8787 126.471 87.1378 126.416 87.4129 126.416C87.7387 126.416 88.0405 126.492 88.3183 126.644C88.5987 126.796 88.8297 127.001 89.0114 127.257L88.4104 127.582C88.2822 127.424 88.13 127.303 87.9537 127.217C87.7774 127.132 87.5972 127.089 87.4129 127.089C87.1645 127.089 86.9388 127.156 86.7358 127.289C86.5355 127.42 86.3766 127.595 86.2591 127.814C86.1416 128.033 86.0828 128.272 86.0828 128.531C86.0828 128.79 86.1416 129.029 86.2591 129.248C86.3793 129.465 86.5395 129.638 86.7398 129.769C86.9428 129.9 87.1672 129.965 87.4129 129.965C87.6105 129.965 87.7961 129.92 87.9697 129.829C88.1433 129.738 88.2902 129.621 88.4104 129.477ZM91.4269 130.638C91.0583 130.638 90.7218 130.544 90.4173 130.354C90.1155 130.164 89.8738 129.911 89.6922 129.593C89.5133 129.272 89.4238 128.918 89.4238 128.531C89.4238 128.237 89.4759 127.964 89.58 127.71C89.6842 127.453 89.8271 127.229 90.0087 127.037C90.193 126.842 90.4067 126.69 90.6497 126.58C90.8928 126.471 91.1518 126.416 91.4269 126.416C91.7287 126.416 92.0051 126.477 92.2562 126.6C92.5099 126.72 92.7263 126.889 92.9052 127.105C93.0868 127.321 93.2217 127.572 93.3098 127.858C93.4006 128.144 93.434 128.45 93.41 128.775H90.1409C90.173 129.002 90.2478 129.205 90.3653 129.384C90.4828 129.561 90.6323 129.701 90.814 129.805C90.9982 129.909 91.2026 129.963 91.4269 129.965C91.6673 129.965 91.885 129.904 92.0799 129.781C92.2749 129.655 92.4325 129.485 92.5527 129.268L93.2377 129.428C93.0775 129.784 92.8358 130.075 92.5126 130.302C92.1894 130.526 91.8275 130.638 91.4269 130.638ZM90.1209 128.247H92.7329C92.7116 128.022 92.6395 127.818 92.5166 127.634C92.3937 127.447 92.2375 127.297 92.0479 127.185C91.8582 127.073 91.6513 127.017 91.4269 127.017C91.2026 127.017 90.9969 127.071 90.81 127.181C90.623 127.29 90.4681 127.439 90.3452 127.626C90.225 127.81 90.1503 128.017 90.1209 128.247ZM95.3226 130.61C95.1063 130.602 94.8953 130.562 94.6897 130.49C94.4867 130.415 94.3077 130.315 94.1528 130.19C94.0006 130.061 93.8898 129.915 93.8203 129.749L94.3972 129.501C94.4373 129.591 94.5094 129.677 94.6135 129.757C94.7177 129.837 94.8379 129.901 94.9741 129.949C95.1103 129.997 95.2479 130.021 95.3867 130.021C95.5336 130.021 95.6712 129.999 95.7994 129.953C95.9276 129.908 96.0317 129.841 96.1119 129.753C96.1947 129.662 96.2361 129.554 96.2361 129.428C96.2361 129.295 96.1907 129.191 96.0998 129.116C96.0117 129.039 95.8995 128.978 95.7633 128.936C95.6298 128.89 95.4936 128.848 95.3547 128.808C95.0796 128.738 94.8339 128.655 94.6175 128.559C94.4012 128.46 94.2303 128.336 94.1048 128.187C93.9819 128.034 93.9205 127.841 93.9205 127.606C93.9205 127.357 93.9886 127.142 94.1248 126.961C94.2637 126.779 94.4453 126.639 94.6696 126.54C94.894 126.441 95.1343 126.392 95.3907 126.392C95.7139 126.392 96.009 126.461 96.2761 126.6C96.5432 126.739 96.7422 126.927 96.873 127.165L96.3322 127.481C96.2868 127.385 96.2174 127.301 96.1239 127.229C96.0304 127.154 95.9236 127.096 95.8034 127.053C95.6832 127.01 95.5603 126.987 95.4348 126.985C95.2799 126.979 95.1343 126.999 94.9981 127.045C94.8646 127.09 94.7564 127.16 94.6736 127.253C94.5935 127.344 94.5534 127.457 94.5534 127.594C94.5534 127.727 94.5962 127.829 94.6816 127.898C94.7698 127.968 94.8833 128.024 95.0222 128.066C95.1637 128.106 95.3173 128.153 95.4829 128.207C95.7259 128.284 95.9529 128.373 96.1639 128.475C96.3749 128.576 96.5445 128.703 96.6727 128.856C96.8036 129.008 96.8677 129.196 96.865 129.42C96.865 129.666 96.7916 129.881 96.6447 130.065C96.4978 130.247 96.3068 130.386 96.0718 130.482C95.8394 130.578 95.5897 130.621 95.3226 130.61ZM98.7733 130.61C98.557 130.602 98.346 130.562 98.1403 130.49C97.9373 130.415 97.7584 130.315 97.6035 130.19C97.4512 130.061 97.3404 129.915 97.271 129.749L97.8479 129.501C97.8879 129.591 97.96 129.677 98.0642 129.757C98.1684 129.837 98.2885 129.901 98.4248 129.949C98.561 129.997 98.6985 130.021 98.8374 130.021C98.9843 130.021 99.1218 129.999 99.25 129.953C99.3782 129.908 99.4824 129.841 99.5625 129.753C99.6453 129.662 99.6867 129.554 99.6867 129.428C99.6867 129.295 99.6413 129.191 99.5505 129.116C99.4624 129.039 99.3502 128.978 99.214 128.936C99.0804 128.89 98.9442 128.848 98.8053 128.808C98.5303 128.738 98.2845 128.655 98.0682 128.559C97.8519 128.46 97.6809 128.336 97.5554 128.187C97.4326 128.034 97.3711 127.841 97.3711 127.606C97.3711 127.357 97.4392 127.142 97.5754 126.961C97.7143 126.779 97.8959 126.639 98.1203 126.54C98.3446 126.441 98.585 126.392 98.8414 126.392C99.1646 126.392 99.4597 126.461 99.7268 126.6C99.9939 126.739 100.193 126.927 100.324 127.165L99.7829 127.481C99.7375 127.385 99.668 127.301 99.5745 127.229C99.4811 127.154 99.3742 127.096 99.254 127.053C99.1339 127.01 99.011 126.987 98.8855 126.985C98.7306 126.979 98.585 126.999 98.4488 127.045C98.3153 127.09 98.2071 127.16 98.1243 127.253C98.0442 127.344 98.0041 127.457 98.0041 127.594C98.0041 127.727 98.0468 127.829 98.1323 127.898C98.2204 127.968 98.334 128.024 98.4728 128.066C98.6144 128.106 98.768 128.153 98.9335 128.207C99.1766 128.284 99.4036 128.373 99.6146 128.475C99.8256 128.576 99.9952 128.703 100.123 128.856C100.254 129.008 100.318 129.196 100.316 129.42C100.316 129.666 100.242 129.881 100.095 130.065C99.9485 130.247 99.7575 130.386 99.5225 130.482C99.2901 130.578 99.0404 130.621 98.7733 130.61ZM102.726 130.638C102.357 130.638 102.021 130.544 101.716 130.354C101.414 130.164 101.173 129.911 100.991 129.593C100.812 129.272 100.723 128.918 100.723 128.531C100.723 128.237 100.775 127.964 100.879 127.71C100.983 127.453 101.126 127.229 101.307 127.037C101.492 126.842 101.705 126.69 101.948 126.58C102.192 126.471 102.451 126.416 102.726 126.416C103.027 126.416 103.304 126.477 103.555 126.6C103.809 126.72 104.025 126.889 104.204 127.105C104.386 127.321 104.52 127.572 104.609 127.858C104.699 128.144 104.733 128.45 104.709 128.775H101.44C101.472 129.002 101.547 129.205 101.664 129.384C101.782 129.561 101.931 129.701 102.113 129.805C102.297 129.909 102.501 129.963 102.726 129.965C102.966 129.965 103.184 129.904 103.379 129.781C103.574 129.655 103.731 129.485 103.851 129.268L104.536 129.428C104.376 129.784 104.135 130.075 103.811 130.302C103.488 130.526 103.126 130.638 102.726 130.638ZM101.42 128.247H104.032C104.01 128.022 103.938 127.818 103.815 127.634C103.693 127.447 103.536 127.297 103.347 127.185C103.157 127.073 102.95 127.017 102.726 127.017C102.501 127.017 102.296 127.071 102.109 127.181C101.922 127.29 101.767 127.439 101.644 127.626C101.524 127.81 101.449 128.017 101.42 128.247ZM108.585 124.525H109.258V130.534H108.585V129.853C108.449 130.088 108.266 130.278 108.037 130.422C107.807 130.566 107.537 130.638 107.227 130.638C106.936 130.638 106.664 130.584 106.41 130.474C106.156 130.365 105.932 130.214 105.737 130.021C105.545 129.826 105.394 129.602 105.284 129.348C105.175 129.095 105.12 128.822 105.12 128.531C105.12 128.24 105.175 127.968 105.284 127.714C105.394 127.457 105.545 127.233 105.737 127.041C105.932 126.846 106.156 126.694 106.41 126.584C106.664 126.475 106.936 126.42 107.227 126.42C107.537 126.42 107.807 126.492 108.037 126.636C108.266 126.78 108.449 126.97 108.585 127.205V124.525ZM107.235 129.985C107.5 129.985 107.728 129.921 107.92 129.793C108.115 129.662 108.265 129.486 108.369 129.264C108.476 129.043 108.529 128.798 108.529 128.531C108.529 128.259 108.476 128.013 108.369 127.794C108.262 127.572 108.111 127.397 107.916 127.269C107.724 127.138 107.497 127.073 107.235 127.073C106.971 127.073 106.731 127.138 106.514 127.269C106.301 127.4 106.13 127.576 106.001 127.798C105.873 128.017 105.809 128.261 105.809 128.531C105.809 128.801 105.875 129.047 106.005 129.268C106.136 129.487 106.31 129.662 106.526 129.793C106.743 129.921 106.979 129.985 107.235 129.985Z" fill="#676768"/>
<path d="M43.8508 141.183C43.5339 141.179 43.2383 141.231 42.9641 141.338C42.6899 141.445 42.4673 141.592 42.2964 141.781C42.1255 141.97 42.04 142.189 42.04 142.438C42.04 142.737 42.1183 142.967 42.275 143.127C42.4353 143.284 42.6525 143.401 42.9267 143.48C43.2009 143.558 43.5089 143.627 43.8508 143.688C44.3351 143.77 44.7838 143.9 45.1969 144.078C45.61 144.252 45.9412 144.486 46.1904 144.778C46.4433 145.07 46.5697 145.429 46.5697 145.857C46.5697 146.256 46.4611 146.608 46.2438 146.914C46.0266 147.221 45.7382 147.468 45.3785 147.657C45.0188 147.842 44.6218 147.954 44.1873 147.993V149.072H43.5303V147.993C43.1635 147.965 42.8163 147.885 42.4887 147.753C42.1611 147.621 41.8762 147.445 41.634 147.224C41.3919 147 41.2174 146.74 41.1106 146.444L41.9492 146.129C42.0204 146.329 42.1522 146.503 42.3445 146.653C42.5403 146.799 42.77 146.913 43.0335 146.994C43.2971 147.076 43.5695 147.117 43.8508 147.117C44.1713 147.117 44.4687 147.066 44.7429 146.962C45.0206 146.856 45.245 146.708 45.4159 146.519C45.5868 146.33 45.6723 146.11 45.6723 145.857C45.6723 145.597 45.5833 145.385 45.4052 145.221C45.2272 145.054 44.9993 144.922 44.7215 144.826C44.4437 144.726 44.1535 144.65 43.8508 144.596C43.3344 144.511 42.8715 144.39 42.462 144.233C42.056 144.073 41.7337 143.85 41.4952 143.565C41.2601 143.28 41.1426 142.905 41.1426 142.438C41.1426 142.039 41.2512 141.687 41.4684 141.38C41.6857 141.071 41.9741 140.823 42.3338 140.638C42.697 140.453 43.0959 140.341 43.5303 140.301V139.201H44.1873V140.301C44.5399 140.333 44.8782 140.415 45.2022 140.547C45.5263 140.675 45.8112 140.85 46.0569 141.071C46.3062 141.291 46.4878 141.555 46.6017 141.861L45.7524 142.171C45.6812 141.968 45.5477 141.794 45.3518 141.648C45.1595 141.498 44.9316 141.384 44.6681 141.306C44.4081 141.224 44.1357 141.183 43.8508 141.183ZM48.2924 147.876V141.295H47.4537L47.7048 140.398H49.1898V147.876H48.2924ZM50.4688 147.876V147.08C50.743 146.834 51.0511 146.56 51.3929 146.257C51.7348 145.951 52.0749 145.632 52.4132 145.301C52.755 144.966 53.0684 144.635 53.3533 144.308C53.6382 143.98 53.8679 143.67 54.0424 143.378C54.2168 143.083 54.3041 142.824 54.3041 142.604C54.3041 142.34 54.24 142.1 54.1118 141.883C53.9836 141.662 53.8109 141.486 53.5937 141.354C53.38 141.222 53.1414 141.156 52.8779 141.156C52.6144 141.156 52.3722 141.222 52.1514 141.354C51.9342 141.486 51.7597 141.662 51.6279 141.883C51.4997 142.1 51.4356 142.34 51.4356 142.604H50.5383C50.5383 142.166 50.6451 141.77 50.8588 141.418C51.0724 141.062 51.3555 140.78 51.7081 140.574C52.0606 140.364 52.4506 140.259 52.8779 140.259C53.3052 140.259 53.6934 140.364 54.0424 140.574C54.3949 140.784 54.6762 141.067 54.8863 141.423C55.0964 141.776 55.2015 142.169 55.2015 142.604C55.2015 142.853 55.1409 143.122 55.0199 143.41C54.8988 143.695 54.7332 143.989 54.5231 144.292C54.313 144.594 54.0744 144.901 53.8073 145.21C53.5402 145.517 53.2589 145.819 52.9634 146.118C52.6678 146.418 52.374 146.704 52.082 146.978H55.2976V147.876H50.4688ZM58.7938 148.015C58.3309 148.015 57.9107 147.903 57.5332 147.678C57.1557 147.454 56.8566 147.155 56.6358 146.781C56.4186 146.403 56.31 145.988 56.31 145.536H57.2073C57.2073 145.825 57.2786 146.09 57.421 146.332C57.5635 146.571 57.754 146.761 57.9926 146.904C58.2347 147.046 58.5018 147.117 58.7938 147.117C59.0823 147.117 59.3458 147.046 59.5844 146.904C59.823 146.761 60.0135 146.571 60.1559 146.332C60.2984 146.09 60.3696 145.825 60.3696 145.536C60.3696 145.248 60.3019 144.982 60.1666 144.74C60.0348 144.498 59.8408 144.306 59.5844 144.163C59.328 144.017 59.0164 143.944 58.6496 143.944H56.8067L57.5332 140.398H61.08V141.295H58.2596L57.9124 143.047L58.687 143.052C59.1962 143.063 59.6431 143.177 60.0277 143.394C60.4159 143.608 60.7186 143.9 60.9358 144.27C61.1566 144.637 61.267 145.059 61.267 145.536C61.267 145.875 61.2029 146.195 61.0747 146.498C60.9465 146.797 60.7684 147.06 60.5405 147.288C60.3126 147.516 60.0491 147.694 59.75 147.822C59.4544 147.951 59.1357 148.015 58.7938 148.015ZM68.1131 147.876V145.857H64.8974V144.949L67.8887 140.398H69.0105V144.959H69.753V145.857H69.0105V147.876H68.1131ZM65.9497 144.949L68.1131 144.959L68.0971 141.658L65.9497 144.949ZM73.0454 148.015C72.5931 148.015 72.1907 147.913 71.8382 147.71C71.4892 147.504 71.215 147.23 71.0156 146.888C70.8162 146.542 70.7165 146.159 70.7165 145.739H71.6139C71.6139 145.992 71.6726 146.224 71.7901 146.434C71.9076 146.64 72.0732 146.806 72.2869 146.93C72.5006 147.055 72.7534 147.117 73.0454 147.117C73.2982 147.117 73.5333 147.055 73.7505 146.93C73.9713 146.806 74.1493 146.64 74.2847 146.434C74.42 146.224 74.4876 145.992 74.4876 145.739C74.4876 145.422 74.4057 145.159 74.2419 144.949C74.0817 144.735 73.8573 144.577 73.5689 144.473C73.284 144.366 72.9582 144.313 72.5914 144.313V143.592C73.097 143.592 73.5012 143.487 73.8039 143.277C74.1102 143.067 74.2633 142.757 74.2633 142.347C74.2633 142.13 74.2045 141.931 74.087 141.749C73.9695 141.567 73.8146 141.423 73.6223 141.316C73.4336 141.206 73.2306 141.151 73.0134 141.151C72.7926 141.151 72.5807 141.206 72.3777 141.316C72.1747 141.423 72.0091 141.567 71.8809 141.749C71.7527 141.931 71.6886 142.13 71.6886 142.347H70.7912C70.7912 142.059 70.85 141.788 70.9675 141.535C71.0886 141.283 71.2524 141.06 71.4589 140.868C71.669 140.675 71.9059 140.526 72.1694 140.419C72.4329 140.309 72.7107 140.253 73.0027 140.253C73.3837 140.253 73.738 140.348 74.0657 140.536C74.3933 140.725 74.6568 140.978 74.8562 141.295C75.0592 141.612 75.1607 141.963 75.1607 142.347C75.1607 142.693 75.0734 143.011 74.8989 143.303C74.7245 143.595 74.4876 143.8 74.1885 143.918C74.4485 144.007 74.6675 144.146 74.8455 144.334C75.0236 144.52 75.1571 144.733 75.2461 144.975C75.3387 145.218 75.385 145.472 75.385 145.739C75.385 146.156 75.2764 146.537 75.0592 146.882C74.8455 147.228 74.5606 147.504 74.2045 147.71C73.852 147.913 73.4656 148.015 73.0454 148.015ZM78.9059 148.015C78.4608 148.015 78.0619 147.915 77.7094 147.716C77.3568 147.513 77.0541 147.233 76.8013 146.877C76.5485 146.521 76.3562 146.11 76.2244 145.643C76.0927 145.173 76.0268 144.671 76.0268 144.137C76.0268 143.603 76.0927 143.1 76.2244 142.63C76.3562 142.16 76.5485 141.749 76.8013 141.396C77.0541 141.04 77.3568 140.763 77.7094 140.563C78.0619 140.36 78.4608 140.259 78.9059 140.259C79.3475 140.259 79.7445 140.36 80.0971 140.563C80.4532 140.763 80.7541 141.04 80.9998 141.396C81.2491 141.749 81.4396 142.16 81.5714 142.63C81.7067 143.1 81.7744 143.603 81.7744 144.137C81.7744 144.671 81.7067 145.173 81.5714 145.643C81.4396 146.11 81.2491 146.521 80.9998 146.877C80.7541 147.233 80.4532 147.513 80.0971 147.716C79.7445 147.915 79.3475 148.015 78.9059 148.015ZM78.9059 147.117C79.351 147.117 79.7232 146.98 80.0223 146.706C80.325 146.428 80.5511 146.063 80.7007 145.611C80.8503 145.159 80.925 144.667 80.925 144.137C80.925 143.578 80.8467 143.074 80.69 142.625C80.5369 142.173 80.309 141.815 80.0063 141.551C79.7071 141.288 79.3404 141.156 78.9059 141.156C78.564 141.156 78.2649 141.236 78.0085 141.396C77.7557 141.557 77.5456 141.776 77.3782 142.053C77.2108 142.331 77.0844 142.65 76.999 143.01C76.917 143.366 76.8761 143.741 76.8761 144.137C76.8761 144.667 76.9527 145.161 77.1058 145.616C77.2589 146.069 77.485 146.432 77.7842 146.706C78.0869 146.98 78.4608 147.117 78.9059 147.117ZM82.5185 148.474L82.8497 146.669H83.7471L83.1168 148.474H82.5185ZM87.2442 148.015C86.7812 148.015 86.361 147.903 85.9835 147.678C85.6061 147.454 85.3069 147.155 85.0862 146.781C84.8689 146.403 84.7603 145.988 84.7603 145.536H85.6577C85.6577 145.825 85.7289 146.09 85.8714 146.332C86.0138 146.571 86.2043 146.761 86.4429 146.904C86.6851 147.046 86.9522 147.117 87.2442 147.117C87.5326 147.117 87.7961 147.046 88.0347 146.904C88.2733 146.761 88.4638 146.571 88.6063 146.332C88.7487 146.09 88.8199 145.825 88.8199 145.536C88.8199 145.248 88.7523 144.982 88.617 144.74C88.4852 144.498 88.2911 144.306 88.0347 144.163C87.7783 144.017 87.4667 143.944 87.0999 143.944H85.2571L85.9835 140.398H89.5304V141.295H86.71L86.3628 143.047L87.1373 143.052C87.6466 143.063 88.0935 143.177 88.4781 143.394C88.8662 143.608 89.1689 143.9 89.3862 144.27C89.6069 144.637 89.7173 145.059 89.7173 145.536C89.7173 145.875 89.6532 146.195 89.525 146.498C89.3968 146.797 89.2188 147.06 88.9909 147.288C88.763 147.516 88.4994 147.694 88.2003 147.822C87.9047 147.951 87.586 148.015 87.2442 148.015Z" fill="#242428"/>
<rect x="247.671" y="32.677" width="33.8323" height="16.559" rx="8.2795" fill="#F4F6FA"/>
<rect x="247.671" y="32.677" width="33.8323" height="16.559" rx="8.2795" stroke="#E9ECF2" stroke-width="0.534162"/>
<g clip-path="url(#clip0_2056_31981)">
<path d="M261.148 42.1194C260.506 44.6949 257.897 46.2622 255.321 45.62C252.747 44.9779 251.179 42.3693 251.822 39.794C252.463 37.2182 255.072 35.6507 257.647 36.2928C260.222 36.9349 261.79 39.5438 261.148 42.1194Z" fill="#F7931A"/>
<path d="M258.604 40.2715C258.7 39.6318 258.213 39.288 257.547 39.0586L257.763 38.192L257.235 38.0606L257.025 38.9043C256.886 38.8697 256.744 38.8371 256.602 38.8048L256.814 37.9556L256.287 37.8241L256.071 38.6903C255.956 38.6642 255.843 38.6384 255.734 38.6112L255.735 38.6085L255.007 38.4268L254.867 38.9902C254.867 38.9902 255.258 39.0799 255.25 39.0855C255.464 39.1388 255.502 39.2802 255.496 39.3922L255.25 40.3794C255.264 40.3832 255.283 40.3886 255.304 40.397C255.287 40.3926 255.268 40.3878 255.249 40.3832L254.904 41.7661C254.878 41.831 254.811 41.9283 254.662 41.8914C254.667 41.899 254.279 41.7957 254.279 41.7957L254.017 42.3994L254.703 42.5706C254.831 42.6026 254.956 42.6361 255.079 42.6676L254.861 43.5441L255.388 43.6755L255.604 42.8084C255.748 42.8474 255.888 42.8835 256.024 42.9174L255.809 43.7805L256.336 43.912L256.555 43.0372C257.454 43.2074 258.131 43.1387 258.415 42.3252C258.645 41.6702 258.404 41.2924 257.931 41.046C258.275 40.9665 258.535 40.7398 258.604 40.2715ZM257.399 41.9615C257.236 42.6165 256.133 42.2624 255.775 42.1736L256.065 41.0125C256.423 41.1017 257.569 41.2784 257.399 41.9615ZM257.562 40.2621C257.413 40.8579 256.495 40.5552 256.198 40.481L256.46 39.4278C256.758 39.502 257.717 39.6406 257.562 40.2621Z" fill="white"/>
</g>
<path d="M264.913 42.9565V38.0957H266.59C266.831 38.0957 267.05 38.1454 267.247 38.245C267.446 38.3422 267.603 38.4845 267.719 38.672C267.835 38.8595 267.892 39.0841 267.892 39.3456C267.892 39.4868 267.868 39.6234 267.82 39.7553C267.773 39.8849 267.708 39.9972 267.625 40.0921C267.544 40.1847 267.452 40.2472 267.347 40.2796C267.493 40.3166 267.617 40.3826 267.719 40.4775C267.821 40.5701 267.903 40.6789 267.965 40.8039C268.03 40.9289 268.077 41.0596 268.104 41.1962C268.132 41.3328 268.146 41.4647 268.146 41.592C268.146 41.8605 268.085 42.0978 267.962 42.3038C267.842 42.5075 267.68 42.6672 267.476 42.7829C267.272 42.8987 267.048 42.9565 266.802 42.9565H264.913ZM265.497 42.4427H266.75C266.91 42.4427 267.055 42.4022 267.184 42.3212C267.316 42.2378 267.421 42.1244 267.5 41.9809C267.579 41.8374 267.618 41.6754 267.618 41.4948C267.618 41.3351 267.579 41.1846 267.5 41.0434C267.421 40.8999 267.316 40.7842 267.184 40.6962C267.055 40.6083 266.91 40.5643 266.75 40.5643H265.497V42.4427ZM265.497 40.0609H266.535C266.748 40.0609 266.93 39.9984 267.08 39.8734C267.233 39.7461 267.309 39.569 267.309 39.3421C267.309 39.0968 267.233 38.9139 267.08 38.7936C266.93 38.6709 266.748 38.6095 266.535 38.6095H265.497V40.0609ZM272.239 38.0957V38.679H270.621V42.9565H270.037V38.679H268.423V38.0957H272.239ZM274.908 43.0468C274.579 43.0468 274.27 42.982 273.981 42.8524C273.691 42.7204 273.437 42.5399 273.217 42.3107C272.999 42.0793 272.828 41.8108 272.703 41.5052C272.58 41.1997 272.519 40.8733 272.519 40.5261C272.519 40.1789 272.58 39.8525 272.703 39.547C272.828 39.2414 272.999 38.9741 273.217 38.7449C273.437 38.5135 273.691 38.3329 273.981 38.2033C274.27 38.0714 274.579 38.0054 274.908 38.0054C275.301 38.0054 275.663 38.0968 275.994 38.2797C276.325 38.4626 276.6 38.7056 276.817 39.0088L276.3 39.2866C276.138 39.0736 275.933 38.9047 275.685 38.7797C275.44 38.6524 275.181 38.5887 274.908 38.5887C274.655 38.5887 274.419 38.6396 274.199 38.7415C273.982 38.8433 273.791 38.9834 273.626 39.1616C273.462 39.3398 273.334 39.5458 273.241 39.7796C273.148 40.0134 273.102 40.2622 273.102 40.5261C273.102 40.7923 273.148 41.0423 273.241 41.2761C273.336 41.5099 273.466 41.7159 273.63 41.8941C273.797 42.0723 273.989 42.2124 274.206 42.3142C274.426 42.4137 274.66 42.4635 274.908 42.4635C275.19 42.4635 275.452 42.3999 275.692 42.2725C275.935 42.1429 276.138 41.974 276.3 41.7656L276.817 42.0469C276.6 42.3501 276.325 42.5931 275.994 42.776C275.663 42.9565 275.301 43.0468 274.908 43.0468Z" fill="#676768"/>
</g>
<defs>
<filter id="filter0_d_2056_31981" x="0" y="0" width="318" height="228.795" filterUnits="userSpaceOnUse" color-interpolation-filters="sRGB">
<feFlood flood-opacity="0" result="BackgroundImageFix"/>
<feColorMatrix in="SourceAlpha" type="matrix" values="0 0 0 0 0 0 0 0 0 0 0 0 0 0 0 0 0 0 127 0" result="hardAlpha"/>
<feOffset dy="4"/>
<feGaussianBlur stdDeviation="15"/>
<feComposite in2="hardAlpha" operator="out"/>
<feColorMatrix type="matrix" values="0 0 0 0 0.068747 0 0 0 0 0.073355 0 0 0 0 0.362511 0 0 0 0.16 0"/>
<feBlend mode="normal" in2="BackgroundImageFix" result="effect1_dropShadow_2056_31981"/>
<feBlend mode="normal" in="SourceGraphic" in2="effect1_dropShadow_2056_31981" result="shape"/>
</filter>
<filter id="filter1_d_2056_31981" x="39.6149" y="89.9503" width="212.062" height="23.5031" filterUnits="userSpaceOnUse" color-interpolation-filters="sRGB">
<feFlood flood-opacity="0" result="BackgroundImageFix"/>
<feColorMatrix in="SourceAlpha" type="matrix" values="0 0 0 0 0 0 0 0 0 0 0 0 0 0 0 0 0 0 127 0" result="hardAlpha"/>
<feOffset dy="0.534162"/>
<feGaussianBlur stdDeviation="0.534162"/>
<feColorMatrix type="matrix" values="0 0 0 0 0.0627451 0 0 0 0 0.0941176 0 0 0 0 0.156863 0 0 0 0.05 0"/>
<feBlend mode="normal" in2="BackgroundImageFix" result="effect1_dropShadow_2056_31981"/>
<feBlend mode="normal" in="SourceGraphic" in2="effect1_dropShadow_2056_31981" result="shape"/>
</filter>
<clipPath id="clip0_2056_31981">
<rect width="9.61491" height="9.61491" fill="white" transform="translate(251.677 36.149)"/>
</clipPath>
</defs>
</svg>
