<svg width="15" height="12" viewBox="0 0 15 12" fill="none" xmlns="http://www.w3.org/2000/svg">
<path d="M1.41667 11.3333C1.02708 11.3333 0.693694 11.1947 0.4165 10.9175C0.139306 10.6403 0.000472222 10.3067 0 9.91667V1.41667C0 1.02708 0.138833 0.693694 0.4165 0.4165C0.694167 0.139305 1.02756 0.000472222 1.41667 0H12.75C13.1396 0 13.4732 0.138833 13.7509 0.4165C14.0285 0.694167 14.1671 1.02756 14.1667 1.41667V9.91667C14.1667 10.3062 14.0281 10.6399 13.7509 10.9175C13.4737 11.1952 13.1401 11.3338 12.75 11.3333H1.41667ZM3.89583 9.20833H10.2708C10.566 9.20833 10.817 9.10515 11.0238 8.89879C11.2306 8.69243 11.3338 8.44144 11.3333 8.14583C11.3329 7.85022 11.2297 7.59947 11.0238 7.39358C10.8179 7.18769 10.5669 7.08428 10.2708 7.08333H3.89583C3.60069 7.08333 3.34994 7.18675 3.14358 7.39358C2.93722 7.60042 2.83381 7.85117 2.83333 8.14583C2.83286 8.4405 2.93628 8.69149 3.14358 8.89879C3.35089 9.1061 3.60164 9.20928 3.89583 9.20833Z" fill="#242428"/>
</svg>
