<svg width="53" height="53" viewBox="0 0 53 53" fill="none" xmlns="http://www.w3.org/2000/svg">
<path d="M39.8994 0C46.8581 0 52.4998 5.64101 52.5 12.5996V39.9004C52.4998 46.859 46.8581 52.5 39.8994 52.5H12.5996C5.64104 52.4999 0.000204702 46.8589 0 39.9004V12.5996C0.000217441 5.64108 5.64105 0.000115223 12.5996 0H39.8994ZM32.375 10.5C29.8294 10.5228 27.3948 11.5447 25.5947 13.3447C23.7947 15.1448 22.7729 17.5794 22.75 20.125C22.803 21.8272 23.2204 23.4985 23.9746 25.0254L10.5 38.5V42H17.5V38.5H21V35H24.5L30.0996 29.4004C30.8428 29.6001 31.6061 29.7171 32.375 29.75C34.9204 29.7272 37.3552 28.7061 39.1553 26.9062C40.9554 25.1061 41.9772 22.6706 42 20.125C41.9771 17.5794 40.9553 15.1448 39.1553 13.3447C37.3552 11.5447 34.9206 10.5228 32.375 10.5ZM35 14C35.6961 14 36.3642 14.2763 36.8564 14.7686C37.3487 15.2608 37.625 15.9289 37.625 16.625C37.6073 17.3156 37.3254 17.9734 36.8369 18.4619C36.3484 18.9504 35.6906 19.2323 35 19.25C34.3094 19.2323 33.6516 18.9504 33.1631 18.4619C32.6746 17.9734 32.3927 17.3156 32.375 16.625C32.375 15.9289 32.6513 15.2608 33.1436 14.7686C33.6358 14.2763 34.3038 14 35 14Z" fill="#0004FF"/>
</svg>
