<svg width="16" height="14" viewBox="0 0 16 14" fill="none" xmlns="http://www.w3.org/2000/svg">
<path d="M6.4 10.1111V9.33333H0.808L0.8 12.4444C0.8 13.3078 1.512 14 2.4 14H13.6C14.488 14 15.2 13.3078 15.2 12.4444V9.33333H9.6V10.1111H6.4ZM14.4 3.11111H11.192V1.55556L9.592 0H6.392L4.792 1.55556V3.11111H1.6C0.72 3.11111 0 3.81111 0 4.66667V7C0 7.86333 0.712 8.55556 1.6 8.55556H6.4V7H9.6V8.55556H14.4C15.28 8.55556 16 7.85556 16 7V4.66667C16 3.81111 15.28 3.11111 14.4 3.11111ZM9.6 3.11111H6.4V1.55556H9.6V3.11111Z" fill="#676768"/>
</svg>
