<svg width="14" height="14" viewBox="0 0 14 14" fill="none" xmlns="http://www.w3.org/2000/svg">
<g clip-path="url(#clip0_2040_16179)">
<path d="M4.21085 0.765625C4.21085 0.635089 4.159 0.509899 4.06669 0.417596C3.97439 0.325293 3.8492 0.273438 3.71866 0.273438C3.58813 0.273438 3.46294 0.325293 3.37063 0.417596C3.27833 0.509899 3.22648 0.635089 3.22648 0.765625V1.8025C2.28148 1.87797 1.66198 2.06303 1.20654 2.51912C0.750445 2.97456 0.565383 3.59472 0.489258 4.53906H13.5106C13.4344 3.59406 13.2494 2.97456 12.7933 2.51912C12.3379 2.06303 11.7177 1.87797 10.7734 1.80184V0.765625C10.7734 0.635089 10.7215 0.509899 10.6292 0.417596C10.5369 0.325293 10.4117 0.273438 10.2812 0.273438C10.1506 0.273438 10.0254 0.325293 9.93313 0.417596C9.84083 0.509899 9.78898 0.635089 9.78898 0.765625V1.75853C9.35257 1.75 8.86301 1.75 8.31241 1.75H5.68741C5.13682 1.75 4.64726 1.75 4.21085 1.75853V0.765625Z" fill="#676768"/>
<path fill-rule="evenodd" clip-rule="evenodd" d="M0.4375 7C0.4375 6.44941 0.4375 5.95984 0.446031 5.52344H13.554C13.5625 5.95984 13.5625 6.44941 13.5625 7V8.3125C13.5625 10.7872 13.5625 12.0249 12.7934 12.7934C12.0242 13.5618 10.7872 13.5625 8.3125 13.5625H5.6875C3.21278 13.5625 1.97509 13.5625 1.20662 12.7934C0.438156 12.0242 0.4375 10.7872 0.4375 8.3125V7ZM10.2812 8.3125C10.4553 8.3125 10.6222 8.24336 10.7453 8.12029C10.8684 7.99722 10.9375 7.8303 10.9375 7.65625C10.9375 7.4822 10.8684 7.31528 10.7453 7.19221C10.6222 7.06914 10.4553 7 10.2812 7C10.1072 7 9.94028 7.06914 9.81721 7.19221C9.69414 7.31528 9.625 7.4822 9.625 7.65625C9.625 7.8303 9.69414 7.99722 9.81721 8.12029C9.94028 8.24336 10.1072 8.3125 10.2812 8.3125ZM10.2812 10.9375C10.4553 10.9375 10.6222 10.8684 10.7453 10.7453C10.8684 10.6222 10.9375 10.4553 10.9375 10.2812C10.9375 10.1072 10.8684 9.94028 10.7453 9.81721C10.6222 9.69414 10.4553 9.625 10.2812 9.625C10.1072 9.625 9.94028 9.69414 9.81721 9.81721C9.69414 9.94028 9.625 10.1072 9.625 10.2812C9.625 10.4553 9.69414 10.6222 9.81721 10.7453C9.94028 10.8684 10.1072 10.9375 10.2812 10.9375ZM7.65625 7.65625C7.65625 7.8303 7.58711 7.99722 7.46404 8.12029C7.34097 8.24336 7.17405 8.3125 7 8.3125C6.82595 8.3125 6.65903 8.24336 6.53596 8.12029C6.41289 7.99722 6.34375 7.8303 6.34375 7.65625C6.34375 7.4822 6.41289 7.31528 6.53596 7.19221C6.65903 7.06914 6.82595 7 7 7C7.17405 7 7.34097 7.06914 7.46404 7.19221C7.58711 7.31528 7.65625 7.4822 7.65625 7.65625ZM7.65625 10.2812C7.65625 10.4553 7.58711 10.6222 7.46404 10.7453C7.34097 10.8684 7.17405 10.9375 7 10.9375C6.82595 10.9375 6.65903 10.8684 6.53596 10.7453C6.41289 10.6222 6.34375 10.4553 6.34375 10.2812C6.34375 10.1072 6.41289 9.94028 6.53596 9.81721C6.65903 9.69414 6.82595 9.625 7 9.625C7.17405 9.625 7.34097 9.69414 7.46404 9.81721C7.58711 9.94028 7.65625 10.1072 7.65625 10.2812ZM3.71875 8.3125C3.8928 8.3125 4.05972 8.24336 4.18279 8.12029C4.30586 7.99722 4.375 7.8303 4.375 7.65625C4.375 7.4822 4.30586 7.31528 4.18279 7.19221C4.05972 7.06914 3.8928 7 3.71875 7C3.5447 7 3.37778 7.06914 3.25471 7.19221C3.13164 7.31528 3.0625 7.4822 3.0625 7.65625C3.0625 7.8303 3.13164 7.99722 3.25471 8.12029C3.37778 8.24336 3.5447 8.3125 3.71875 8.3125ZM3.71875 10.9375C3.8928 10.9375 4.05972 10.8684 4.18279 10.7453C4.30586 10.6222 4.375 10.4553 4.375 10.2812C4.375 10.1072 4.30586 9.94028 4.18279 9.81721C4.05972 9.69414 3.8928 9.625 3.71875 9.625C3.5447 9.625 3.37778 9.69414 3.25471 9.81721C3.13164 9.94028 3.0625 10.1072 3.0625 10.2812C3.0625 10.4553 3.13164 10.6222 3.25471 10.7453C3.37778 10.8684 3.5447 10.9375 3.71875 10.9375Z" fill="#676768"/>
</g>
<defs>
<clipPath id="clip0_2040_16179">
<rect width="14" height="14" fill="white"/>
</clipPath>
</defs>
</svg>
