<svg width="14" height="12" viewBox="0 0 14 12" fill="none" xmlns="http://www.w3.org/2000/svg">
<path d="M12.0909 3.6C11.9106 3.6 11.7596 3.5424 11.6378 3.4272C11.5161 3.312 11.455 3.1696 11.4545 3V2.4H10.8182C10.6379 2.4 10.4868 2.3424 10.3651 2.2272C10.2433 2.112 10.1822 1.9696 10.1818 1.8C10.1814 1.6304 10.2425 1.488 10.3651 1.3728C10.4877 1.2576 10.6387 1.2 10.8182 1.2H11.4545V0.600002C11.4545 0.430002 11.5156 0.287602 11.6378 0.172802C11.76 0.058002 11.911 0.000402069 12.0909 2.06897e-06C12.2708 -0.000397931 12.422 0.0572021 12.5446 0.172802C12.6672 0.288402 12.7281 0.430802 12.7273 0.600002V1.2H13.3636C13.5439 1.2 13.6952 1.2576 13.8174 1.3728C13.9395 1.488 14.0004 1.6304 14 1.8C13.9996 1.9696 13.9385 2.1122 13.8167 2.2278C13.695 2.3434 13.5439 2.4008 13.3636 2.4H12.7273V3C12.7273 3.17 12.6662 3.3126 12.544 3.4278C12.4218 3.543 12.2708 3.6004 12.0909 3.6ZM6.36364 9.9C7.15909 9.9 7.83533 9.6376 8.39236 9.1128C8.94939 8.588 9.2277 7.9504 9.22727 7.2C9.22685 6.4496 8.94854 5.8122 8.39236 5.2878C7.83618 4.7634 7.15994 4.5008 6.36364 4.5C5.56733 4.4992 4.8913 4.7618 4.33554 5.2878C3.77979 5.8138 3.50127 6.4512 3.5 7.2C3.49873 7.9488 3.77724 8.5864 4.33554 9.1128C4.89385 9.6392 5.56988 9.9016 6.36364 9.9ZM6.36364 8.7C5.91818 8.7 5.54167 8.555 5.23409 8.265C4.92651 7.975 4.77273 7.62 4.77273 7.2C4.77273 6.78 4.92651 6.425 5.23409 6.135C5.54167 5.845 5.91818 5.7 6.36364 5.7C6.80909 5.7 7.1856 5.845 7.49318 6.135C7.80076 6.425 7.95454 6.78 7.95454 7.2C7.95454 7.62 7.80076 7.975 7.49318 8.265C7.1856 8.555 6.80909 8.7 6.36364 8.7ZM1.27273 12C0.922727 12 0.623212 11.8826 0.374182 11.6478C0.125152 11.413 0.000424242 11.1304 0 10.8V3.6C0 3.27 0.124727 2.9876 0.374182 2.7528C0.623636 2.518 0.923151 2.4004 1.27273 2.4H3.27727L4.07273 1.59C4.18939 1.47 4.33003 1.375 4.49464 1.305C4.65924 1.235 4.83148 1.2 5.01136 1.2H8.27273C8.45303 1.2 8.60427 1.2576 8.72645 1.3728C8.84863 1.488 8.90951 1.6304 8.90909 1.8V2.7C8.90909 2.95 9.002 3.1626 9.18782 3.3378C9.37363 3.513 9.59891 3.6004 9.86363 3.6H10.1818V3.9C10.1818 4.15 10.2747 4.3626 10.4605 4.5378C10.6464 4.713 10.8716 4.8004 11.1364 4.8H12.0909C12.2712 4.8 12.4225 4.8576 12.5446 4.9728C12.6668 5.088 12.7277 5.2304 12.7273 5.4V10.8C12.7273 11.13 12.6028 11.4126 12.3537 11.6478C12.1047 11.883 11.805 12.0004 11.4545 12H1.27273Z" fill="#242428"/>
</svg>
