<svg width="16" height="16" viewBox="0 0 16 16" fill="none" xmlns="http://www.w3.org/2000/svg">
<path d="M11.9092 3.70255V2.02255C11.9091 1.75132 11.8013 1.49123 11.6094 1.29947C11.4176 1.10772 11.1575 1 10.8863 1H2.023C1.75171 1 1.49152 1.10777 1.29969 1.2996C1.10786 1.49144 1.00009 1.75162 1.00009 2.02291V10.8865C1.00018 11.1577 1.10795 11.4177 1.29969 11.6095C1.49144 11.8012 1.75147 11.909 2.02263 11.9091H3.72154" stroke="#0004FF" stroke-width="2" stroke-linecap="round" stroke-linejoin="round"/>
<path d="M4.93181 3.90918H13.7962C14.0673 3.90937 14.3273 4.01723 14.519 4.20904C14.7107 4.40085 14.8184 4.66092 14.8184 4.93209V13.7954C14.8184 14.0667 14.7106 14.3268 14.5188 14.5187C14.3269 14.7105 14.0667 14.8183 13.7955 14.8183H4.93181C4.66065 14.8182 4.40062 14.7104 4.20887 14.5187C4.01713 14.3269 3.90936 14.0669 3.90927 13.7957V4.93136C3.90946 4.66026 4.01727 4.40032 4.209 4.20865C4.40073 4.01699 4.66071 3.90928 4.93181 3.90918Z" fill="#0004FF" stroke="#0004FF" stroke-width="2" stroke-linejoin="round"/>
</svg>
