<svg width="12" height="14" viewBox="0 0 12 14" fill="none" xmlns="http://www.w3.org/2000/svg">
<path d="M9.33385 9.80048H10.6673V1.40007H4.00022V2.80014H9.33385V9.80048ZM9.33385 11.2005V13.2999C9.33385 13.6871 9.03384 14 8.66248 14H0.671371C0.583426 14.0006 0.496228 13.983 0.414801 13.9481C0.333373 13.9132 0.259324 13.8618 0.19692 13.7967C0.134516 13.7316 0.0849889 13.6542 0.0511924 13.569C0.017396 13.4837 -2.15452e-06 13.3923 2.00119e-10 13.2999L0.00133331 3.50087C0.00133331 3.11375 0.30135 2.80014 0.672704 2.80014H2.66615V0.700034C2.66615 0.514374 2.73639 0.336317 2.86142 0.205035C2.98645 0.0737534 3.15603 0 3.33285 0H11.3333C11.5101 0 11.6797 0.0737534 11.8047 0.205035C11.9298 0.336317 12 0.514374 12 0.700034V10.5005C12 10.6862 11.9298 10.8642 11.8047 10.9955C11.6797 11.1268 11.5101 11.2005 11.3333 11.2005H9.33385ZM2.66681 9.80048V11.2005H4.00022V11.9006H5.33363V11.2005H5.66698C6.10903 11.2005 6.53298 11.0162 6.84556 10.688C7.15814 10.3598 7.33374 9.91461 7.33374 9.45046C7.33374 8.98631 7.15814 8.54117 6.84556 8.21296C6.53298 7.88476 6.10903 7.70038 5.66698 7.70038H3.66687C3.57846 7.70038 3.49367 7.6635 3.43115 7.59786C3.36864 7.53222 3.33352 7.44319 3.33352 7.35036C3.33352 7.25753 3.36864 7.1685 3.43115 7.10286C3.49367 7.03722 3.57846 7.00034 3.66687 7.00034H6.66704V5.60027H5.33363V4.90024H4.00022V5.60027H3.66687C3.22482 5.60027 2.80087 5.78466 2.48829 6.11286C2.17572 6.44107 2.00011 6.88621 2.00011 7.35036C2.00011 7.81451 2.17572 8.25965 2.48829 8.58786C2.80087 8.91606 3.22482 9.10044 3.66687 9.10044H5.66698C5.75539 9.10044 5.84018 9.13732 5.9027 9.20296C5.96521 9.2686 6.00033 9.35763 6.00033 9.45046C6.00033 9.54329 5.96521 9.63232 5.9027 9.69796C5.84018 9.7636 5.75539 9.80048 5.66698 9.80048H2.66681Z" fill="#242428"/>
</svg>
