<svg width="18" height="13" viewBox="0 0 18 13" fill="none" xmlns="http://www.w3.org/2000/svg">
<path d="M11.4477 0C12.7436 0 14.0104 0.381218 15.088 1.09545C16.1655 1.80968 17.0053 2.82484 17.5012 4.01256C17.9972 5.20028 18.1269 6.50721 17.8741 7.76809C17.6213 9.02896 16.9972 10.1872 16.0809 11.0962C15.1645 12.0052 13.997 12.6243 12.726 12.8751C11.455 13.1259 10.1375 12.9972 8.94025 12.5052C7.74297 12.0132 6.71964 11.1801 5.99967 10.1112C5.27969 9.04228 4.89541 7.78558 4.89541 6.5C4.89541 4.77609 5.58574 3.12279 6.81453 1.90381C8.04332 0.684819 9.70993 0 11.4477 0ZM1.61926 6.5C1.62042 7.50717 1.93601 8.48926 2.52266 9.31129C3.1093 10.1333 3.9382 10.7549 4.89541 11.0906V12.7887C3.49322 12.4252 2.25211 11.6107 1.36631 10.4728C0.480502 9.33487 0 7.93772 0 6.5C0 5.06228 0.480502 3.66513 1.36631 2.5272C2.25211 1.38928 3.49322 0.574808 4.89541 0.21125V1.90937C3.9382 2.2451 3.1093 2.86669 2.52266 3.68871C1.93601 4.51073 1.62042 5.49283 1.61926 6.5Z" fill="#242428"/>
</svg>
