<svg width="16" height="16" viewBox="0 0 16 16" fill="none" xmlns="http://www.w3.org/2000/svg">
<g clip-path="url(#clip0_3999_21638)">
<path d="M8 0C12.4185 0 16 3.5815 16 8C16 12.4185 12.4185 16 8 16C3.5815 16 0 12.4185 0 8C0 3.5815 3.5815 0 8 0ZM8 3L7.1005 3.5275L4.65 4.9725L3.75 5.5V10.5L4.6495 11.0275L7.123 12.4725L8.0225 13L8.922 12.4725L11.3505 11.0275L12.25 10.5V5.5L11.3505 4.9725L8.8995 3.5275L8 3ZM8 5.11L10.451 6.555V9.445L8 10.89L5.549 9.445V6.555L8 5.11Z" fill="#242428"/>
</g>
<defs>
<clipPath id="clip0_3999_21638">
<rect width="16" height="16" fill="white"/>
</clipPath>
</defs>
</svg>
