<svg width="17" height="17" viewBox="0 0 17 17" fill="none" xmlns="http://www.w3.org/2000/svg">
<path d="M7.29171 2.025V5.25833C7.29086 5.66165 7.17058 6.05567 6.94604 6.3907C6.7215 6.72573 6.40276 6.98675 6.03004 7.14083C5.78275 7.24276 5.51751 7.29405 5.25004 7.29167H2.02504C1.48722 7.28946 0.972167 7.07426 0.592644 6.69318C0.213121 6.31209 3.91832e-05 5.79617 4.37001e-05 5.25833V2.03333C3.91832e-05 1.4955 0.213121 0.979573 0.592644 0.598488C0.972167 0.217403 1.48722 0.00220423 2.02504 0H5.25004C5.78904 0.00329847 6.30579 0.215373 6.69171 0.591667C7.07205 0.972199 7.28755 1.487 7.29171 2.025ZM16.25 2.03333V5.25833C16.249 5.79533 16.0364 6.31029 15.6584 6.69167C15.4722 6.88301 15.2492 7.03478 15.0029 7.13788C14.7566 7.24098 14.492 7.29329 14.225 7.29167H11.025C10.486 7.28837 9.9693 7.07629 9.58338 6.7C9.3948 6.51041 9.24548 6.28548 9.14395 6.0381C9.04242 5.79072 8.99069 5.52574 8.99171 5.25833V2.03333C8.99104 1.76647 9.04378 1.50218 9.14682 1.25602C9.24987 1.00985 9.40113 0.786801 9.59171 0.6C9.77907 0.410174 10.0022 0.259401 10.2483 0.15641C10.4943 0.0534188 10.7583 0.000256263 11.025 0H14.25C14.788 0.00435589 15.3026 0.21998 15.683 0.600364C16.0634 0.980748 16.279 1.49541 16.2834 2.03333H16.25ZM7.29171 11V14.225C7.29062 14.492 7.23694 14.7562 7.13375 15.0025C7.03055 15.2488 6.87986 15.4723 6.69027 15.6603C6.50069 15.8484 6.27592 15.9972 6.0288 16.0984C5.78169 16.1996 5.51707 16.2511 5.25004 16.25H2.02504C1.48805 16.2489 0.973087 16.0364 0.59171 15.6583C0.402639 15.4708 0.252913 15.2475 0.151312 15.0013C0.049712 14.7552 -0.00171646 14.4913 4.37001e-05 14.225V11C-0.00171646 10.7337 0.049712 10.4698 0.151312 10.2237C0.252913 9.97753 0.402639 9.75416 0.59171 9.56667C0.970886 9.18327 1.48585 8.96471 2.02504 8.95833H5.25004C5.79085 8.96053 6.30888 9.17634 6.6913 9.55875C7.07371 9.94116 7.28952 10.4592 7.29171 11ZM16.1917 12.6167C16.1896 12.7818 16.123 12.9395 16.0063 13.0562C15.8895 13.173 15.7318 13.2395 15.5667 13.2417H13.2167V15.575C13.2167 15.7408 13.1509 15.8997 13.0337 16.0169C12.9164 16.1342 12.7575 16.2 12.5917 16.2C12.4259 16.2 12.267 16.1342 12.1498 16.0169C12.0326 15.8997 11.9667 15.7408 11.9667 15.575V13.2417H9.63338C9.46762 13.2417 9.30865 13.1758 9.19143 13.0586C9.07422 12.9414 9.00838 12.7824 9.00838 12.6167C9.00838 12.4509 9.07422 12.2919 9.19143 12.1747C9.30865 12.0575 9.46762 11.9917 9.63338 11.9917H11.9667V9.64167C11.9667 9.47591 12.0326 9.31693 12.1498 9.19973C12.267 9.08251 12.4259 9.01667 12.5917 9.01667C12.7575 9.01667 12.9164 9.08251 13.0337 9.19973C13.1509 9.31693 13.2167 9.47591 13.2167 9.64167V11.9917H15.5667C15.7325 11.9917 15.8914 12.0575 16.0087 12.1747C16.1259 12.2919 16.1917 12.4509 16.1917 12.6167Z" fill="#0004FF"/>
</svg>
