<svg width="18" height="18" viewBox="0 0 18 18" fill="none" xmlns="http://www.w3.org/2000/svg">
<path d="M9 18C4.0293 18 0 13.9707 0 9C0 4.0293 4.0293 0 9 0C13.9707 0 18 4.0293 18 9C18 13.9707 13.9707 18 9 18ZM5.85 10.8V12.6H8.1V14.4H9.9V12.6H10.8C11.3967 12.6 11.969 12.3629 12.391 11.941C12.8129 11.519 13.05 10.9467 13.05 10.35C13.05 9.75326 12.8129 9.18097 12.391 8.75901C11.969 8.33705 11.3967 8.1 10.8 8.1H7.2C7.08065 8.1 6.96619 8.05259 6.8818 7.9682C6.79741 7.88381 6.75 7.76935 6.75 7.65C6.75 7.53065 6.79741 7.41619 6.8818 7.3318C6.96619 7.24741 7.08065 7.2 7.2 7.2H12.15V5.4H9.9V3.6H8.1V5.4H7.2C6.60326 5.4 6.03097 5.63705 5.60901 6.05901C5.18705 6.48097 4.95 7.05326 4.95 7.65C4.95 8.24674 5.18705 8.81903 5.60901 9.24099C6.03097 9.66295 6.60326 9.9 7.2 9.9H10.8C10.9193 9.9 11.0338 9.94741 11.1182 10.0318C11.2026 10.1162 11.25 10.2307 11.25 10.35C11.25 10.4693 11.2026 10.5838 11.1182 10.6682C11.0338 10.7526 10.9193 10.8 10.8 10.8H5.85Z" fill="#676768"/>
</svg>
