<svg width="11" height="10" viewBox="0 0 11 10" fill="none" xmlns="http://www.w3.org/2000/svg">
<path d="M10.449 6C10.5948 6 10.7357 6.05272 10.8389 6.14648C10.9419 6.24023 11 6.36751 11 6.5V8.5C11 8.89771 10.8259 9.27927 10.5166 9.56055C10.2072 9.84185 9.78665 10 9.34909 10H1.64984C1.21247 9.99987 0.792629 9.84174 0.483351 9.56055C0.174115 9.27927 0 8.89771 0 8.5V6.5C0 6.36751 0.05815 6.24023 0.161117 6.14648C0.264125 6.05283 0.404285 6.00013 0.549946 6C0.695801 6 0.836715 6.05272 0.93985 6.14648C1.04282 6.24023 1.09989 6.36751 1.09989 6.5V8.5C1.09989 8.63249 1.15804 8.75977 1.26101 8.85352C1.36402 8.94717 1.50418 8.99987 1.64984 9H9.34909C9.49494 9 9.63586 8.94728 9.73899 8.85352C9.84196 8.75977 9.90011 8.63249 9.90011 8.5V6.5C9.90011 6.36751 9.95718 6.24023 10.0602 6.14648C10.1632 6.05283 10.3033 6.00013 10.449 6Z" fill="white"/>
<path d="M5.00007 5.29689L3.8562 4.14648C3.80963 4.09984 3.75434 4.06285 3.69348 4.03761C3.63263 4.01237 3.56741 3.99938 3.50155 3.99938C3.43569 3.99938 3.37047 4.01237 3.30961 4.03761C3.24876 4.06285 3.19347 4.09984 3.1469 4.14648C3.10033 4.19311 3.06338 4.24848 3.03818 4.30941C3.01297 4.37034 3 4.43565 3 4.5016C3 4.56756 3.01297 4.63286 3.03818 4.6938C3.06338 4.75473 3.10033 4.81009 3.1469 4.85673L5.14492 6.85744C5.19243 6.90298 5.24845 6.93867 5.30976 6.96248C5.43137 7.01251 5.56778 7.01251 5.68939 6.96248C5.7507 6.93867 5.80672 6.90298 5.85422 6.85744L7.85225 4.85673C7.89906 4.81023 7.93622 4.75491 7.96158 4.69396C7.98694 4.63301 8 4.56763 8 4.5016C8 4.43557 7.98694 4.3702 7.96158 4.30925C7.93622 4.2483 7.89906 4.19297 7.85225 4.14648C7.80581 4.0996 7.75057 4.06239 7.6897 4.03699C7.62883 4.0116 7.56354 3.99853 7.4976 3.99853C7.43166 3.99853 7.36637 4.0116 7.3055 4.03699C7.24463 4.06239 7.18938 4.0996 7.14295 4.14648L5.99908 5.29689V0.500179C5.99908 0.367523 5.94645 0.240301 5.85278 0.1465C5.7591 0.0526981 5.63205 0 5.49957 0C5.3671 0 5.24005 0.0526981 5.14637 0.1465C5.05269 0.240301 5.00007 0.367523 5.00007 0.500179V5.29689Z" fill="white"/>
</svg>
