<svg width="16" height="17" viewBox="0 0 16 17" fill="none" xmlns="http://www.w3.org/2000/svg">
<path fill-rule="evenodd" clip-rule="evenodd" d="M7.83036 2.99902H1.8823C0.842329 2.99902 0 3.89535 0 4.99947V14.9998C0 16.1049 0.842329 17.0003 1.8823 17.0003H12.2349C13.2749 17.0003 14.1172 16.1049 14.1172 14.9998V7.67996L10.4336 11.594C10.1119 11.9392 9.69296 12.1777 9.23267 12.2778L6.70945 12.8143C5.06244 13.1637 3.61119 11.6214 3.94059 9.87214L4.44505 7.19071C4.53634 6.70713 4.76033 6.26227 5.08879 5.91375L7.83036 2.99902Z" fill="#676768"/>
<path fill-rule="evenodd" clip-rule="evenodd" d="M15.8541 1.24395C15.759 1.00218 15.6195 0.780482 15.4429 0.590352C15.2692 0.404407 15.0598 0.255654 14.8273 0.153049C14.5983 0.052116 14.3509 0 14.1008 0C13.8506 0 13.6032 0.052116 13.3742 0.153049C13.1417 0.255654 12.9324 0.404407 12.7587 0.590352L12.2448 1.13627L14.929 3.98866L15.4429 3.4418C15.6213 3.25311 15.7611 3.03103 15.8541 2.7882C16.048 2.29184 16.048 1.74031 15.8541 1.24395ZM13.5991 5.40258L10.914 2.54924L6.41818 7.32841C6.35185 7.39934 6.30711 7.48782 6.28924 7.58342L5.78478 10.2658C5.7189 10.6153 6.00972 10.9232 6.33818 10.8533L8.86234 10.3178C8.95418 10.2972 9.03778 10.2495 9.10234 10.1808L13.5991 5.40258Z" fill="#676768"/>
</svg>
