<svg width="18" height="12" viewBox="0 0 18 12" fill="none" xmlns="http://www.w3.org/2000/svg">
<path d="M17.1005 0.00526472C17.0239 -0.00175491 16.9466 -0.00175491 16.8699 0.00526472H1.1199C1.01896 0.00664669 0.918683 0.020095 0.821777 0.0452474L8.9499 7.23713L17.1005 0.00526472Z" fill="#676768"/>
<path d="M17.9325 0.699892L9.7425 7.94675C9.53172 8.13293 9.24658 8.23742 8.94938 8.23742C8.65217 8.23742 8.36703 8.13293 8.15625 7.94675L0.039375 0.754869C0.0144222 0.836354 0.00119176 0.92032 0 1.00476V11.0004C0 11.2655 0.118526 11.5198 0.329505 11.7072C0.540483 11.8947 0.826631 12 1.125 12H16.875C17.1734 12 17.4595 11.8947 17.6705 11.7072C17.8815 11.5198 18 11.2655 18 11.0004V1.00476C17.9955 0.900633 17.9727 0.797768 17.9325 0.699892ZM1.89563 11.0004H1.11375V10.2857L5.20312 6.6823L5.99625 7.387L1.89563 11.0004ZM16.8638 11.0004H16.0763L11.9756 7.387L12.7687 6.6823L16.8581 10.2857L16.8638 11.0004Z" fill="#676768"/>
</svg>
