<svg width="11" height="6" viewBox="0 0 11 6" fill="none" xmlns="http://www.w3.org/2000/svg">
<path fill-rule="evenodd" clip-rule="evenodd" d="M6.09427 0.229065C5.93934 0.0823946 5.72923 0 5.51015 0C5.29107 0 5.08097 0.0823946 4.92603 0.229065L0.252229 4.65489C0.173318 4.72706 0.110377 4.81339 0.0670764 4.90884C0.0237762 5.0043 0.000984475 5.10696 3.11942e-05 5.21084C-0.000922086 5.31472 0.0199824 5.41774 0.0615243 5.51389C0.103066 5.61004 0.164414 5.69739 0.241988 5.77085C0.319562 5.84431 0.411808 5.9024 0.513345 5.94174C0.614882 5.98108 0.723675 6.00087 0.833377 5.99997C0.943079 5.99907 1.05149 5.97749 1.15229 5.93648C1.25309 5.89548 1.34426 5.83588 1.42047 5.76115L5.51015 1.88846L9.59983 5.76115C9.75566 5.90367 9.96435 5.98253 10.181 5.98074C10.3976 5.97896 10.6048 5.89668 10.758 5.75162C10.9112 5.60657 10.9981 5.41034 11 5.20521C11.0019 5.00007 10.9186 4.80245 10.7681 4.65489L6.09427 0.229065Z" fill="#676768"/>
</svg>
