<svg width="11" height="6" viewBox="0 0 11 6" fill="none" xmlns="http://www.w3.org/2000/svg">
<path fill-rule="evenodd" clip-rule="evenodd" d="M6.09427 5.77093C5.93934 5.91761 5.72923 6 5.51015 6C5.29107 6 5.08097 5.91761 4.92603 5.77093L0.252229 1.34511C0.173318 1.27294 0.110377 1.18661 0.0670764 1.09116C0.0237762 0.995705 0.000984475 0.893043 3.11942e-05 0.789161C-0.000922086 0.68528 0.0199824 0.582259 0.0615243 0.486109C0.103066 0.38996 0.164414 0.302607 0.241988 0.229149C0.319562 0.15569 0.411808 0.0975976 0.513345 0.0582597C0.614882 0.0189218 0.723675 -0.000873164 0.833377 2.95397e-05C0.943079 0.000932243 1.05149 0.0225147 1.15229 0.0635176C1.25309 0.10452 1.34426 0.164122 1.42047 0.238846L5.51015 4.11154L9.59983 0.238846C9.75566 0.0963322 9.96435 0.0174745 10.181 0.019257C10.3976 0.0210396 10.6048 0.10332 10.758 0.248376C10.9112 0.393433 10.9981 0.589659 11 0.794792C11.0019 0.999925 10.9186 1.19755 10.7681 1.34511L6.09427 5.77093Z" fill="#676768"/>
</svg>
