<svg width="13" height="13" viewBox="0 0 13 13" fill="none" xmlns="http://www.w3.org/2000/svg">
<rect width="13" height="13" rx="2.4375" fill="#0004FF"/>
<path d="M10.521 7.3125C10.6396 7.3125 10.754 7.35533 10.8378 7.43152C10.9215 7.50769 10.9688 7.6111 10.9688 7.71875V9.34375C10.9688 9.66689 10.8273 9.9769 10.576 10.2054C10.3246 10.434 9.9829 10.5625 9.62738 10.5625H3.37174C3.01638 10.5624 2.67526 10.4339 2.42397 10.2054C2.17272 9.9769 2.03125 9.66689 2.03125 9.34375V7.71875C2.03125 7.6111 2.0785 7.50769 2.16216 7.43152C2.24585 7.35543 2.35973 7.3126 2.47808 7.3125C2.59659 7.3125 2.71108 7.35533 2.79488 7.43152C2.87854 7.50769 2.92491 7.6111 2.92491 7.71875V9.34375C2.92491 9.4514 2.97216 9.55481 3.05582 9.63098C3.13951 9.70707 3.25339 9.7499 3.37174 9.75H9.62738C9.74589 9.75 9.86038 9.70717 9.94418 9.63098C10.0278 9.55481 10.0751 9.4514 10.0751 9.34375V7.71875C10.0751 7.6111 10.1215 7.50769 10.2051 7.43152C10.2888 7.35543 10.4027 7.3126 10.521 7.3125Z" fill="white"/>
<path d="M6.09381 6.74122L5.16441 5.80651C5.12657 5.76862 5.08165 5.73856 5.03221 5.71806C4.98277 5.69755 4.92977 5.687 4.87626 5.687C4.82274 5.687 4.76975 5.69755 4.72031 5.71806C4.67087 5.73856 4.62595 5.76862 4.58811 5.80651C4.55027 5.8444 4.52025 5.88939 4.49977 5.9389C4.47929 5.9884 4.46875 6.04147 4.46875 6.09505C4.46875 6.14864 4.47929 6.2017 4.49977 6.25121C4.52025 6.30072 4.55027 6.3457 4.58811 6.38359L6.2115 8.00917C6.2501 8.04617 6.29561 8.07517 6.34543 8.09451C6.44424 8.13516 6.55507 8.13516 6.65388 8.09451C6.70369 8.07517 6.74921 8.04617 6.78781 8.00917L8.4112 6.38359C8.44924 6.34581 8.47943 6.30087 8.50004 6.25134C8.52064 6.20182 8.53125 6.1487 8.53125 6.09505C8.53125 6.0414 8.52064 5.98829 8.50004 5.93876C8.47943 5.88924 8.44924 5.84429 8.4112 5.80651C8.37347 5.76842 8.32858 5.73819 8.27913 5.71756C8.22967 5.69692 8.17662 5.6863 8.12305 5.6863C8.06947 5.6863 8.01642 5.69692 7.96697 5.71756C7.91751 5.73819 7.87262 5.76842 7.8349 5.80651L6.9055 6.74122V2.8439C6.9055 2.73611 6.86274 2.63274 6.78663 2.55653C6.71052 2.48032 6.60729 2.4375 6.49965 2.4375C6.39202 2.4375 6.28879 2.48032 6.21268 2.55653C6.13656 2.63274 6.09381 2.73611 6.09381 2.8439V6.74122Z" fill="white"/>
</svg>
