<svg width="13" height="13" viewBox="0 0 13 13" fill="none" xmlns="http://www.w3.org/2000/svg">
<path d="M7.4191 6.5L9.25795 4.6618C9.37992 4.53983 9.44844 4.37441 9.44844 4.20192C9.44844 4.02944 9.37992 3.86402 9.25795 3.74205C9.13598 3.62008 8.97056 3.55156 8.79807 3.55156C8.62559 3.55156 8.46017 3.62008 8.3382 3.74205L6.5 5.5809L4.6618 3.74205C4.53983 3.62008 4.37441 3.55156 4.20192 3.55156C4.02944 3.55156 3.86402 3.62008 3.74205 3.74205C3.62008 3.86402 3.55156 4.02944 3.55156 4.20192C3.55156 4.37441 3.62008 4.53983 3.74205 4.6618L5.5809 6.5L3.74205 8.3382C3.62008 8.46017 3.55156 8.62559 3.55156 8.79807C3.55156 8.97056 3.62008 9.13598 3.74205 9.25795C3.86402 9.37992 4.02944 9.44844 4.20192 9.44844C4.37441 9.44844 4.53983 9.37992 4.6618 9.25795L6.5 7.4191L8.3382 9.25795C8.46017 9.37992 8.62559 9.44844 8.79807 9.44844C8.97056 9.44844 9.13598 9.37992 9.25795 9.25795C9.37992 9.13598 9.44844 8.97056 9.44844 8.79807C9.44844 8.62559 9.37992 8.46017 9.25795 8.3382L7.4191 6.5ZM2.6 0H10.4C11.0896 0 11.7509 0.273928 12.2385 0.761522C12.7261 1.24912 13 1.91044 13 2.6V10.4C13 11.0896 12.7261 11.7509 12.2385 12.2385C11.7509 12.7261 11.0896 13 10.4 13H2.6C1.91044 13 1.24912 12.7261 0.761522 12.2385C0.273928 11.7509 0 11.0896 0 10.4V2.6C0 1.91044 0.273928 1.24912 0.761522 0.761522C1.24912 0.273928 1.91044 0 2.6 0Z" fill="#E8484A"/>
</svg>
