<svg width="14" height="14" viewBox="0 0 14 14" fill="none" xmlns="http://www.w3.org/2000/svg">
<path d="M11.7031 6.125H7.875C7.5269 6.125 7.19306 5.98672 6.94692 5.74058C6.70078 5.49444 6.5625 5.1606 6.5625 4.8125V0.984375C6.5625 0.955367 6.55098 0.927547 6.53047 0.907035C6.50995 0.886523 6.48213 0.875 6.45312 0.875H3.9375C3.47337 0.875 3.02825 1.05937 2.70006 1.38756C2.37187 1.71575 2.1875 2.16087 2.1875 2.625V11.375C2.1875 11.8391 2.37187 12.2842 2.70006 12.6124C3.02825 12.9406 3.47337 13.125 3.9375 13.125H10.0625C10.5266 13.125 10.9717 12.9406 11.2999 12.6124C11.6281 12.2842 11.8125 11.8391 11.8125 11.375V6.23438C11.8125 6.20537 11.801 6.17755 11.7805 6.15703C11.76 6.13652 11.7321 6.125 11.7031 6.125ZM9.1875 10.5H4.8125C4.69647 10.5 4.58519 10.4539 4.50314 10.3719C4.42109 10.2898 4.375 10.1785 4.375 10.0625C4.375 9.94647 4.42109 9.83519 4.50314 9.75314C4.58519 9.67109 4.69647 9.625 4.8125 9.625H9.1875C9.30353 9.625 9.41481 9.67109 9.49686 9.75314C9.57891 9.83519 9.625 9.94647 9.625 10.0625C9.625 10.1785 9.57891 10.2898 9.49686 10.3719C9.41481 10.4539 9.30353 10.5 9.1875 10.5ZM9.1875 8.3125H4.8125C4.69647 8.3125 4.58519 8.26641 4.50314 8.18436C4.42109 8.10231 4.375 7.99103 4.375 7.875C4.375 7.75897 4.42109 7.64769 4.50314 7.56564C4.58519 7.48359 4.69647 7.4375 4.8125 7.4375H9.1875C9.30353 7.4375 9.41481 7.48359 9.49686 7.56564C9.57891 7.64769 9.625 7.75897 9.625 7.875C9.625 7.99103 9.57891 8.10231 9.49686 8.18436C9.41481 8.26641 9.30353 8.3125 9.1875 8.3125Z" fill="#676768"/>
<path d="M11.463 5.15719L7.53074 1.22489C7.5231 1.21729 7.51337 1.21211 7.50279 1.21002C7.49222 1.20793 7.48125 1.20901 7.47129 1.21313C7.46133 1.21725 7.4528 1.22423 7.44679 1.23318C7.44078 1.24213 7.43755 1.25266 7.4375 1.26344V4.81293C7.4375 4.92897 7.48359 5.04025 7.56564 5.12229C7.64769 5.20434 7.75897 5.25043 7.875 5.25043H11.4245C11.4353 5.25039 11.4458 5.24716 11.4548 5.24115C11.4637 5.23513 11.4707 5.22661 11.4748 5.21664C11.4789 5.20668 11.48 5.19572 11.4779 5.18514C11.4758 5.17456 11.4706 5.16484 11.463 5.15719Z" fill="#676768"/>
</svg>
