<svg width="17" height="17" viewBox="0 0 17 17" fill="none" xmlns="http://www.w3.org/2000/svg">
<path d="M7.45964 7.08333H10.2487L9.54036 9.91667H6.7513L7.45964 7.08333ZM17 1.41667V15.5833C17 15.9591 16.8507 16.3194 16.5851 16.5851C16.3194 16.8507 15.9591 17 15.5833 17H1.41667C1.04094 17 0.680609 16.8507 0.414932 16.5851C0.149255 16.3194 0 15.9591 0 15.5833V1.41667C0 1.04094 0.149255 0.680609 0.414932 0.414932C0.680609 0.149255 1.04094 0 1.41667 0H15.5833C15.9591 0 16.3194 0.149255 16.5851 0.414932C16.8507 0.680609 17 1.04094 17 1.41667ZM15.5833 6.375C15.5833 6.18714 15.5087 6.00697 15.3759 5.87413C15.243 5.74129 15.0629 5.66667 14.875 5.66667H12.0638L12.7287 3.0051C12.7707 2.82415 12.7399 2.63395 12.643 2.47548C12.546 2.31702 12.3907 2.20298 12.2105 2.15793C12.0303 2.11287 11.8396 2.14042 11.6795 2.23462C11.5194 2.32882 11.4027 2.48215 11.3546 2.66156L10.6029 5.66667H7.8138L8.47875 3.0051C8.52071 2.82415 8.4899 2.63395 8.39297 2.47548C8.29603 2.31702 8.14073 2.20298 7.96052 2.15793C7.78031 2.11287 7.58961 2.14042 7.42951 2.23462C7.26941 2.32882 7.15272 2.48215 7.10458 2.66156L6.35286 5.66667H2.83333C2.64547 5.66667 2.4653 5.74129 2.33247 5.87413C2.19963 6.00697 2.125 6.18714 2.125 6.375C2.125 6.56286 2.19963 6.74303 2.33247 6.87587C2.4653 7.00871 2.64547 7.08333 2.83333 7.08333H5.9987L5.29036 9.91667H2.125C1.93714 9.91667 1.75697 9.99129 1.62413 10.1241C1.49129 10.257 1.41667 10.4371 1.41667 10.625C1.41667 10.8129 1.49129 10.993 1.62413 11.1259C1.75697 11.2587 1.93714 11.3333 2.125 11.3333H4.9362L4.27125 13.9949C4.22572 14.1771 4.25443 14.37 4.35107 14.531C4.4477 14.6921 4.60435 14.8082 4.78656 14.8537C4.84446 14.8683 4.90396 14.8754 4.96365 14.875C5.12145 14.8748 5.27466 14.8219 5.39897 14.7247C5.52328 14.6275 5.61158 14.4915 5.64984 14.3384L6.39714 11.3333H9.1862L8.52125 13.9949C8.47572 14.1771 8.50443 14.37 8.60107 14.531C8.6977 14.6921 8.85435 14.8082 9.03656 14.8537C9.09274 14.8678 9.15042 14.875 9.20833 14.875C9.36614 14.8748 9.51935 14.8219 9.64366 14.7247C9.76797 14.6275 9.85626 14.4915 9.89453 14.3384L10.6471 11.3333H14.1667C14.3545 11.3333 14.5347 11.2587 14.6675 11.1259C14.8004 10.993 14.875 10.8129 14.875 10.625C14.875 10.4371 14.8004 10.257 14.6675 10.1241C14.5347 9.99129 14.3545 9.91667 14.1667 9.91667H11.0013L11.7096 7.08333H14.875C15.0629 7.08333 15.243 7.00871 15.3759 6.87587C15.5087 6.74303 15.5833 6.56286 15.5833 6.375Z" fill="#242428"/>
</svg>
