<svg width="14" height="14" viewBox="0 0 14 14" fill="none" xmlns="http://www.w3.org/2000/svg">
<path d="M11.7213 11.0133C12.7634 9.80518 13.3357 8.26218 13.3333 6.66667C13.3357 5.07117 12.7634 3.52817 11.7213 2.32001L8.87267 5.16801C9.16334 5.59467 9.33334 6.11067 9.33334 6.66667C9.33334 7.22267 9.16334 7.73867 8.87267 8.16534L11.7213 11.0133ZM11.0133 11.7213C9.80518 12.7634 8.26218 13.3357 6.66667 13.3333C5.07117 13.3357 3.52817 12.7634 2.32001 11.7213L5.16801 8.87267C5.59467 9.16334 6.11067 9.33334 6.66667 9.33334C7.22267 9.33334 7.73867 9.16334 8.16534 8.87267L11.0133 11.7213ZM1.61201 11.0133L4.46067 8.16534C4.16041 7.72323 3.99992 7.20111 4.00001 6.66667C4.00001 6.11067 4.17001 5.59534 4.46067 5.16801L1.61201 2.31934C0.569752 3.52768 -0.00249374 5.07094 8.16931e-06 6.66667C-0.00233347 8.26218 0.569902 9.80518 1.61201 11.0133ZM6.66667 4.00001C6.11067 4.00001 5.59534 4.17001 5.16801 4.46067L2.31934 1.61201C3.52768 0.569752 5.07094 -0.00249374 6.66667 8.16931e-06C8.26218 -0.00233347 9.80518 0.569902 11.0133 1.61201L8.16534 4.46067C7.72323 4.16041 7.20111 3.99992 6.66667 4.00001Z" fill="#676768"/>
</svg>
