<svg width="16" height="16" viewBox="0 0 16 16" fill="none" xmlns="http://www.w3.org/2000/svg">
<path fill-rule="evenodd" clip-rule="evenodd" d="M0 8C0 3.5816 3.5816 0 8 0C12.4184 0 16 3.5816 16 8C16 12.4184 12.4184 16 8 16C3.5816 16 0 12.4184 0 8ZM6.8 4.8C6.8 4.48174 6.92643 4.17652 7.15147 3.95147C7.37652 3.72643 7.68174 3.6 8 3.6H8.008C8.32626 3.6 8.63148 3.72643 8.85653 3.95147C9.08157 4.17652 9.208 4.48174 9.208 4.8V4.808C9.208 5.12626 9.08157 5.43148 8.85653 5.65653C8.63148 5.88157 8.32626 6.008 8.008 6.008H8C7.68174 6.008 7.37652 5.88157 7.15147 5.65653C6.92643 5.43148 6.8 5.12626 6.8 4.808V4.8ZM8 7.2C8.21217 7.2 8.41566 7.28429 8.56569 7.43431C8.71571 7.58434 8.8 7.78783 8.8 8V11.2C8.8 11.4122 8.71571 11.6157 8.56569 11.7657C8.41566 11.9157 8.21217 12 8 12C7.78783 12 7.58434 11.9157 7.43431 11.7657C7.28429 11.6157 7.2 11.4122 7.2 11.2V8C7.2 7.78783 7.28429 7.58434 7.43431 7.43431C7.58434 7.28429 7.78783 7.2 8 7.2Z" fill="#676768"/>
</svg>
