<svg width="20" height="20" viewBox="0 0 20 20" fill="none" xmlns="http://www.w3.org/2000/svg">
<path d="M14.333 1.66699C16.5421 1.66699 18.333 3.45785 18.333 5.66699V14.333C18.333 16.5421 16.5421 18.333 14.333 18.333H5.66699C3.45785 18.333 1.66699 16.5421 1.66699 14.333V5.66699C1.66699 3.45785 3.45785 1.66699 5.66699 1.66699H14.333ZM11.9443 5C11.1362 5.00728 10.3634 5.33189 9.79199 5.90332C9.22058 6.47478 8.89592 7.24756 8.88867 8.05566C8.9055 8.596 9.03792 9.12664 9.27734 9.61133L5 13.8887V15H7.22266V13.8887H8.33301V12.7783H9.44434L11.2227 11C11.4584 11.0633 11.7004 11.1009 11.9443 11.1113C12.7524 11.1041 13.5252 10.7794 14.0967 10.208C14.6681 9.63655 14.9927 8.86379 15 8.05566C14.9928 7.24752 14.6681 6.47478 14.0967 5.90332C13.5252 5.33188 12.7525 5.00725 11.9443 5ZM12.7773 6.11133C12.9984 6.11133 13.2109 6.19919 13.3672 6.35547C13.5233 6.51169 13.6113 6.72347 13.6113 6.94434C13.6057 7.16358 13.5154 7.37227 13.3604 7.52734C13.2053 7.68234 12.9965 7.7727 12.7773 7.77832C12.5583 7.77259 12.3493 7.68232 12.1943 7.52734C12.0395 7.3723 11.95 7.16343 11.9443 6.94434C11.9444 6.72345 12.0323 6.51169 12.1885 6.35547C12.3446 6.1993 12.5565 6.11145 12.7773 6.11133Z" fill="#242428"/>
</svg>
