<svg width="15" height="15" viewBox="0 0 15 15" fill="none" xmlns="http://www.w3.org/2000/svg">
<path d="M13.75 0H1.25C0.918479 0 0.600537 0.131696 0.366116 0.366116C0.131696 0.600537 0 0.918479 0 1.25V13.75C0 14.0815 0.131696 14.3995 0.366116 14.6339C0.600537 14.8683 0.918479 15 1.25 15H13.75C14.0815 15 14.3995 14.8683 14.6339 14.6339C14.8683 14.3995 15 14.0815 15 13.75V1.25C15 0.918479 14.8683 0.600537 14.6339 0.366116C14.3995 0.131696 14.0815 0 13.75 0ZM6.53906 12.5383C5.84263 13.013 4.9941 13.2107 4.15957 13.0927C3.32504 12.9746 2.5646 12.5494 2.0271 11.9002C1.48961 11.251 1.21375 10.4246 1.25353 9.58269C1.29331 8.7408 1.64587 7.94406 2.24219 7.34844L4.22422 5.36641C4.85917 4.73261 5.71966 4.37665 6.6168 4.37665C7.51394 4.37665 8.37442 4.73261 9.00938 5.36641C9.35245 5.70742 9.61763 6.11866 9.78672 6.57188C9.81545 6.64882 9.82874 6.73067 9.82583 6.81275C9.82292 6.89484 9.80388 6.97554 9.76978 7.05027C9.73569 7.12499 9.6872 7.19226 9.62711 7.24825C9.56701 7.30423 9.49648 7.34784 9.41953 7.37656C9.34259 7.40529 9.26073 7.41858 9.17865 7.41567C9.09657 7.41277 9.01586 7.39372 8.94114 7.35962C8.86642 7.32553 8.79914 7.27705 8.74316 7.21695C8.68717 7.15686 8.64357 7.08632 8.61484 7.00938C8.48924 6.67514 8.28183 6.37774 8.01158 6.14439C7.74133 5.91103 7.41688 5.74918 7.06791 5.67363C6.71893 5.59808 6.35659 5.61126 6.01403 5.71195C5.67146 5.81264 5.35962 5.99763 5.10703 6.25L3.125 8.23203C2.74929 8.60775 2.52724 9.1101 2.50224 9.64085C2.47725 10.1716 2.65113 10.6926 2.98987 11.1019C3.32861 11.5113 3.80786 11.7796 4.33391 11.8544C4.85996 11.9291 5.39499 11.805 5.83437 11.5063C5.90196 11.4557 5.97908 11.4194 6.06109 11.3995C6.14309 11.3795 6.22828 11.3764 6.31152 11.3903C6.39477 11.4042 6.47433 11.4348 6.54543 11.4803C6.61652 11.5257 6.67767 11.5851 6.72519 11.6549C6.7727 11.7246 6.8056 11.8033 6.8219 11.8861C6.8382 11.9689 6.83756 12.0541 6.82003 12.1367C6.80249 12.2192 6.76841 12.2974 6.71986 12.3664C6.6713 12.4354 6.60927 12.4939 6.5375 12.5383H6.53906ZM12.7586 7.65156L10.7766 9.63359C10.4632 9.94889 10.0905 10.1989 9.67983 10.3691C9.2692 10.5392 8.82887 10.6262 8.38438 10.625C7.69584 10.6241 7.02393 10.4134 6.45822 10.0209C5.89251 9.62837 5.45987 9.07277 5.21797 8.42813C5.15995 8.27273 5.16605 8.10064 5.23491 7.94973C5.30377 7.79883 5.42976 7.68145 5.58516 7.62344C5.74056 7.56542 5.91264 7.57151 6.06355 7.64038C6.21446 7.70924 6.33183 7.83522 6.38984 7.99062C6.54235 8.39602 6.81446 8.7455 7.1701 8.99273C7.52574 9.23997 7.94812 9.37328 8.38125 9.375C8.66167 9.37581 8.93946 9.32098 9.19855 9.2137C9.45763 9.10642 9.69287 8.94881 9.89062 8.75L11.875 6.76797C12.2507 6.39225 12.4728 5.8899 12.4978 5.35915C12.5227 4.8284 12.3489 4.30741 12.0101 3.89805C11.6714 3.48869 11.1921 3.2204 10.6661 3.14563C10.14 3.07086 9.60501 3.19499 9.16563 3.49375C9.09804 3.54429 9.02092 3.58062 8.93891 3.60055C8.85691 3.62048 8.77172 3.62359 8.68847 3.6097C8.60523 3.59581 8.52567 3.56521 8.45457 3.51974C8.38348 3.47427 8.32233 3.41487 8.27481 3.34513C8.2273 3.27538 8.1944 3.19674 8.1781 3.11393C8.1618 3.03113 8.16244 2.94589 8.17997 2.86334C8.19751 2.78079 8.23159 2.70264 8.28014 2.63362C8.3287 2.5646 8.39073 2.50612 8.4625 2.46172C9.15908 1.98941 10.0066 1.79357 10.8398 1.91243C11.673 2.03129 12.432 2.45632 12.9687 3.10457C13.5054 3.75283 13.7813 4.5778 13.7426 5.41851C13.7039 6.25922 13.3534 7.05536 12.7594 7.65156H12.7586Z" fill="#676768"/>
</svg>
