<svg width="16" height="18" viewBox="0 0 16 18" fill="none" xmlns="http://www.w3.org/2000/svg">
<path d="M14.2222 7.2H15.1111C15.3469 7.2 15.573 7.29482 15.7397 7.4636C15.9064 7.63239 16 7.8613 16 8.1V17.1C16 17.3387 15.9064 17.5676 15.7397 17.7364C15.573 17.9052 15.3469 18 15.1111 18H0.888889C0.653141 18 0.427048 17.9052 0.260349 17.7364C0.0936505 17.5676 0 17.3387 0 17.1V8.1C0 7.8613 0.0936505 7.63239 0.260349 7.4636C0.427048 7.29482 0.653141 7.2 0.888889 7.2H1.77778V6.3C1.77778 4.62914 2.43333 3.02671 3.60022 1.84523C4.76712 0.663748 6.34976 0 8 0C9.65024 0 11.2329 0.663748 12.3998 1.84523C13.5667 3.02671 14.2222 4.62914 14.2222 6.3V7.2ZM12.4444 7.2V6.3C12.4444 5.10653 11.9762 3.96193 11.1427 3.11802C10.3092 2.27411 9.17874 1.8 8 1.8C6.82126 1.8 5.6908 2.27411 4.8573 3.11802C4.02381 3.96193 3.55556 5.10653 3.55556 6.3V7.2H12.4444ZM7.11111 10.8V14.4H8.88889V10.8H7.11111Z" fill="#242428"/>
</svg>
