<svg width="10" height="10" viewBox="0 0 10 10" fill="none" xmlns="http://www.w3.org/2000/svg">
<path fill-rule="evenodd" clip-rule="evenodd" d="M1.57897 0C1.1602 0 0.758582 0.158035 0.462468 0.43934C0.166355 0.720644 0 1.10218 0 1.5V8.5C0 8.89782 0.166355 9.27936 0.462468 9.56066C0.758582 9.84196 1.1602 10 1.57897 10H4.7369C5.15566 10 5.55728 9.84196 5.85339 9.56066C6.14951 9.27936 6.31586 8.89782 6.31586 8.5V1.5C6.31586 1.10218 6.14951 0.720644 5.85339 0.43934C5.55728 0.158035 5.15566 0 4.7369 0H1.57897ZM6.99639 2.6465C7.09509 2.55276 7.22894 2.50011 7.3685 2.50011C7.50807 2.50011 7.64191 2.55276 7.74061 2.6465L9.8459 4.6465C9.94457 4.74026 10 4.86742 10 5C10 5.13258 9.94457 5.25974 9.8459 5.3535L7.74061 7.3535C7.64135 7.44458 7.5084 7.49498 7.3704 7.49384C7.2324 7.4927 7.10039 7.44011 7.00281 7.34741C6.90522 7.25471 6.84987 7.1293 6.84867 6.9982C6.84747 6.8671 6.90052 6.7408 6.99639 6.6465L8.20325 5.5H3.68425C3.54466 5.5 3.41079 5.44732 3.31209 5.35355C3.21338 5.25979 3.15793 5.13261 3.15793 5C3.15793 4.86739 3.21338 4.74021 3.31209 4.64645C3.41079 4.55268 3.54466 4.5 3.68425 4.5H8.20325L6.99639 3.3535C6.89772 3.25974 6.84229 3.13258 6.84229 3C6.84229 2.86742 6.89772 2.74026 6.99639 2.6465Z" fill="#0004FF"/>
</svg>
