<svg width="19" height="19" viewBox="0 0 19 19" fill="none" xmlns="http://www.w3.org/2000/svg">
<mask id="mask0_3999_21662" style="mask-type:luminance" maskUnits="userSpaceOnUse" x="0" y="0" width="19" height="19">
<path d="M4.33301 3.46958V2.25C4.33301 1.91848 4.4647 1.60054 4.69912 1.36612C4.93354 1.1317 5.25149 1 5.58301 1H16.4163C16.7479 1 17.0658 1.1317 17.3002 1.36612C17.5346 1.60054 17.6663 1.91848 17.6663 2.25V13.0833C17.6663 13.4149 17.5346 13.7328 17.3002 13.9672C17.0658 14.2016 16.7479 14.3333 16.4163 14.3333H15.1734" stroke="white" stroke-width="2"/>
<path d="M13.9167 3.5H2.25C1.55964 3.5 1 4.05964 1 4.75V16.4167C1 17.107 1.55964 17.6667 2.25 17.6667H13.9167C14.607 17.6667 15.1667 17.107 15.1667 16.4167V4.75C15.1667 4.05964 14.607 3.5 13.9167 3.5Z" fill="white" stroke="white" stroke-width="2" stroke-linejoin="round"/>
<path d="M7.01664 8.9625L9.22164 6.66666C9.82622 6.06208 10.8204 6.075 11.4416 6.69666C12.0629 7.31833 12.0762 8.31208 11.4716 8.91666L10.6758 9.75958M4.94414 11.3112C4.73164 11.5237 4.29205 11.9487 4.29205 11.9487C3.68705 12.5533 3.67039 13.6312 4.29205 14.2529C4.91289 14.8737 5.90705 14.8875 6.51205 14.2825L8.66372 12.3292" stroke="black" stroke-width="2" stroke-linecap="round" stroke-linejoin="round"/>
<path d="M7.11002 11.137C6.83314 10.8621 6.66565 10.4958 6.63876 10.1066C6.62294 9.88823 6.65419 9.66904 6.73038 9.46381C6.80658 9.25858 6.92595 9.07211 7.08043 8.91699M8.63418 10.1091C9.25543 10.7303 9.26876 11.7245 8.66418 12.3295" stroke="black" stroke-width="2" stroke-linecap="round" stroke-linejoin="round"/>
</mask>
<g mask="url(#mask0_3999_21662)">
<path d="M-0.666992 -0.666992H19.333V19.333H-0.666992V-0.666992Z" fill="#242428"/>
</g>
</svg>
