<svg width="15" height="11" viewBox="0 0 15 11" fill="none" xmlns="http://www.w3.org/2000/svg">
<path d="M1.34615 0C0.989132 0 0.646732 0.13987 0.394279 0.388841C0.141827 0.637812 0 0.975488 0 1.32759V3.60345C0 4.33628 0.603077 4.93103 1.34615 4.93103H13.6538C14.0109 4.93103 14.3533 4.79116 14.6057 4.54219C14.8582 4.29322 15 3.95555 15 3.60345V1.32759C15 0.975488 14.8582 0.637812 14.6057 0.388841C14.3533 0.13987 14.0109 0 13.6538 0H1.34615ZM1.34615 6.06897C0.989132 6.06897 0.646732 6.20884 0.394279 6.45781C0.141827 6.70678 0 7.04445 0 7.39655V9.67241C0 10.4052 0.603077 11 1.34615 11H13.6538C14.0109 11 14.3533 10.8601 14.6057 10.6112C14.8582 10.3622 15 10.0245 15 9.67241V7.39655C15 7.04445 14.8582 6.70678 14.6057 6.45781C14.3533 6.20884 14.0109 6.06897 13.6538 6.06897H1.34615Z" fill="#676768"/>
</svg>
