<svg width="12" height="18" viewBox="0 0 12 18" fill="none" xmlns="http://www.w3.org/2000/svg">
<path d="M0.857143 0H11.1429C11.3702 0 11.5882 0.0948211 11.7489 0.263604C11.9097 0.432387 12 0.661305 12 0.9V17.1C12 17.3387 11.9097 17.5676 11.7489 17.7364C11.5882 17.9052 11.3702 18 11.1429 18H0.857143C0.629814 18 0.411797 17.9052 0.251051 17.7364C0.090306 17.5676 0 17.3387 0 17.1V0.9C0 0.661305 0.090306 0.432387 0.251051 0.263604C0.411797 0.0948211 0.629814 0 0.857143 0ZM6 13.5C5.77267 13.5 5.55465 13.5948 5.39391 13.7636C5.23316 13.9324 5.14286 14.1613 5.14286 14.4C5.14286 14.6387 5.23316 14.8676 5.39391 15.0364C5.55465 15.2052 5.77267 15.3 6 15.3C6.22733 15.3 6.44535 15.2052 6.60609 15.0364C6.76684 14.8676 6.85714 14.6387 6.85714 14.4C6.85714 14.1613 6.76684 13.9324 6.60609 13.7636C6.44535 13.5948 6.22733 13.5 6 13.5Z" fill="#676768"/>
</svg>
