<svg width="16" height="14" viewBox="0 0 16 14" fill="none" xmlns="http://www.w3.org/2000/svg">
<path d="M1.6 14C1.16 14 0.783467 13.8288 0.4704 13.4864C0.157333 13.144 0.000533333 12.7318 0 12.25V1.75C0 1.26875 0.1568 0.856916 0.4704 0.5145C0.784 0.172083 1.16053 0.000583333 1.6 0H14.4C14.84 0 15.2168 0.1715 15.5304 0.5145C15.844 0.8575 16.0005 1.26933 16 1.75V12.25C16 12.7312 15.8435 13.1434 15.5304 13.4864C15.2173 13.8294 14.8405 14.0006 14.4 14H1.6ZM3.2 11.375H12.8C13.0267 11.375 13.2168 11.291 13.3704 11.123C13.524 10.955 13.6005 10.7473 13.6 10.5C13.5995 10.2527 13.5227 10.045 13.3696 9.877C13.2165 9.709 13.0267 9.625 12.8 9.625H3.2C2.97333 9.625 2.78347 9.709 2.6304 9.877C2.47733 10.045 2.40053 10.2527 2.4 10.5C2.39947 10.7473 2.47627 10.9553 2.6304 11.1239C2.78453 11.2925 2.9744 11.3762 3.2 11.375ZM3.2 7.875H12.8C13.0267 7.875 13.2168 7.791 13.3704 7.623C13.524 7.455 13.6005 7.24733 13.6 7C13.5995 6.75267 13.5227 6.545 13.3696 6.377C13.2165 6.209 13.0267 6.125 12.8 6.125H3.2C2.97333 6.125 2.78347 6.209 2.6304 6.377C2.47733 6.545 2.40053 6.75267 2.4 7C2.39947 7.24733 2.47627 7.45529 2.6304 7.62387C2.78453 7.79246 2.9744 7.87617 3.2 7.875ZM3.2 4.375H9.6C9.82667 4.375 10.0168 4.291 10.1704 4.123C10.324 3.955 10.4005 3.74733 10.4 3.5C10.3995 3.25267 10.3227 3.045 10.1696 2.877C10.0165 2.709 9.82667 2.625 9.6 2.625H3.2C2.97333 2.625 2.78347 2.709 2.6304 2.877C2.47733 3.045 2.40053 3.25267 2.4 3.5C2.39947 3.74733 2.47627 3.95529 2.6304 4.12387C2.78453 4.29246 2.9744 4.37617 3.2 4.375Z" fill="#242428"/>
</svg>
