<svg width="20" height="20" viewBox="0 0 20 20" fill="none" xmlns="http://www.w3.org/2000/svg">
<path d="M18.75 15.1633L18.5503 15.0034C17.984 14.545 17.4883 14.0196 17.0763 13.4411C16.6262 12.6429 16.3566 11.7709 16.2836 10.8765V8.24262C16.2874 6.83802 15.7263 5.48047 14.7055 4.42503C13.6847 3.3696 12.2745 2.68894 10.7399 2.51093V1.82312C10.7399 1.63434 10.6573 1.4533 10.5103 1.31981C10.3633 1.18632 10.1639 1.11133 9.95596 1.11133C9.74803 1.11133 9.54863 1.18632 9.4016 1.31981C9.25458 1.4533 9.17198 1.63434 9.17198 1.82312V2.52159C7.65116 2.71243 6.25804 3.39721 5.25065 4.4491C4.24326 5.50098 3.68986 6.8487 3.69295 8.24262V10.8765C3.61987 11.7709 3.35031 12.6429 2.90017 13.4411C2.49548 14.0182 2.00766 14.5436 1.44966 15.0034L1.25 15.1633V16.6669H18.75V15.1633Z" fill="#242428"/>
<path d="M8.75 17.7773C8.79176 18.0853 8.94133 18.3675 9.17109 18.5717C9.40085 18.7759 9.69528 18.8885 10 18.8885C10.3047 18.8885 10.5992 18.7759 10.8289 18.5717C11.0587 18.3675 11.2082 18.0853 11.25 17.7773H8.75Z" fill="#242428"/>
</svg>
