<svg width="20" height="20" viewBox="0 0 20 20" fill="none" xmlns="http://www.w3.org/2000/svg">
<g clip-path="url(#clip0_3999_21654)">
<mask id="mask0_3999_21654" style="mask-type:luminance" maskUnits="userSpaceOnUse" x="0" y="0" width="20" height="20">
<path d="M5 4.13658V2.91699C5 2.58547 5.1317 2.26753 5.36612 2.03311C5.60054 1.79869 5.91848 1.66699 6.25 1.66699H17.0833C17.4149 1.66699 17.7328 1.79869 17.9672 2.03311C18.2016 2.26753 18.3333 2.58547 18.3333 2.91699V13.7503C18.3333 14.0818 18.2016 14.3998 17.9672 14.6342C17.7328 14.8686 17.4149 15.0003 17.0833 15.0003H15.8404" stroke="white" stroke-width="2"/>
<path d="M14.5837 4.16699H2.91699C2.22664 4.16699 1.66699 4.72664 1.66699 5.41699V17.0837C1.66699 17.774 2.22664 18.3337 2.91699 18.3337H14.5837C15.274 18.3337 15.8337 17.774 15.8337 17.0837V5.41699C15.8337 4.72664 15.274 4.16699 14.5837 4.16699Z" fill="white" stroke="white" stroke-width="2" stroke-linejoin="round"/>
<path d="M7.68363 9.62949L9.88863 7.33366C10.4932 6.72907 11.4874 6.74199 12.1086 7.36366C12.7299 7.98532 12.7432 8.97907 12.1386 9.58366L11.3428 10.4266M5.61113 11.9782C5.39863 12.1907 4.95904 12.6157 4.95904 12.6157C4.35404 13.2203 4.33738 14.2982 4.95904 14.9199C5.57988 15.5407 6.57404 15.5545 7.17904 14.9495L9.33071 12.9962" stroke="black" stroke-width="2" stroke-linecap="round" stroke-linejoin="round"/>
<path d="M7.77701 11.804C7.50013 11.529 7.33265 11.1628 7.30576 10.7736C7.28993 10.5552 7.32118 10.336 7.39738 10.1308C7.47357 9.92557 7.59294 9.7391 7.74742 9.58398M9.30117 10.7761C9.92242 11.3973 9.93576 12.3915 9.33117 12.9965" stroke="black" stroke-width="2" stroke-linecap="round" stroke-linejoin="round"/>
</mask>
<g mask="url(#mask0_3999_21654)">
<path d="M0 0H20V20H0V0Z" fill="#242428"/>
</g>
</g>
<defs>
<clipPath id="clip0_3999_21654">
<rect width="20" height="20" fill="white"/>
</clipPath>
</defs>
</svg>
