<svg width="63" height="63" viewBox="0 0 63 63" fill="none" xmlns="http://www.w3.org/2000/svg">
<mask id="mask0_4322_22151" style="mask-type:luminance" maskUnits="userSpaceOnUse" x="2" y="2" width="59" height="59">
<path d="M15.75 13.0272V9.18555C15.75 8.14126 16.1648 7.13974 16.9033 6.40131C17.6417 5.66289 18.6432 5.24805 19.6875 5.24805H53.8125C54.8568 5.24805 55.8583 5.66289 56.5967 6.40131C57.3352 7.13974 57.75 8.14126 57.75 9.18555V43.3105C57.75 44.3548 57.3352 45.3564 56.5967 46.0948C55.8583 46.8332 54.8568 47.248 53.8125 47.248H49.8973" stroke="white" stroke-width="6.3"/>
<path d="M45.9385 13.123H9.18848C7.01386 13.123 5.25098 14.8859 5.25098 17.0605V53.8105C5.25098 55.9852 7.01386 57.748 9.18848 57.748H45.9385C48.1131 57.748 49.876 55.9852 49.876 53.8105V17.0605C49.876 14.8859 48.1131 13.123 45.9385 13.123Z" fill="white" stroke="white" stroke-width="6.3" stroke-linejoin="round"/>
<path d="M24.2034 30.3328L31.1491 23.1009C33.0536 21.1965 36.1852 21.2372 38.1421 23.1954C40.0991 25.1537 40.1411 28.284 38.2366 30.1884L35.7298 32.8436M17.675 37.7314C17.0056 38.4007 15.6209 39.7395 15.6209 39.7395C13.7152 41.6439 13.6627 45.0394 15.6209 46.9976C17.5766 48.9532 20.7082 48.9965 22.6139 47.0908L29.3917 40.9378" stroke="black" stroke-width="6.3" stroke-linecap="round" stroke-linejoin="round"/>
<path d="M24.498 37.1766C23.6259 36.3105 23.0983 35.157 23.0136 33.9308C22.9637 33.243 23.0622 32.5525 23.3022 31.9061C23.5422 31.2596 23.9182 30.6722 24.4048 30.1836M29.2991 33.9387C31.2561 35.8956 31.2981 39.0272 29.3936 40.933" stroke="black" stroke-width="6.3" stroke-linecap="round" stroke-linejoin="round"/>
</mask>
<g mask="url(#mask0_4322_22151)">
<path d="M0 0H63V63H0V0Z" fill="#0004FF"/>
</g>
</svg>
