<svg width="16" height="10" viewBox="0 0 16 10" fill="none" xmlns="http://www.w3.org/2000/svg">
<path fill-rule="evenodd" clip-rule="evenodd" d="M0.4688 0.418571C-4.76837e-08 0.837143 0 1.51 0 2.85714V7.14286C0 8.49 -4.76837e-08 9.16286 0.4688 9.58143C0.9376 10 1.6912 10 3.2 10H12.8C14.3088 10 15.0624 10 15.5312 9.58143C16 9.16286 16 8.49 16 7.14286V2.85714C16 1.51 16 0.837143 15.5312 0.418571C15.0624 -4.25747e-08 14.3088 0 12.8 0H3.2C1.6912 0 0.9376 -4.25747e-08 0.4688 0.418571ZM2.4 1.42857C2.18783 1.42857 1.98434 1.50383 1.83431 1.63778C1.68429 1.77174 1.6 1.95342 1.6 2.14286C1.6 2.3323 1.68429 2.51398 1.83431 2.64793C1.98434 2.78189 2.18783 2.85714 2.4 2.85714H4C4.21217 2.85714 4.41566 2.78189 4.56569 2.64793C4.71571 2.51398 4.8 2.3323 4.8 2.14286C4.8 1.95342 4.71571 1.77174 4.56569 1.63778C4.41566 1.50383 4.21217 1.42857 4 1.42857H2.4ZM11.2 7.85714C11.2 7.6677 11.2843 7.48602 11.4343 7.35207C11.5843 7.21811 11.7878 7.14286 12 7.14286H13.6C13.8122 7.14286 14.0157 7.21811 14.1657 7.35207C14.3157 7.48602 14.4 7.6677 14.4 7.85714C14.4 8.04658 14.3157 8.22827 14.1657 8.36222C14.0157 8.49617 13.8122 8.57143 13.6 8.57143H12C11.7878 8.57143 11.5843 8.49617 11.4343 8.36222C11.2843 8.22827 11.2 8.04658 11.2 7.85714ZM8.8 5C8.8 5.18944 8.71571 5.37112 8.56569 5.50508C8.41566 5.63903 8.21217 5.71429 8 5.71429C7.78783 5.71429 7.58434 5.63903 7.43431 5.50508C7.28429 5.37112 7.2 5.18944 7.2 5C7.2 4.81056 7.28429 4.62888 7.43431 4.49492C7.58434 4.36097 7.78783 4.28571 8 4.28571C8.21217 4.28571 8.41566 4.36097 8.56569 4.49492C8.71571 4.62888 8.8 4.81056 8.8 5ZM10.4 5C10.4 5.56832 10.1471 6.11337 9.69706 6.51523C9.24697 6.91709 8.63652 7.14286 8 7.14286C7.36348 7.14286 6.75303 6.91709 6.30294 6.51523C5.85286 6.11337 5.6 5.56832 5.6 5C5.6 4.43168 5.85286 3.88663 6.30294 3.48477C6.75303 3.08291 7.36348 2.85714 8 2.85714C8.63652 2.85714 9.24697 3.08291 9.69706 3.48477C10.1471 3.88663 10.4 4.43168 10.4 5Z" fill="#242428"/>
</svg>
