<svg width="40" height="40" viewBox="0 0 40 40" fill="none" xmlns="http://www.w3.org/2000/svg">
<rect x="0.5" y="0.5" width="39" height="39" rx="5.5" stroke="#0004FF"/>
<path d="M23.5195 15.56V13.88C23.5194 13.6087 23.4116 13.3487 23.2198 13.1569C23.028 12.9651 22.7679 12.8574 22.4966 12.8574H13.6333C13.3621 12.8574 13.1019 12.9652 12.91 13.157C12.7182 13.3489 12.6104 13.609 12.6104 13.8803V22.744C12.6105 23.0151 12.7183 23.2752 12.91 23.4669C13.1018 23.6587 13.3618 23.7664 13.633 23.7665H15.3319" stroke="#0004FF" stroke-width="2" stroke-linecap="round" stroke-linejoin="round"/>
<path d="M16.5422 15.7666H25.4065C25.6777 15.7668 25.9377 15.8746 26.1294 16.0665C26.321 16.2583 26.4287 16.5183 26.4287 16.7895V25.6528C26.4287 25.9241 26.3209 26.1843 26.1291 26.3761C25.9373 26.5679 25.6771 26.6757 25.4058 26.6757H16.5422C16.271 26.6756 16.011 26.5678 15.8192 26.3761C15.6275 26.1843 15.5197 25.9243 15.5196 25.6531V16.7888C15.5198 16.5177 15.6276 16.2577 15.8194 16.0661C16.0111 15.8744 16.2711 15.7667 16.5422 15.7666Z" fill="#0004FF" stroke="#0004FF" stroke-width="2" stroke-linejoin="round"/>
</svg>
