<svg width="22" height="16" viewBox="0 0 22 16" fill="none" xmlns="http://www.w3.org/2000/svg">
<path d="M11.2391 1.91417e-06C15.4598 1.91417e-06 18.9272 3.10714 19.513 7.14285H22L17.8152 11.9047L13.6304 7.14285H16.4043C16.1367 5.9776 15.4802 4.9371 14.5421 4.19117C13.604 3.44524 12.4397 3.03793 11.2391 3.03571C9.50543 3.03571 7.975 3.88095 7.00652 5.15476L4.96196 2.83333C5.74478 1.94263 6.70992 1.22898 7.79259 0.740297C8.87526 0.251611 10.0504 -0.00080198 11.2391 1.91417e-06ZM10.7609 16C6.55217 16 3.07283 12.8928 2.48696 8.85714H0L4.18478 4.09524C5.5837 5.67857 6.97065 7.2738 8.36957 8.85714H5.59565C5.86334 10.0224 6.5198 11.0629 7.4579 11.8088C8.396 12.5547 9.56033 12.9621 10.7609 12.9643C12.4946 12.9643 14.025 12.119 14.9935 10.8452L17.038 13.1667C16.2562 14.0586 15.2913 14.773 14.2084 15.2618C13.1255 15.7506 11.9498 16.0023 10.7609 16Z" fill="#676768"/>
</svg>
