<svg width="17" height="17" viewBox="0 0 17 17" fill="none" xmlns="http://www.w3.org/2000/svg">
<path d="M13.2911 12.1188L16.8421 15.6689L15.6689 16.8421L12.1188 13.2911C10.7978 14.35 9.1548 14.926 7.4618 14.9236C3.34289 14.9236 0 11.5807 0 7.4618C0 3.34289 3.34289 0 7.4618 0C11.5807 0 14.9236 3.34289 14.9236 7.4618C14.926 9.1548 14.35 10.7978 13.2911 12.1188ZM11.628 11.5036C12.6799 10.4214 13.2675 8.97104 13.2654 7.4618C13.2654 4.25571 10.6679 1.65818 7.4618 1.65818C4.25571 1.65818 1.65818 4.25571 1.65818 7.4618C1.65818 10.6679 4.25571 13.2654 7.4618 13.2654C8.97104 13.2675 10.4214 12.6799 11.5036 11.628L11.628 11.5036Z" fill="#0004FF"/>
</svg>
