<svg width="40" height="40" viewBox="0 0 40 40" fill="none" xmlns="http://www.w3.org/2000/svg">
<rect x="0.5" y="0.5" width="39" height="39" rx="5.5" stroke="#0004FF"/>
<path d="M24.8702 23.6979L28.4212 27.248L27.248 28.4212L23.6979 24.8702C22.3769 25.9291 20.7339 26.5051 19.0409 26.5027C14.922 26.5027 11.5791 23.1598 11.5791 19.0409C11.5791 14.922 14.922 11.5791 19.0409 11.5791C23.1598 11.5791 26.5027 14.922 26.5027 19.0409C26.5051 20.7339 25.9291 22.3769 24.8702 23.6979ZM23.2071 23.0827C24.2591 22.0005 24.8466 20.5501 24.8445 19.0409C24.8445 15.8348 22.247 13.2373 19.0409 13.2373C15.8348 13.2373 13.2373 15.8348 13.2373 19.0409C13.2373 22.247 15.8348 24.8445 19.0409 24.8445C20.5501 24.8466 22.0005 24.2591 23.0827 23.2071L23.2071 23.0827Z" fill="#0004FF"/>
</svg>
