<svg width="11" height="12" viewBox="0 0 11 12" fill="none" xmlns="http://www.w3.org/2000/svg">
<path d="M6.46083 8.61677L3.48 6.99102C3.19387 7.27504 2.83006 7.46799 2.43443 7.54555C2.03879 7.62311 1.62906 7.58179 1.25687 7.42682C0.884685 7.27185 0.566711 7.01016 0.343036 6.67474C0.119361 6.33931 0 5.94518 0 5.54202C0 5.13885 0.119361 4.74472 0.343036 4.4093C0.566711 4.07387 0.884685 3.81218 1.25687 3.65721C1.62906 3.50224 2.03879 3.46093 2.43443 3.53848C2.83006 3.61604 3.19387 3.80899 3.48 4.09302L6.46083 2.46727C6.3586 1.98761 6.43244 1.48718 6.66885 1.0575C6.90525 0.62781 7.28843 0.297576 7.74831 0.127185C8.20818 -0.043205 8.71403 -0.0423658 9.17334 0.12955C9.63265 0.301465 10.0147 0.632968 10.2497 1.06344C10.4847 1.49391 10.5569 1.99458 10.453 2.47389C10.3492 2.9532 10.0763 3.37913 9.68428 3.67377C9.29223 3.96842 8.80722 4.11211 8.31794 4.07855C7.82866 4.04499 7.36781 3.83643 7.01967 3.49102L4.03883 5.11677C4.09845 5.39693 4.09845 5.68651 4.03883 5.96668L7.01967 7.59302C7.36781 7.2476 7.82866 7.03904 8.31794 7.00548C8.80722 6.97193 9.29223 7.11561 9.68428 7.41026C10.0763 7.70491 10.3492 8.13083 10.453 8.61014C10.5569 9.08945 10.4847 9.59012 10.2497 10.0206C10.0147 10.4511 9.63265 10.7826 9.17334 10.9545C8.71403 11.1264 8.20818 11.1272 7.74831 10.9568C7.28843 10.7865 6.90525 10.4562 6.66885 10.0265C6.43244 9.59685 6.3586 9.09642 6.46083 8.61677Z" fill="#0004FF"/>
</svg>
