<svg width="63" height="49" viewBox="0 0 63 49" fill="none" xmlns="http://www.w3.org/2000/svg">
<path d="M17.5 0C13.6391 0 10.5 3.13906 10.5 7V31.5C10.5 35.3609 13.6391 38.5 17.5 38.5H56C59.8609 38.5 63 35.3609 63 31.5V7C63 3.13906 59.8609 0 56 0H17.5ZM36.75 10.5C39.0706 10.5 41.2962 11.4219 42.9372 13.0628C44.5781 14.7038 45.5 16.9294 45.5 19.25C45.5 21.5706 44.5781 23.7962 42.9372 25.4372C41.2962 27.0781 39.0706 28 36.75 28C34.4294 28 32.2038 27.0781 30.5628 25.4372C28.9219 23.7962 28 21.5706 28 19.25C28 16.9294 28.9219 14.7038 30.5628 13.0628C32.2038 11.4219 34.4294 10.5 36.75 10.5ZM17.5 13.125V7.875C17.5 7.39375 17.8937 7 18.375 7H23.625C24.1062 7 24.5109 7.39375 24.4453 7.875C24.0516 11.0469 21.5359 13.5516 18.375 13.9453C17.8937 14 17.5 13.6063 17.5 13.125ZM17.5 25.375C17.5 24.8937 17.8937 24.4891 18.375 24.5547C21.5469 24.9484 24.0516 27.4641 24.4453 30.625C24.5 31.1063 24.1062 31.5 23.625 31.5H18.375C17.8937 31.5 17.5 31.1063 17.5 30.625V25.375ZM55.125 13.9453C51.9531 13.5516 49.4484 11.0359 49.0547 7.875C49 7.39375 49.3937 7 49.875 7H55.125C55.6062 7 56 7.39375 56 7.875V13.125C56 13.6063 55.6062 14.0109 55.125 13.9453ZM56 25.375V30.625C56 31.1063 55.6062 31.5 55.125 31.5H49.875C49.3937 31.5 48.9891 31.1063 49.0547 30.625C49.4484 27.4531 51.9641 24.9484 55.125 24.5547C55.6062 24.5 56 24.8937 56 25.375ZM5.25 13.125C5.25 11.6703 4.07969 10.5 2.625 10.5C1.17031 10.5 0 11.6703 0 13.125V42C0 45.8609 3.13906 49 7 49H49.875C51.3297 49 52.5 47.8297 52.5 46.375C52.5 44.9203 51.3297 43.75 49.875 43.75H7C6.0375 43.75 5.25 42.9625 5.25 42V13.125Z" fill="#0004FF"/>
</svg>
