<svg width="20" height="18" viewBox="0 0 20 18" fill="none" xmlns="http://www.w3.org/2000/svg">
<path d="M5.55556 1.11133C4.32986 1.11133 3.33333 2.10786 3.33333 3.33355V11.1113C3.33333 12.337 4.32986 13.3336 5.55556 13.3336H17.7778C19.0035 13.3336 20 12.337 20 11.1113V3.33355C20 2.10786 19.0035 1.11133 17.7778 1.11133H5.55556ZM11.6667 4.44466C12.4034 4.44466 13.1099 4.73732 13.6309 5.25825C14.1518 5.77919 14.4444 6.48573 14.4444 7.22244C14.4444 7.95915 14.1518 8.66569 13.6309 9.18663C13.1099 9.70756 12.4034 10.0002 11.6667 10.0002C10.93 10.0002 10.2234 9.70756 9.70248 9.18663C9.18155 8.66569 8.88889 7.95915 8.88889 7.22244C8.88889 6.48573 9.18155 5.77919 9.70248 5.25825C10.2234 4.73732 10.93 4.44466 11.6667 4.44466ZM5.55556 5.278V3.61133C5.55556 3.45855 5.68056 3.33355 5.83333 3.33355H7.5C7.65278 3.33355 7.78125 3.45855 7.76042 3.61133C7.63542 4.61827 6.83681 5.41341 5.83333 5.53841C5.68056 5.55577 5.55556 5.43077 5.55556 5.278ZM5.55556 9.16688C5.55556 9.01411 5.68056 8.88563 5.83333 8.90647C6.84028 9.03147 7.63542 9.83008 7.76042 10.8336C7.77778 10.9863 7.65278 11.1113 7.5 11.1113H5.83333C5.68056 11.1113 5.55556 10.9863 5.55556 10.8336V9.16688ZM17.5 5.53841C16.4931 5.41341 15.6979 4.6148 15.5729 3.61133C15.5556 3.45855 15.6806 3.33355 15.8333 3.33355H17.5C17.6528 3.33355 17.7778 3.45855 17.7778 3.61133V5.278C17.7778 5.43077 17.6528 5.55925 17.5 5.53841ZM17.7778 9.16688V10.8336C17.7778 10.9863 17.6528 11.1113 17.5 11.1113H15.8333C15.6806 11.1113 15.5521 10.9863 15.5729 10.8336C15.6979 9.82661 16.4965 9.03147 17.5 8.90647C17.6528 8.88911 17.7778 9.01411 17.7778 9.16688ZM1.66667 5.278C1.66667 4.81619 1.29514 4.44466 0.833333 4.44466C0.371528 4.44466 0 4.81619 0 5.278V14.4447C0 15.6704 0.996528 16.6669 2.22222 16.6669H15.8333C16.2951 16.6669 16.6667 16.2954 16.6667 15.8336C16.6667 15.3717 16.2951 15.0002 15.8333 15.0002H2.22222C1.91667 15.0002 1.66667 14.7502 1.66667 14.4447V5.278Z" fill="#242428"/>
</svg>
