<svg width="17" height="14" viewBox="0 0 17 14" fill="none" xmlns="http://www.w3.org/2000/svg">
<path d="M4.72222 0C3.68038 0 2.83333 0.896875 2.83333 2V9C2.83333 10.1031 3.68038 11 4.72222 11H15.1111C16.153 11 17 10.1031 17 9V2C17 0.896875 16.153 0 15.1111 0H4.72222ZM9.91667 3C10.5429 3 11.1434 3.26339 11.5862 3.73223C12.029 4.20107 12.2778 4.83696 12.2778 5.5C12.2778 6.16304 12.029 6.79893 11.5862 7.26777C11.1434 7.73661 10.5429 8 9.91667 8C9.29046 8 8.6899 7.73661 8.24711 7.26777C7.80431 6.79893 7.55556 6.16304 7.55556 5.5C7.55556 4.83696 7.80431 4.20107 8.24711 3.73223C8.6899 3.26339 9.29046 3 9.91667 3ZM4.72222 3.75V2.25C4.72222 2.1125 4.82847 2 4.95833 2H6.375C6.50486 2 6.61406 2.1125 6.59635 2.25C6.4901 3.15625 5.81128 3.87188 4.95833 3.98438C4.82847 4 4.72222 3.8875 4.72222 3.75ZM4.72222 7.25C4.72222 7.1125 4.82847 6.99687 4.95833 7.01562C5.81424 7.12813 6.4901 7.84688 6.59635 8.75C6.61111 8.8875 6.50486 9 6.375 9H4.95833C4.82847 9 4.72222 8.8875 4.72222 8.75V7.25ZM14.875 3.98438C14.0191 3.87188 13.3432 3.15313 13.237 2.25C13.2222 2.1125 13.3285 2 13.4583 2H14.875C15.0049 2 15.1111 2.1125 15.1111 2.25V3.75C15.1111 3.8875 15.0049 4.00313 14.875 3.98438ZM15.1111 7.25V8.75C15.1111 8.8875 15.0049 9 14.875 9H13.4583C13.3285 9 13.2193 8.8875 13.237 8.75C13.3432 7.84375 14.022 7.12813 14.875 7.01562C15.0049 7 15.1111 7.1125 15.1111 7.25ZM1.41667 3.75C1.41667 3.33437 1.10087 3 0.708333 3C0.315799 3 0 3.33437 0 3.75V12C0 13.1031 0.847049 14 1.88889 14H13.4583C13.8509 14 14.1667 13.6656 14.1667 13.25C14.1667 12.8344 13.8509 12.5 13.4583 12.5H1.88889C1.62917 12.5 1.41667 12.275 1.41667 12V3.75Z" fill="#676768"/>
</svg>
