<svg width="12" height="12" viewBox="0 0 12 12" fill="none" xmlns="http://www.w3.org/2000/svg">
<path d="M4.8 2.4H7.2C7.2 2.08174 7.07357 1.77652 6.84853 1.55147C6.62348 1.32643 6.31826 1.2 6 1.2C5.68174 1.2 5.37652 1.32643 5.15147 1.55147C4.92643 1.77652 4.8 2.08174 4.8 2.4ZM3.6 2.4C3.6 1.76348 3.85286 1.15303 4.30294 0.702944C4.75303 0.252856 5.36348 0 6 0C6.63652 0 7.24697 0.252856 7.69706 0.702944C8.14714 1.15303 8.4 1.76348 8.4 2.4H11.4C11.5591 2.4 11.7117 2.46321 11.8243 2.57574C11.9368 2.68826 12 2.84087 12 3C12 3.15913 11.9368 3.31174 11.8243 3.42426C11.7117 3.53679 11.5591 3.6 11.4 3.6H10.8708L10.3392 9.804C10.2881 10.4031 10.014 10.9612 9.57111 11.3678C9.12823 11.7745 8.54885 12.0001 7.9476 12H4.0524C3.45115 12.0001 2.87176 11.7745 2.42889 11.3678C1.98601 10.9612 1.71191 10.4031 1.6608 9.804L1.1292 3.6H0.6C0.44087 3.6 0.288258 3.53679 0.175736 3.42426C0.0632141 3.31174 0 3.15913 0 3C0 2.84087 0.0632141 2.68826 0.175736 2.57574C0.288258 2.46321 0.44087 2.4 0.6 2.4H3.6ZM7.8 6C7.8 5.84087 7.73679 5.68826 7.62426 5.57574C7.51174 5.46321 7.35913 5.4 7.2 5.4C7.04087 5.4 6.88826 5.46321 6.77574 5.57574C6.66321 5.68826 6.6 5.84087 6.6 6V8.4C6.6 8.55913 6.66321 8.71174 6.77574 8.82426C6.88826 8.93679 7.04087 9 7.2 9C7.35913 9 7.51174 8.93679 7.62426 8.82426C7.73679 8.71174 7.8 8.55913 7.8 8.4V6ZM4.8 5.4C4.64087 5.4 4.48826 5.46321 4.37574 5.57574C4.26321 5.68826 4.2 5.84087 4.2 6V8.4C4.2 8.55913 4.26321 8.71174 4.37574 8.82426C4.48826 8.93679 4.64087 9 4.8 9C4.95913 9 5.11174 8.93679 5.22426 8.82426C5.33679 8.71174 5.4 8.55913 5.4 8.4V6C5.4 5.84087 5.33679 5.68826 5.22426 5.57574C5.11174 5.46321 4.95913 5.4 4.8 5.4Z" fill="#676768"/>
</svg>
