<svg width="16" height="16" viewBox="0 0 16 16" fill="none" xmlns="http://www.w3.org/2000/svg">
<path d="M8 16C3.5816 16 0 12.4184 0 8C0 3.5816 3.5816 0 8 0C12.4184 0 16 3.5816 16 8C16 12.4184 12.4184 16 8 16ZM5.2 9.6V11.2H7.2V12.8H8.8V11.2H9.6C10.1304 11.2 10.6391 10.9893 11.0142 10.6142C11.3893 10.2391 11.6 9.73043 11.6 9.2C11.6 8.66957 11.3893 8.16086 11.0142 7.78579C10.6391 7.41071 10.1304 7.2 9.6 7.2H6.4C6.29391 7.2 6.19217 7.15786 6.11716 7.08284C6.04214 7.00783 6 6.90609 6 6.8C6 6.69391 6.04214 6.59217 6.11716 6.51716C6.19217 6.44214 6.29391 6.4 6.4 6.4H10.8V4.8H8.8V3.2H7.2V4.8H6.4C5.86957 4.8 5.36086 5.01071 4.98579 5.38579C4.61071 5.76086 4.4 6.26957 4.4 6.8C4.4 7.33043 4.61071 7.83914 4.98579 8.21421C5.36086 8.58929 5.86957 8.8 6.4 8.8H9.6C9.70609 8.8 9.80783 8.84214 9.88284 8.91716C9.95786 8.99217 10 9.09391 10 9.2C10 9.30609 9.95786 9.40783 9.88284 9.48284C9.80783 9.55786 9.70609 9.6 9.6 9.6H5.2Z" fill="#242428"/>
</svg>
