<svg width="52" height="52" viewBox="0 0 52 52" fill="none" xmlns="http://www.w3.org/2000/svg">
<path d="M8.87315e-06 5.90625C8.87315e-06 4.33981 0.622273 2.83754 1.72991 1.7299C2.83755 0.622264 4.33982 0 5.90626 0H38.8828C40.5798 0 42.2073 0.674119 43.4072 1.87406C44.6071 3.074 45.2813 4.70147 45.2813 6.39844V8.379C48.7226 9.59569 51.1875 12.8776 51.1875 16.7344V42.3281C51.1875 44.6778 50.2541 46.9312 48.5927 48.5926C46.9312 50.2541 44.6778 51.1875 42.3281 51.1875H8.85938C6.50973 51.1875 4.25631 50.2541 2.59486 48.5926C0.933405 46.9312 8.87315e-06 44.6778 8.87315e-06 42.3281V6.39844H0.0196964C0.00629233 6.23472 -0.000275863 6.07051 8.87315e-06 5.90625ZM41.3438 6.39844C41.3438 5.04 40.2413 3.9375 38.8828 3.9375H5.90626C5.38411 3.9375 4.88336 4.14492 4.51414 4.51413C4.14493 4.88335 3.93751 5.3841 3.93751 5.90625C3.93751 6.42839 4.14493 6.92915 4.51414 7.29837C4.88336 7.66758 5.38411 7.875 5.90626 7.875H41.3438V6.39844ZM35.4375 29.5312C34.9154 29.5312 34.4146 29.7387 34.0454 30.1079C33.6762 30.4771 33.4688 30.9779 33.4688 31.5C33.4688 32.0221 33.6762 32.5229 34.0454 32.8921C34.4146 33.2613 34.9154 33.4687 35.4375 33.4687H41.3438C41.8659 33.4687 42.3667 33.2613 42.7359 32.8921C43.1051 32.5229 43.3125 32.0221 43.3125 31.5C43.3125 30.9779 43.1051 30.4771 42.7359 30.1079C42.3667 29.7387 41.8659 29.5312 41.3438 29.5312H35.4375Z" fill="#0004FF"/>
</svg>
