<svg width="20" height="20" viewBox="0 0 20 20" fill="none" xmlns="http://www.w3.org/2000/svg">
<path d="M1.875 3.75C1.875 3.25272 2.07255 2.77581 2.42418 2.42417C2.77581 2.07254 3.25272 1.875 3.75 1.875H14.2188C14.7575 1.875 15.2741 2.08901 15.6551 2.46994C16.036 2.85087 16.25 3.36753 16.25 3.90625V4.535C17.3425 4.92125 18.125 5.96313 18.125 7.1875V15.3125C18.125 16.0584 17.8287 16.7738 17.3012 17.3012C16.7738 17.8287 16.0584 18.125 15.3125 18.125H4.6875C3.94158 18.125 3.22621 17.8287 2.69877 17.3012C2.17132 16.7738 1.875 16.0584 1.875 15.3125V3.90625H1.88125C1.877 3.85428 1.87491 3.80215 1.875 3.75ZM15 3.90625C15 3.475 14.65 3.125 14.2188 3.125H3.75C3.58424 3.125 3.42527 3.19085 3.30806 3.30806C3.19085 3.42527 3.125 3.58424 3.125 3.75C3.125 3.91576 3.19085 4.07473 3.30806 4.19194C3.42527 4.30915 3.58424 4.375 3.75 4.375H15V3.90625ZM13.125 11.25C12.9592 11.25 12.8003 11.3158 12.6831 11.4331C12.5659 11.5503 12.5 11.7092 12.5 11.875C12.5 12.0408 12.5659 12.1997 12.6831 12.3169C12.8003 12.4342 12.9592 12.5 13.125 12.5H15C15.1658 12.5 15.3247 12.4342 15.4419 12.3169C15.5592 12.1997 15.625 12.0408 15.625 11.875C15.625 11.7092 15.5592 11.5503 15.4419 11.4331C15.3247 11.3158 15.1658 11.25 15 11.25H13.125Z" fill="#242428"/>
</svg>
